# 3ds Max Wavefront OBJ Exporter v0.97b - (c)2007 guruware
# File Created: 24.05.2015 12:00:34

#
# object Archway_Overlay_105x205_Arch_B
#

v  59.345631 274.759705 38.869213
v  71.188858 249.758682 37.386482
v  71.659500 250.858566 52.027397
v  59.791527 276.136993 52.031979
v  82.503128 287.767731 59.362793
v  98.529068 250.943115 60.179527
v  87.852562 292.946167 64.412231
v  104.265442 250.976700 65.795532
v  108.109032 251.003799 53.680180
v  92.791634 293.513123 53.519123
v  106.696815 250.993240 39.898647
v  90.830948 292.384094 41.127945
v  32.568268 297.796997 52.032574
v  32.344864 296.221436 38.869205
v  43.531487 320.017365 59.362778
v  46.366371 327.919128 64.412224
v  49.135025 331.066071 53.519112
v  48.009399 328.893921 41.127930
v  -1.267464 305.453156 52.032566
v  -1.245987 303.806610 38.869198
v  -2.433052 331.398926 59.362770
v  -2.720810 340.354553 64.412209
v  -2.997658 344.522705 53.519096
v  -2.885910 341.925507 41.127918
v  -34.606079 297.510376 52.032558
v  -34.342987 295.934875 38.869190
v  -47.694809 319.638947 59.362759
v  -51.033386 327.558136 64.412201
v  -54.310349 330.646820 53.519089
v  -52.983582 328.483215 41.127911
v  -60.836365 275.610077 52.031845
v  -60.235809 274.234985 38.869186
v  -84.723618 287.007080 59.362751
v  -90.476791 292.193542 64.412193
v  -95.834732 292.636383 53.519081
v  -93.707504 291.530823 41.127899
v  -70.424225 251.547012 52.021091
v  -69.762726 250.454727 35.753738
v  -98.023895 252.543121 61.078819
v  -103.805481 252.509338 67.318703
v  -107.956223 252.480240 53.857452
v  -106.475937 252.491211 38.544956
v  74.616470 249.159790 41.918167
v  75.223724 249.162048 50.240837
v  98.844948 249.303726 56.630993
v  102.023209 249.330154 56.696342
v  103.602676 249.349457 53.187977
v  102.408424 249.341934 43.655750
v  -73.489471 249.336685 50.603260
v  -73.072510 249.338379 41.918125
v  -98.607712 249.191666 58.822952
v  -101.091171 249.164932 58.465954
v  -103.125137 249.144196 53.187920
v  -101.884552 249.152008 43.655697
# 54 vertices

vn -0.527587 -0.389412 -0.754990
vn -0.439097 -0.626042 -0.644411
vn -0.574649 -0.601240 0.555238
vn -0.570201 -0.462534 0.678920
vn -0.368538 -0.256193 0.893614
vn -0.361570 -0.680921 0.636878
vn 0.318526 0.239719 0.917102
vn 0.347038 -0.436960 0.829838
vn 0.915150 -0.389738 0.102977
vn 0.824048 0.557187 0.102410
vn 0.685495 -0.382428 -0.619553
vn 0.578135 0.421594 -0.698584
vn -0.313477 -0.657144 0.685488
vn -0.289894 -0.597712 -0.747464
vn -0.193957 -0.372762 0.907430
vn 0.188953 0.374085 0.907941
vn 0.464412 0.882282 0.076814
vn 0.324720 0.624158 -0.710622
vn 0.004516 -0.720636 0.693299
vn 0.004740 -0.668273 -0.743901
vn 0.002836 -0.400826 0.916150
vn 0.000467 0.438070 0.898941
vn -0.008345 0.997098 0.075676
vn -0.002568 0.703345 -0.710844
vn 0.321980 -0.648987 0.689308
vn 0.300848 -0.591731 -0.747894
vn 0.197544 -0.360029 0.911787
vn -0.194098 0.375218 0.906387
vn -0.485884 0.869878 0.085024
vn -0.335605 0.616399 -0.712336
vn 0.590202 -0.428551 0.684110
vn 0.557407 -0.351218 -0.752292
vn 0.385217 -0.214883 0.897459
vn -0.322389 0.249826 0.913046
vn -0.844524 0.523232 0.114048
vn -0.589820 0.406469 -0.697779
vn 0.632412 -0.533025 0.562084
vn 0.457024 -0.578497 -0.675626
vn 0.443865 -0.468011 0.764166
vn -0.321552 -0.395433 0.860371
vn -0.944756 -0.309965 0.106574
vn -0.677224 -0.336724 -0.654206
vn -0.115877 -0.993017 -0.022142
vn -0.193017 -0.959063 0.207226
vn -0.026598 -0.973447 0.227363
vn 0.093419 -0.985873 0.139019
vn 0.203306 -0.978578 0.032421
vn 0.138265 -0.980115 -0.142327
vn 0.271154 -0.919071 0.285978
vn 0.130551 -0.988410 -0.077471
vn 0.036486 -0.857196 0.513696
vn -0.147932 -0.948186 0.281174
vn -0.330463 -0.942973 0.039953
vn -0.221014 -0.949448 -0.222939
# 54 vertex normals

vt 0.706351 0.166134 0.500795
vt 0.790620 0.153650 -0.503160
vt 0.792412 0.198786 -0.503160
vt 0.706914 0.206850 -0.503160
vt 0.754264 0.574988 -0.375151
vt 0.684691 0.532506 -0.375151
vt 0.726915 0.457876 -0.375151
vt 0.813268 0.466320 -0.375151
vt 0.773038 0.595113 -0.375151
vt 0.837466 0.472569 -0.375151
vt 0.823675 0.763870 -0.319052
vt 0.964331 0.754705 -0.319052
vt 0.968166 0.792850 -0.319052
vt 0.831624 0.799666 -0.319052
vt 0.970489 0.834668 -0.319052
vt 0.832087 0.838250 -0.319052
vt 0.312231 0.304949 -0.392228
vt 0.214223 0.357416 -0.392228
vt 0.167986 0.229139 0.362836
vt 0.277486 0.227183 -0.392228
vt 0.600067 0.212425 -0.503160
vt 0.600444 0.171653 -0.503160
vt 0.629472 0.667131 -0.375151
vt 0.597385 0.594479 -0.375151
vt 0.638930 0.695688 -0.375151
vt 0.656992 0.799578 -0.319052
vt 0.653835 0.763925 -0.319052
vt 0.657134 0.838386 -0.319052
vt 0.393951 0.372556 -0.392228
vt 0.343686 0.472238 -0.392228
vt 0.493950 0.212429 -0.503160
vt 0.493986 0.171651 -0.503160
vt 0.487552 0.697749 -0.375151
vt 0.492591 0.614953 -0.375151
vt 0.486101 0.729301 -0.375151
vt 0.493877 0.799578 -0.319052
vt 0.494614 0.763862 -0.319052
vt 0.494181 0.838455 -0.319052
vt 0.496741 0.397979 -0.392228
vt 0.499350 0.515484 -0.392228
vt 0.389123 0.212426 -0.503160
vt 0.388808 0.171652 -0.503160
vt 0.348964 0.661060 -0.375151
vt 0.390088 0.589913 -0.375151
vt 0.336941 0.689213 -0.375151
vt 0.332971 0.799622 -0.319052
vt 0.337251 0.763765 -0.319052
vt 0.333245 0.838464 -0.319052
vt 0.598999 0.375923 -0.392228
vt 0.654244 0.477412 -0.392228
vt 0.284184 0.206783 -0.503160
vt 0.285084 0.166055 0.503160
vt 0.233390 0.563422 -0.375151
vt 0.307966 0.524083 -0.375151
vt 0.212685 0.582648 -0.375151
vt 0.162553 0.799750 -0.319052
vt 0.170923 0.763611 -0.319052
vt 0.162187 0.838351 -0.319052
vt 0.680074 0.310961 -0.392228
vt 0.781933 0.366559 -0.392228
vt 0.204945 0.198648 -0.503160
vt 0.207685 0.148547 -0.503160
vt 0.186032 0.460018 -0.375151
vt 0.275326 0.451476 -0.375151
vt 0.160200 0.464874 -0.375151
vt 0.036060 0.793049 -0.319052
vt 0.039927 0.750681 -0.319052
vt 0.033736 0.839578 -0.319052
vt 0.823656 0.247114 0.392228
vt 0.710685 0.237810 -0.392228
vt 0.930081 0.098184 -0.380273
vt 0.928783 0.079853 -0.380273
vt 0.937425 0.075925 -0.380273
vt 0.937578 0.108258 0.380273
vt 0.736553 0.448947 -0.375151
vt 0.810909 0.454294 -0.375151
vt 0.819057 0.450510 0.363612
vt 0.982428 0.778691 -0.319052
vt 0.981860 0.791925 0.309389
vt 0.985443 0.822690 -0.319052
vt 0.869023 0.094180 -0.380273
vt 0.859468 0.102862 -0.380273
vt 0.068529 0.069504 -0.374561
vt 0.067646 0.088711 -0.374561
vt 0.060341 0.102472 0.374561
vt 0.060286 0.066472 -0.374561
vt 0.186586 0.447489 -0.375151
vt 0.267172 0.442332 -0.375151
vt 0.181235 0.443868 0.375151
vt 0.018869 0.773649 -0.319052
vt 0.018920 0.792532 0.319052
vt 0.015638 0.823418 -0.319052
vt 0.130873 0.084360 -0.374561
vt 0.141285 0.096904 -0.374561
vt 0.123704 0.051211 0.363548
vt 0.129146 0.051902 -0.374561
vt 0.133617 0.063503 -0.374561
vt 0.876852 0.065727 0.373624
vt 0.866396 0.073262 -0.380273
vt 0.869868 0.065550 -0.380273
# 100 texture coords

g Archway_Overlay_105x205_Arch_B
s 1
f 1/1/1 2/2/2 3/3/3 4/4/4 
f 5/5/5 4/6/4 3/7/3 6/8/6 
f 7/9/7 5/5/5 6/8/6 8/10/8 
f 7/11/7 8/12/8 9/13/9 10/14/10 
f 10/14/10 9/13/9 11/15/11 12/16/12 
f 1/17/1 12/18/12 11/19/11 2/20/2 
f 1/1/1 4/4/4 13/21/13 14/22/14 
f 4/6/4 5/5/5 15/23/15 13/24/13 
f 5/5/5 7/9/7 16/25/16 15/23/15 
f 7/11/7 10/14/10 17/26/17 16/27/16 
f 10/14/10 12/16/12 18/28/18 17/26/17 
f 12/18/12 1/17/1 14/29/14 18/30/18 
f 14/22/14 13/21/13 19/31/19 20/32/20 
f 13/24/13 15/23/15 21/33/21 19/34/19 
f 15/23/15 16/25/16 22/35/22 21/33/21 
f 16/27/16 17/26/17 23/36/23 22/37/22 
f 17/26/17 18/28/18 24/38/24 23/36/23 
f 18/30/18 14/29/14 20/39/20 24/40/24 
f 20/32/20 19/31/19 25/41/25 26/42/26 
f 19/34/19 21/33/21 27/43/27 25/44/25 
f 21/33/21 22/35/22 28/45/28 27/43/27 
f 22/37/22 23/36/23 29/46/29 28/47/28 
f 23/36/23 24/38/24 30/48/30 29/46/29 
f 24/40/24 20/39/20 26/49/26 30/50/30 
f 26/42/26 25/41/25 31/51/31 32/52/32 
f 25/44/25 27/43/27 33/53/33 31/54/31 
f 27/43/27 28/45/28 34/55/34 33/53/33 
f 28/47/28 29/46/29 35/56/35 34/57/34 
f 29/46/29 30/48/30 36/58/36 35/56/35 
f 30/50/30 26/49/26 32/59/32 36/60/36 
f 32/52/32 31/51/31 37/61/37 38/62/38 
f 31/54/31 33/53/33 39/63/39 37/64/37 
f 33/53/33 34/55/34 40/65/40 39/63/39 
f 34/57/34 35/56/35 41/66/41 40/67/40 
f 35/56/35 36/58/36 42/68/42 41/66/41 
f 42/69/42 36/60/36 32/59/32 38/70/38 
f 43/71/43 44/72/44 3/73/3 2/74/2 
f 44/75/44 45/76/45 6/8/6 3/7/3 
f 46/77/46 8/10/8 6/8/6 45/76/45 
f 46/78/46 47/79/47 9/13/9 8/12/8 
f 47/79/47 48/80/48 11/15/11 9/13/9 
f 48/81/48 43/71/43 2/74/2 11/82/11 
f 49/83/49 50/84/50 38/85/38 37/86/37 
f 51/87/51 49/88/49 37/64/37 39/63/39 
f 52/89/52 51/87/51 39/63/39 40/65/40 
f 52/90/52 40/67/40 41/66/41 53/91/53 
f 54/92/54 53/91/53 41/66/41 42/68/42 
f 50/84/50 54/93/54 42/94/42 38/85/38 
f 51/95/51 52/96/52 53/97/53 54/93/54 
f 49/83/49 51/95/51 54/93/54 50/84/50 
f 44/72/44 43/71/43 48/81/48 45/98/45 
f 47/99/47 46/100/46 45/98/45 48/81/48 
# 52 polygons

