# 3ds Max Wavefront OBJ Exporter v0.97b - (c)2007 guruware
# File Created: 24.05.2015 12:00:36

#
# object Archway_Overlay_105x205_Sides_A
#

v  72.109367 142.415848 60.652405
v  71.899315 142.404373 40.158718
v  71.884354 117.711601 40.172607
v  72.094421 117.722977 60.666298
v  74.342072 142.401871 37.885021
v  104.663025 142.386459 37.625652
v  104.648048 117.693596 37.639545
v  74.327095 117.709084 37.898911
v  104.896172 142.399170 60.371944
v  104.881203 117.706245 60.385838
v  102.453438 142.401672 62.645641
v  74.598312 142.415848 62.883919
v  74.583344 117.722977 62.897812
v  102.438454 117.708755 62.659534
v  104.580200 -0.015409 37.702724
v  104.813339 -0.002700 60.449020
v  102.370621 -0.000198 62.722717
v  72.026550 0.013935 60.729485
v  74.515488 0.013935 62.960999
v  74.259232 0.000005 37.962093
v  71.816483 0.002523 40.235790
v  102.288177 249.320480 39.836170
v  75.454445 249.334122 40.065708
v  74.442627 249.335159 41.007504
v  75.664513 249.345566 60.559391
v  74.633560 249.345566 59.635067
v  101.476868 249.332413 60.338589
v  102.488670 249.331375 59.396797
v  -105.226196 117.719597 37.642246
v  -105.454361 117.709595 60.388584
v  -105.440842 137.014038 60.401112
v  -105.212685 137.024338 37.654774
v  -103.008354 117.707825 62.661812
v  -75.121941 117.699059 62.894714
v  -75.108429 137.002548 62.907242
v  -102.994835 137.012161 62.674339
v  -72.630745 117.699280 60.662724
v  -72.425194 117.708267 40.168995
v  -72.411682 137.012039 40.181522
v  -72.617241 137.002716 60.675251
v  -74.871201 117.710030 37.895767
v  -74.857681 137.013916 37.908295
v  -101.886330 249.334076 60.489193
v  -76.044975 249.321838 60.705013
v  -75.013100 249.321838 59.780495
v  -102.703285 249.345154 39.986927
v  -74.826241 249.331482 41.152893
v  -75.839417 249.332458 40.211288
v  -102.899490 249.335022 59.547592
v  -75.185287 -0.007308 62.835793
v  -103.071686 -0.002148 62.602890
v  -105.517685 -0.000851 60.329662
v  -105.289536 0.007666 37.583321
v  -74.934555 0.002048 37.836842
v  -72.488556 0.000781 40.110069
v  -72.694107 -0.006926 60.603802
v  72.175598 247.094650 60.590790
v  71.965530 247.083206 40.097107
v  71.951591 228.526382 40.110065
v  72.161659 228.537827 60.603748
v  71.231873 225.526993 60.605511
v  71.021805 225.515549 40.111828
v  71.006546 195.433853 40.125984
v  71.216621 195.445358 60.619667
v  71.031204 192.434525 60.621437
v  70.821144 192.423019 40.127754
v  70.806686 173.118912 40.141235
v  71.016754 173.130417 60.634922
v  72.126137 170.119583 60.636822
v  71.916061 170.108078 40.143135
v  71.901146 145.415207 40.157024
v  72.111206 145.426682 60.650711
v  72.042343 26.212299 60.714748
v  71.832275 26.200888 40.221058
v  72.920753 29.211714 40.219498
v  73.130821 29.223118 60.713192
v  73.146103 59.304752 60.699024
v  72.936020 59.293339 40.205330
v  71.851105 62.304157 40.203564
v  72.061188 62.315586 60.697262
v  72.075676 81.619698 60.683781
v  71.865608 81.608284 40.190090
v  71.503883 84.619102 40.188328
v  71.713951 84.630516 60.682018
v  71.729149 114.712158 60.667866
v  71.519081 114.700775 40.174175
v  74.408287 247.080704 37.823410
v  104.729233 247.065262 37.564045
v  104.715302 228.508438 37.577003
v  74.394341 228.523880 37.836369
v  73.464554 225.513046 37.838131
v  103.785515 225.497604 37.578766
v  103.770241 195.415970 37.592926
v  73.449287 195.431351 37.852287
v  73.263885 192.420517 37.854057
v  103.584824 192.405136 37.594688
v  103.570389 173.101028 37.608170
v  73.249435 173.116409 37.867538
v  74.358826 170.105576 37.869438
v  104.679764 170.090195 37.610069
v  104.664848 145.397293 37.623959
v  74.343895 145.412704 37.883327
v  74.275024 26.198378 37.947361
v  104.595985 26.182894 37.687992
v  105.684456 29.193727 37.686432
v  75.363503 29.209204 37.945801
v  75.378777 59.290821 37.931633
v  105.699745 59.275379 37.672264
v  104.614822 62.286213 37.670498
v  74.293861 62.301655 37.929867
v  74.308350 81.605782 37.916393
v  104.629311 81.590317 37.657028
v  104.267586 84.601135 37.655266
v  73.946632 84.616600 37.914631
v  73.961830 114.698257 37.900478
v  104.282768 114.682777 37.641109
v  104.962387 247.077957 60.310333
v  104.948448 228.521103 60.323292
v  104.018669 225.510269 60.325054
v  104.003403 195.428635 60.339211
v  103.817986 192.417801 60.340981
v  103.803543 173.113693 60.354462
v  104.912918 170.102859 60.356361
v  104.898003 145.410004 60.370251
v  104.829132 26.195557 60.434284
v  105.917603 29.206383 60.432728
v  105.932892 59.288025 60.418560
v  104.847969 62.298851 60.416798
v  104.862465 81.602982 60.403320
v  104.500740 84.613785 60.401558
v  104.515923 114.695412 60.387402
v  102.519661 247.080460 62.584030
v  74.664528 247.094650 62.822304
v  74.650589 228.537827 62.835262
v  102.505714 228.523605 62.596989
v  101.575943 225.512772 62.598751
v  73.720802 225.526993 62.837025
v  73.705536 195.445358 62.851181
v  101.560661 195.431137 62.612907
v  101.375252 192.420303 62.614677
v  73.520126 192.434525 62.852951
v  73.505676 173.130417 62.866436
v  101.360809 173.116196 62.628159
v  102.470184 170.105362 62.630058
v  74.615059 170.119583 62.868336
v  74.600136 145.426682 62.882225
v  102.455261 145.412506 62.643948
v  102.386391 26.198074 62.707981
v  74.531273 26.212299 62.946262
v  75.619751 29.223118 62.944706
v  103.474861 29.208893 62.706425
v  103.490158 59.290543 62.692257
v  75.635025 59.304752 62.930538
v  74.550110 62.315586 62.928776
v  102.405235 62.301361 62.690495
v  102.419716 81.605499 62.677017
v  74.564598 81.619690 62.915295
v  74.202888 84.630508 62.913532
v  102.058006 84.616302 62.675255
v  102.073189 114.697922 62.661098
v  74.218071 114.712158 62.899380
v  -105.502869 31.586597 60.343491
v  -105.274712 31.595488 37.597149
v  -104.253235 34.606323 37.598785
v  -104.481400 34.597431 60.345127
v  -104.467842 53.901905 60.357655
v  -104.239685 53.911163 37.611317
v  -105.257660 56.921997 37.612953
v  -105.485817 56.912724 60.359291
v  -105.471657 86.994720 60.372459
v  -105.243507 87.004326 37.626122
v  -105.241982 90.015144 37.627567
v  -105.470146 90.005539 60.373905
v  -105.456268 114.698776 60.386822
v  -105.228104 114.708778 37.640484
v  -105.378716 247.083008 60.458855
v  -105.150558 247.094788 37.712521
v  -105.164040 223.148499 37.699997
v  -105.392204 223.137085 60.446331
v  -104.337975 220.126251 60.444569
v  -104.109818 220.137665 37.698235
v  -104.123344 200.832825 37.685703
v  -104.351509 200.821777 60.432041
v  -104.650787 197.810944 60.430286
v  -104.422615 197.821991 37.683949
v  -104.436485 173.128372 37.671024
v  -104.664650 173.117737 60.417362
v  -104.878418 170.106903 60.415916
v  -104.650269 170.117538 37.669579
v  -104.664413 140.035172 37.656403
v  -104.892578 140.024872 60.402740
v  -75.170456 31.579058 62.849621
v  -103.056862 31.585163 62.616718
v  -102.035385 34.596012 62.618355
v  -74.148972 34.589890 62.851257
v  -74.135437 53.893364 62.863785
v  -102.021828 53.900364 62.630882
v  -103.039810 56.911182 62.632519
v  -75.153412 56.904190 62.865421
v  -75.139259 86.985214 62.878590
v  -103.025658 86.993057 62.645687
v  -103.024132 90.003876 62.647133
v  -75.137718 89.996033 62.880035
v  -75.123848 114.688240 62.892956
v  -103.010254 114.697006 62.660053
v  -75.046318 247.067474 62.964985
v  -102.932724 247.080688 62.732082
v  -102.946198 223.134857 62.719559
v  -75.059784 223.122559 62.952461
v  -74.005592 220.111725 62.950699
v  -101.891968 220.124023 62.717796
v  -101.905510 200.819672 62.705273
v  -74.019104 200.808258 62.938175
v  -74.318382 197.797424 62.936420
v  -102.204781 197.808838 62.703518
v  -102.218636 173.115753 62.690590
v  -74.332222 173.105225 62.923492
v  -74.546013 170.094391 62.922047
v  -102.432404 170.104919 62.689144
v  -102.446571 140.022995 62.675968
v  -74.560188 140.013382 62.908871
v  -72.473709 31.587435 40.123898
v  -72.679268 31.579409 60.617630
v  -71.657776 34.590233 60.619267
v  -71.452217 34.598270 40.125534
v  -71.438705 53.902027 40.138065
v  -71.644257 53.893661 60.631794
v  -72.662224 56.904488 60.633430
v  -72.456665 56.912861 40.139702
v  -72.442497 86.994118 40.152870
v  -72.648064 86.985474 60.646599
v  -72.646523 89.996292 60.648045
v  -72.440971 90.004936 40.154316
v  -72.427094 114.697449 40.167233
v  -72.632652 114.688469 60.660961
v  -72.349564 247.078094 40.239269
v  -72.555122 247.067505 60.732994
v  -72.568604 223.122589 60.720470
v  -72.363029 223.132904 40.226746
v  -71.308830 220.122070 40.224983
v  -71.514397 220.111755 60.718708
v  -71.527901 200.808350 60.706181
v  -71.322342 200.818298 40.212452
v  -71.621628 197.807465 40.210697
v  -71.827179 197.797516 60.704426
v  -71.841057 173.105347 60.691502
v  -71.635475 173.114990 40.197773
v  -71.849258 170.104156 40.196327
v  -72.054825 170.094513 60.690056
v  -72.068993 140.013550 60.676880
v  -71.863426 140.022873 40.183151
v  -74.919724 31.588871 37.850670
v  -73.898232 34.599720 37.852306
v  -73.884705 53.903584 37.864838
v  -74.902672 56.914402 37.866474
v  -74.888512 86.995766 37.879642
v  -74.886971 90.006584 37.881088
v  -74.873100 114.699211 37.894009
v  -74.795555 247.080444 37.966042
v  -74.809029 223.135101 37.953518
v  -73.754837 220.124268 37.951756
v  -73.768341 200.820404 37.939228
v  -74.067627 197.809570 37.937473
v  -74.081474 173.116974 37.924545
v  -74.295250 170.106140 37.923100
v  -74.309425 140.024750 37.909924
# 266 vertices

vn -0.911012 0.000786 0.412379
vn -0.918910 0.000336 -0.394468
vn -0.914907 0.056034 -0.399757
vn -0.906816 0.055958 0.417796
vn -0.370049 -0.000298 -0.929012
vn 0.700427 -0.000826 -0.713723
vn 0.712378 -0.043683 -0.700435
vn -0.357754 0.020664 -0.933587
vn 0.918910 -0.000336 0.394466
vn 0.919744 -0.055049 0.388640
vn 0.370051 0.000298 0.929011
vn -0.353380 0.000740 0.935480
vn -0.340961 0.020638 0.939851
vn 0.381591 -0.023332 0.924037
vn -0.000503 -1.000000 0.000563
vn -0.000500 -1.000000 0.000564
vn -0.000502 -1.000000 0.000564
vn -0.000503 -1.000000 0.000562
vn -0.000503 -1.000000 0.000560
vn -0.000505 -1.000000 0.000562
vn -0.000508 -1.000000 0.000562
vn 0.000504 1.000000 -0.000563
vn 0.000504 1.000000 -0.000561
vn 0.000506 1.000000 -0.000564
vn 0.000505 1.000000 -0.000559
vn 0.000505 1.000000 -0.000561
vn -0.700578 0.000908 -0.713575
vn -0.918719 0.000369 0.394911
vn -0.918854 0.081745 0.386037
vn -0.717079 0.065485 -0.693909
vn -0.369608 -0.000327 0.929188
vn 0.353310 -0.000812 0.935506
vn 0.334564 -0.029634 0.941907
vn -0.386513 0.036018 0.921580
vn 0.910988 -0.000862 0.412432
vn 0.918711 -0.000368 -0.394931
vn 0.911549 -0.083957 -0.402529
vn 0.903547 -0.083665 0.420241
vn 0.369589 0.000327 -0.929195
vn 0.351026 -0.030055 -0.935883
vn 0.000462 1.000000 0.000522
vn 0.000469 1.000000 0.000524
vn 0.000469 1.000000 0.000523
vn 0.000468 1.000000 0.000522
vn 0.000478 1.000000 0.000523
vn 0.000471 1.000000 0.000523
vn 0.000448 1.000000 0.000522
vn -0.000183 -1.000000 -0.000377
vn -0.000182 -1.000000 -0.000375
vn -0.000182 -1.000000 -0.000376
vn -0.000181 -1.000000 -0.000376
vn -0.000182 -1.000000 -0.000361
vn -0.000181 -1.000000 -0.000373
vn -0.000186 -1.000000 -0.000378
vn -0.842731 0.382941 0.378365
vn -0.849894 0.382624 -0.362324
vn -0.902946 0.140931 -0.405988
vn -0.894686 0.140063 0.424170
vn -0.908197 0.134145 0.396463
vn -0.915459 0.134647 -0.379216
vn -0.917268 0.028407 -0.397256
vn -0.909279 0.028585 0.415205
vn -0.911934 0.028505 0.409345
vn -0.919706 0.028223 -0.391591
vn -0.913043 -0.157913 -0.376053
vn -0.905917 -0.156403 0.393512
vn -0.889728 -0.164591 0.425787
vn -0.897983 -0.166767 -0.407204
vn -0.918910 0.000335 -0.394468
vn -0.911012 0.000785 0.412378
vn -0.918914 0.000332 -0.394458
vn -0.911016 0.000781 0.412369
vn -0.906086 0.154847 0.393740
vn -0.913225 0.155426 -0.376646
vn -0.898516 0.163805 -0.407231
vn -0.890277 0.162569 0.425415
vn -0.890431 -0.161212 0.425610
vn -0.898699 -0.163296 -0.407032
vn -0.913417 -0.154779 -0.376448
vn -0.906269 -0.153294 0.393925
vn -0.906888 -0.054320 0.417856
vn -0.914963 -0.055353 -0.399723
vn -0.919802 -0.054420 -0.388591
vn -0.912152 -0.053574 0.406336
vn -0.912091 0.054979 0.406285
vn -0.919752 0.055020 -0.388626
vn -0.345555 0.372798 -0.861170
vn 0.644747 0.397749 -0.652761
vn 0.723396 -0.110049 -0.681607
vn -0.338423 0.047470 -0.939796
vn -0.397012 0.064113 -0.915572
vn 0.655447 -0.099263 -0.748689
vn 0.706932 -0.022307 -0.706930
vn -0.363882 0.010643 -0.931384
vn -0.375986 0.011272 -0.926557
vn 0.692986 -0.022032 -0.720615
vn 0.645131 0.114023 -0.755517
vn -0.401274 -0.078697 -0.912571
vn -0.332339 -0.055511 -0.941525
vn 0.725317 0.129003 -0.676220
vn 0.700427 -0.000825 -0.713723
vn -0.370049 -0.000299 -0.929012
vn 0.700404 -0.000823 -0.713746
vn -0.370069 -0.000299 -0.929004
vn -0.400628 0.076196 -0.913067
vn 0.646424 -0.113585 -0.754476
vn 0.724976 -0.127794 -0.676815
vn -0.333092 0.053908 -0.941352
vn -0.333159 -0.054530 -0.941292
vn 0.725116 0.126355 -0.676935
vn 0.646538 0.111916 -0.754628
vn -0.400743 -0.076799 -0.912966
vn -0.357750 -0.021318 -0.933574
vn 0.712437 0.041956 -0.700481
vn 0.684924 0.040407 -0.727494
vn -0.381609 -0.023884 -0.924015
vn -0.381605 0.023356 -0.924030
vn 0.684881 -0.041895 -0.727450
vn 0.850382 0.381960 0.361880
vn 0.915435 -0.134713 0.379250
vn 0.902941 -0.140864 0.406024
vn 0.919724 -0.028159 0.391555
vn 0.917282 -0.028475 0.397219
vn 0.897981 0.166728 0.407224
vn 0.913028 0.157951 0.376072
vn 0.918910 -0.000335 0.394466
vn 0.918907 -0.000332 0.394474
vn 0.898519 -0.163829 0.407215
vn 0.913235 -0.155400 0.376632
vn 0.913392 0.154845 0.376480
vn 0.898693 0.163230 0.407070
vn 0.919821 0.054353 0.388556
vn 0.914975 0.055421 0.399686
vn 0.914902 -0.056007 0.399771
vn 0.345975 0.373459 0.860714
vn -0.330026 0.373739 0.866834
vn -0.321506 0.045972 0.945791
vn 0.396981 -0.064052 0.915589
vn 0.338391 -0.047530 0.939804
vn -0.380844 0.062742 0.922508
vn -0.347157 0.011109 0.937741
vn 0.376019 -0.011334 0.926543
vn 0.363916 -0.010582 0.931372
vn -0.359404 0.011957 0.933106
vn -0.385244 -0.074775 0.919780
vn 0.332321 0.055548 0.941529
vn 0.401256 0.078660 0.912582
vn -0.315408 -0.051144 0.947577
vn -0.353380 0.000740 0.935479
vn 0.370050 0.000299 0.929012
vn -0.353400 0.000739 0.935472
vn 0.370032 0.000300 0.929019
vn 0.333107 -0.053884 0.941348
vn -0.384586 0.074513 0.920077
vn -0.316176 0.051659 0.947293
vn 0.400641 -0.076221 0.913059
vn 0.400715 0.076740 0.912983
vn -0.316223 -0.050365 0.947347
vn -0.384691 -0.072965 0.920157
vn 0.333126 0.054590 0.941301
vn 0.381642 0.023945 0.924000
vn -0.340969 -0.019096 0.939880
vn -0.365113 -0.021940 0.930705
vn 0.357786 0.021258 0.933562
vn 0.357741 -0.020689 0.933592
vn -0.365101 0.023293 0.930676
vn -0.700630 0.000641 -0.713524
vn -0.918733 0.000258 0.394880
vn -0.914060 0.146700 0.378118
vn -0.724524 0.120265 -0.678676
vn -0.650403 0.107777 -0.751904
vn -0.900241 0.154210 0.407168
vn -0.900377 -0.153575 0.407107
vn -0.650535 -0.106066 -0.752033
vn -0.724662 -0.118904 -0.678769
vn -0.914180 -0.146166 0.378034
vn -0.918718 0.000266 0.394915
vn -0.700577 0.000670 -0.713576
vn -0.700579 0.000732 -0.713574
vn -0.918718 0.000291 0.394914
vn -0.918719 0.000330 0.394911
vn -0.700579 0.000814 -0.713575
vn -0.849711 0.382714 0.362658
vn -0.644411 0.399360 -0.652108
vn -0.725001 -0.122904 -0.677693
vn -0.913676 -0.150852 0.377413
vn -0.899362 -0.158808 0.407342
vn -0.648460 -0.109282 -0.753364
vn -0.688099 0.034783 -0.724783
vn -0.915667 0.045923 0.399306
vn -0.919637 0.045224 0.390157
vn -0.710629 0.035837 -0.702654
vn -0.691901 0.025079 -0.721556
vn -0.916754 0.032789 0.398104
vn -0.919585 0.032428 0.391550
vn -0.708012 0.025605 -0.705736
vn -0.676079 0.061508 -0.734257
vn -0.911539 0.083895 0.402564
vn -0.369662 -0.000233 0.929166
vn 0.353262 -0.000576 0.935524
vn 0.318367 -0.049228 0.946688
vn -0.398718 0.071039 0.914318
vn -0.334925 0.051151 0.940855
vn 0.382955 -0.069590 0.921142
vn 0.383048 0.068013 0.921221
vn -0.334904 -0.051871 0.940824
vn -0.398742 -0.071505 0.914271
vn 0.318407 0.047989 0.946738
vn 0.353311 -0.000603 0.935506
vn -0.369605 -0.000246 0.929189
vn -0.369606 -0.000269 0.929189
vn 0.353310 -0.000659 0.935506
vn 0.353309 -0.000729 0.935506
vn -0.369608 -0.000294 0.929188
vn 0.330395 0.372368 0.867284
vn -0.345184 0.372913 0.861269
vn -0.399582 -0.074322 0.913680
vn 0.317199 0.049230 0.947080
vn 0.383898 0.070690 0.920666
vn -0.333711 -0.053313 0.941167
vn -0.359584 0.016995 0.932958
vn 0.362958 -0.019141 0.931609
vn 0.343181 -0.017235 0.939111
vn -0.379130 0.018826 0.925152
vn -0.362483 0.012287 0.931909
vn 0.360265 -0.013568 0.932751
vn 0.346116 -0.012579 0.938107
vn -0.376466 0.013229 0.926336
vn -0.350993 0.030111 0.935894
vn 0.370507 -0.035560 0.928149
vn 0.910981 -0.000609 0.412449
vn 0.918697 -0.000259 -0.394962
vn 0.900235 -0.154149 -0.407205
vn 0.892162 -0.153053 0.424997
vn 0.906993 -0.146274 0.394927
vn 0.914036 -0.146766 -0.378151
vn 0.914204 0.146101 -0.378001
vn 0.907172 0.144716 0.395091
vn 0.892307 0.151721 0.425169
vn 0.900383 0.153636 -0.407070
vn 0.918712 -0.000268 -0.394928
vn 0.910988 -0.000637 0.412433
vn 0.910987 -0.000696 0.412433
vn 0.918712 -0.000293 -0.394928
vn 0.918711 -0.000329 -0.394931
vn 0.910988 -0.000773 0.412432
vn 0.850114 0.382188 -0.362268
vn 0.843117 0.381647 0.378812
vn 0.891289 0.156820 0.425453
vn 0.899367 0.158842 -0.407319
vn 0.913690 0.150810 -0.377395
vn 0.906680 0.149387 0.394481
vn 0.912089 -0.045396 0.407470
vn 0.919627 -0.045264 -0.390177
vn 0.915659 -0.045885 -0.399327
vn 0.907778 -0.045926 0.416930
vn 0.911987 -0.032593 0.408923
vn 0.919579 -0.032454 -0.391562
vn 0.916750 -0.032766 -0.398116
vn 0.908909 -0.032849 0.415698
vn 0.911495 -0.081460 0.403163
vn 0.918874 -0.081681 -0.386004
vn 0.369536 0.000233 -0.929216
vn 0.334891 -0.051207 -0.940864
vn 0.398688 -0.070985 -0.914335
vn 0.398772 0.071560 -0.914254
vn 0.334938 0.051815 -0.940814
vn 0.369592 0.000245 -0.929194
vn 0.369593 0.000268 -0.929194
vn 0.369589 0.000294 -0.929195
vn 0.345556 0.373445 -0.860889
vn 0.333732 0.053280 -0.941161
vn 0.399598 0.074351 -0.913670
vn 0.379112 -0.018795 -0.925160
vn 0.359564 -0.017028 -0.932965
vn 0.376456 -0.013207 -0.926341
vn 0.362473 -0.012311 -0.931913
vn 0.386544 -0.036073 -0.921565
vn -0.588258 0.759858 0.276710
vn -0.593278 0.759941 -0.265538
vn -0.240909 0.738492 -0.629756
vn 0.377643 0.827455 -0.415577
vn 0.594168 0.759550 0.264664
vn 0.241717 0.738982 0.628870
vn -0.230062 0.738903 0.633320
vn -0.592847 0.760198 0.265765
vn -0.376493 0.828467 -0.414602
vn 0.230685 0.737962 0.634190
vn -0.240544 0.738570 0.629804
vn 0.593614 0.759872 -0.264984
vn 0.588717 0.759183 0.277585
vn 0.241262 0.738984 -0.629044
# 292 vertex normals

vt 0.745560 0.438923 -0.250556
vt 0.658011 0.438890 -0.250556
vt 0.658078 0.365545 -0.250556
vt 0.745739 0.365575 -0.250556
vt 0.643524 0.438849 -0.250556
vt 0.514247 0.438466 -0.250556
vt 0.514360 0.365197 -0.250556
vt 0.643594 0.365541 -0.250556
vt 0.989776 0.438662 -0.250556
vt 0.892919 0.438703 -0.250556
vt 0.892852 0.365435 -0.250556
vt 0.989573 0.365380 -0.250556
vt 0.878753 0.438742 -0.250556
vt 0.760023 0.438905 -0.250556
vt 0.760239 0.365602 -0.250556
vt 0.878880 0.365428 -0.250556
vt 0.524519 0.866725 -0.250542
vt 0.525966 0.792257 -0.250542
vt 0.534182 0.785052 -0.250542
vt 0.633300 0.794524 -0.250542
vt 0.625371 0.786979 0.250542
vt 0.623781 0.868822 0.250486
vt 0.631996 0.861617 -0.250542
vt 0.617394 0.971851 -0.751508
vt 0.529532 0.971099 0.751462
vt 0.526219 0.968016 -0.751508
vt 0.530220 0.903997 0.751508
vt 0.526844 0.907024 -0.751508
vt 0.614738 0.904720 -0.751508
vt 0.618051 0.907804 -0.751508
vt 0.017092 0.364390 -0.250517
vt 0.113975 0.364358 -0.250517
vt 0.113862 0.421623 -0.250517
vt 0.017236 0.421674 -0.250517
vt 0.128180 0.364374 -0.250517
vt 0.247022 0.364536 -0.250517
vt 0.246515 0.421867 -0.250517
vt 0.127705 0.421708 -0.250517
vt 0.261426 0.364545 -0.250517
vt 0.348850 0.364566 -0.250517
vt 0.349128 0.421956 -0.250517
vt 0.261213 0.421936 -0.250517
vt 0.363196 0.364521 -0.250517
vt 0.492552 0.364078 -0.250517
vt 0.493320 0.421261 -0.250517
vt 0.363852 0.421842 -0.250517
vt 0.395067 0.898678 -0.751482
vt 0.479680 0.897972 0.751439
vt 0.483058 0.900999 -0.751482
vt 0.392392 0.965809 -0.751482
vt 0.483670 0.961991 -0.751482
vt 0.480353 0.965074 0.751482
vt 0.391749 0.901761 -0.751482
vt 0.385011 0.783543 0.250479
vt 0.476302 0.781611 -0.250517
vt 0.484527 0.788815 -0.250517
vt 0.485978 0.863283 -0.250517
vt 0.386606 0.865386 0.250517
vt 0.378381 0.858182 -0.250517
vt 0.377073 0.791089 -0.250517
vt 0.746297 0.748991 -0.250556
vt 0.660905 0.748918 -0.250556
vt 0.658946 0.694038 -0.250556
vt 0.746628 0.694071 -0.250556
vt 0.745262 0.685069 -0.250556
vt 0.659505 0.685041 -0.250556
vt 0.658357 0.596114 -0.250556
vt 0.745576 0.596124 -0.250556
vt 0.745194 0.587484 -0.250556
vt 0.658419 0.587459 -0.250556
vt 0.658688 0.530480 -0.250556
vt 0.744795 0.530515 -0.250556
vt 0.745998 0.521252 -0.250556
vt 0.657449 0.521210 -0.250556
vt 0.657963 0.447872 -0.250556
vt 0.745563 0.447908 -0.250556
vt 0.658764 0.015114 -0.250556
vt 0.745707 0.015128 -0.250556
vt 0.745294 0.092843 -0.250556
vt 0.659161 0.092829 -0.250556
vt 0.657936 0.102282 -0.250556
vt 0.746550 0.102303 -0.250556
vt 0.746540 0.191837 -0.250556
vt 0.657829 0.191797 -0.250556
vt 0.659022 0.201250 -0.250556
vt 0.745318 0.201297 -0.250556
vt 0.745816 0.258523 -0.250556
vt 0.658418 0.258479 -0.250556
vt 0.658766 0.267394 -0.250556
vt 0.745402 0.267434 -0.250556
vt 0.745358 0.356618 -0.250556
vt 0.658543 0.356586 -0.250556
vt 0.648753 0.749375 -0.250556
vt 0.520734 0.754143 -0.250556
vt 0.515291 0.698422 -0.250556
vt 0.644369 0.694465 -0.250556
vt 0.646635 0.685504 -0.250556
vt 0.518084 0.688274 -0.250556
vt 0.514944 0.597921 -0.250556
vt 0.644085 0.596333 -0.250556
vt 0.644692 0.587539 -0.250556
vt 0.515789 0.588005 -0.250556
vt 0.516535 0.529984 -0.250556
vt 0.645372 0.530233 -0.250556
vt 0.642219 0.521099 -0.250556
vt 0.512695 0.520643 -0.250556
vt 0.514096 0.447255 -0.250556
vt 0.643412 0.447844 -0.250556
vt 0.515894 0.016034 -0.250556
vt 0.644866 0.015231 0.250501
vt 0.645912 0.093125 -0.250556
vt 0.517127 0.093704 -0.250556
vt 0.513027 0.102390 -0.250556
vt 0.642617 0.102378 -0.250556
vt 0.642416 0.191673 -0.250556
vt 0.512783 0.191372 -0.250556
vt 0.516704 0.200084 -0.250556
vt 0.645585 0.200934 -0.250556
vt 0.644202 0.258328 -0.250556
vt 0.515109 0.257421 -0.250556
vt 0.516260 0.266638 -0.250556
vt 0.645150 0.267260 -0.250556
vt 0.644696 0.356587 -0.250556
vt 0.515687 0.356155 -0.250556
vt 0.983590 0.753766 -0.250556
vt 0.887879 0.750311 -0.250556
vt 0.892057 0.695615 -0.250556
vt 0.988277 0.697784 -0.250556
vt 0.988594 0.687176 -0.250556
vt 0.891303 0.686498 -0.250556
vt 0.891832 0.597073 -0.250556
vt 0.988561 0.597121 -0.250556
vt 0.988681 0.587874 -0.250556
vt 0.891713 0.587878 -0.250556
vt 0.891626 0.530335 -0.250556
vt 0.988993 0.530398 -0.250556
vt 0.989558 0.520836 -0.250556
vt 0.893218 0.520854 -0.250556
vt 0.892958 0.447605 -0.250556
vt 0.989803 0.447563 -0.250556
vt 0.892379 0.015409 -0.250556
vt 0.989345 0.015339 -0.250556
vt 0.989704 0.093054 -0.250556
vt 0.892312 0.093181 -0.250556
vt 0.893900 0.102444 -0.250556
vt 0.990242 0.102386 -0.250556
vt 0.990318 0.191464 -0.250556
vt 0.893989 0.191484 -0.250556
vt 0.892443 0.200745 -0.250556
vt 0.989805 0.200790 -0.250556
vt 0.989437 0.258029 -0.250556
vt 0.892671 0.258040 -0.250556
vt 0.892172 0.267060 -0.250556
vt 0.989259 0.267040 -0.250556
vt 0.989352 0.356371 -0.250556
vt 0.892292 0.356432 -0.250556
vt 0.875786 0.750336 -0.250556
vt 0.758981 0.749234 -0.250556
vt 0.760763 0.694174 -0.250556
vt 0.878845 0.695267 -0.250556
vt 0.876537 0.686161 -0.250556
vt 0.758251 0.685284 -0.250556
vt 0.759562 0.596171 -0.250556
vt 0.877921 0.596837 -0.250556
vt 0.877347 0.587722 -0.250556
vt 0.758899 0.587474 -0.250556
vt 0.758120 0.530239 -0.250556
vt 0.876703 0.530310 -0.250556
vt 0.879834 0.521038 -0.250556
vt 0.761154 0.521144 -0.250556
vt 0.760094 0.447903 -0.250556
vt 0.878835 0.447629 -0.250556
vt 0.759523 0.015185 0.250556
vt 0.878014 0.015471 -0.250556
vt 0.877312 0.093185 -0.250556
vt 0.758674 0.093104 -0.250556
vt 0.761825 0.102389 -0.250556
vt 0.880547 0.102285 -0.250556
vt 0.880655 0.191674 -0.250556
vt 0.761898 0.191718 -0.250556
vt 0.758841 0.201006 -0.250556
vt 0.877513 0.200776 -0.250556
vt 0.878612 0.258081 -0.250556
vt 0.760056 0.258418 -0.250556
vt 0.759113 0.267337 -0.250556
vt 0.877650 0.267120 -0.250556
vt 0.877815 0.356441 -0.250556
vt 0.759217 0.356657 -0.250556
vt 0.017020 0.014084 -0.250517
vt 0.113881 0.014084 -0.250517
vt 0.113729 0.107820 -0.250517
vt 0.017333 0.107849 -0.250517
vt 0.017795 0.117298 -0.250517
vt 0.115185 0.117213 -0.250517
vt 0.115216 0.174684 -0.250517
vt 0.017831 0.174647 -0.250517
vt 0.017349 0.184079 -0.250517
vt 0.113751 0.184063 -0.250517
vt 0.113972 0.273307 -0.250517
vt 0.017113 0.273339 -0.250517
vt 0.017090 0.282230 -0.250517
vt 0.113978 0.282203 -0.250517
vt 0.114008 0.355462 -0.250517
vt 0.017119 0.355493 -0.250517
vt 0.119753 0.749347 -0.250517
vt 0.024094 0.752782 -0.250517
vt 0.018455 0.680821 -0.250517
vt 0.114638 0.678647 -0.250517
vt 0.115657 0.669401 -0.250517
vt 0.018298 0.670106 -0.250517
vt 0.018213 0.612044 -0.250517
vt 0.115194 0.611914 -0.250517
vt 0.114643 0.602689 -0.250517
vt 0.017939 0.602760 -0.250517
vt 0.017705 0.529251 -0.250517
vt 0.114650 0.529186 -0.250517
vt 0.114373 0.520097 -0.250517
vt 0.017618 0.520154 -0.250517
vt 0.017432 0.430772 -0.250517
vt 0.114590 0.430700 -0.250517
vt 0.128043 0.014137 -0.250517
vt 0.246925 0.014566 0.250479
vt 0.245945 0.108263 -0.250517
vt 0.127175 0.108027 -0.250517
vt 0.130210 0.117278 -0.250517
vt 0.248919 0.117346 -0.250517
vt 0.248910 0.174757 -0.250517
vt 0.130222 0.174647 -0.250517
vt 0.127220 0.183897 -0.250517
vt 0.245970 0.183841 -0.250517
vt 0.246955 0.273118 -0.250517
vt 0.128127 0.273302 -0.250517
vt 0.128216 0.282198 -0.250517
vt 0.247051 0.282139 -0.250517
vt 0.247083 0.355519 -0.250517
vt 0.128251 0.355471 -0.250517
vt 0.248499 0.747898 -0.250517
vt 0.131741 0.749416 -0.250517
vt 0.127799 0.678293 -0.250517
vt 0.246083 0.676892 -0.250517
vt 0.249004 0.667982 -0.250517
vt 0.130556 0.669069 -0.250517
vt 0.129524 0.611717 -0.250517
vt 0.248078 0.610842 -0.250517
vt 0.247241 0.602141 -0.250517
vt 0.128600 0.602592 -0.250517
vt 0.128913 0.529136 -0.250517
vt 0.247644 0.529020 -0.250517
vt 0.247169 0.520176 -0.250517
vt 0.128421 0.520083 -0.250517
vt 0.129218 0.430723 -0.250517
vt 0.248011 0.430892 -0.250517
vt 0.261460 0.014584 -0.250517
vt 0.349070 0.014602 -0.250517
vt 0.349362 0.108375 -0.250517
vt 0.260993 0.108361 -0.250517
vt 0.262160 0.117563 -0.250517
vt 0.348173 0.117580 -0.250517
vt 0.348103 0.174597 -0.250517
vt 0.262128 0.174563 -0.250517
vt 0.260957 0.183778 -0.250517
vt 0.349272 0.183815 -0.250517
vt 0.348829 0.273156 -0.250517
vt 0.261372 0.273127 -0.250517
vt 0.261409 0.282135 -0.250517
vt 0.348819 0.282159 -0.250517
vt 0.348797 0.355546 -0.250517
vt 0.261413 0.355522 -0.250517
vt 0.346155 0.747724 -0.250517
vt 0.260973 0.747691 -0.250517
vt 0.260452 0.676791 -0.250517
vt 0.348398 0.676846 -0.250517
vt 0.347622 0.667758 -0.250517
vt 0.261923 0.667724 -0.250517
vt 0.261764 0.610823 -0.250517
vt 0.348489 0.610865 -0.250517
vt 0.348955 0.602172 -0.250517
vt 0.261502 0.602138 -0.250517
vt 0.261765 0.529033 -0.250517
vt 0.348886 0.529066 -0.250517
vt 0.349070 0.520232 -0.250517
vt 0.261530 0.520206 -0.250517
vt 0.261872 0.430992 -0.250517
vt 0.348592 0.431014 -0.250517
vt 0.363647 0.014585 0.250517
vt 0.493113 0.014130 -0.250517
vt 0.494050 0.108034 -0.250517
vt 0.364441 0.108289 -0.250517
vt 0.361317 0.117379 -0.250517
vt 0.490185 0.117292 -0.250517
vt 0.490079 0.174957 -0.250517
vt 0.361220 0.174796 -0.250517
vt 0.364284 0.183889 -0.250517
vt 0.493854 0.184196 -0.250517
vt 0.492641 0.273524 -0.250517
vt 0.363247 0.273158 -0.250517
vt 0.363137 0.282158 -0.250517
vt 0.492467 0.282265 -0.250517
vt 0.492437 0.355359 -0.250517
vt 0.363108 0.355521 -0.250517
vt 0.486193 0.752863 -0.250517
vt 0.358123 0.748172 -0.250517
vt 0.363247 0.677267 -0.250517
vt 0.492599 0.681214 -0.250517
vt 0.489199 0.671161 -0.250517
vt 0.360502 0.668235 -0.250517
vt 0.362327 0.611016 -0.250517
vt 0.491439 0.612871 -0.250517
vt 0.492560 0.603026 -0.250517
vt 0.363276 0.602243 -0.250517
vt 0.363053 0.529058 -0.250517
vt 0.492355 0.529057 -0.250517
vt 0.492865 0.519717 -0.250517
vt 0.363510 0.520175 -0.250517
vt 0.362348 0.430872 -0.250517
vt 0.491476 0.430208 -0.250517
vt 0.746672 0.758769 -0.250556
vt 0.661120 0.758736 -0.250556
vt 0.649618 0.758943 -0.250556
vt 0.532837 0.763353 -0.250556
vt 0.972310 0.763537 -0.250556
vt 0.886408 0.760023 -0.250556
vt 0.874910 0.759856 -0.250556
vt 0.758956 0.758871 -0.250556
vt 0.121184 0.759080 -0.250517
vt 0.035321 0.762563 -0.250517
vt 0.248518 0.757524 -0.250517
vt 0.132611 0.758950 -0.250517
vt 0.345955 0.757539 -0.250517
vt 0.260579 0.757462 -0.250517
vt 0.474170 0.762080 -0.250517
vt 0.357319 0.757743 -0.250517
# 332 texture coords

g Archway_Overlay_105x205_Sides_A
s 1
f 1/1/1 2/2/2 3/3/3 4/4/4 
f 5/5/5 6/6/6 7/7/7 8/8/8 
f 6/9/6 9/10/9 10/11/10 7/12/7 
f 11/13/11 12/14/12 13/15/13 14/16/14 
s 2
f 15/17/15 16/18/16 17/19/17 18/20/18 
f 17/19/17 19/21/19 18/20/18 
f 20/22/20 15/17/15 18/20/18 21/23/21 
f 22/24/22 23/25/23 24/26/22 25/27/22 
f 24/26/22 26/28/24 25/27/22 
f 25/27/22 27/29/25 28/30/26 22/24/22 
s 1
f 29/31/27 30/32/28 31/33/29 32/34/30 
f 33/35/31 34/36/32 35/37/33 36/38/34 
f 37/39/35 38/40/36 39/41/37 40/42/38 
f 41/43/39 29/44/27 32/45/30 42/46/40 
s 2
f 43/47/41 44/48/42 45/49/43 46/50/44 
f 45/49/43 47/51/45 48/52/46 46/50/44 
f 49/53/47 43/47/41 46/50/44 
f 50/54/48 51/55/49 52/56/50 53/57/51 
f 53/57/51 54/58/52 55/59/53 50/54/48 
f 56/60/54 50/54/48 55/59/53 
s 1
f 57/61/55 58/62/56 59/63/57 60/64/58 
f 61/65/59 62/66/60 63/67/61 64/68/62 
f 65/69/63 66/70/64 67/71/65 68/72/66 
f 69/73/67 70/74/68 71/75/69 72/76/70 
f 21/77/71 18/78/72 73/79/73 74/80/74 
f 75/81/75 76/82/76 77/83/77 78/84/78 
f 79/85/79 80/86/80 81/87/81 82/88/82 
f 83/89/83 84/90/84 85/91/85 86/92/86 
f 87/93/87 88/94/88 89/95/89 90/96/90 
f 91/97/91 92/98/92 93/99/93 94/100/94 
f 95/101/95 96/102/96 97/103/97 98/104/98 
f 99/105/99 100/106/100 101/107/101 102/108/102 
f 15/109/103 20/110/104 103/111/105 104/112/106 
f 105/113/107 106/114/108 107/115/109 108/116/110 
f 109/117/111 110/118/112 111/119/113 112/120/114 
f 113/121/115 114/122/116 115/123/117 116/124/118 
f 88/125/88 117/126/119 118/127/120 89/128/89 
f 92/129/92 119/130/121 120/131/122 93/132/93 
f 96/133/96 121/134/123 122/135/124 97/136/97 
f 100/137/100 123/138/125 124/139/126 101/140/101 
f 16/141/127 15/142/103 104/143/106 125/144/128 
f 126/145/129 105/146/107 108/147/110 127/148/130 
f 128/149/131 109/150/111 112/151/114 129/152/132 
f 130/153/133 113/154/115 116/155/118 131/156/134 
f 132/157/135 133/158/136 134/159/137 135/160/138 
f 136/161/139 137/162/140 138/163/141 139/164/142 
f 140/165/143 141/166/144 142/167/145 143/168/146 
f 144/169/147 145/170/148 146/171/149 147/172/150 
f 19/173/151 17/174/152 148/175/153 149/176/154 
f 150/177/155 151/178/156 152/179/157 153/180/158 
f 154/181/159 155/182/160 156/183/161 157/184/162 
f 158/185/163 159/186/164 160/187/165 161/188/166 
f 53/189/167 52/190/168 162/191/169 163/192/170 
f 164/193/171 165/194/172 166/195/173 167/196/174 
f 168/197/175 169/198/176 170/199/177 171/200/178 
f 172/201/179 173/202/180 174/203/181 175/204/182 
f 176/205/183 177/206/184 178/207/185 179/208/186 
f 180/209/187 181/210/188 182/211/189 183/212/190 
f 184/213/191 185/214/192 186/215/193 187/216/194 
f 188/217/195 189/218/196 190/219/197 191/220/198 
f 51/221/199 50/222/200 192/223/201 193/224/202 
f 194/225/203 195/226/204 196/227/205 197/228/206 
f 198/229/207 199/230/208 200/231/209 201/232/210 
f 202/233/211 203/234/212 204/235/213 205/236/214 
f 206/237/215 207/238/216 208/239/217 209/240/218 
f 210/241/219 211/242/220 212/243/221 213/244/222 
f 214/245/223 215/246/224 216/247/225 217/248/226 
f 218/249/227 219/250/228 220/251/229 221/252/230 
f 56/253/231 55/254/232 222/255/233 223/256/234 
f 224/257/235 225/258/236 226/259/237 227/260/238 
f 228/261/239 229/262/240 230/263/241 231/264/242 
f 232/265/243 233/266/244 234/267/245 235/268/246 
f 236/269/247 237/270/248 238/271/249 239/272/250 
f 240/273/251 241/274/252 242/275/253 243/276/254 
f 244/277/255 245/278/256 246/279/257 247/280/258 
f 248/281/259 249/282/260 250/283/261 251/284/262 
f 54/285/263 53/286/167 163/287/170 252/288/264 
f 253/289/265 164/290/171 167/291/174 254/292/266 
f 255/293/267 168/294/175 171/295/178 256/296/268 
f 257/297/269 172/298/179 175/299/182 258/300/270 
f 177/301/184 259/302/271 260/303/272 178/304/185 
f 181/305/188 261/306/273 262/307/274 182/308/189 
f 185/309/192 263/310/275 264/311/276 186/312/193 
f 189/313/196 265/314/277 266/315/278 190/316/197 
f 72/76/70 71/75/69 2/2/2 1/1/1 
f 86/92/86 85/91/85 4/4/4 3/3/3 
f 5/5/5 102/108/102 101/107/101 6/6/6 
f 7/7/7 116/124/118 115/123/117 8/8/8 
f 101/140/101 124/139/126 9/10/9 6/9/6 
f 131/156/134 116/155/118 7/12/7 10/11/10 
f 11/13/11 147/172/150 146/171/149 12/14/12 
f 13/15/13 161/188/166 160/187/165 14/16/14 
f 29/31/27 175/204/182 174/203/181 30/32/28 
f 31/33/29 191/220/198 190/219/197 32/34/30 
f 33/35/31 205/236/214 204/235/213 34/36/32 
f 35/37/33 221/252/230 220/251/229 36/38/34 
f 37/39/35 235/268/246 234/267/245 38/40/36 
f 39/41/37 251/284/262 250/283/261 40/42/38 
f 41/43/39 258/300/270 175/299/182 29/44/27 
f 32/45/30 190/316/197 266/315/278 42/46/40 
f 60/64/58 59/63/57 62/66/60 61/65/59 
f 64/68/62 63/67/61 66/70/64 65/69/63 
f 68/72/66 67/71/65 70/74/68 69/73/67 
f 74/80/74 73/79/73 76/82/76 75/81/75 
f 78/84/78 77/83/77 80/86/80 79/85/79 
f 82/88/82 81/87/81 84/90/84 83/89/83 
f 91/97/91 90/96/90 89/95/89 92/98/92 
f 95/101/95 94/100/94 93/99/93 96/102/96 
f 99/105/99 98/104/98 97/103/97 100/106/100 
f 105/113/107 104/112/106 103/111/105 106/114/108 
f 109/117/111 108/116/110 107/115/109 110/118/112 
f 113/121/115 112/120/114 111/119/113 114/122/116 
f 89/128/89 118/127/120 119/130/121 92/129/92 
f 93/132/93 120/131/122 121/134/123 96/133/96 
f 97/136/97 122/135/124 123/138/125 100/137/100 
f 125/144/128 104/143/106 105/146/107 126/145/129 
f 127/148/130 108/147/110 109/150/111 128/149/131 
f 129/152/132 112/151/114 113/154/115 130/153/133 
f 136/161/139 135/160/138 134/159/137 137/162/140 
f 140/165/143 139/164/142 138/163/141 141/166/144 
f 144/169/147 143/168/146 142/167/145 145/170/148 
f 150/177/155 149/176/154 148/175/153 151/178/156 
f 154/181/159 153/180/158 152/179/157 155/182/160 
f 158/185/163 157/184/162 156/183/161 159/186/164 
f 164/193/171 163/192/170 162/191/169 165/194/172 
f 168/197/175 167/196/174 166/195/173 169/198/176 
f 172/201/179 171/200/178 170/199/177 173/202/180 
f 180/209/187 179/208/186 178/207/185 181/210/188 
f 184/213/191 183/212/190 182/211/189 185/214/192 
f 188/217/195 187/216/194 186/215/193 189/218/196 
f 194/225/203 193/224/202 192/223/201 195/226/204 
f 198/229/207 197/228/206 196/227/205 199/230/208 
f 202/233/211 201/232/210 200/231/209 203/234/212 
f 210/241/219 209/240/218 208/239/217 211/242/220 
f 214/245/223 213/244/222 212/243/221 215/246/224 
f 218/249/227 217/248/226 216/247/225 219/250/228 
f 224/257/235 223/256/234 222/255/233 225/258/236 
f 228/261/239 227/260/238 226/259/237 229/262/240 
f 232/265/243 231/264/242 230/263/241 233/266/244 
f 240/273/251 239/272/250 238/271/249 241/274/252 
f 244/277/255 243/276/254 242/275/253 245/278/256 
f 248/281/259 247/280/258 246/279/257 249/282/260 
f 253/289/265 252/288/264 163/287/170 164/290/171 
f 255/293/267 254/292/266 167/291/174 168/294/175 
f 257/297/269 256/296/268 171/295/178 172/298/179 
f 181/305/188 178/304/185 260/303/272 261/306/273 
f 185/309/192 182/308/189 262/307/274 263/310/275 
f 189/313/196 186/312/193 264/311/276 265/314/277 
f 18/78/72 19/173/151 149/176/154 73/79/73 
f 58/62/56 87/93/87 90/96/90 59/63/57 
f 117/126/119 132/157/135 135/160/138 118/127/120 
f 52/190/168 51/221/199 193/224/202 162/191/169 
f 50/222/200 56/253/231 223/256/234 192/223/201 
f 55/254/232 54/285/263 252/288/264 222/255/233 
f 76/82/76 150/177/155 153/180/158 77/83/77 
f 80/86/80 154/181/159 157/184/162 81/87/81 
f 84/90/84 158/185/163 161/188/166 85/91/85 
f 4/4/4 13/15/13 12/14/12 1/1/1 
f 72/76/70 146/171/149 145/170/148 69/73/67 
f 68/72/66 142/167/145 141/166/144 65/69/63 
f 64/68/62 138/163/141 137/162/140 61/65/59 
f 60/64/58 134/159/137 133/158/136 57/61/55 
f 62/66/60 91/97/91 94/100/94 63/67/61 
f 66/70/64 95/101/95 98/104/98 67/71/65 
f 70/74/68 99/105/99 102/108/102 71/75/69 
f 2/2/2 5/5/5 8/8/8 3/3/3 
f 86/92/86 115/123/117 114/122/116 83/89/83 
f 82/88/82 111/119/113 110/118/112 79/85/79 
f 78/84/78 107/115/109 106/114/108 75/81/75 
f 74/80/74 103/111/105 20/110/104 21/77/71 
f 119/130/121 136/161/139 139/164/142 120/131/122 
f 121/134/123 140/165/143 143/168/146 122/135/124 
f 123/138/125 144/169/147 147/172/150 124/139/126 
f 9/10/9 11/13/11 14/16/14 10/11/10 
f 131/156/134 160/187/165 159/186/164 130/153/133 
f 129/152/132 156/183/161 155/182/160 128/149/131 
f 127/148/130 152/179/157 151/178/156 126/145/129 
f 125/144/128 148/175/153 17/174/152 16/141/127 
f 165/194/172 194/225/203 197/228/206 166/195/173 
f 169/198/176 198/229/207 201/232/210 170/199/177 
f 173/202/180 202/233/211 205/236/214 174/203/181 
f 30/32/28 33/35/31 36/38/34 31/33/29 
f 191/220/198 220/251/229 219/250/228 188/217/195 
f 187/216/194 216/247/225 215/246/224 184/213/191 
f 183/212/190 212/243/221 211/242/220 180/209/187 
f 179/208/186 208/239/217 207/238/216 176/205/183 
f 195/226/204 224/257/235 227/260/238 196/227/205 
f 199/230/208 228/261/239 231/264/242 200/231/209 
f 203/234/212 232/265/243 235/268/246 204/235/213 
f 34/36/32 37/39/35 40/42/38 35/37/33 
f 221/252/230 250/283/261 249/282/260 218/249/227 
f 217/248/226 246/279/257 245/278/256 214/245/223 
f 213/244/222 242/275/253 241/274/252 210/241/219 
f 209/240/218 238/271/249 237/270/248 206/237/215 
f 225/258/236 253/289/265 254/292/266 226/259/237 
f 229/262/240 255/293/267 256/296/268 230/263/241 
f 233/266/244 257/297/269 258/300/270 234/267/245 
f 38/40/36 41/43/39 42/46/40 39/41/37 
f 251/284/262 266/315/278 265/314/277 248/281/259 
f 247/280/258 264/311/276 263/310/275 244/277/255 
f 243/276/254 262/307/274 261/306/273 240/273/251 
f 239/272/250 260/303/272 259/302/271 236/269/247 
f 73/79/73 149/176/154 150/177/155 76/82/76 
f 59/63/57 90/96/90 91/97/91 62/66/60 
f 162/191/169 193/224/202 194/225/203 165/194/172 
f 192/223/201 223/256/234 224/257/235 195/226/204 
f 77/83/77 153/180/158 154/181/159 80/86/80 
f 81/87/81 157/184/162 158/185/163 84/90/84 
f 85/91/85 161/188/166 13/15/13 4/4/4 
f 1/1/1 12/14/12 146/171/149 72/76/70 
f 69/73/67 145/170/148 142/167/145 68/72/66 
f 65/69/63 141/166/144 138/163/141 64/68/62 
f 61/65/59 137/162/140 134/159/137 60/64/58 
f 63/67/61 94/100/94 95/101/95 66/70/64 
f 67/71/65 98/104/98 99/105/99 70/74/68 
f 71/75/69 102/108/102 5/5/5 2/2/2 
f 3/3/3 8/8/8 115/123/117 86/92/86 
f 83/89/83 114/122/116 111/119/113 82/88/82 
f 79/85/79 110/118/112 107/115/109 78/84/78 
f 75/81/75 106/114/108 103/111/105 74/80/74 
f 118/127/120 135/160/138 136/161/139 119/130/121 
f 120/131/122 139/164/142 140/165/143 121/134/123 
f 122/135/124 143/168/146 144/169/147 123/138/125 
f 124/139/126 147/172/150 11/13/11 9/10/9 
f 10/11/10 14/16/14 160/187/165 131/156/134 
f 130/153/133 159/186/164 156/183/161 129/152/132 
f 128/149/131 155/182/160 152/179/157 127/148/130 
f 126/145/129 151/178/156 148/175/153 125/144/128 
f 166/195/173 197/228/206 198/229/207 169/198/176 
f 170/199/177 201/232/210 202/233/211 173/202/180 
f 174/203/181 205/236/214 33/35/31 30/32/28 
f 31/33/29 36/38/34 220/251/229 191/220/198 
f 188/217/195 219/250/228 216/247/225 187/216/194 
f 184/213/191 215/246/224 212/243/221 183/212/190 
f 180/209/187 211/242/220 208/239/217 179/208/186 
f 196/227/205 227/260/238 228/261/239 199/230/208 
f 200/231/209 231/264/242 232/265/243 203/234/212 
f 204/235/213 235/268/246 37/39/35 34/36/32 
f 35/37/33 40/42/38 250/283/261 221/252/230 
f 218/249/227 249/282/260 246/279/257 217/248/226 
f 214/245/223 245/278/256 242/275/253 213/244/222 
f 210/241/219 241/274/252 238/271/249 209/240/218 
f 222/255/233 252/288/264 253/289/265 225/258/236 
f 226/259/237 254/292/266 255/293/267 229/262/240 
f 230/263/241 256/296/268 257/297/269 233/266/244 
f 234/267/245 258/300/270 41/43/39 38/40/36 
f 39/41/37 42/46/40 266/315/278 251/284/262 
f 248/281/259 265/314/277 264/311/276 247/280/258 
f 244/277/255 263/310/275 262/307/274 243/276/254 
f 240/273/251 261/306/273 260/303/272 239/272/250 
f 57/61/55 26/317/279 24/318/280 58/62/56 
f 87/93/87 23/319/281 22/320/282 88/94/88 
f 88/125/88 22/321/282 28/322/283 117/126/119 
f 132/157/135 27/323/284 25/324/285 133/158/136 
f 176/205/183 49/325/286 46/326/287 177/206/184 
f 206/237/215 44/327/288 43/328/289 207/238/216 
f 236/269/247 47/329/290 45/330/291 237/270/248 
f 177/301/184 46/331/287 48/332/292 259/302/271 
f 133/158/136 25/324/285 26/317/279 57/61/55 
f 58/62/56 24/318/280 23/319/281 87/93/87 
f 117/126/119 28/322/283 27/323/284 132/157/135 
f 207/238/216 43/328/289 49/325/286 176/205/183 
f 237/270/248 45/330/291 44/327/288 206/237/215 
f 259/302/271 48/332/292 47/329/290 236/269/247 
# 260 polygons - 4 triangles

