# 3ds Max Wavefront OBJ Exporter v0.97b - (c)2007 guruware
# File Created: 24.05.2015 12:00:32

#
# object Archway_Overlay_105x205_Arch_D
#

v  -66.755814 251.404953 31.945745
v  -114.055496 251.479507 31.444296
v  -108.820183 271.590027 31.444302
v  -64.203049 260.844238 31.945749
v  -114.416061 251.506424 65.220535
v  -109.154503 271.726868 65.220535
v  -70.433273 251.446793 68.909233
v  -67.635712 261.976318 68.909203
v  -106.121979 270.745728 68.476631
v  -111.220459 251.508041 68.476578
v  -64.539238 260.970093 65.721992
v  -67.121292 251.423080 65.721992
v  -92.545593 303.450684 31.444305
v  -54.504169 275.853577 31.945749
v  -92.821426 303.684204 65.220543
v  -57.420601 277.992126 68.909264
v  -90.240494 301.814026 68.476570
v  -54.786434 276.078247 65.721992
v  -67.267471 328.752441 31.444307
v  -39.614189 290.751892 31.945751
v  -67.457642 329.059753 65.220543
v  -41.727169 293.686890 68.909271
v  -65.580826 326.483704 68.476570
v  -39.813229 291.052734 65.721992
v  -35.408607 345.005920 31.444307
v  -20.849604 300.320557 31.945751
v  -35.494537 345.356995 65.220543
v  -21.952362 303.764771 68.909271
v  -34.505497 342.327026 68.476570
v  -20.945940 300.668213 65.722000
v  -0.086677 350.620605 31.444309
v  -0.046682 303.623230 31.945753
v  -0.059938 350.980957 65.220543
v  -0.031306 307.239685 68.909271
v  -0.055468 347.793701 68.476570
v  -0.030892 303.983643 65.722000
v  35.241730 345.046875 31.444307
v  20.758829 300.336792 31.945751
v  35.378551 345.381409 65.220543
v  21.890837 303.771545 68.909271
v  34.398018 342.348694 68.476570
v  20.885199 300.674683 65.722000
v  67.119431 328.830383 31.444307
v  39.530857 290.782776 31.945751
v  67.352875 329.106262 65.220543
v  41.668720 293.699707 68.909271
v  65.483284 326.524902 68.476570
v  39.755444 291.065063 65.721992
v  92.426834 303.557922 31.444305
v  54.432453 275.896118 31.945749
v  92.734131 303.748169 65.220543
v  57.366978 278.009766 68.909264
v  90.158447 301.870789 68.476570
v  54.733292 276.095215 65.721992
v  108.738739 271.716309 31.444302
v  64.146553 262.213318 31.945751
v  109.089432 271.802185 65.220535
v  67.588333 263.315918 68.909203
v  106.059669 270.812500 68.476631
v  64.492149 262.308960 65.721992
v  114.011246 251.611496 31.444296
v  66.711548 251.456192 31.945745
v  114.373215 251.585098 65.220535
v  70.391159 251.468185 68.909233
v  111.177765 251.577805 68.476578
v  67.079124 251.443588 65.721992
v  -71.928497 249.652603 66.970467
v  -110.883430 249.638260 66.554825
v  -112.952042 249.635788 64.441589
v  -112.620758 249.610672 33.395157
v  -69.483994 249.638229 33.855415
v  -69.815262 249.652420 64.901855
v  69.774452 249.677322 64.901855
v  69.443169 249.691360 33.855415
v  112.579918 249.738266 33.395157
v  110.842598 249.709793 66.554825
v  112.911217 249.713211 64.441589
v  71.887688 249.678116 66.970467
# 78 vertices

vn 0.578035 -0.504795 -0.641138
vn -0.694851 -0.295294 -0.655731
vn -0.675641 0.256933 -0.691010
vn 0.618651 -0.275219 -0.735884
vn -0.907227 -0.217025 0.360333
vn -0.871448 0.330895 0.362058
vn 0.306633 -0.444634 0.841592
vn 0.311653 -0.135145 0.940536
vn -0.388469 0.149346 0.909279
vn -0.390944 -0.307005 0.867704
vn 0.834010 -0.373151 0.406430
vn 0.765162 -0.543284 0.345499
vn -0.592216 0.430415 -0.681192
vn 0.536748 -0.433159 -0.724068
vn -0.754452 0.548648 0.360261
vn 0.274232 -0.219842 0.936198
vn -0.342696 0.249422 0.905731
vn 0.712857 -0.576082 0.399955
vn -0.430693 0.592235 -0.681000
vn 0.397704 -0.547126 -0.736536
vn -0.548552 0.754535 0.360232
vn 0.199256 -0.274217 0.940799
vn -0.249221 0.342901 0.905708
vn 0.536983 -0.738928 0.406982
vn -0.226634 0.696330 -0.681000
vn 0.209196 -0.643236 -0.736536
vn -0.288580 0.887104 0.360233
vn 0.104781 -0.322366 0.940798
vn -0.131079 0.403125 0.905709
vn 0.282398 -0.868687 0.406982
vn -0.000396 0.732284 -0.681000
vn 0.000217 -0.676399 -0.736535
vn -0.000367 0.932862 0.360233
vn 0.000051 -0.338966 0.940799
vn -0.000110 0.423900 0.905709
vn 0.000179 -0.913436 0.406983
vn 0.225880 0.696575 -0.681000
vn -0.208783 -0.643370 -0.736536
vn 0.287881 0.887331 0.360233
vn -0.104683 -0.322395 0.940799
vn 0.130870 0.403193 0.905709
vn -0.282058 -0.868797 0.406984
vn 0.430052 0.592701 -0.681000
vn -0.397353 -0.547381 -0.736536
vn 0.547958 0.754966 0.360233
vn -0.199172 -0.274276 0.940799
vn 0.249043 0.343029 0.905709
vn -0.536694 -0.739138 0.406983
vn 0.591760 0.431014 -0.681210
vn -0.531229 -0.448166 -0.718987
vn 0.754017 0.549243 0.360263
vn -0.273720 -0.228866 0.934183
vn 0.342566 0.249638 0.905720
vn -0.701307 -0.592144 0.396907
vn 0.675252 0.257804 -0.691066
vn -0.607675 -0.275168 -0.744992
vn 0.871087 0.331780 0.362119
vn -0.303229 -0.133022 0.943587
vn 0.388334 0.149614 0.909292
vn -0.829334 -0.378409 0.411111
vn 0.695320 -0.293770 -0.655919
vn -0.586618 -0.497237 -0.639246
vn 0.907595 -0.216007 0.360017
vn -0.311171 -0.441614 0.841516
vn 0.391383 -0.306977 0.867516
vn -0.772799 -0.532227 0.345710
vn 0.116897 -0.918078 0.378771
vn -0.201388 -0.890370 0.408270
vn -0.458547 -0.871648 0.173103
vn -0.352391 -0.891162 -0.285747
vn 0.215322 -0.930732 -0.295592
vn 0.309294 -0.939522 0.147087
vn -0.308084 -0.940065 0.146157
vn -0.213944 -0.930790 -0.296410
vn 0.353791 -0.890308 -0.286677
vn 0.202664 -0.890488 0.407380
vn 0.459819 -0.871181 0.172077
vn -0.115745 -0.918567 0.377938
# 78 vertex normals

vt 0.708621 0.328486 -1.936057
vt 0.844668 0.330400 -1.936057
vt 0.828984 0.387912 -1.936057
vt 0.700956 0.355714 -1.936057
vt 0.975832 0.979537 0.000000
vt 0.915737 0.980131 0.000000
vt 0.914923 0.882974 0.000000
vt 0.974690 0.882383 0.000000
vt 0.307639 0.581115 -1.950578
vt 0.317322 0.610702 -1.950578
vt 0.207207 0.638972 -1.950578
vt 0.191426 0.584518 -1.950578
vt 0.760058 0.283070 -2.271285
vt 0.731905 0.282870 -2.271285
vt 0.732524 0.185713 -2.271285
vt 0.760939 0.185914 -2.271285
vt 0.781438 0.478999 -1.936057
vt 0.672618 0.398781 -1.936057
vt 0.812503 0.980904 0.000000
vt 0.812030 0.883745 0.000000
vt 0.347879 0.656267 -1.950578
vt 0.254980 0.726783 -1.950578
vt 0.680478 0.282643 -2.271285
vt 0.680833 0.185483 -2.271285
vt 0.708377 0.551198 -1.936057
vt 0.629412 0.441465 -1.936057
vt 0.709289 0.981308 0.000000
vt 0.709178 0.884148 0.000000
vt 0.394105 0.700816 -1.950578
vt 0.326894 0.796131 -1.950578
vt 0.619869 0.282478 -2.271285
vt 0.619956 0.185318 -2.271285
vt 0.616683 0.597499 -1.936057
vt 0.575200 0.468829 -1.936057
vt 0.606160 0.981312 0.000000
vt 0.606236 0.884152 0.000000
vt 0.451672 0.729359 -1.950578
vt 0.416391 0.840513 -1.950578
vt 0.559194 0.282480 -2.271285
vt 0.559148 0.185320 -2.271285
vt 0.515202 0.613423 -1.936057
vt 0.515209 0.478232 -1.936057
vt 0.503124 0.981314 0.000000
vt 0.503200 0.884154 0.000000
vt 0.515178 0.739180 -1.950578
vt 0.515110 0.855800 -1.950578
vt 0.498454 0.282482 2.266834
vt 0.498409 0.185322 2.271285
vt 0.413731 0.597432 -1.936057
vt 0.455225 0.468766 -1.936057
vt 0.400087 0.981314 0.000000
vt 0.400164 0.884154 0.000000
vt 0.578687 0.729368 -1.950578
vt 0.613836 0.840566 -1.950578
vt 0.437714 0.282482 -2.271285
vt 0.437669 0.185323 -2.271285
vt 0.322067 0.551076 -1.936057
vt 0.401035 0.441346 -1.936057
vt 0.297050 0.981313 0.000000
vt 0.297126 0.884153 0.000000
vt 0.636267 0.700841 -1.950578
vt 0.703359 0.796244 -1.950578
vt 0.376973 0.282482 -2.271285
vt 0.376928 0.185323 -2.271285
vt 0.249045 0.478838 -1.936057
vt 0.357865 0.398619 -1.936057
vt 0.193925 0.981310 0.000000
vt 0.194176 0.884150 0.000000
vt 0.682515 0.656332 -1.950578
vt 0.775320 0.726946 -1.950578
vt 0.316317 0.282484 -2.271285
vt 0.316097 0.185324 -2.271285
vt 0.201542 0.387728 -1.936057
vt 0.329582 0.359320 -1.936057
vt 0.090685 0.980935 0.000000
vt 0.091277 0.883776 0.000000
vt 0.712983 0.614518 -1.950578
vt 0.823158 0.639169 -1.950578
vt 0.268065 0.282585 -2.271285
vt 0.267505 0.185427 -2.271285
vt 0.185844 0.330206 -1.936057
vt 0.321893 0.328290 -1.936057
vt 0.030578 0.980573 0.000000
vt 0.031495 0.883417 0.000000
vt 0.722844 0.581093 -1.950578
vt 0.839035 0.584739 -1.950578
vt 0.236269 0.282786 -2.271285
vt 0.235372 0.185630 -2.271285
vt 0.133246 0.132805 1.935700
vt 0.053877 0.131958 -1.935700
vt 0.049662 0.127652 -1.935700
vt 0.050337 0.064397 1.935181
vt 0.138227 0.065334 -1.935700
vt 0.137552 0.128590 -1.935700
vt 0.836427 0.123680 -1.936230
vt 0.835752 0.060424 -1.936230
vt 0.923641 0.059487 1.936230
vt 0.920102 0.127048 -1.936230
vt 0.924316 0.122742 -1.936230
vt 0.840732 0.127895 1.935487
vt 0.178889 0.584535 1.949604
vt 0.194890 0.643432 -1.950578
vt 0.319904 0.578156 -1.950578
vt 0.329529 0.605537 -1.950578
vt 0.244570 0.734690 -1.950578
vt 0.358194 0.648197 -1.950578
vt 0.319354 0.806811 -1.950578
vt 0.401634 0.690111 -1.950578
vt 0.412429 0.852972 -1.950578
vt 0.455623 0.716892 -1.950578
vt 0.515096 0.868874 -1.950578
vt 0.515179 0.726102 -1.950578
vt 0.617770 0.853034 -1.950578
vt 0.574739 0.716899 -1.950578
vt 0.710876 0.806940 -1.950578
vt 0.628743 0.690127 -1.950578
vt 0.785712 0.734876 -1.950578
vt 0.672248 0.648223 -1.950578
vt 0.835465 0.643662 -1.950578
vt 0.700765 0.609359 -1.950578
vt 0.851573 0.584792 1.950578
vt 0.710570 0.578234 -1.950578
vt 0.716516 0.320971 -1.936057
vt 0.840590 0.322686 1.934481
vt 0.981570 0.887865 0.000000
vt 0.982620 0.977166 0.000000
vt 0.190492 0.577344 -1.950578
vt 0.304269 0.573458 -1.950578
vt 0.770196 0.188272 -2.271285
vt 0.769421 0.277576 -2.271285
vt 0.189921 0.322487 1.936057
vt 0.313996 0.320771 -1.936057
vt 0.023781 0.978227 0.000000
vt 0.024628 0.888923 0.000000
vt 0.726198 0.573448 -1.950578
vt 0.839984 0.577570 -1.950578
vt 0.226919 0.277294 -2.271285
vt 0.226099 0.187990 -2.271285
vt 0.181034 0.576917 -1.950578
vt 0.313101 0.570564 -1.950578
vt 0.849444 0.577170 -1.950578
vt 0.717335 0.570597 -1.950578
# 142 texture coords

g Archway_Overlay_105x205_Arch_D
s 1
f 1/1/1 2/2/2 3/3/3 4/4/4 
f 5/5/5 6/6/6 3/7/3 2/8/2 
f 7/9/7 8/10/8 9/11/9 10/12/10 
f 1/13/1 4/14/4 11/15/11 12/16/12 
f 13/17/13 14/18/14 4/4/4 3/3/3 
f 15/19/15 13/20/13 3/7/3 6/6/6 
f 16/21/16 17/22/17 9/11/9 8/10/8 
f 14/23/14 18/24/18 11/15/11 4/14/4 
f 19/25/19 20/26/20 14/18/14 13/17/13 
f 21/27/21 19/28/19 13/20/13 15/19/15 
f 22/29/22 23/30/23 17/22/17 16/21/16 
f 20/31/20 24/32/24 18/24/18 14/23/14 
f 25/33/25 26/34/26 20/26/20 19/25/19 
f 27/35/27 25/36/25 19/28/19 21/27/21 
f 28/37/28 29/38/29 23/30/23 22/29/22 
f 26/39/26 30/40/30 24/32/24 20/31/20 
f 31/41/31 32/42/32 26/34/26 25/33/25 
f 33/43/33 31/44/31 25/36/25 27/35/27 
f 34/45/34 35/46/35 29/38/29 28/37/28 
f 32/47/32 36/48/36 30/40/30 26/39/26 
f 37/49/37 38/50/38 32/42/32 31/41/31 
f 39/51/39 37/52/37 31/44/31 33/43/33 
f 40/53/40 41/54/41 35/46/35 34/45/34 
f 38/55/38 42/56/42 36/48/36 32/47/32 
f 43/57/43 44/58/44 38/50/38 37/49/37 
f 45/59/45 43/60/43 37/52/37 39/51/39 
f 46/61/46 47/62/47 41/54/41 40/53/40 
f 44/63/44 48/64/48 42/56/42 38/55/38 
f 49/65/49 50/66/50 44/58/44 43/57/43 
f 51/67/51 49/68/49 43/60/43 45/59/45 
f 52/69/52 53/70/53 47/62/47 46/61/46 
f 50/71/50 54/72/54 48/64/48 44/63/44 
f 55/73/55 56/74/56 50/66/50 49/65/49 
f 57/75/57 55/76/55 49/68/49 51/67/51 
f 58/77/58 59/78/59 53/70/53 52/69/52 
f 56/79/56 60/80/60 54/72/54 50/71/50 
f 55/73/55 61/81/61 62/82/62 56/74/56 
f 63/83/63 61/84/61 55/76/55 57/75/57 
f 64/85/64 65/86/65 59/78/59 58/77/58 
f 62/87/62 66/88/66 60/80/60 56/79/56 
f 67/89/67 68/90/68 69/91/69 70/92/70 
f 67/89/67 70/92/70 71/93/71 72/94/72 
f 73/95/73 74/96/74 75/97/75 76/98/76 
f 75/97/75 77/99/77 76/98/76 
f 78/100/78 73/95/73 76/98/76 
f 5/101/5 10/12/10 9/11/9 6/102/6 
f 7/9/7 12/103/12 11/104/11 8/10/8 
f 6/102/6 9/11/9 17/22/17 15/105/15 
f 8/10/8 11/104/11 18/106/18 16/21/16 
f 15/105/15 17/22/17 23/30/23 21/107/21 
f 16/21/16 18/106/18 24/108/24 22/29/22 
f 21/107/21 23/30/23 29/38/29 27/109/27 
f 22/29/22 24/108/24 30/110/30 28/37/28 
f 27/109/27 29/38/29 35/46/35 33/111/33 
f 28/37/28 30/110/30 36/112/36 34/45/34 
f 33/111/33 35/46/35 41/54/41 39/113/39 
f 34/45/34 36/112/36 42/114/42 40/53/40 
f 39/113/39 41/54/41 47/62/47 45/115/45 
f 40/53/40 42/114/42 48/116/48 46/61/46 
f 45/115/45 47/62/47 53/70/53 51/117/51 
f 46/61/46 48/116/48 54/118/54 52/69/52 
f 51/117/51 53/70/53 59/78/59 57/119/57 
f 52/69/52 54/118/54 60/120/60 58/77/58 
f 57/119/57 59/78/59 65/86/65 63/121/63 
f 58/77/58 60/120/60 66/122/66 64/85/64 
f 1/1/1 71/123/71 70/124/70 2/2/2 
f 2/8/2 70/125/70 69/126/69 5/5/5 
f 10/12/10 68/127/68 67/128/67 7/9/7 
f 12/16/12 72/129/72 71/130/71 1/13/1 
f 61/81/61 75/131/75 74/132/74 62/82/62 
f 63/83/63 77/133/77 75/134/75 61/84/61 
f 64/85/64 78/135/78 76/136/76 65/86/65 
f 62/87/62 74/137/74 73/138/73 66/88/66 
f 5/101/5 69/139/69 68/127/68 10/12/10 
f 7/9/7 67/128/67 72/140/72 12/103/12 
f 65/86/65 76/136/76 77/141/77 63/121/63 
f 66/122/66 73/142/73 78/135/78 64/85/64 
# 75 polygons - 2 triangles

