# 3ds Max Wavefront OBJ Exporter v0.97b - (c)2007 guruware
# File Created: 24.05.2015 12:00:34

#
# object Archway_Overlay_105x205_Arch_C
#

v  71.322937 251.895721 59.444828
v  63.554951 265.438416 59.444828
v  62.455189 265.016693 40.775658
v  70.121506 251.887543 40.720219
v  100.339981 252.093277 63.037422
v  93.184677 276.094421 62.894543
v  109.755875 252.130630 51.184475
v  100.673042 278.795776 51.184471
v  97.357117 277.569153 61.418835
v  107.297844 252.114502 61.421268
v  104.217117 252.119675 41.587627
v  98.246742 277.894165 41.587616
v  58.109299 277.008148 59.444836
v  48.896717 286.921082 60.520000
v  48.181595 286.159546 39.644524
v  57.163364 276.468170 40.792969
v  84.285118 290.691071 62.875496
v  68.522079 307.410706 64.787048
v  75.352127 314.281982 51.120693
v  71.733192 310.620483 63.425453
v  88.187531 292.648621 61.410511
v  91.342812 294.242188 51.184475
v  89.150719 293.141296 41.587616
v  72.021164 310.902618 39.261841
v  7.114044 304.207245 59.444832
v  7.065369 303.047852 40.783470
v  28.018707 296.313324 40.773155
v  28.451469 297.342896 59.444836
v  8.124702 336.428223 62.882679
v  40.399162 325.583862 62.878426
v  8.392899 345.372406 51.184479
v  8.271805 341.249268 61.417782
v  42.268551 329.734497 61.417046
v  43.893780 333.247101 51.184475
v  8.315552 342.505859 41.587624
v  42.755047 330.810944 41.587624
v  -10.013321 303.627197 59.444832
v  -9.832253 302.527649 40.796673
v  -3.936607 304.113983 40.795319
v  -3.977264 305.256744 59.444832
v  -15.337639 333.817963 62.838245
v  -5.234047 336.845551 62.837864
v  -16.924934 342.320862 51.184475
v  -16.203842 338.476563 61.410511
v  -5.427414 341.756470 61.410511
v  -5.581200 345.817474 51.184475
v  -5.480705 342.992310 41.587624
v  -16.419998 339.649902 41.587624
v  -38.739204 292.583557 59.444824
v  -38.123589 291.670441 40.784225
v  -34.990303 294.280548 40.784523
v  -35.498070 295.286285 59.444824
v  -56.400826 317.008942 62.874592
v  -49.952995 322.636536 62.868782
v  -61.477776 323.599854 51.184471
v  -59.156120 320.590668 61.414925
v  -52.245842 326.679657 61.415268
v  -54.198570 330.081390 51.184471
v  -52.845421 327.714111 41.587616
v  -59.861626 321.512573 41.587612
v  -71.611702 252.430496 59.444817
v  -70.494286 252.438110 40.705448
v  -61.944878 271.343842 40.798096
v  -62.956474 271.853088 59.444820
v  -90.718040 284.854401 62.855244
v  -102.384605 252.246765 62.881950
v  -97.994423 288.276611 51.184811
v  -107.978798 252.210052 51.196800
v  -105.619499 252.225540 61.410923
v  -94.755714 286.728088 61.410713
v  -102.439980 252.220612 41.588211
v  -95.649467 287.161560 41.587624
v  58.199650 273.843597 59.662907
v  57.115288 273.287537 40.072842
v  59.377575 269.341888 40.097687
v  60.526997 269.798828 59.662903
v  91.829475 281.161285 63.545040
v  88.029114 287.973999 63.542763
v  99.678993 283.963318 51.276440
v  95.715065 291.506134 51.276440
v  92.233719 289.881714 62.005192
v  96.134552 282.673737 62.005592
v  93.317329 290.362213 41.215332
v  97.236900 283.058258 41.215332
v  0.612572 303.572876 59.662910
v  0.647614 302.336670 40.089787
v  2.465088 301.987579 40.101597
v  2.514420 303.206848 59.662910
v  3.582001 337.058136 63.541191
v  -0.735405 337.914551 63.541763
v  3.885330 346.447479 51.276447
v  -1.116768 347.445038 51.276447
v  -0.938286 343.049377 62.004993
v  3.747101 342.118286 62.004894
v  -0.985847 344.389404 41.215340
v  3.791153 343.438965 41.215343
v  -59.994606 274.770752 59.444824
v  -58.990578 274.205322 40.785965
v  -57.013573 275.890045 40.788391
v  -57.930367 276.533630 59.444820
v  -83.846184 292.844330 62.904160
v  -87.985756 288.857452 62.883167
v  -90.903282 297.114807 51.184460
v  -95.411613 292.532776 51.184460
v  -92.069817 290.867493 61.413280
v  -87.713341 295.178528 61.413502
v  -93.091515 291.382141 41.587608
v  -88.688484 295.773560 41.587608
v  72.512054 249.271088 43.124580
v  73.510605 249.277893 58.683784
v  97.627693 249.442093 61.312504
v  103.936676 249.459732 59.487900
v  105.979622 249.473129 50.961208
v  100.850098 249.464020 42.982990
v  -73.661705 249.215927 58.683022
v  -72.733040 249.222244 43.123985
v  -99.782692 249.063217 60.997097
v  -104.432198 249.032715 51.107468
v  -102.471291 249.045578 59.616123
v  -99.284187 249.041489 43.101185
v  32.762962 296.284424 59.444832
v  30.923203 297.734375 58.973751
v  30.487434 296.702484 41.290558
v  32.324097 295.319153 40.795742
v  58.170074 275.110168 40.923084
v  59.277481 275.641663 59.126171
v  44.696339 322.694794 62.843655
v  42.343216 323.722656 62.433208
v  85.836670 288.959229 62.724586
v  48.272343 329.992462 51.184475
v  45.736431 330.962433 51.194130
v  44.241360 327.764038 61.014408
v  46.643917 326.699951 61.410515
v  89.822632 290.905823 61.247108
v  92.860329 292.372559 51.228638
v  47.144032 327.700439 41.587624
v  44.793999 328.901184 42.053421
v  90.916122 291.447632 41.899948
v  -31.337334 297.759155 59.444824
v  -33.862877 297.315125 58.950031
v  -33.346214 296.313904 41.320145
v  -30.835579 296.785431 40.801514
v  -1.606232 304.192261 40.957718
v  -1.638000 305.448975 59.093830
v  -45.661613 324.069458 62.839409
v  -47.656990 322.825439 62.433922
v  -2.852692 336.912109 62.734138
v  -49.934135 331.332275 51.184471
v  -51.810143 329.925079 51.193962
v  -49.953926 326.800690 61.015491
v  -47.984978 328.058350 61.410507
v  -3.044418 341.862854 61.305031
v  -3.193253 345.862305 51.227921
v  -48.569664 329.060577 41.587616
v  -50.601830 327.916229 42.057487
v  -3.106071 343.226471 41.845539
v  -61.273079 273.333313 41.320648
v  -62.292030 273.906128 58.949940
v  -88.977882 286.720093 62.418072
v  -93.035408 288.639771 60.976322
v  -96.072136 290.104492 51.195858
v  -94.184120 289.180511 42.089413
v  62.669186 267.921509 59.082642
v  61.471359 267.449493 40.981911
v  92.472198 278.797150 62.612251
v  99.212631 281.391418 51.164314
v  96.023285 280.187836 61.294994
v  97.193649 280.559631 41.868057
v  4.862694 304.420532 59.050091
v  4.797745 303.148010 41.008842
v  5.771751 336.684357 62.571167
v  5.888924 344.959229 51.170345
v  5.793243 340.964417 61.294456
v  5.864861 342.340027 41.872841
v  -56.442726 278.558990 58.940941
v  -55.501305 277.885254 41.337227
v  -53.166283 279.139526 40.782810
v  -54.076866 279.793671 59.444824
v  -80.059746 296.359650 62.895897
v  -81.969810 294.615570 62.307610
v  -87.218849 300.679565 51.184464
v  -88.314644 298.290100 51.135334
v  -85.282982 296.493927 61.018723
v  -83.976006 298.720642 61.413689
v  -84.964622 299.324402 41.587608
v  -86.383919 297.190491 42.070793
v  44.961426 289.907043 60.517452
v  37.275986 293.925018 59.841667
v  36.769432 293.013306 40.368313
v  44.266014 289.124786 39.647503
v  51.308147 318.663818 63.484798
v  64.698227 310.500366 64.783218
v  71.595703 317.398804 51.120705
v  55.841732 325.905304 51.163780
v  53.618534 322.451447 62.070152
v  67.944870 313.724792 63.425098
v  54.035656 323.229492 40.827621
v  68.232040 314.019623 39.262054
v  47.517342 289.057007 60.091618
v  46.907242 288.396790 39.985046
v  66.667206 309.016937 64.229309
v  72.879501 315.239990 51.057095
v  69.354553 311.679993 63.119392
v  69.797653 312.127869 39.696579
v  -14.718353 302.688538 40.797802
v  -14.904434 303.759949 59.444832
v  -20.195511 333.199341 62.838436
v  -21.036659 337.747498 61.410511
v  -21.736282 341.501099 51.184475
v  -21.256561 338.890076 41.587620
v  -12.639168 304.205933 58.874798
v  -12.521111 303.319580 41.272533
v  -17.709343 333.357880 62.187057
v  -18.934723 340.886780 51.132740
v  -18.308769 337.299347 61.006744
v  -18.589722 338.621979 42.099312
v  -41.580315 290.214386 59.444824
v  -40.958427 289.308960 40.783958
v  -59.187843 314.576477 62.877102
v  -61.915108 318.159576 61.414787
v  -64.212914 321.164459 51.184471
v  -62.624016 319.070953 41.587612
v  -40.331367 292.003845 58.879398
v  -39.858635 291.237549 41.259834
v  -57.427269 315.877258 62.225433
v  -61.793327 321.812195 51.135170
v  -59.640511 318.954132 61.023827
v  -60.485634 320.006287 42.096451
v  33.886543 295.697021 59.543629
v  33.374199 294.774445 40.694771
v  48.058006 320.645294 63.169632
v  52.456841 327.733002 51.173035
v  50.356483 324.438477 61.761639
v  50.845848 325.298889 41.179390
v  35.717316 295.378296 59.115189
v  35.294136 294.598511 41.029560
v  49.468712 319.626556 62.652855
v  53.293083 326.062561 51.114822
v  51.310638 322.867615 61.488434
v  51.927345 323.856628 41.560970
# 240 vertices

vn -0.588962 -0.462963 0.662411
vn -0.681279 -0.257565 0.685215
vn -0.665755 -0.292673 -0.686377
vn -0.518175 -0.512334 -0.684842
vn 0.100891 -0.298644 0.949017
vn 0.076604 0.081655 0.993712
vn 0.957493 -0.264848 -0.114293
vn 0.923022 0.383964 0.024545
vn 0.649394 0.295435 0.700718
vn 0.725646 -0.280273 0.628399
vn 0.560696 -0.291046 -0.775185
vn 0.584650 0.220738 -0.780679
vn -0.488744 -0.544047 0.682013
vn -0.592555 -0.435155 0.677878
vn -0.589675 -0.427120 -0.685458
vn -0.510963 -0.505818 -0.695029
vn 0.115421 0.005982 0.993299
vn 0.003103 0.103631 0.994611
vn 0.587428 0.809142 0.014757
vn 0.393313 0.564445 0.725745
vn 0.556515 0.430079 0.710861
vn 0.775368 0.629939 0.044513
vn 0.495466 0.343602 -0.797779
vn 0.326425 0.470990 -0.819521
vn -0.197839 -0.661689 0.723206
vn -0.157783 -0.663111 -0.731702
vn -0.014749 -0.753305 -0.657506
vn -0.019735 -0.758924 0.650880
vn -0.038878 0.107671 0.993426
vn 0.142980 0.072073 0.987098
vn 0.080505 0.995828 0.042949
vn 0.058093 0.699153 0.712608
vn 0.417721 0.582924 0.696929
vn 0.561600 0.826120 0.046165
vn 0.041062 0.638973 -0.768132
vn 0.380164 0.526872 -0.760185
vn -0.036058 -0.751780 0.658427
vn -0.046462 -0.757246 -0.651475
vn 0.128297 -0.676060 -0.725592
vn 0.169180 -0.675300 0.717878
vn -0.145816 0.057238 0.987655
vn 0.002245 0.103578 0.994619
vn -0.429443 0.901880 0.046811
vn -0.320260 0.619441 0.716747
vn -0.102194 0.681442 0.724702
vn -0.157117 0.986544 0.045220
vn -0.081735 0.614382 -0.784763
vn -0.291012 0.550176 -0.782699
vn 0.284470 -0.679906 0.675873
vn 0.276974 -0.690976 -0.667711
vn 0.554334 -0.473302 -0.684616
vn 0.557641 -0.482040 0.675777
vn -0.225056 -0.043624 0.973369
vn 0.037873 0.173358 0.984130
vn -0.858031 0.511722 0.043857
vn -0.651146 0.344133 0.676447
vn -0.223758 0.689625 0.688731
vn -0.340573 0.939110 0.045626
vn -0.201714 0.633323 -0.747137
vn -0.585323 0.306661 -0.750570
vn 0.625354 -0.388920 0.676516
vn 0.561877 -0.453735 -0.691678
vn 0.686823 -0.183783 -0.703205
vn 0.693542 -0.190242 0.694844
vn -0.072123 0.141928 0.987246
vn -0.214881 -0.274935 0.937143
vn -0.864134 0.502949 0.017757
vn -0.959108 -0.252091 -0.128691
vn -0.764677 -0.265780 0.587053
vn -0.598057 0.401782 0.693469
vn -0.550293 -0.267839 -0.790847
vn -0.564959 0.326187 -0.757907
vn -0.795504 0.040292 0.604607
vn -0.786287 0.044823 -0.616234
vn -0.524439 -0.517060 -0.676471
vn -0.546715 -0.508770 0.665023
vn 0.170424 -0.120798 0.977939
vn 0.004441 0.292100 0.956377
vn 0.985596 0.163546 0.043058
vn 0.659121 0.751150 0.036501
vn 0.452701 0.601405 0.658311
vn 0.724871 0.080659 0.684146
vn 0.414120 0.554475 -0.721846
vn 0.662507 0.071819 -0.745605
vn -0.357933 -0.675684 0.644465
vn -0.363386 -0.659242 -0.658294
vn 0.179713 -0.736993 -0.651571
vn 0.160823 -0.746960 0.645125
vn 0.214690 0.076198 0.973705
vn -0.186442 0.114173 0.975809
vn 0.391043 0.919251 0.045422
vn -0.209976 0.976783 0.042495
vn -0.194782 0.681868 0.705064
vn 0.326109 0.628314 0.706310
vn -0.182284 0.641484 -0.745165
vn 0.298386 0.569750 -0.765736
vn 0.353802 -0.667915 0.654762
vn 0.348153 -0.658085 -0.667618
vn 0.572321 -0.430790 -0.697760
vn 0.575575 -0.438572 0.690195
vn -0.012478 0.173440 0.984765
vn -0.142289 -0.012410 0.989747
vn -0.581536 0.812537 0.039996
vn -0.866547 0.497708 0.037203
vn -0.615145 0.345376 0.708740
vn -0.401619 0.610314 0.682802
vn -0.560924 0.303703 -0.770148
vn -0.352246 0.544902 -0.760924
vn -0.337553 -0.892277 -0.299833
vn -0.344347 -0.813902 0.467962
vn -0.002771 -0.854375 0.519650
vn 0.258493 -0.918095 0.300473
vn 0.366038 -0.927482 -0.076115
vn 0.150107 -0.859366 -0.488834
vn 0.390365 -0.773689 0.499019
vn 0.388978 -0.853753 -0.346123
vn -0.034446 -0.840411 0.540855
vn -0.421772 -0.902883 -0.083126
vn -0.329136 -0.898062 0.291812
vn -0.162627 -0.838692 -0.519757
vn -0.471794 -0.575313 0.668151
vn -0.152084 -0.662228 0.733706
vn -0.139365 -0.652189 -0.745135
vn -0.466565 -0.568643 -0.677467
vn -0.686091 0.228457 -0.690715
vn -0.670028 0.082601 0.737726
vn -0.060411 0.143115 0.987861
vn 0.050414 0.059764 0.996939
vn -0.019938 0.213004 0.976848
vn 0.416995 0.907944 0.041872
vn 0.595439 0.801607 0.053656
vn 0.397240 0.567407 0.721283
vn 0.248632 0.654420 0.714084
vn 0.349823 0.684776 0.639301
vn 0.535538 0.843566 0.039952
vn 0.211553 0.587706 -0.780927
vn 0.369133 0.501761 -0.782290
vn 0.308453 0.608507 -0.731147
vn 0.139496 -0.719159 0.680699
vn 0.353844 -0.590714 0.725156
vn 0.354190 -0.581467 -0.732424
vn 0.138344 -0.710960 -0.689490
vn -0.368407 -0.614432 -0.697674
vn -0.272303 -0.640467 0.718090
vn -0.117944 0.053877 0.991558
vn -0.009763 0.066407 0.997745
vn -0.167645 0.055252 0.984298
vn -0.475014 0.878992 0.041644
vn -0.266714 0.962264 0.053958
vn -0.193565 0.652630 0.732535
vn -0.356754 0.592512 0.722258
vn -0.291045 0.620806 0.727937
vn -0.345507 0.937204 0.047675
vn -0.327980 0.526338 -0.784472
vn -0.159534 0.588573 -0.792547
vn -0.257632 0.563135 -0.785178
vn 0.447461 -0.498524 -0.742464
vn 0.463577 -0.496714 0.733739
vn -0.071866 0.036747 0.996737
vn -0.589671 0.379072 0.713157
vn -0.856052 0.515269 0.040913
vn -0.556310 0.342389 -0.757159
vn -0.560927 -0.444544 0.698385
vn -0.529960 -0.516508 -0.672578
vn 0.154228 -0.093957 0.983558
vn 0.986463 0.158439 0.042272
vn 0.704861 0.054241 0.707268
vn 0.623783 0.039061 -0.780621
vn 0.185250 -0.689897 0.699803
vn 0.276150 -0.688064 -0.671051
vn 0.156054 0.086480 0.983955
vn 0.253064 0.966497 0.042910
vn 0.241706 0.627266 0.740349
vn 0.207792 0.559175 -0.802587
vn 0.453749 -0.567936 0.686702
vn 0.448713 -0.575720 -0.683523
vn 0.368834 -0.631429 -0.682099
vn 0.375073 -0.639236 0.671340
vn -0.131383 -0.017152 0.991183
vn -0.079627 0.081072 0.993522
vn -0.804091 0.593036 0.041788
vn -0.692935 0.719884 0.040100
vn -0.472497 0.502707 0.723900
vn -0.574618 0.407785 0.709595
vn -0.521313 0.354262 -0.776358
vn -0.418439 0.449743 -0.789075
vn -0.280330 -0.681678 0.675818
vn -0.526537 -0.532574 0.662664
vn -0.534892 -0.523501 -0.663202
vn -0.270851 -0.672754 -0.688507
vn -0.149075 0.192353 0.969937
vn 0.090022 0.018103 0.995775
vn 0.699672 0.714336 0.013551
vn 0.287745 0.957303 0.027806
vn 0.151019 0.702921 0.695050
vn 0.480512 0.486555 0.729638
vn 0.108827 0.626428 -0.771845
vn 0.404888 0.404146 -0.820202
vn -0.428096 -0.563898 0.706224
vn -0.395871 -0.520110 -0.756817
vn 0.049236 0.058546 0.997070
vn 0.637669 0.770294 0.005013
vn 0.407611 0.495012 0.767344
vn 0.342794 0.417907 -0.841336
vn 0.280136 -0.637523 -0.717697
vn 0.270513 -0.641622 0.717735
vn 0.097976 0.125056 0.987300
vn -0.019820 0.714771 0.699077
vn -0.070465 0.996591 0.042898
vn -0.013274 0.652198 -0.757933
vn -0.018763 -0.737675 0.674895
vn -0.010111 -0.693553 -0.720334
vn -0.012757 0.081233 0.996614
vn -0.207123 0.977073 0.049273
vn -0.121701 0.640278 0.758441
vn -0.114144 0.574701 -0.810364
vn 0.587823 -0.445532 0.675253
vn 0.598659 -0.435977 -0.671961
vn 0.049418 0.161558 0.985625
vn -0.316448 0.641428 0.698879
vn -0.478985 0.876753 0.043336
vn -0.275539 0.578478 -0.767751
vn 0.426472 -0.591615 0.684189
vn 0.389767 -0.543403 -0.743502
vn -0.109390 0.028427 0.993592
vn -0.754498 0.654493 0.048698
vn -0.510486 0.414014 0.753655
vn -0.462254 0.355027 -0.812574
vn -0.202606 -0.706207 0.678397
vn -0.194544 -0.707297 -0.679620
vn 0.137185 0.027502 0.990164
vn 0.710188 0.702833 0.040729
vn 0.517775 0.493015 0.699174
vn 0.448943 0.433304 -0.781472
vn -0.354757 -0.647114 0.674827
vn -0.342066 -0.594958 -0.727335
vn 0.005939 0.095315 0.995429
vn 0.557406 0.829522 0.034531
vn 0.340258 0.551871 0.761356
vn 0.298124 0.494787 -0.816277
# 240 vertex normals

vt 0.178933 0.179839 -0.577973
vt 0.229980 0.181567 -0.577973
vt 0.228459 0.242692 -0.577973
vt 0.178843 0.241168 -0.577973
vt 0.906083 0.554862 -0.333596
vt 0.846852 0.612445 -0.333596
vt 0.778100 0.535120 -0.333596
vt 0.823092 0.508460 -0.333596
vt 0.945471 0.587788 -0.333596
vt 0.879831 0.651106 -0.333596
vt 0.856535 0.624255 -0.333596
vt 0.922908 0.567041 -0.333596
vt 0.966911 0.614567 -0.333596
vt 0.901888 0.674891 -0.333596
vt 0.149943 0.289968 0.335274
vt 0.261400 0.287701 -0.348597
vt 0.287035 0.330282 -0.348597
vt 0.170590 0.373933 -0.348597
vt 0.275759 0.183010 -0.577973
vt 0.319834 0.181674 -0.577973
vt 0.316634 0.249917 -0.577973
vt 0.273432 0.244035 -0.577973
vt 0.799705 0.642631 -0.333596
vt 0.731658 0.673465 -0.333596
vt 0.694828 0.587809 -0.333596
vt 0.737147 0.567540 -0.333596
vt 0.755995 0.724555 -0.333596
vt 0.737995 0.686293 -0.333596
vt 0.810229 0.654894 -0.333596
vt 0.829531 0.685722 -0.333596
vt 0.843424 0.715428 -0.333596
vt 0.773872 0.761454 -0.333596
vt 0.305393 0.368704 -0.348597
vt 0.335181 0.400273 -0.348597
vt 0.257960 0.481827 -0.348597
vt 0.201243 0.424032 -0.348597
vt 0.469303 0.187854 -0.577973
vt 0.468264 0.248959 -0.577973
vt 0.396131 0.248684 -0.577973
vt 0.396288 0.187545 -0.577973
vt 0.521050 0.732830 -0.333596
vt 0.527626 0.627109 -0.333596
vt 0.602194 0.612811 -0.333596
vt 0.629761 0.709666 -0.333596
vt 0.522880 0.784512 -0.333596
vt 0.520034 0.749053 -0.333596
vt 0.633600 0.724136 -0.333596
vt 0.641845 0.757877 -0.333596
vt 0.531111 0.815862 -0.333596
vt 0.648631 0.789188 -0.333596
vt 0.403035 0.433938 -0.348597
vt 0.471623 0.456125 -0.348597
vt 0.467110 0.585110 -0.348597
vt 0.354717 0.546663 -0.348597
vt 0.527937 0.187953 -0.577973
vt 0.528340 0.249013 -0.577973
vt 0.508174 0.248942 -0.577973
vt 0.507761 0.187872 -0.577973
vt 0.444323 0.728297 -0.333596
vt 0.451880 0.627555 -0.333596
vt 0.474689 0.630366 -0.333596
vt 0.477844 0.734090 -0.333596
vt 0.439960 0.780526 -0.333596
vt 0.443343 0.744778 -0.333596
vt 0.478770 0.750482 -0.333596
vt 0.478035 0.786130 -0.333596
vt 0.472880 0.818238 -0.333596
vt 0.434610 0.812676 -0.333596
vt 0.509411 0.459973 -0.348597
vt 0.528919 0.455111 -0.348597
vt 0.548273 0.576842 -0.348597
vt 0.512435 0.587142 -0.348597
vt 0.630501 0.185817 -0.577973
vt 0.632643 0.246879 -0.577973
vt 0.619042 0.247194 -0.577973
vt 0.617018 0.186124 -0.577973
vt 0.302023 0.699500 -0.333596
vt 0.337174 0.606742 -0.333596
vt 0.352028 0.612761 -0.333596
vt 0.327270 0.711001 -0.333596
vt 0.284652 0.747130 -0.333596
vt 0.296691 0.713928 -0.333596
vt 0.323548 0.725202 -0.333596
vt 0.313884 0.758043 -0.333596
vt 0.303606 0.788136 -0.333596
vt 0.273217 0.777395 -0.333596
vt 0.612954 0.429673 -0.348597
vt 0.623512 0.421391 -0.348597
vt 0.691906 0.520851 -0.348597
vt 0.668484 0.540451 -0.348597
vt 0.805940 0.178527 -0.577973
vt 0.805956 0.239887 -0.577973
vt 0.738192 0.241337 -0.577973
vt 0.736423 0.180302 -0.577973
vt 0.163967 0.638931 -0.333596
vt 0.079249 0.563216 -0.333596
vt 0.167717 0.516006 -0.333596
vt 0.224684 0.558974 -0.333596
vt 0.133373 0.676630 -0.333596
vt 0.048689 0.589896 -0.333596
vt 0.072052 0.568935 -0.333596
vt 0.155361 0.650298 -0.333596
vt 0.026063 0.616174 -0.333596
vt 0.111387 0.699607 -0.333596
vt 0.704382 0.356246 -0.348597
vt 0.734343 0.295394 -0.348597
vt 0.838764 0.298130 0.348597
vt 0.812823 0.411533 -0.348597
vt 0.263089 0.182141 -0.577973
vt 0.261024 0.246264 -0.577973
vt 0.246135 0.245650 -0.577973
vt 0.247899 0.181596 -0.577973
vt 0.834560 0.623880 -0.333596
vt 0.813767 0.638395 -0.333596
vt 0.744950 0.554969 -0.333596
vt 0.759081 0.545069 -0.333596
vt 0.866773 0.662452 -0.333596
vt 0.844440 0.677932 -0.333596
vt 0.823632 0.649072 -0.333596
vt 0.844449 0.634476 -0.333596
vt 0.861626 0.706331 -0.333596
vt 0.886008 0.689689 -0.333596
vt 0.305107 0.357559 -0.348597
vt 0.187371 0.414732 -0.348597
vt 0.174278 0.391039 -0.348597
vt 0.297537 0.344738 -0.348597
vt 0.490955 0.187543 0.577973
vt 0.490734 0.251646 0.566778
vt 0.484475 0.251638 -0.577973
vt 0.484888 0.187577 -0.577973
vt 0.506373 0.733133 -0.333596
vt 0.492508 0.735583 -0.333596
vt 0.496309 0.623093 -0.333596
vt 0.505904 0.622068 -0.333596
vt 0.508129 0.786666 -0.333596
vt 0.492577 0.787566 -0.333596
vt 0.492201 0.751611 -0.333596
vt 0.506322 0.749610 -0.333596
vt 0.493001 0.820943 -0.333596
vt 0.511489 0.820524 -0.333596
vt 0.493675 0.453915 -0.348597
vt 0.497541 0.591467 -0.348597
vt 0.482071 0.588211 -0.348597
vt 0.487574 0.452716 -0.348597
vt 0.721239 0.181049 -0.577973
vt 0.723525 0.242111 -0.577973
vt 0.715083 0.242592 -0.577973
vt 0.712362 0.181563 -0.577973
vt 0.193261 0.654172 -0.333596
vt 0.176657 0.646884 -0.333596
vt 0.241404 0.567165 -0.333596
vt 0.251230 0.571804 -0.333596
vt 0.163957 0.695549 -0.333596
vt 0.145998 0.685532 -0.333596
vt 0.166576 0.657698 -0.333596
vt 0.183365 0.666005 -0.333596
vt 0.129630 0.713004 -0.333596
vt 0.149488 0.724464 -0.333596
vt 0.694193 0.365680 -0.348597
vt 0.803868 0.425297 -0.348597
vt 0.789035 0.439165 -0.348597
vt 0.687535 0.370995 -0.348597
vt 0.167633 0.232822 -0.577973
vt 0.167662 0.181861 -0.577973
vt 0.834039 0.503795 -0.333596
vt 0.905987 0.541160 -0.333596
vt 0.928853 0.555940 -0.333596
vt 0.956007 0.579430 0.324965
vt 0.979408 0.604462 -0.333596
vt 0.160671 0.279942 -0.348597
vt 0.253225 0.276404 -0.348597
vt 0.818497 0.180617 -0.577973
vt 0.818472 0.231564 -0.577973
vt 0.076938 0.549012 -0.333596
vt 0.156014 0.509488 -0.333596
vt 0.037996 0.580627 0.333596
vt 0.063843 0.557517 -0.333596
vt 0.013905 0.604666 -0.333596
vt 0.742276 0.282653 -0.348597
vt 0.828982 0.286224 -0.348597
vt 0.380865 0.187275 -0.577973
vt 0.388293 0.188772 -0.577973
vt 0.387845 0.246685 -0.577973
vt 0.380150 0.248326 -0.577973
vt 0.267871 0.243347 -0.577973
vt 0.269932 0.183749 -0.577973
vt 0.645565 0.703602 -0.333596
vt 0.637382 0.705372 -0.333596
vt 0.612508 0.614973 -0.333596
vt 0.621514 0.611276 -0.333596
vt 0.743838 0.563597 -0.333596
vt 0.806071 0.639592 -0.333596
vt 0.658372 0.752848 -0.333596
vt 0.650271 0.755138 -0.333596
vt 0.641476 0.721055 -0.333596
vt 0.649280 0.718483 -0.333596
vt 0.816678 0.652103 -0.333596
vt 0.836272 0.682118 -0.333596
vt 0.667099 0.784130 -0.333596
vt 0.658054 0.785415 -0.333596
vt 0.851305 0.710160 -0.333596
vt 0.388377 0.430482 -0.348597
vt 0.394654 0.435129 -0.348597
vt 0.347983 0.540444 -0.348597
vt 0.340258 0.536501 -0.348597
vt 0.195373 0.418539 -0.348597
vt 0.302017 0.364271 -0.348597
vt 0.600655 0.186435 -0.577973
vt 0.608801 0.187744 -0.577973
vt 0.610228 0.245468 -0.577973
vt 0.601695 0.247468 -0.577973
vt 0.500353 0.248427 -0.577973
vt 0.500345 0.189006 -0.577973
vt 0.341687 0.712548 -0.333596
vt 0.334655 0.710099 -0.333596
vt 0.361435 0.618335 -0.333596
vt 0.372362 0.619028 -0.333596
vt 0.485431 0.629642 -0.333596
vt 0.485222 0.733314 -0.333596
vt 0.327445 0.761275 -0.333596
vt 0.320635 0.759639 -0.333596
vt 0.329935 0.725730 -0.333596
vt 0.336501 0.727126 -0.333596
vt 0.485420 0.750648 -0.333596
vt 0.485168 0.786905 -0.333596
vt 0.322003 0.793195 -0.333596
vt 0.312989 0.789927 -0.333596
vt 0.482632 0.819044 -0.333596
vt 0.598662 0.437739 -0.348597
vt 0.607172 0.436319 -0.348597
vt 0.661035 0.540988 -0.348597
vt 0.654206 0.544560 -0.348597
vt 0.504723 0.587802 -0.348597
vt 0.501616 0.460126 -0.348597
vt 0.731326 0.239770 -0.577973
vt 0.729381 0.182053 -0.577973
vt 0.231685 0.565539 -0.333596
vt 0.171266 0.642019 -0.333596
vt 0.161049 0.654134 -0.333596
vt 0.139745 0.681285 -0.333596
vt 0.121119 0.705818 -0.333596
vt 0.807774 0.418118 -0.348597
vt 0.701896 0.362882 -0.348597
vt 0.238555 0.182956 -0.577973
vt 0.237045 0.242250 -0.577973
vt 0.840716 0.618610 -0.333596
vt 0.769950 0.541566 -0.333596
vt 0.872856 0.657336 -0.333596
vt 0.849673 0.629565 -0.333596
vt 0.893088 0.681801 -0.333596
vt 0.290367 0.338228 -0.348597
vt 0.174149 0.382627 -0.348597
vt 0.476428 0.189217 -0.577973
vt 0.475884 0.248330 -0.577973
vt 0.513768 0.733025 -0.333596
vt 0.517020 0.626646 -0.333596
vt 0.515349 0.785657 -0.333596
vt 0.513042 0.748674 -0.333596
vt 0.521213 0.817389 -0.333596
vt 0.479229 0.456504 -0.348597
vt 0.475075 0.584618 -0.348597
vt 0.704299 0.183570 -0.577973
vt 0.706776 0.241180 -0.577973
vt 0.698123 0.243578 -0.577973
vt 0.695639 0.182520 -0.577973
vt 0.207645 0.660681 -0.333596
vt 0.200254 0.657848 -0.333596
vt 0.259702 0.577882 -0.333596
vt 0.269966 0.580728 -0.333596
vt 0.179856 0.702938 -0.333596
vt 0.172226 0.699385 -0.333596
vt 0.190939 0.668863 -0.333596
vt 0.197596 0.672531 -0.333596
vt 0.168491 0.733148 -0.333596
vt 0.159794 0.727948 -0.333596
vt 0.674355 0.381585 -0.348597
vt 0.682282 0.377561 -0.348597
vt 0.781295 0.443691 -0.348597
vt 0.776341 0.450587 -0.348597
vt 0.336391 0.182359 -0.577973
vt 0.364390 0.185606 -0.577973
vt 0.362344 0.249315 -0.577973
vt 0.334463 0.250633 -0.577973
vt 0.669427 0.694846 -0.333596
vt 0.643739 0.604497 -0.333596
vt 0.673571 0.596368 -0.333596
vt 0.717841 0.678975 -0.333596
vt 0.742053 0.729939 -0.333596
vt 0.686307 0.745500 -0.333596
vt 0.674379 0.709444 -0.333596
vt 0.725217 0.691239 -0.333596
vt 0.695560 0.779526 -0.333596
vt 0.752313 0.769647 -0.333596
vt 0.348320 0.410041 -0.348597
vt 0.373088 0.422676 -0.348597
vt 0.317321 0.521831 -0.348597
vt 0.270559 0.491971 -0.348597
vt 0.327774 0.183301 -0.577973
vt 0.325370 0.249042 -0.577973
vt 0.724837 0.676391 -0.333596
vt 0.685119 0.594032 -0.333596
vt 0.748983 0.727725 -0.333596
vt 0.731116 0.688070 -0.333596
vt 0.762873 0.765465 -0.333596
vt 0.339542 0.407627 -0.348597
vt 0.265338 0.485790 -0.348597
vt 0.545360 0.248579 -0.577973
vt 0.543766 0.187547 -0.577973
vt 0.430942 0.630029 -0.333596
vt 0.428486 0.728297 -0.333596
vt 0.427700 0.743588 -0.333596
vt 0.423368 0.778152 -0.333596
vt 0.416918 0.809618 -0.333596
vt 0.545444 0.455882 -0.348597
vt 0.564310 0.574664 -0.348597
vt 0.536523 0.189542 -0.577973
vt 0.537650 0.247139 -0.577973
vt 0.436567 0.728219 -0.333596
vt 0.440959 0.630478 -0.333596
vt 0.432238 0.779246 -0.333596
vt 0.436067 0.743300 -0.333596
vt 0.426525 0.809957 -0.333596
vt 0.537933 0.457865 -0.348597
vt 0.555531 0.573649 -0.348597
vt 0.642675 0.185329 -0.577973
vt 0.646140 0.246331 -0.577973
vt 0.290885 0.694992 -0.333596
vt 0.321350 0.600945 -0.333596
vt 0.285538 0.709282 -0.333596
vt 0.272352 0.741967 -0.333596
vt 0.259528 0.771616 -0.333596
vt 0.701500 0.512948 -0.348597
vt 0.633451 0.413677 -0.348597
vt 0.635826 0.187388 -0.577973
vt 0.638656 0.244984 -0.577973
vt 0.297433 0.697539 -0.333596
vt 0.329274 0.605828 -0.333596
vt 0.279639 0.744831 -0.333596
vt 0.292622 0.711149 -0.333596
vt 0.267871 0.773722 -0.333596
vt 0.629487 0.420023 -0.348597
vt 0.694324 0.515896 -0.348597
vt 0.868046 0.084107 -0.330725
vt 0.871538 0.061028 -0.330725
vt 0.887860 0.054762 0.330720
vt 0.883456 0.104109 0.330725
vt 0.952427 0.056281 -0.330725
vt 0.958593 0.097327 -0.330725
vt 0.122870 0.091286 -0.333419
vt 0.053874 0.101920 0.333419
vt 0.046494 0.098713 -0.333419
vt 0.039823 0.076447 -0.333419
vt 0.052124 0.054293 0.333193
vt 0.122665 0.049792 -0.333419
vt 0.376965 0.186903 -0.577973
vt 0.376086 0.248602 -0.577973
vt 0.657606 0.699404 -0.333596
vt 0.627473 0.609781 -0.333596
vt 0.672959 0.748705 -0.333596
vt 0.662249 0.713748 -0.333596
vt 0.681650 0.781429 -0.333596
vt 0.328149 0.528705 -0.348597
vt 0.384806 0.428664 -0.348597
vt 0.371081 0.188082 -0.577973
vt 0.369644 0.247250 -0.577973
vt 0.662880 0.697368 -0.333596
vt 0.635511 0.609095 -0.333596
vt 0.678506 0.747237 -0.333596
vt 0.667166 0.711071 -0.333596
vt 0.687440 0.779188 -0.333596
vt 0.378324 0.428050 -0.348597
vt 0.324509 0.524010 -0.348597
# 372 texture coords

g Archway_Overlay_105x205_Arch_C
s 1
f 1/1/1 2/2/2 3/3/3 4/4/4 
f 5/5/5 6/6/6 2/7/2 1/8/1 
f 7/9/7 8/10/8 9/11/9 10/12/10 
f 11/13/11 12/14/12 8/10/8 7/9/7 
f 11/15/11 4/16/4 3/17/3 12/18/12 
f 13/19/13 14/20/14 15/21/15 16/22/16 
f 17/23/17 18/24/18 14/25/14 13/26/13 
f 19/27/19 20/28/20 21/29/21 22/30/22 
f 23/31/23 24/32/24 19/27/19 22/30/22 
f 16/33/16 15/34/15 24/35/24 23/36/23 
f 25/37/25 26/38/26 27/39/27 28/40/28 
f 29/41/29 25/42/25 28/43/28 30/44/30 
f 31/45/31 32/46/32 33/47/33 34/48/34 
f 35/49/35 31/45/31 34/48/34 36/50/36 
f 27/51/27 26/52/26 35/53/35 36/54/36 
f 37/55/37 38/56/38 39/57/39 40/58/40 
f 41/59/41 37/60/37 40/61/40 42/62/42 
f 43/63/43 44/64/44 45/65/45 46/66/46 
f 47/67/47 48/68/48 43/63/43 46/66/46 
f 39/69/39 38/70/38 48/71/48 47/72/47 
f 49/73/49 50/74/50 51/75/51 52/76/52 
f 53/77/53 49/78/49 52/79/52 54/80/54 
f 55/81/55 56/82/56 57/83/57 58/84/58 
f 59/85/59 60/86/60 55/81/55 58/84/58 
f 51/87/51 50/88/50 60/89/60 59/90/59 
f 61/91/61 62/92/62 63/93/63 64/94/64 
f 65/95/65 66/96/66 61/97/61 64/98/64 
f 67/99/67 68/100/68 69/101/69 70/102/70 
f 71/103/71 68/100/68 67/99/67 72/104/72 
f 63/105/63 62/106/62 71/107/71 72/108/72 
f 10/12/10 9/11/9 6/6/6 5/5/5 
f 17/23/17 21/29/21 20/28/20 18/24/18 
f 33/47/33 32/46/32 29/41/29 30/44/30 
f 42/62/42 45/65/45 44/64/44 41/59/41 
f 54/80/54 57/83/57 56/82/56 53/77/53 
f 65/95/65 70/102/70 69/101/69 66/96/66 
f 73/109/73 74/110/74 75/111/75 76/112/76 
f 77/113/77 78/114/78 73/115/73 76/116/76 
f 79/117/79 80/118/80 81/119/81 82/120/82 
f 83/121/83 80/118/80 79/117/79 84/122/84 
f 74/123/74 83/124/83 84/125/84 75/126/75 
f 85/127/85 86/128/86 87/129/87 88/130/88 
f 89/131/89 90/132/90 85/133/85 88/134/88 
f 91/135/91 92/136/92 93/137/93 94/138/94 
f 95/139/95 92/136/92 91/135/91 96/140/96 
f 86/141/86 95/142/95 96/143/96 87/144/87 
f 97/145/97 98/146/98 99/147/99 100/148/100 
f 101/149/101 102/150/102 97/151/97 100/152/100 
f 103/153/103 104/154/104 105/155/105 106/156/106 
f 107/157/107 104/154/104 103/153/103 108/158/108 
f 98/159/98 107/160/107 108/161/108 99/162/99 
f 82/120/82 81/119/81 78/114/78 77/113/77 
f 94/138/94 93/137/93 90/132/90 89/131/89 
f 106/156/106 105/155/105 102/150/102 101/149/101 
f 1/1/1 4/4/4 109/163/109 110/164/110 
f 5/5/5 1/8/1 110/165/110 111/166/111 
f 7/9/7 10/12/10 112/167/112 113/168/113 
f 11/13/11 7/9/7 113/168/113 114/169/114 
f 4/16/4 11/15/11 114/170/114 109/171/109 
f 61/91/61 115/172/115 116/173/116 62/92/62 
f 61/97/61 66/96/66 117/174/117 115/175/115 
f 69/101/69 68/100/68 118/176/118 119/177/119 
f 71/103/71 120/178/120 118/176/118 68/100/68 
f 71/107/71 62/106/62 116/179/116 120/180/120 
f 10/12/10 5/5/5 111/166/111 112/167/112 
f 66/96/66 69/101/69 119/177/119 117/174/117 
f 121/181/121 122/182/122 123/183/123 124/184/124 
f 16/22/16 125/185/125 126/186/126 13/19/13 
f 127/187/127 128/188/128 122/189/122 121/190/121 
f 13/26/13 126/191/126 129/192/129 17/23/17 
f 130/193/130 131/194/131 132/195/132 133/196/133 
f 21/29/21 134/197/134 135/198/135 22/30/22 
f 136/199/136 137/200/137 131/194/131 130/193/130 
f 22/30/22 135/198/135 138/201/138 23/31/23 
f 124/202/124 123/203/123 137/204/137 136/205/136 
f 23/36/23 138/206/138 125/207/125 16/33/16 
f 27/39/27 123/183/123 122/182/122 28/40/28 
f 28/43/28 122/189/122 128/188/128 30/44/30 
f 33/47/33 132/195/132 131/194/131 34/48/34 
f 34/48/34 131/194/131 137/200/137 36/50/36 
f 36/54/36 137/204/137 123/203/123 27/51/27 
f 139/208/139 140/209/140 141/210/141 142/211/142 
f 39/57/39 143/212/143 144/213/144 40/58/40 
f 145/214/145 146/215/146 140/216/140 139/217/139 
f 40/61/40 144/218/144 147/219/147 42/62/42 
f 148/220/148 149/221/149 150/222/150 151/223/151 
f 45/65/45 152/224/152 153/225/153 46/66/46 
f 154/226/154 155/227/155 149/221/149 148/220/148 
f 46/66/46 153/225/153 156/228/156 47/67/47 
f 142/229/142 141/230/141 155/231/155 154/232/154 
f 47/72/47 156/233/156 143/234/143 39/69/39 
f 51/75/51 141/210/141 140/209/140 52/76/52 
f 52/79/52 140/216/140 146/215/146 54/80/54 
f 57/83/57 150/222/150 149/221/149 58/84/58 
f 58/84/58 149/221/149 155/227/155 59/85/59 
f 59/90/59 155/231/155 141/230/141 51/87/51 
f 157/235/157 158/236/158 64/94/64 63/93/63 
f 64/98/64 158/237/158 159/238/159 65/95/65 
f 70/102/70 160/239/160 161/240/161 67/99/67 
f 161/240/161 162/241/162 72/104/72 67/99/67 
f 72/108/72 162/242/162 157/243/157 63/105/63 
f 17/23/17 129/192/129 134/197/134 21/29/21 
f 133/196/133 132/195/132 128/188/128 127/187/127 
f 30/44/30 128/188/128 132/195/132 33/47/33 
f 42/62/42 147/219/147 152/224/152 45/65/45 
f 151/223/151 150/222/150 146/215/146 145/214/145 
f 54/80/54 146/215/146 150/222/150 57/83/57 
f 65/95/65 159/238/159 160/239/160 70/102/70 
f 163/244/163 164/245/164 3/3/3 2/2/2 
f 6/6/6 165/246/165 163/247/163 2/7/2 
f 8/10/8 166/248/166 167/249/167 9/11/9 
f 168/250/168 166/248/166 8/10/8 12/14/12 
f 3/17/3 164/251/164 168/252/168 12/18/12 
f 169/253/169 170/254/170 26/38/26 25/37/25 
f 29/41/29 171/255/171 169/256/169 25/42/25 
f 31/45/31 172/257/172 173/258/173 32/46/32 
f 35/49/35 174/259/174 172/257/172 31/45/31 
f 26/52/26 170/260/170 174/261/174 35/53/35 
f 175/262/175 176/263/176 177/264/177 178/265/178 
f 179/266/179 180/267/180 175/268/175 178/269/178 
f 181/270/181 182/271/182 183/272/183 184/273/184 
f 185/274/185 186/275/186 182/271/182 181/270/181 
f 177/276/177 176/277/176 186/278/186 185/279/185 
f 9/11/9 167/249/167 165/246/165 6/6/6 
f 32/46/32 173/258/173 171/255/171 29/41/29 
f 184/273/184 183/272/183 180/267/180 179/266/179 
f 73/109/73 126/186/126 125/185/125 74/110/74 
f 78/114/78 129/192/129 126/191/126 73/115/73 
f 80/118/80 135/198/135 134/197/134 81/119/81 
f 83/121/83 138/201/138 135/198/135 80/118/80 
f 74/123/74 125/207/125 138/206/138 83/124/83 
f 85/127/85 144/213/144 143/212/143 86/128/86 
f 90/132/90 147/219/147 144/218/144 85/133/85 
f 92/136/92 153/225/153 152/224/152 93/137/93 
f 95/139/95 156/228/156 153/225/153 92/136/92 
f 86/141/86 143/234/143 156/233/156 95/142/95 
f 97/145/97 158/236/158 157/235/157 98/146/98 
f 102/150/102 159/238/159 158/237/158 97/151/97 
f 104/154/104 161/240/161 160/239/160 105/155/105 
f 107/157/107 162/241/162 161/240/161 104/154/104 
f 98/159/98 157/243/157 162/242/162 107/160/107 
f 129/192/129 78/114/78 81/119/81 134/197/134 
f 93/137/93 152/224/152 147/219/147 90/132/90 
f 105/155/105 160/239/160 159/238/159 102/150/102 
f 164/245/164 163/244/163 76/112/76 75/111/75 
f 76/116/76 163/247/163 165/246/165 77/113/77 
f 82/120/82 167/249/167 166/248/166 79/117/79 
f 166/248/166 168/250/168 84/122/84 79/117/79 
f 84/125/84 168/252/168 164/251/164 75/126/75 
f 170/254/170 169/253/169 88/130/88 87/129/87 
f 88/134/88 169/256/169 171/255/171 89/131/89 
f 94/138/94 173/258/173 172/257/172 91/135/91 
f 172/257/172 174/259/174 96/140/96 91/135/91 
f 96/143/96 174/261/174 170/260/170 87/144/87 
f 176/263/176 175/262/175 100/148/100 99/147/99 
f 100/152/100 175/268/175 180/267/180 101/149/101 
f 106/156/106 183/272/183 182/271/182 103/153/103 
f 182/271/182 186/275/186 108/158/108 103/153/103 
f 108/161/108 186/278/186 176/277/176 99/162/99 
f 77/113/77 165/246/165 167/249/167 82/120/82 
f 89/131/89 171/255/171 173/258/173 94/138/94 
f 101/149/101 180/267/180 183/272/183 106/156/106 
f 187/280/187 188/281/188 189/282/189 190/283/190 
f 191/284/191 188/285/188 187/286/187 192/287/192 
f 193/288/193 194/289/194 195/290/195 196/291/196 
f 197/292/197 194/289/194 193/288/193 198/293/198 
f 190/294/190 189/295/189 197/296/197 198/297/198 
f 196/291/196 195/290/195 191/284/191 192/287/192 
f 199/298/199 200/299/200 15/21/15 14/20/14 
f 18/24/18 201/300/201 199/301/199 14/25/14 
f 19/27/19 202/302/202 203/303/203 20/28/20 
f 204/304/204 202/302/202 19/27/19 24/32/24 
f 15/34/15 200/305/200 204/306/204 24/35/24 
f 20/28/20 203/303/203 201/300/201 18/24/18 
f 200/299/200 199/298/199 187/280/187 190/283/190 
f 187/286/187 199/301/199 201/300/201 192/287/192 
f 196/291/196 203/303/203 202/302/202 193/288/193 
f 202/302/202 204/304/204 198/293/198 193/288/193 
f 198/297/198 204/306/204 200/305/200 190/294/190 
f 192/287/192 201/300/201 203/303/203 196/291/196 
f 139/208/139 142/211/142 205/307/205 206/308/206 
f 145/214/145 139/217/139 206/309/206 207/310/207 
f 148/220/148 151/223/151 208/311/208 209/312/209 
f 154/226/154 148/220/148 209/312/209 210/313/210 
f 205/314/205 142/229/142 154/232/154 210/315/210 
f 151/223/151 145/214/145 207/310/207 208/311/208 
f 211/316/211 212/317/212 38/56/38 37/55/37 
f 41/59/41 213/318/213 211/319/211 37/60/37 
f 43/63/43 214/320/214 215/321/215 44/64/44 
f 216/322/216 214/320/214 43/63/43 48/68/48 
f 38/70/38 212/323/212 216/324/216 48/71/48 
f 44/64/44 215/321/215 213/318/213 41/59/41 
f 212/317/212 211/316/211 206/308/206 205/307/205 
f 206/309/206 211/319/211 213/318/213 207/310/207 
f 208/311/208 215/321/215 214/320/214 209/312/209 
f 214/320/214 216/322/216 210/313/210 209/312/209 
f 210/315/210 216/324/216 212/323/212 205/314/205 
f 207/310/207 213/318/213 215/321/215 208/311/208 
f 217/325/217 178/265/178 177/264/177 218/326/218 
f 219/327/219 179/266/179 178/269/178 217/328/217 
f 181/270/181 184/273/184 220/329/220 221/330/221 
f 185/274/185 181/270/181 221/330/221 222/331/222 
f 177/276/177 185/279/185 222/332/222 218/333/218 
f 220/329/220 184/273/184 179/266/179 219/327/219 
f 223/334/223 217/325/217 218/326/218 224/335/224 
f 225/336/225 219/327/219 217/328/217 223/337/223 
f 226/338/226 221/330/221 220/329/220 227/339/227 
f 222/331/222 221/330/221 226/338/226 228/340/228 
f 224/341/224 218/333/218 222/332/222 228/342/228 
f 227/339/227 220/329/220 219/327/219 225/336/225 
f 223/334/223 224/335/224 50/74/50 49/73/49 
f 53/77/53 225/336/225 223/337/223 49/78/49 
f 55/81/55 226/338/226 227/339/227 56/82/56 
f 228/340/228 226/338/226 55/81/55 60/86/60 
f 50/88/50 224/341/224 228/342/228 60/89/60 
f 56/82/56 227/339/227 225/336/225 53/77/53 
f 113/343/113 112/344/112 111/345/111 114/346/114 
f 114/346/114 111/345/111 110/347/110 109/348/109 
f 115/349/115 117/350/117 119/351/119 118/352/118 
f 118/352/118 120/353/120 116/354/116 115/349/115 
f 229/355/229 121/181/121 124/184/124 230/356/230 
f 231/357/231 127/187/127 121/190/121 229/358/229 
f 232/359/232 130/193/130 133/196/133 233/360/233 
f 136/199/136 130/193/130 232/359/232 234/361/234 
f 124/202/124 136/205/136 234/362/234 230/363/230 
f 233/360/233 133/196/133 127/187/127 231/357/231 
f 188/281/188 235/364/235 236/365/236 189/282/189 
f 191/284/191 237/366/237 235/367/235 188/285/188 
f 194/289/194 238/368/238 239/369/239 195/290/195 
f 197/292/197 240/370/240 238/368/238 194/289/194 
f 236/371/236 240/372/240 197/296/197 189/295/189 
f 195/290/195 239/369/239 237/366/237 191/284/191 
f 230/356/230 236/365/236 235/364/235 229/355/229 
f 229/358/229 235/367/235 237/366/237 231/357/231 
f 233/360/233 239/369/239 238/368/238 232/359/232 
f 232/359/232 238/368/238 240/370/240 234/361/234 
f 234/362/234 240/372/240 236/371/236 230/363/230 
f 231/357/231 237/366/237 239/369/239 233/360/233 
# 238 polygons

