# 3ds Max Wavefront OBJ Exporter v0.97b - (c)2007 guruware
# File Created: 24.05.2015 12:00:36

#
# object Archway_Overlay_105x205_Sides_D
#

v  -67.327179 249.333267 57.536476
v  -77.898026 249.346436 57.549549
v  -77.957283 -0.000013 57.707493
v  -67.391327 -0.000022 57.707493
v  -81.617470 249.346436 63.101696
v  -81.676735 -0.000014 63.259624
v  -89.423241 249.346436 67.267975
v  -99.305687 249.346436 67.267990
v  -99.364975 -0.000012 67.425888
v  -89.482513 -0.000013 67.425888
v  -100.893700 249.346436 72.288788
v  -100.953026 -0.000013 72.446648
v  -110.013245 249.346436 72.288765
v  -110.072533 0.000003 72.446648
v  -110.024567 249.346436 35.688217
v  -110.083817 -0.000009 35.846130
v  -67.391327 -0.000020 35.779129
v  -67.327164 249.333267 35.608112
v  77.957283 -0.000027 57.707493
v  77.898071 249.346420 57.549549
v  67.327225 249.333252 57.536476
v  67.391327 -0.000034 57.707493
v  81.676735 -0.000028 63.259624
v  81.617516 249.346420 63.101696
v  99.364975 -0.000030 67.425888
v  99.305733 249.346420 67.267990
v  89.423286 249.346420 67.267975
v  89.482513 -0.000029 67.425888
v  100.953026 -0.000030 72.446648
v  100.893745 249.346420 72.288788
v  110.072533 -0.000016 72.446648
v  110.013290 249.346420 72.288765
v  110.083824 -0.000028 35.846123
v  110.024612 249.346420 35.688217
v  67.327209 249.333252 35.608112
v  67.391327 -0.000032 35.779129
# 36 vertices

vn 0.707464 0.000267 0.706749
vn 0.471467 0.000447 0.881884
vn 0.471017 0.000476 0.882124
vn 0.706895 0.000303 0.707319
vn 0.670963 0.000310 0.741491
vn 0.670824 0.000310 0.741617
vn 0.242749 0.000557 0.970089
vn 0.590776 0.000370 0.806835
vn 0.591115 0.000370 0.806587
vn 0.242632 0.000557 0.970118
vn 0.591118 0.000370 0.806585
vn 0.590772 0.000370 0.806838
vn -0.707087 0.000616 0.707126
vn -0.706908 0.000616 0.707305
vn -0.707753 -0.000279 -0.706460
vn -0.707978 -0.000312 -0.706235
vn 0.706648 -0.000667 -0.707565
vn 0.706289 -0.000634 -0.707924
vn 0.000000 1.000000 -0.000000
vn 0.000117 1.000000 -0.000172
vn -0.000000 -1.000000 -0.000000
vn -0.000001 -1.000000 -0.000000
vn -0.000000 -1.000000 0.000000
vn -0.471017 0.000476 0.882124
vn -0.471467 0.000447 0.881884
vn -0.707464 0.000267 0.706749
vn -0.706895 0.000303 0.707319
vn -0.670824 0.000310 0.741617
vn -0.670963 0.000310 0.741491
vn -0.591116 0.000370 0.806587
vn -0.590776 0.000370 0.806835
vn -0.242749 0.000557 0.970089
vn -0.242632 0.000557 0.970118
vn -0.590772 0.000370 0.806838
vn -0.591118 0.000370 0.806585
vn 0.706909 0.000616 0.707304
vn 0.707087 0.000616 0.707126
vn 0.707978 -0.000312 -0.706235
vn 0.707753 -0.000279 -0.706460
vn -0.706289 -0.000634 -0.707923
vn -0.706648 -0.000667 -0.707565
vn -0.000192 1.000000 -0.000145
vn 0.000001 -1.000000 -0.000000
vn 0.000000 -1.000000 0.000000
vn 0.000002 -1.000000 -0.000002
vn 0.000002 -1.000000 -0.000001
vn 0.000445 1.000000 -0.000156
vn 0.001246 0.999999 0.000000
vn 0.000576 1.000000 -0.000323
vn -0.000767 0.999999 -0.001128
vn -0.000308 1.000000 0.000000
vn -0.000590 1.000000 -0.000551
vn -0.000002 -1.000000 -0.000001
vn -0.000001 -1.000000 0.000000
# 54 vertex normals

vt 0.421685 0.834962 0.000000
vt 0.390603 0.835013 0.000000
vt 0.390119 0.128276 0.000000
vt 0.421183 0.128263 0.000000
vt 0.370962 0.835014 0.000000
vt 0.370477 0.128277 0.000000
vt 0.344956 0.835019 0.000000
vt 0.315904 0.835032 0.000000
vt 0.315410 0.128296 0.000000
vt 0.344467 0.128283 0.000000
vt 0.300422 0.835033 0.000000
vt 0.299927 0.128297 0.000000
vt 0.273605 0.835044 0.000000
vt 0.273110 0.128308 0.000000
vt 0.249935 0.837127 0.000000
vt 0.142304 0.837127 0.000000
vt 0.142767 0.130391 0.000000
vt 0.250399 0.130391 0.000000
vt 0.485666 0.128263 0.000000
vt 0.486169 0.834962 0.000000
vt 0.016743 0.837043 0.000000
vt 0.017220 0.130344 0.000000
vt 0.064326 0.886889 0.000000
vt 0.079897 0.886889 0.000000
vt 0.082608 0.895462 0.000000
vt 0.064306 0.949380 0.000000
vt 0.077485 0.070799 0.000000
vt 0.060652 0.071939 0.000000
vt 0.038743 0.019383 0.000000
vt 0.608759 0.131540 0.000000
vt 0.608275 0.838277 0.000000
vt 0.577193 0.838226 0.000000
vt 0.577694 0.131526 0.000000
vt 0.628402 0.131542 0.000000
vt 0.627917 0.838278 0.000000
vt 0.683464 0.131560 0.000000
vt 0.682971 0.838296 0.000000
vt 0.653921 0.838283 0.000000
vt 0.654411 0.131547 0.000000
vt 0.698944 0.131561 0.000000
vt 0.698449 0.838297 0.000000
vt 0.725760 0.131572 0.000000
vt 0.725266 0.838309 0.000000
vt 0.857891 0.130927 0.000000
vt 0.858353 0.837664 0.000000
vt 0.750723 0.837664 0.000000
vt 0.750259 0.130927 0.000000
vt 0.512708 0.838225 0.000000
vt 0.513211 0.131526 0.000000
vt 0.983914 0.837580 0.000000
vt 0.983437 0.130881 0.000000
vt 0.914051 0.904699 0.000000
vt 0.916762 0.896127 0.000000
vt 0.932333 0.896127 0.000000
vt 0.932352 0.958618 0.000000
vt 0.883763 0.056416 0.000000
vt 0.865723 0.056416 0.000000
vt 0.865723 0.018976 0.000000
vt 0.920314 0.073008 0.000000
vt 0.938615 0.019090 0.000000
vt 0.938596 0.081581 0.000000
vt 0.923025 0.081581 0.000000
vt 0.903441 0.073008 0.000000
vt 0.890114 0.065895 0.000000
vt 0.099480 0.895462 0.000000
vt 0.112807 0.902575 0.000000
vt 0.119158 0.912055 0.000000
vt 0.137206 0.912077 0.000000
vt 0.137206 0.949517 0.000000
vt 0.877501 0.921292 0.000000
vt 0.883851 0.911812 0.000000
vt 0.897178 0.904699 0.000000
vt 0.859452 0.958754 0.000000
vt 0.859452 0.921314 0.000000
vt 0.058528 0.080675 0.000000
vt 0.042993 0.081729 0.000000
vt 0.111461 0.014341 0.000000
vt 0.113992 0.051696 0.000000
vt 0.095993 0.052915 0.000000
vt 0.090299 0.062801 0.000000
# 80 texture coords

g Archway_Overlay_105x205_Sides_D
s 1
f 1/1/1 2/2/2 3/3/3 4/4/4 
f 2/2/2 5/5/5 6/6/6 3/3/3 
f 7/7/7 8/8/8 9/9/9 10/10/10 
f 8/8/8 11/11/11 12/12/12 9/9/9 
f 11/11/11 13/13/13 14/14/14 12/12/12 
f 13/15/13 15/16/15 16/17/16 14/18/14 
f 4/4/4 17/19/17 18/20/18 1/1/1 
f 16/17/16 15/16/15 18/21/18 17/22/17 
s 2
f 13/23/19 11/24/19 8/25/19 15/26/20 
f 10/27/21 9/28/22 16/29/23 
s 1
f 5/5/5 7/7/7 10/10/10 6/6/6 
f 19/30/24 20/31/25 21/32/26 22/33/27 
f 23/34/28 24/35/29 20/31/25 19/30/24 
f 25/36/30 26/37/31 27/38/32 28/39/33 
f 29/40/34 30/41/35 26/37/31 25/36/30 
f 31/42/36 32/43/37 30/41/35 29/40/34 
f 33/44/38 34/45/39 32/46/37 31/47/36 
f 35/48/40 36/49/41 22/33/27 21/32/26 
f 35/50/40 34/45/39 33/44/38 36/51/41 
s 2
f 26/52/19 30/53/19 32/54/19 34/55/42 
f 19/56/23 22/57/43 36/58/44 25/59/45 
f 36/58/44 33/60/44 31/61/43 25/59/45 
f 31/61/43 29/62/46 25/59/45 
f 19/56/23 25/59/45 28/63/21 23/64/21 
s 1
f 28/39/33 27/38/32 24/35/29 23/34/28 
s 2
f 7/65/19 5/66/19 2/67/47 15/26/20 
f 15/26/20 8/25/19 7/65/19 
f 2/67/47 1/68/48 18/69/49 15/26/20 
f 20/70/50 24/71/19 27/72/19 34/55/42 
f 27/72/19 26/52/19 34/55/42 
f 34/55/42 35/73/51 21/74/52 20/70/50 
f 9/28/22 12/75/53 14/76/54 16/29/23 
f 17/77/23 4/78/22 3/79/23 16/29/23 
f 3/79/23 6/80/21 10/27/21 16/29/23 
# 30 polygons - 4 triangles

