# 3ds Max Wavefront OBJ Exporter v0.97b - (c)2007 guruware
# File Created: 24.05.2015 12:00:36

#
# object Archway_Overlay_105x205_Sides_C
#

v  -111.358284 221.876724 66.462006
v  -111.288651 12.977762 66.585632
v  -71.361214 12.981553 67.011642
v  -71.431625 221.890213 66.888016
v  -69.845329 12.981084 65.527733
v  -69.526726 12.968897 35.600506
v  -69.596375 221.871399 35.476879
v  -69.915703 221.889801 65.404106
v  -71.010674 12.968143 34.084587
v  -110.936546 12.964369 33.658581
v  -111.006935 221.856522 33.534954
v  -71.080284 221.869980 33.960960
v  -112.452499 12.964837 35.142494
v  -112.772530 12.977010 65.069710
v  -112.842194 221.875305 64.946083
v  -112.522858 221.856934 35.018867
v  -67.533127 249.330139 31.945747
v  -114.530441 249.312897 31.444300
v  -114.925217 249.336365 68.442184
v  -67.927902 249.353638 68.943642
v  -65.943436 -0.005203 32.120808
v  -66.338181 0.010165 69.118690
v  -67.854103 0.010637 70.602600
v  -67.427345 -0.005976 30.604887
v  -114.851433 0.005930 70.101151
v  -114.424660 -0.010676 30.103434
v  -116.335342 0.005157 68.585228
v  -115.940582 -0.010204 31.587343
v  -114.860176 11.478696 70.085655
v  -67.862854 11.484796 70.587112
v  -114.931877 223.377609 69.958656
v  -67.934555 223.393509 70.460114
v  -67.943367 247.854584 70.444511
v  -114.940681 247.837311 69.943054
v  -65.952179 11.468068 32.105312
v  -66.346931 11.484331 69.103203
v  -66.032669 247.830688 31.962708
v  -66.427444 247.854187 68.960602
v  -66.418633 223.393097 68.976204
v  -66.023865 223.370514 31.978310
v  -114.433403 11.461129 30.087942
v  -67.436089 11.467214 30.589396
v  -114.513893 247.811951 29.945341
v  -67.516579 247.829193 30.446789
v  -67.507774 223.369095 30.462393
v  -114.505089 223.353226 29.960945
v  -116.344086 11.477841 68.569740
v  -115.949326 11.461594 31.571854
v  -116.424591 247.835815 68.427139
v  -116.029816 247.812347 31.429253
v  -116.021011 223.353638 31.444855
v  -116.415787 223.376190 68.442741
v  -112.724678 12.978026 68.606346
v  -69.968628 12.983692 69.062546
v  -67.825356 12.982938 66.963402
v  -67.475861 12.968433 34.207916
v  -69.574997 12.967881 32.064644
v  -112.328789 12.962229 31.608469
v  -114.473183 12.962982 33.706467
v  -114.822678 12.977474 66.461960
v  -70.039207 221.891907 68.938522
v  -112.794136 221.877441 68.482330
v  -114.892700 221.875397 66.338493
v  -114.543190 221.855453 33.583012
v  -112.399353 221.854828 31.484449
v  -69.644432 221.869263 31.940632
v  -67.545868 221.871307 34.084465
v  -67.895370 221.891281 66.839958
v  111.358330 221.876709 66.462006
v  71.431671 221.890198 66.888016
v  71.361214 12.981541 67.011642
v  111.288651 12.977743 66.585632
v  69.845329 12.981072 65.527733
v  69.915749 221.889786 65.404106
v  69.596420 221.871384 35.476879
v  69.526726 12.968884 35.600506
v  71.010674 12.968131 34.084587
v  71.080330 221.869965 33.960960
v  111.006981 221.856506 33.534954
v  110.936546 12.964350 33.658581
v  112.452499 12.964817 35.142494
v  112.522903 221.856918 35.018867
v  112.842239 221.875290 64.946083
v  112.772530 12.976991 65.069710
v  67.533173 249.330124 31.945747
v  67.927948 249.353622 68.943642
v  114.925262 249.336349 68.442184
v  114.530487 249.312881 31.444300
v  115.940582 -0.010224 31.587343
v  116.335342 0.005136 68.585228
v  114.851433 0.005910 70.101151
v  114.424660 -0.010696 30.103434
v  67.427345 -0.005988 30.604887
v  67.854103 0.010625 70.602600
v  66.338181 0.010153 69.118690
v  65.943436 -0.005214 32.120808
v  114.860176 11.478676 70.085655
v  67.862854 11.484783 70.587112
v  114.931923 223.377594 69.958656
v  114.940727 247.837296 69.943054
v  67.943413 247.854568 70.444511
v  67.934601 223.393494 70.460114
v  66.346931 11.484320 69.103203
v  65.952179 11.468057 32.105312
v  66.032715 247.830673 31.962708
v  66.023911 223.370499 31.978310
v  66.418678 223.393082 68.976204
v  66.427490 247.854172 68.960602
v  67.436089 11.467202 30.589396
v  114.433403 11.461109 30.087942
v  114.513939 247.811935 29.945341
v  114.505135 223.353210 29.960945
v  67.507820 223.369080 30.462393
v  67.516624 247.829178 30.446789
v  115.949326 11.461573 31.571854
v  116.344086 11.477821 68.569740
v  116.424637 247.835800 68.427139
v  116.415833 223.376175 68.442741
v  116.021057 223.353622 31.444855
v  116.029861 247.812332 31.429253
v  112.724678 12.978006 68.606346
v  69.968628 12.983680 69.062546
v  67.825356 12.982926 66.963402
v  67.475861 12.968422 34.207916
v  69.574997 12.967870 32.064644
v  112.328789 12.962210 31.608469
v  114.473183 12.962962 33.706467
v  114.822678 12.977454 66.461960
v  70.039253 221.891891 68.938522
v  112.794182 221.877426 68.482330
v  114.892746 221.875381 66.338493
v  114.543236 221.855438 33.583012
v  112.399399 221.854813 31.484449
v  69.644478 221.869247 31.940632
v  67.545914 221.871292 34.084465
v  67.895416 221.891266 66.839958
# 136 vertices

vn -0.392518 0.000413 0.919744
vn -0.392458 0.000414 0.919770
vn 0.372846 0.000675 0.927893
vn 0.372800 0.000675 0.927911
vn 0.919743 0.000540 0.392520
vn 0.927927 0.000089 -0.372762
vn 0.927912 0.000090 -0.372800
vn 0.919741 0.000542 0.392525
vn 0.392579 -0.000413 -0.919718
vn -0.372763 -0.000675 -0.927926
vn -0.372808 -0.000675 -0.927908
vn 0.392520 -0.000413 -0.919743
vn -0.919745 -0.000540 -0.392517
vn -0.927893 -0.000089 0.372847
vn -0.927909 -0.000090 0.372807
vn -0.919746 -0.000542 -0.392513
vn 0.344896 0.875488 -0.338480
vn -0.338237 0.875237 -0.345769
vn -0.345526 0.875669 0.337364
vn 0.337606 0.875920 0.344653
vn 0.000096 -1.000000 0.000416
vn -0.376903 0.435471 0.817502
vn -0.392300 0.000943 0.919837
vn 0.372865 0.001537 0.927885
vn 0.359058 0.435858 0.825291
vn -0.376677 -0.434474 0.818136
vn 0.359435 -0.434209 0.825995
vn 0.332101 0.342265 0.878956
vn -0.351031 0.342015 0.871667
vn 0.919686 0.001231 0.392652
vn 0.928011 0.000204 -0.372552
vn 0.825555 0.434936 -0.359569
vn 0.817616 0.435674 0.376420
vn 0.879050 0.341690 -0.332442
vn 0.871761 0.342124 0.350691
vn 0.818019 -0.434329 0.377099
vn 0.825871 -0.434790 -0.359019
vn 0.392739 -0.000943 -0.919650
vn -0.372742 -0.001537 -0.927934
vn -0.359515 0.433847 -0.826151
vn 0.376746 0.434234 -0.818232
vn -0.332347 0.340906 -0.879391
vn 0.350786 0.341157 -0.872102
vn 0.376972 -0.435231 -0.817598
vn -0.359138 -0.435497 -0.825447
vn -0.919800 -0.001231 -0.392385
vn -0.927809 -0.000203 0.373056
vn -0.825887 0.434770 0.359007
vn -0.818116 0.434032 -0.377229
vn -0.879296 0.341482 0.332007
vn -0.872007 0.341048 -0.351126
vn -0.817714 -0.435376 -0.376552
vn -0.825571 -0.434916 0.359557
vn -0.093368 0.920406 0.379653
vn 0.084919 0.920542 0.381303
vn -0.000258 1.000000 -0.000858
vn -0.000083 1.000000 -0.000239
vn 0.379770 0.920430 0.092645
vn 0.381827 0.920267 -0.085534
vn -0.000081 1.000000 -0.000438
vn -0.000525 1.000000 -0.000564
vn 0.093117 0.919991 -0.380719
vn -0.085299 0.919854 -0.382874
vn -0.000258 1.000000 -0.000859
vn -0.000083 1.000000 -0.000238
vn -0.380600 0.919966 -0.093839
vn -0.382350 0.920129 0.084685
vn -0.000080 1.000000 -0.000437
vn -0.000526 1.000000 -0.000564
vn 0.085407 -0.919935 0.382655
vn -0.092930 -0.919998 0.380746
vn 0.000337 -1.000000 0.000595
vn 0.000322 -1.000000 0.000603
vn -0.381765 -0.920280 0.085673
vn -0.379883 -0.920380 -0.092678
vn 0.000304 -1.000000 0.000604
vn 0.000366 -1.000000 0.000610
vn -0.084811 -0.920461 -0.381522
vn 0.093555 -0.920398 -0.379625
vn 0.000337 -1.000000 0.000594
vn 0.000321 -1.000000 0.000603
vn 0.382413 -0.920116 -0.084544
vn 0.380488 -0.920016 0.093808
vn 0.000304 -1.000000 0.000605
vn 0.392518 0.000413 0.919744
vn -0.372800 0.000675 0.927911
vn -0.372846 0.000675 0.927893
vn 0.392458 0.000413 0.919770
vn -0.919743 0.000541 0.392520
vn -0.919741 0.000542 0.392525
vn -0.927912 0.000091 -0.372800
vn -0.927927 0.000089 -0.372762
vn -0.392579 -0.000413 -0.919718
vn -0.392520 -0.000413 -0.919743
vn 0.372808 -0.000675 -0.927908
vn 0.372763 -0.000675 -0.927926
vn 0.919745 -0.000541 -0.392517
vn 0.919746 -0.000542 -0.392513
vn 0.927909 -0.000091 0.372807
vn 0.927893 -0.000089 0.372847
vn -0.344895 0.875488 -0.338480
vn -0.337606 0.875920 0.344653
vn 0.345526 0.875669 0.337364
vn 0.338238 0.875237 -0.345769
vn -0.000096 -1.000000 0.000416
vn 0.376904 0.435471 0.817502
vn -0.359058 0.435858 0.825291
vn -0.372865 0.001537 0.927884
vn 0.392300 0.000943 0.919837
vn 0.376677 -0.434474 0.818136
vn 0.351031 0.342014 0.871667
vn -0.332101 0.342265 0.878956
vn -0.359436 -0.434209 0.825995
vn -0.919686 0.001231 0.392652
vn -0.817616 0.435674 0.376420
vn -0.825555 0.434935 -0.359569
vn -0.928011 0.000204 -0.372552
vn -0.879050 0.341691 -0.332442
vn -0.825871 -0.434790 -0.359019
vn -0.818019 -0.434329 0.377099
vn -0.871761 0.342124 0.350691
vn -0.392739 -0.000943 -0.919650
vn -0.376746 0.434235 -0.818232
vn 0.359516 0.433847 -0.826151
vn 0.372742 -0.001537 -0.927934
vn 0.332347 0.340906 -0.879391
vn 0.359138 -0.435497 -0.825447
vn -0.376972 -0.435231 -0.817598
vn -0.350786 0.341157 -0.872102
vn 0.919800 -0.001231 -0.392385
vn 0.818116 0.434032 -0.377229
vn 0.825887 0.434770 0.359007
vn 0.927809 -0.000203 0.373056
vn 0.879296 0.341481 0.332007
vn 0.825570 -0.434916 0.359557
vn 0.817714 -0.435376 -0.376552
vn 0.872007 0.341048 -0.351126
vn 0.093368 0.920406 0.379653
vn 0.000083 1.000000 -0.000239
vn 0.000258 1.000000 -0.000858
vn -0.084919 0.920542 0.381303
vn -0.379770 0.920430 0.092645
vn 0.000525 1.000000 -0.000564
vn 0.000081 1.000000 -0.000438
vn -0.381827 0.920268 -0.085534
vn -0.093117 0.919991 -0.380719
vn 0.000083 1.000000 -0.000238
vn 0.000258 1.000000 -0.000859
vn 0.085299 0.919854 -0.382874
vn 0.380600 0.919966 -0.093839
vn 0.000526 1.000000 -0.000564
vn 0.000080 1.000000 -0.000437
vn 0.382350 0.920129 0.084685
vn -0.085407 -0.919935 0.382655
vn -0.000322 -1.000000 0.000603
vn -0.000337 -1.000000 0.000595
vn 0.092930 -0.919998 0.380746
vn 0.381765 -0.920280 0.085673
vn -0.000366 -1.000000 0.000610
vn -0.000305 -1.000000 0.000604
vn 0.379883 -0.920380 -0.092678
vn 0.084811 -0.920461 -0.381522
vn -0.000337 -1.000000 0.000594
vn -0.093555 -0.920398 -0.379625
vn -0.382413 -0.920115 -0.084544
vn -0.000304 -1.000000 0.000605
vn -0.380488 -0.920016 0.093808
# 167 vertex normals

vt 0.631467 0.700877 -0.244618
vt 0.631720 0.070264 -0.244618
vt 0.745614 0.069696 -0.244618
vt 0.745495 0.701165 -0.244618
vt 0.756250 0.069757 -0.244618
vt 0.842664 0.069539 -0.244618
vt 0.842907 0.700780 -0.244618
vt 0.756331 0.700833 -0.244618
vt 0.852486 0.070124 -0.244618
vt 0.963618 0.071066 -0.244618
vt 0.963724 0.701169 -0.244618
vt 0.852673 0.700347 -0.244618
vt 0.537121 0.069261 -0.244618
vt 0.621639 0.070347 -0.244618
vt 0.621354 0.700771 -0.244618
vt 0.536974 0.700802 -0.244618
vt 0.323429 0.919243 -0.767808
vt 0.223453 0.920310 0.767641
vt 0.222613 0.841606 -0.767808
vt 0.322589 0.840539 0.767808
vt 0.047953 0.916325 -0.222618
vt 0.048793 0.837620 0.222618
vt 0.052018 0.834464 -0.222618
vt 0.051110 0.919549 -0.222618
vt 0.151993 0.835530 -0.222618
vt 0.151085 0.920616 -0.222618
vt 0.155149 0.838755 -0.191544
vt 0.154310 0.917459 -0.222618
vt 0.625211 0.056265 -0.244618
vt 0.624437 0.021806 -0.244618
vt 0.749936 0.019891 0.244618
vt 0.750272 0.054470 -0.244618
vt 0.624725 0.716048 -0.244618
vt 0.749844 0.715744 -0.244618
vt 0.749379 0.789187 -0.244618
vt 0.623054 0.790219 -0.244618
vt 0.752528 0.020006 -0.244618
vt 0.851150 0.020103 -0.244618
vt 0.850102 0.054592 -0.244618
vt 0.752386 0.054743 -0.244618
vt 0.851560 0.789121 -0.244618
vt 0.752624 0.789208 -0.244618
vt 0.752291 0.715531 -0.244618
vt 0.850186 0.715447 -0.244618
vt 0.854886 0.020524 -0.244618
vt 0.982243 0.026727 -0.244618
vt 0.979602 0.060972 -0.244618
vt 0.852651 0.055431 -0.244618
vt 0.982868 0.785451 -0.244618
vt 0.855355 0.788946 -0.244618
vt 0.852737 0.714664 -0.244618
vt 0.979732 0.712260 -0.244618
vt 0.521711 0.022812 -0.244618
vt 0.621572 0.022226 -0.244618
vt 0.622680 0.056750 -0.244618
vt 0.523751 0.056984 -0.244618
vt 0.619099 0.790011 -0.244618
vt 0.519151 0.784272 -0.244618
vt 0.523692 0.711703 -0.244618
vt 0.622517 0.715738 -0.244618
vt 0.629775 0.063546 -0.244618
vt 0.746852 0.062312 -0.244618
vt 0.755316 0.062680 -0.244618
vt 0.845053 0.062116 -0.244618
vt 0.853267 0.063526 -0.244618
vt 0.970395 0.066252 -0.244618
vt 0.531588 0.062501 -0.244618
vt 0.621427 0.064146 -0.244618
vt 0.746655 0.708246 -0.244618
vt 0.629473 0.708106 -0.244618
vt 0.621188 0.707499 -0.244618
vt 0.531406 0.707065 -0.244618
vt 0.970541 0.707039 -0.244618
vt 0.853378 0.706494 -0.244618
vt 0.845134 0.708036 -0.244618
vt 0.755299 0.707821 -0.244618
vt 0.620751 0.796427 -0.244618
vt 0.750983 0.794992 -0.244618
vt 0.853677 0.795077 -0.244618
vt 0.518094 0.790237 -0.244618
vt 0.513651 0.784585 -0.244618
vt 0.525565 0.068101 -0.244618
vt 0.519499 0.059584 -0.244618
vt 0.519359 0.709222 -0.244618
vt 0.525617 0.701131 -0.244618
vt 0.515800 0.023886 -0.244618
vt 0.983076 0.791894 -0.244618
vt 0.531441 0.071138 -0.244618
vt 0.531494 0.698668 -0.244618
vt 0.366577 0.697358 -0.244688
vt 0.252546 0.697627 -0.244688
vt 0.252528 0.066160 -0.244688
vt 0.366395 0.066749 -0.244688
vt 0.241898 0.066184 -0.244688
vt 0.241738 0.697255 -0.244688
vt 0.155189 0.697139 -0.244688
vt 0.155497 0.065890 -0.244688
vt 0.145750 0.066273 -0.244688
vt 0.145391 0.696515 -0.244688
vt 0.034305 0.695448 -0.244688
vt 0.034678 0.065405 -0.244688
vt 0.460977 0.065779 -0.244688
vt 0.461077 0.697330 -0.244688
vt 0.376702 0.697279 -0.244688
vt 0.376454 0.066856 -0.244688
vt 0.768623 0.836260 -0.767809
vt 0.767749 0.918201 0.767809
vt 0.663661 0.917090 -0.767809
vt 0.664536 0.835150 0.767642
vt 0.949833 0.837145 -0.222618
vt 0.950708 0.919086 -0.191544
vt 0.947421 0.922443 -0.222618
vt 0.946476 0.833858 -0.222618
vt 0.842390 0.834969 -0.222618
vt 0.843335 0.923554 -0.222618
vt 0.839978 0.920267 0.222618
vt 0.839103 0.838326 -0.222618
vt 0.372979 0.052765 -0.244688
vt 0.247947 0.050957 -0.244688
vt 0.248313 0.016373 0.244688
vt 0.373770 0.018316 -0.244688
vt 0.373192 0.712544 -0.244688
vt 0.374758 0.786716 -0.244688
vt 0.248392 0.785660 -0.244688
vt 0.248063 0.712212 -0.244688
vt 0.245779 0.016488 -0.244688
vt 0.245876 0.051209 -0.244688
vt 0.148149 0.051086 -0.244688
vt 0.147373 0.016610 -0.244688
vt 0.146010 0.785576 -0.244688
vt 0.147797 0.711926 -0.244688
vt 0.245605 0.711972 -0.244688
vt 0.245093 0.785658 -0.244688
vt 0.143932 0.016970 -0.244688
vt 0.145591 0.051942 -0.244688
vt 0.018584 0.054179 -0.244688
vt 0.016592 0.019908 -0.244688
vt 0.014401 0.778769 -0.244688
vt 0.018601 0.705360 -0.244688
vt 0.145424 0.711225 -0.244688
vt 0.141957 0.785327 -0.244688
vt 0.476455 0.019339 -0.244688
vt 0.474399 0.053511 -0.244688
vt 0.375487 0.053272 -0.244688
vt 0.376608 0.018745 -0.244688
vt 0.378731 0.786512 -0.244688
vt 0.375425 0.712247 -0.244688
vt 0.474272 0.708323 -0.244688
vt 0.478688 0.780914 -0.244688
vt 0.368378 0.060027 -0.244688
vt 0.251321 0.058799 -0.244688
vt 0.242879 0.059123 -0.244688
vt 0.153171 0.058536 -0.244688
vt 0.144982 0.060051 -0.244688
vt 0.027830 0.059625 -0.244688
vt 0.466541 0.059021 -0.244688
vt 0.376705 0.060666 -0.244688
vt 0.251340 0.704728 -0.244688
vt 0.368519 0.704579 -0.244688
vt 0.376816 0.704017 -0.244688
vt 0.466596 0.703629 -0.244688
vt 0.027613 0.700181 -0.244688
vt 0.144707 0.703111 -0.244688
vt 0.152905 0.704464 -0.244688
vt 0.242714 0.704243 -0.244688
vt 0.377041 0.792919 -0.244688
vt 0.246700 0.791462 -0.244688
vt 0.143723 0.791486 -0.244688
vt 0.479728 0.786882 -0.244688
vt 0.484186 0.781239 -0.244688
vt 0.478641 0.056122 -0.244688
vt 0.472550 0.064636 -0.244688
vt 0.478625 0.705865 -0.244688
vt 0.472424 0.697736 -0.244688
vt 0.482365 0.020421 -0.244688
vt 0.014231 0.785222 -0.244688
vt 0.466657 0.067663 -0.244688
vt 0.466570 0.695212 -0.244688
# 178 texture coords

g Archway_Overlay_105x205_Sides_C
s 1
f 1/1/1 2/2/2 3/3/3 4/4/4 
f 5/5/5 6/6/6 7/7/7 8/8/8 
f 9/9/9 10/10/10 11/11/11 12/12/12 
f 13/13/13 14/14/14 15/15/15 16/16/16 
s 2
f 17/17/17 18/18/18 19/19/19 20/20/20 
s 1
f 21/21/21 22/22/21 23/23/21 24/24/21 
f 24/24/21 23/23/21 25/25/21 26/26/21 
f 25/25/21 27/27/21 28/28/21 26/26/21 
s 2
f 29/29/22 25/30/23 23/31/24 30/32/25 
f 31/33/26 32/34/27 33/35/28 34/36/29 
f 22/37/30 21/38/31 35/39/32 36/40/33 
f 37/41/34 38/42/35 39/43/36 40/44/37 
f 24/45/38 26/46/39 41/47/40 42/48/41 
f 43/49/42 44/50/43 45/51/44 46/52/45 
f 28/53/46 27/54/47 47/55/48 48/56/49 
f 49/57/50 50/58/51 51/59/52 52/60/53 
f 53/61/54 54/62/55 3/3/56 2/2/57 
f 55/63/58 56/64/59 6/6/60 5/5/61 
f 57/65/62 58/66/63 10/10/64 9/9/65 
f 59/67/66 60/68/67 14/14/68 13/13/69 
f 61/69/70 62/70/71 1/1/72 4/4/73 
f 63/71/74 64/72/75 16/16/76 15/15/77 
f 65/73/78 66/74/79 12/12/80 11/11/81 
f 67/75/82 68/76/83 8/8/84 7/7/77 
f 19/77/19 49/57/50 34/36/29 
f 33/35/28 38/42/35 20/78/20 
f 37/41/34 44/50/43 17/79/17 
f 18/80/18 43/81/42 50/58/51 
f 52/60/53 63/71/74 62/70/71 31/33/26 
f 29/29/22 53/61/54 60/68/67 47/55/48 
f 36/40/33 55/63/58 54/62/55 30/32/25 
f 32/34/27 61/69/70 68/76/83 39/43/36 
f 42/48/41 57/65/62 56/64/59 35/39/32 
f 40/44/37 67/75/82 66/74/79 45/51/44 
f 48/56/49 59/67/66 58/82/63 41/83/40 
f 46/84/45 65/85/78 64/72/75 51/59/52 
f 34/36/29 49/57/50 52/60/53 31/33/26 
f 23/31/24 22/37/30 36/40/33 30/32/25 
f 33/35/28 20/78/20 19/77/19 34/36/29 
f 21/38/31 24/45/38 42/48/41 35/39/32 
f 37/41/34 17/79/17 20/78/20 38/42/35 
f 26/86/39 28/53/46 48/56/49 41/83/40 
f 43/49/42 18/87/18 17/79/17 44/50/43 
f 49/57/50 19/77/19 18/80/18 50/58/51 
s 1
f 1/1/1 15/15/15 14/14/14 2/2/2 
s 2
f 29/29/22 47/55/48 27/54/47 25/30/23 
s 1
f 3/3/3 5/5/5 8/8/8 4/4/4 
s 2
f 32/34/27 39/43/36 38/42/35 33/35/28 
s 1
f 6/6/6 9/9/9 12/12/12 7/7/7 
s 2
f 40/44/37 45/51/44 44/50/43 37/41/34 
s 1
f 10/88/10 13/13/13 16/16/16 11/89/11 
s 2
f 46/84/45 51/59/52 50/58/51 43/81/42 
f 53/61/54 29/29/22 30/32/25 54/62/55 
f 61/69/70 32/34/27 31/33/26 62/70/71 
f 55/63/58 36/40/33 35/39/32 56/64/59 
f 67/75/82 40/44/37 39/43/36 68/76/83 
f 57/65/62 42/48/41 41/47/40 58/66/63 
f 65/73/78 46/52/45 45/51/44 66/74/79 
f 59/67/66 48/56/49 47/55/48 60/68/67 
f 63/71/74 52/60/53 51/59/52 64/72/75 
f 60/68/67 53/61/54 2/2/57 14/14/68 
f 54/62/55 55/63/58 5/5/61 3/3/56 
f 56/64/59 57/65/62 9/9/65 6/6/60 
f 58/82/63 59/67/66 13/13/69 10/88/64 
f 68/76/83 61/69/70 4/4/73 8/8/84 
f 62/70/71 63/71/74 15/15/77 1/1/72 
f 64/72/75 65/85/78 11/89/81 16/16/76 
f 66/74/79 67/75/82 7/7/77 12/12/80 
s 1
f 69/90/85 70/91/86 71/92/87 72/93/88 
f 73/94/89 74/95/90 75/96/91 76/97/92 
f 77/98/93 78/99/94 79/100/95 80/101/96 
f 81/102/97 82/103/98 83/104/99 84/105/100 
s 2
f 85/106/101 86/107/102 87/108/103 88/109/104 
s 1
f 89/110/105 90/111/105 91/112/105 92/113/105 
f 93/114/105 92/113/105 91/112/105 94/115/105 
f 94/115/105 95/116/105 96/117/105 93/114/105 
s 2
f 97/118/106 98/119/107 94/120/108 91/121/109 
f 99/122/110 100/123/111 101/124/112 102/125/113 
f 95/126/114 103/127/115 104/128/116 96/129/117 
f 105/130/118 106/131/119 107/132/120 108/133/121 
f 93/134/122 109/135/123 110/136/124 92/137/125 
f 111/138/126 112/139/127 113/140/128 114/141/129 
f 89/142/130 115/143/131 116/144/132 90/145/133 
f 117/146/134 118/147/135 119/148/136 120/149/137 
f 121/150/138 72/93/139 71/92/140 122/151/141 
f 123/152/142 73/94/143 76/97/144 124/153/145 
f 125/154/146 77/98/147 80/101/148 126/155/149 
f 127/156/150 81/102/151 84/105/152 128/157/153 
f 129/158/154 70/91/155 69/90/156 130/159/157 
f 131/160/158 83/104/159 82/103/160 132/161/161 
f 133/162/162 79/100/155 78/99/163 134/163/164 
f 135/164/165 75/96/159 74/95/166 136/165/167 
f 87/166/103 100/123/111 117/146/134 
f 101/124/112 86/167/102 108/133/121 
f 105/130/118 85/168/101 114/141/129 
f 88/169/104 120/149/137 111/170/126 
f 118/147/135 99/122/110 130/159/157 131/160/158 
f 97/118/106 116/144/132 128/157/153 121/150/138 
f 103/127/115 98/119/107 122/151/141 123/152/142 
f 102/125/113 107/132/120 136/165/167 129/158/154 
f 109/135/123 104/128/116 124/153/145 125/154/146 
f 106/131/119 113/140/128 134/163/164 135/164/165 
f 115/143/131 110/171/124 126/172/149 127/156/150 
f 112/173/127 119/148/136 132/161/161 133/174/162 
f 100/123/111 99/122/110 118/147/135 117/146/134 
f 94/120/108 98/119/107 103/127/115 95/126/114 
f 101/124/112 100/123/111 87/166/103 86/167/102 
f 96/129/117 104/128/116 109/135/123 93/134/122 
f 105/130/118 108/133/121 86/167/102 85/168/101 
f 92/175/125 110/171/124 115/143/131 89/142/130 
f 111/138/126 114/141/129 85/168/101 88/176/104 
f 117/146/134 120/149/137 88/169/104 87/166/103 
s 1
f 69/90/85 72/93/88 84/105/100 83/104/99 
s 2
f 97/118/106 91/121/109 90/145/133 116/144/132 
s 1
f 71/92/87 70/91/86 74/95/90 73/94/89 
s 2
f 102/125/113 101/124/112 108/133/121 107/132/120 
s 1
f 76/97/92 75/96/91 78/99/94 77/98/93 
s 2
f 106/131/119 105/130/118 114/141/129 113/140/128 
s 1
f 80/177/96 79/178/95 82/103/98 81/102/97 
s 2
f 112/173/127 111/170/126 120/149/137 119/148/136 
f 121/150/138 122/151/141 98/119/107 97/118/106 
f 129/158/154 130/159/157 99/122/110 102/125/113 
f 123/152/142 124/153/145 104/128/116 103/127/115 
f 135/164/165 136/165/167 107/132/120 106/131/119 
f 125/154/146 126/155/149 110/136/124 109/135/123 
f 133/162/162 134/163/164 113/140/128 112/139/127 
f 127/156/150 128/157/153 116/144/132 115/143/131 
f 131/160/158 132/161/161 119/148/136 118/147/135 
f 128/157/153 84/105/152 72/93/139 121/150/138 
f 122/151/141 71/92/140 73/94/143 123/152/142 
f 124/153/145 76/97/144 77/98/147 125/154/146 
f 126/172/149 80/177/148 81/102/151 127/156/150 
f 136/165/167 74/95/166 70/91/155 129/158/154 
f 130/159/157 69/90/156 83/104/159 131/160/158 
f 132/161/161 82/103/160 79/178/155 133/174/162 
f 134/163/164 78/99/163 75/96/159 135/164/165 
# 128 polygons - 8 triangles

