# 3ds Max Wavefront OBJ Exporter v0.97b - (c)2007 guruware
# File Created: 24.05.2015 12:00:35

#
# object Archway_Overlay_105x205_Sides_B
#

v  -125.093735 108.884834 65.955078
v  -124.957954 108.884827 32.245029
v  -124.979027 64.907326 32.245461
v  -125.114807 64.907318 65.954575
v  -70.181023 108.881447 32.305328
v  -70.201241 64.902878 32.305332
v  -66.835754 108.881142 34.763565
v  -66.961609 108.881157 66.019699
v  -66.983490 64.902481 66.020599
v  -66.856110 64.902496 34.763538
v  -70.326645 108.881454 68.467499
v  -120.467163 108.884537 68.413239
v  -120.488243 64.906929 68.412857
v  -70.348610 64.902863 68.468292
v  126.184883 220.448883 65.777328
v  126.050270 220.448914 32.422428
v  126.492851 247.588730 32.585876
v  126.624847 247.588669 65.614243
v  68.752426 220.449493 32.209167
v  69.014748 247.588669 32.119762
v  64.279640 220.449463 34.645027
v  64.408119 220.449463 66.138710
v  64.814682 247.588745 66.249069
v  64.683815 247.588669 34.534946
v  69.165466 247.588806 68.654434
v  68.900696 220.449524 68.564423
v  121.712196 220.448990 68.257576
v  122.293968 247.588669 68.114838
v  -121.020012 0.002902 34.370796
v  -75.870781 -0.002390 34.422009
v  -71.244278 -0.002955 36.880245
v  -121.139450 0.002878 63.837753
v  -71.353729 -0.002936 63.894222
v  -76.000107 -0.002386 66.341942
v  -116.512939 0.002320 66.295990
v  121.403900 -0.004432 34.370842
v  121.523308 -0.004463 63.837799
v  116.896812 -0.003658 66.296036
v  76.254616 0.003535 34.422047
v  76.383972 0.003490 66.341988
v  71.737595 0.004310 63.894260
v  71.628120 0.004362 36.880283
v  -125.474571 221.580048 65.791870
v  -125.340096 221.580078 32.407955
v  -124.922539 197.859024 32.246113
v  -125.059158 197.858994 65.953583
v  -71.999710 221.579559 32.217087
v  -71.755562 197.858139 32.305984
v  -67.514435 221.579590 34.654789
v  -67.643013 221.579590 66.129051
v  -67.255714 197.858063 66.019608
v  -67.129059 197.858063 34.764191
v  -72.148140 221.579544 68.556564
v  -120.989334 221.579971 68.270317
v  -120.432678 197.858932 68.411865
v  -71.902084 197.858124 68.467300
v  127.245239 67.249001 65.954620
v  127.107841 67.249016 32.244576
v  127.140656 109.985329 32.245525
v  127.276451 109.985336 65.954651
v  72.300911 67.254883 32.305302
v  72.331932 109.989601 32.305389
v  67.674385 67.255394 34.763577
v  67.800247 67.255356 66.019714
v  67.832092 109.989914 66.020203
v  67.705429 109.989960 34.763596
v  72.446579 67.254837 68.467476
v  122.618820 67.249512 68.412819
v  122.649895 109.985703 68.412888
v  72.478447 109.989540 68.467926
v  -125.051147 195.954544 65.955208
v  -124.915367 195.954559 32.244976
v  -124.936035 154.145554 32.245148
v  -125.073433 154.145493 65.954071
v  -126.692734 152.240540 65.954872
v  -126.556129 152.240616 32.244820
v  -126.577690 110.789185 32.245258
v  -126.714279 110.789200 65.954376
v  -126.465569 27.809364 32.244968
v  -126.485825 0.955679 32.244934
v  -126.622429 0.955670 65.954521
v  -126.602158 27.809383 65.954552
v  -124.999443 29.713917 32.244968
v  -125.136063 29.713938 65.954552
v  -125.115143 63.002361 65.954819
v  -124.978539 63.002373 32.244759
v  -73.631126 195.953323 32.305458
v  -73.651917 154.143188 32.305279
v  -71.767441 152.238800 32.305553
v  -71.789047 110.786339 32.305130
v  -71.831818 27.804235 32.305264
v  -71.852180 0.949463 32.305241
v  -72.529961 29.708971 32.305267
v  -72.508881 62.998486 32.305492
v  -69.004570 195.953217 34.763710
v  -69.130447 195.953217 66.019630
v  -69.152870 154.142990 66.020752
v  -69.025482 154.143021 34.763500
v  -67.140945 152.238647 34.763828
v  -67.267586 152.238647 66.019958
v  -67.289177 110.786110 66.020401
v  -67.162552 110.786095 34.763329
v  -67.352318 0.948923 66.020081
v  -67.225685 0.948905 34.763477
v  -67.205315 27.803778 34.763500
v  -67.331978 27.803764 66.020103
v  -68.030098 29.708515 66.020103
v  -67.903458 29.708546 34.763504
v  -67.882385 62.998154 34.763767
v  -68.009056 62.998135 66.019913
v  -73.776756 195.953323 68.467445
v  -120.424561 195.954422 68.413353
v  -120.446999 154.145294 68.412399
v  -73.799294 154.143188 68.468384
v  -71.913963 152.238800 68.467720
v  -122.066238 152.240387 68.413071
v  -122.087814 110.788956 68.412643
v  -71.935539 110.786346 68.468079
v  -121.975647 27.808922 68.412788
v  -121.995972 0.955126 68.412758
v  -71.998688 0.949460 68.467804
v  -71.978348 27.804203 68.467827
v  -120.509567 29.713490 68.412788
v  -72.676483 29.708954 68.467827
v  -72.655403 62.998466 68.467667
v  -120.488670 63.002014 68.413010
v  125.542183 0.947023 65.954575
v  125.404770 0.947061 32.244522
v  125.437057 29.506685 32.245472
v  125.572823 29.506668 65.954582
v  125.573631 31.411549 65.954826
v  125.437042 31.411579 32.244785
v  125.469307 65.344307 32.245499
v  125.605118 65.344276 65.954620
v  125.532486 154.321350 32.244530
v  125.565720 189.117065 32.245739
v  125.701485 189.117081 65.954536
v  125.669930 154.321335 65.954781
v  125.533401 152.416534 32.245644
v  125.669182 152.416534 65.954567
v  125.638054 111.889534 65.954758
v  125.500626 111.889526 32.244503
v  69.432915 0.956685 32.305248
v  69.463341 29.514729 32.305336
v  72.269455 31.419203 32.305077
v  72.299904 65.350288 32.305363
v  72.396095 189.118622 32.305298
v  72.364655 154.324509 32.305439
v  74.263496 152.419998 32.305332
v  74.232559 111.894638 32.305412
v  64.806366 0.957520 34.763523
v  64.932266 0.957482 66.019669
v  64.964317 29.515366 66.020607
v  64.836922 29.515419 34.763542
v  67.642883 31.419851 34.763313
v  67.768791 31.419792 66.019920
v  67.800873 65.350769 66.020645
v  67.673470 65.350807 34.763569
v  67.897087 189.118744 66.020882
v  67.769669 189.118759 34.763474
v  67.738113 154.324799 34.763729
v  67.863991 154.324768 66.019669
v  69.764481 152.420288 66.020782
v  69.637077 152.420319 34.763523
v  69.606010 111.895073 34.763702
v  69.731895 111.895027 66.019638
v  69.578568 0.956634 68.467430
v  120.915764 0.947849 68.412773
v  120.946266 29.507353 68.412865
v  69.610756 29.514668 68.468300
v  72.415100 31.419134 68.467690
v  120.947136 31.412205 68.413025
v  120.978546 65.344803 68.412895
v  72.447296 65.350243 68.468330
v  121.043465 154.321609 68.412964
v  121.074959 189.117218 68.412834
v  72.543518 189.118591 68.468544
v  72.510292 154.324478 68.467445
v  121.042641 152.416824 68.412857
v  74.410904 152.419968 68.468452
v  74.378197 111.894585 68.467422
v  121.011620 111.889977 68.412933
v  -121.015915 249.295761 63.837914
v  -120.896568 249.295761 34.370956
v  -125.797920 247.588226 32.585403
v  -125.930038 247.588226 65.614548
v  -75.365555 249.295761 34.422604
v  -68.084923 247.588226 32.119625
v  -71.125526 249.295761 36.880405
v  -71.234947 249.295761 63.894375
v  -63.885166 247.588226 66.249054
v  -63.754478 247.588226 34.534840
v  -75.494865 249.295761 66.342529
v  -116.775940 249.295761 66.295715
v  -121.599670 247.588226 68.115120
v  -68.235435 247.588226 68.654434
v  121.590805 249.296234 34.370995
v  121.710258 249.296143 63.837952
v  117.469658 249.296143 66.295753
v  76.176727 249.296249 66.342567
v  71.916267 249.296234 63.894405
v  71.806793 249.296204 36.880436
v  76.047348 249.296204 34.422634
v  125.570389 191.021973 32.245213
v  125.707832 191.021988 65.954155
v  70.686348 191.023056 32.306114
v  66.185654 191.023102 66.019035
v  66.059753 191.023132 34.764404
v  121.081398 191.022064 68.412331
v  70.831955 191.023026 68.466820
v  -63.369102 223.866699 34.644241
v  -67.840767 223.866821 32.208523
v  -67.989380 223.866806 68.565170
v  -63.497860 223.866699 66.139618
v  66.463943 218.162323 34.654312
v  70.948677 218.162231 32.216705
v  71.096748 218.162262 68.556839
v  66.592224 218.162323 66.129402
v  126.012978 218.161804 32.408657
v  126.147804 218.161774 65.791077
v  121.663170 218.161758 68.269600
v  -125.380348 223.867172 32.423561
v  -125.514626 223.867172 65.776276
v  -121.043015 223.867203 68.256676
# 224 vertices

vn -0.773291 -0.316934 0.549157
vn -0.569147 -0.208779 -0.795288
vn -0.705408 0.000191 -0.708801
vn -0.858155 0.000307 0.513391
vn 0.360436 0.166123 -0.917872
vn 0.340240 -0.178273 -0.923285
vn 0.882585 0.096170 -0.460212
vn 0.892337 0.074738 0.445140
vn 0.869063 -0.228226 0.438910
vn 0.882386 -0.214201 -0.418943
vn 0.329336 0.113523 0.937363
vn -0.188815 -0.058173 0.980288
vn -0.242334 0.000124 0.970193
vn 0.359823 -0.234723 0.903013
vn 0.862869 -0.011787 0.505291
vn 0.707453 -0.008258 -0.706712
vn 0.638013 0.480128 -0.602011
vn 0.752328 0.506089 0.421754
vn -0.292314 -0.158762 -0.943052
vn -0.233316 0.537265 -0.810500
vn -0.835129 -0.311643 -0.453253
vn -0.832692 -0.311744 0.457646
vn -0.723827 0.543628 0.424904
vn -0.726086 0.543386 -0.421344
vn -0.230944 0.535807 0.812143
vn -0.289482 -0.158366 0.943992
vn 0.253733 -0.000818 0.967274
vn 0.258105 0.495867 0.829155
vn -0.000118 -1.000000 -0.000002
vn -0.000117 -1.000000 -0.000009
vn -0.000117 -1.000000 -0.000002
vn -0.000118 -1.000000 0.000000
vn -0.000117 -1.000000 0.000000
vn -0.000116 -1.000000 -0.000009
vn -0.000176 -1.000000 -0.000001
vn -0.000174 -1.000000 -0.000000
vn -0.000177 -1.000000 -0.000001
vn -0.000176 -1.000000 0.000000
vn -0.000179 -1.000000 -0.000001
vn -0.862235 -0.011652 0.506375
vn -0.706909 -0.007652 -0.707264
vn -0.703587 -0.005870 -0.710585
vn -0.857371 -0.008234 0.514633
vn 0.159997 -0.072318 -0.984465
vn 0.289076 -0.160445 -0.943765
vn 0.685306 -0.510374 -0.519494
vn 0.682630 -0.508967 0.524374
vn 0.829561 -0.315955 0.460435
vn 0.832007 -0.316827 -0.455396
vn 0.157581 -0.070508 0.984986
vn -0.252296 0.000927 0.967650
vn -0.241681 -0.000786 0.970355
vn 0.286694 -0.158832 0.944764
vn 0.836321 -0.295690 0.461666
vn 0.721394 -0.268294 -0.638442
vn 0.721755 0.267904 -0.638198
vn 0.836597 0.294935 0.461648
vn -0.242339 0.000140 -0.970192
vn -0.288393 0.162318 -0.943654
vn -0.858141 0.000522 -0.513414
vn -0.855217 0.000311 0.518271
vn -0.825876 0.324300 0.461257
vn -0.828285 0.324712 -0.456624
vn -0.239622 0.000261 0.970866
vn 0.285789 -0.138627 0.948213
vn 0.285896 0.138337 0.948223
vn -0.285690 0.161158 0.944674
vn -0.857858 -0.001376 0.513885
vn -0.704710 -0.000946 -0.709495
vn -0.569189 0.209267 -0.795130
vn -0.773341 0.317315 0.548867
vn -0.836979 0.293090 0.462130
vn -0.721854 0.265982 -0.638889
vn -0.722090 -0.265624 -0.638772
vn -0.837142 -0.292809 0.462013
vn -0.724753 0.247212 -0.643132
vn -0.605263 -0.530354 -0.593617
vn -0.713849 -0.558155 0.422946
vn -0.841643 0.273753 0.465507
vn -0.581871 0.197969 -0.788819
vn -0.782810 0.293727 0.548574
vn -0.858105 0.000375 0.513475
vn -0.705126 0.000267 -0.709082
vn 0.183241 -0.061927 -0.981116
vn 0.182998 0.062020 -0.981155
vn 0.288404 0.160737 -0.943921
vn 0.202637 0.052119 -0.977866
vn 0.266495 0.052733 -0.962393
vn 0.216297 -0.562639 -0.797905
vn 0.216151 0.034968 -0.975733
vn 0.175132 -0.066670 -0.982285
vn 0.757881 -0.353426 -0.548367
vn 0.755087 -0.351701 0.553308
vn 0.754511 0.352654 0.553488
vn 0.757412 0.354347 -0.548421
vn 0.828987 0.322606 -0.456844
vn 0.826554 0.322308 0.461439
vn 0.857970 0.102013 0.503469
vn 0.847668 0.073174 -0.525457
vn 0.717716 -0.544881 0.433576
vn 0.720264 -0.544765 -0.429477
vn 0.860466 0.148298 -0.487449
vn 0.857744 0.147937 0.492330
vn 0.826541 0.152331 0.541872
vn 0.829680 0.153010 -0.536860
vn 0.822408 -0.256247 -0.507920
vn 0.807279 -0.217009 0.548824
vn 0.180544 -0.060731 0.981690
vn -0.241968 -0.000081 0.970284
vn -0.188996 0.058625 0.980226
vn 0.180249 0.060651 0.981749
vn 0.285727 0.159561 0.944934
vn -0.285539 0.136806 0.948552
vn -0.285676 -0.136608 0.948540
vn 0.186443 0.056882 0.980818
vn -0.283436 0.122569 0.951126
vn -0.214388 -0.576272 0.788637
vn 0.213999 -0.562544 0.798592
vn 0.263689 0.052231 0.963193
vn -0.192748 0.055815 0.979660
vn 0.213371 0.034471 0.976363
vn 0.182426 -0.061772 0.981277
vn -0.242294 0.000145 0.970203
vn 0.720159 -0.544910 0.429468
vn 0.609313 -0.518260 -0.600120
vn 0.705460 -0.000488 -0.708750
vn 0.858169 -0.000671 0.513366
vn 0.858101 -0.000613 0.513481
vn 0.705124 -0.000460 -0.709083
vn 0.567748 -0.210837 -0.795745
vn 0.772012 -0.320441 0.548921
vn 0.705041 -0.000370 -0.709166
vn 0.705151 -0.001289 -0.709056
vn 0.858019 -0.001764 0.513615
vn 0.858110 -0.000583 0.513466
vn 0.705482 -0.000309 -0.708728
vn 0.858161 -0.000517 0.513381
vn 0.772220 0.319583 0.549130
vn 0.567440 0.209795 -0.796240
vn -0.212206 -0.585922 -0.782090
vn -0.290959 0.238267 -0.926592
vn -0.167746 0.070155 -0.983331
vn -0.242304 0.000163 -0.970200
vn -0.186737 -0.059426 -0.980611
vn -0.288558 -0.162014 -0.943655
vn -0.182682 -0.062203 -0.981202
vn -0.182733 0.062399 -0.981180
vn -0.709363 -0.566426 -0.419483
vn -0.706849 -0.566610 0.423458
vn -0.800266 0.398119 0.448415
vn -0.802625 0.398415 -0.443913
vn -0.708566 0.458740 -0.536183
vn -0.706145 0.456658 0.541131
vn -0.855033 0.000375 0.518574
vn -0.858117 0.000587 -0.513454
vn -0.764866 -0.328269 0.554273
vn -0.767874 -0.329811 -0.549176
vn -0.828611 -0.323938 -0.456583
vn -0.826184 -0.323694 0.461131
vn -0.753660 -0.354512 0.553460
vn -0.756589 -0.356184 -0.548366
vn -0.756394 0.356940 -0.548144
vn -0.753607 0.355200 0.553091
vn -0.210033 -0.585802 0.782765
vn 0.216221 -0.562688 0.797891
vn 0.242348 -0.000231 0.970189
vn -0.288398 0.236843 0.927756
vn -0.165154 0.068549 0.983883
vn 0.242279 -0.000214 0.970207
vn 0.188480 -0.058796 0.980315
vn -0.239411 0.000268 0.970918
vn 0.242308 -0.000179 0.970199
vn 0.242156 -0.000390 0.970237
vn -0.184005 -0.058063 0.981209
vn -0.285895 -0.160815 0.944670
vn 0.242382 -0.000176 0.970181
vn -0.179911 -0.060690 0.981809
vn -0.180041 0.061223 0.981752
vn 0.188402 0.058545 0.980346
vn -0.261960 0.947057 0.185636
vn -0.151203 0.888800 -0.432635
vn -0.638891 0.479579 -0.601516
vn -0.752688 0.505733 0.421540
vn 0.034801 0.852934 -0.520857
vn 0.233176 0.538102 -0.809985
vn 0.182110 0.973744 -0.136595
vn 0.182253 0.973124 0.140758
vn 0.722161 0.546242 0.424386
vn 0.724910 0.545528 -0.420600
vn 0.029974 0.845770 0.532705
vn -0.052357 0.793795 0.605927
vn -0.257676 0.495931 0.829250
vn 0.230050 0.539634 0.809859
vn 0.172879 -0.978594 0.111654
vn 0.103863 -0.965984 -0.236827
vn -0.019785 -0.933975 -0.356790
vn -0.110164 -0.989771 -0.090654
vn -0.109948 -0.989690 0.091794
vn -0.018979 -0.933574 0.357881
vn 0.031946 -0.932906 0.358700
vn 0.147761 0.885253 -0.441015
vn 0.261971 0.946978 0.186021
vn 0.056855 0.799914 0.597416
vn -0.034749 0.852030 0.522338
vn -0.187092 0.972211 0.140723
vn -0.187824 0.972003 -0.141185
vn -0.032262 0.846533 -0.531357
vn 0.703558 -0.005518 -0.710616
vn 0.857377 -0.007592 0.514633
vn -0.287434 -0.145215 -0.946728
vn -0.834307 -0.298281 0.463638
vn -0.836791 -0.298941 -0.458710
vn 0.241702 -0.000996 0.970350
vn -0.285077 -0.143706 0.947671
vn -0.072514 -0.966381 -0.246676
vn -0.132715 -0.986088 0.100088
vn -0.024248 -0.933621 0.357441
vn 0.031202 -0.932837 0.358945
vn 0.172631 -0.978463 0.113174
vn 0.172964 -0.978576 -0.111676
vn 0.032000 -0.932886 -0.358746
vn 0.793088 -0.428274 -0.433120
vn 0.293411 -0.289072 -0.911234
vn 0.290524 -0.287714 0.912588
vn 0.790778 -0.428524 0.437078
vn -0.764929 -0.343594 -0.544818
vn -0.184544 -0.061827 -0.980878
vn -0.182220 -0.061051 0.981361
vn -0.761694 -0.342081 0.550275
vn 0.000000 1.000000 -0.000000
vn -0.000001 1.000000 -0.000001
vn 0.000002 1.000000 -0.000003
vn 0.000001 1.000000 0.000002
vn 0.000003 1.000000 -0.000011
vn 0.000002 1.000000 0.000003
vn -0.000001 1.000000 0.000003
vn 0.706849 -0.007259 -0.707327
vn 0.862395 -0.011189 0.506112
vn 0.252036 0.000418 0.967718
vn -0.707515 -0.008554 -0.706646
vn -0.862773 -0.012871 0.505428
vn -0.254111 -0.000863 0.967175
# 242 vertex normals

vt 0.098413 0.341923 -0.249869
vt 0.010071 0.341645 -0.249869
vt 0.010750 0.215064 -0.249869
vt 0.098794 0.215139 -0.249869
vt 0.486874 0.343709 -0.249869
vt 0.344250 0.343649 -0.249869
vt 0.343884 0.217190 -0.249869
vt 0.486503 0.216269 -0.249869
vt 0.333998 0.343628 -0.249869
vt 0.253130 0.343578 -0.249869
vt 0.253238 0.217312 -0.249869
vt 0.333808 0.217367 -0.249869
vt 0.242898 0.343369 -0.249869
vt 0.112432 0.342313 -0.249869
vt 0.112648 0.215539 -0.249869
vt 0.243187 0.216969 -0.249869
vt 0.902895 0.666048 -0.249888
vt 0.989549 0.667536 -0.249888
vt 0.985456 0.747234 -0.249888
vt 0.900703 0.743051 -0.249888
vt 0.505497 0.668019 -0.249888
vt 0.654002 0.665069 -0.249888
vt 0.655942 0.744416 -0.249888
vt 0.507374 0.748245 -0.249888
vt 0.664817 0.664958 -0.249888
vt 0.743688 0.664949 -0.249888
vt 0.744122 0.740789 -0.249888
vt 0.665193 0.740783 -0.249888
vt 0.753676 0.744205 -0.249888
vt 0.754179 0.665023 -0.249888
vt 0.890354 0.666406 -0.249888
vt 0.890066 0.745972 -0.249888
vt 0.150414 0.866939 -0.250510
vt 0.056918 0.866833 0.250510
vt 0.047338 0.861742 -0.250510
vt 0.150662 0.805918 -0.250510
vt 0.047564 0.805801 -0.250510
vt 0.057186 0.800732 0.250510
vt 0.141081 0.800827 -0.250510
vt 0.831155 0.859106 -0.250522
vt 0.830888 0.793101 -0.250522
vt 0.841251 0.787594 -0.250522
vt 0.932289 0.858992 0.250522
vt 0.931999 0.787492 0.250522
vt 0.942407 0.792974 -0.250522
vt 0.942652 0.853485 -0.250522
vt 0.096582 0.667883 -0.249869
vt 0.009832 0.667895 -0.249869
vt 0.009997 0.599676 -0.249869
vt 0.098179 0.599660 -0.249869
vt 0.485763 0.602122 -0.249869
vt 0.488398 0.672054 -0.249869
vt 0.349265 0.669729 -0.249869
vt 0.346800 0.601337 -0.249869
vt 0.334908 0.669512 -0.249869
vt 0.250631 0.669502 -0.249869
vt 0.252530 0.601896 -0.249869
vt 0.333251 0.601936 -0.249869
vt 0.236364 0.669565 -0.249869
vt 0.109345 0.668197 -0.249869
vt 0.112212 0.599774 -0.249869
vt 0.239084 0.601066 -0.249869
vt 0.903038 0.223855 -0.249888
vt 0.990144 0.223931 -0.249888
vt 0.989704 0.346333 -0.249888
vt 0.902285 0.346439 -0.249888
vt 0.508573 0.221954 -0.249888
vt 0.651441 0.221354 -0.249888
vt 0.652854 0.344692 -0.249888
vt 0.509968 0.345150 -0.249888
vt 0.665043 0.221381 -0.249888
vt 0.746567 0.221464 -0.249888
vt 0.745894 0.344241 -0.249888
vt 0.665740 0.344142 -0.249888
vt 0.760123 0.221778 -0.249888
vt 0.890531 0.223392 -0.249888
vt 0.889288 0.346663 -0.249888
vt 0.758745 0.345144 -0.249888
vt 0.098505 0.594254 -0.249869
vt 0.010394 0.594295 -0.249869
vt 0.010143 0.474228 -0.249869
vt 0.098742 0.474018 -0.249869
vt 0.096778 0.467585 -0.249869
vt 0.009427 0.467448 -0.249869
vt 0.009327 0.348572 -0.249869
vt 0.096468 0.348513 -0.249869
vt 0.010983 0.103712 -0.249869
vt 0.016366 0.024925 -0.249869
vt 0.102429 0.032258 -0.249869
vt 0.098151 0.107736 -0.249869
vt 0.011063 0.112491 -0.249869
vt 0.099550 0.113625 -0.249869
vt 0.099040 0.209406 -0.249869
vt 0.011088 0.209294 -0.249869
vt 0.484531 0.595994 -0.249869
vt 0.350256 0.595220 -0.249869
vt 0.350204 0.474961 -0.249869
vt 0.484469 0.475374 -0.249869
vt 0.489110 0.469898 -0.249869
vt 0.346279 0.468698 -0.249869
vt 0.347890 0.349207 -0.249869
vt 0.490744 0.350132 -0.249869
vt 0.346223 0.110177 -0.249869
vt 0.344032 0.031966 -0.249869
vt 0.485855 0.029886 -0.249869
vt 0.488282 0.107256 -0.249869
vt 0.348086 0.115678 -0.249869
vt 0.484898 0.113463 -0.249869
vt 0.486137 0.209980 -0.249869
vt 0.349051 0.211289 -0.249869
vt 0.334910 0.595192 -0.249869
vt 0.250936 0.595127 -0.249869
vt 0.251278 0.474704 -0.249869
vt 0.334960 0.474755 -0.249869
vt 0.333380 0.467888 -0.249869
vt 0.253138 0.467873 -0.249869
vt 0.252774 0.348884 -0.249869
vt 0.334259 0.348923 -0.249869
vt 0.253607 0.034584 -0.249869
vt 0.332559 0.034503 -0.249869
vt 0.333507 0.110762 -0.249869
vt 0.253100 0.110795 -0.249869
vt 0.252461 0.116035 -0.249869
vt 0.334300 0.116043 -0.249869
vt 0.334702 0.211621 -0.249869
vt 0.252257 0.211595 -0.249869
vt 0.235348 0.594917 -0.249869
vt 0.112689 0.594308 -0.249869
vt 0.113438 0.473988 -0.249869
vt 0.236000 0.474645 -0.249869
vt 0.240124 0.468449 -0.249869
vt 0.109620 0.468095 -0.249869
vt 0.109047 0.348394 -0.249869
vt 0.239360 0.348929 -0.249869
vt 0.110819 0.107877 -0.249869
vt 0.113280 0.029319 -0.249869
vt 0.241957 0.032470 -0.249869
vt 0.240437 0.110366 -0.249869
vt 0.113876 0.113888 -0.249869
vt 0.238663 0.115731 -0.249869
vt 0.237880 0.211199 -0.249869
vt 0.112792 0.209828 -0.249869
vt 0.900838 0.033212 -0.249888
vt 0.987631 0.031995 -0.249888
vt 0.989044 0.114535 -0.249888
vt 0.901480 0.114452 -0.249888
vt 0.901689 0.119851 -0.249888
vt 0.989455 0.119828 -0.249888
vt 0.989786 0.217196 -0.249888
vt 0.901332 0.217430 -0.249888
vt 0.988379 0.474859 -0.249888
vt 0.988927 0.575140 -0.249888
vt 0.901103 0.575051 -0.249888
vt 0.900180 0.474781 -0.249888
vt 0.988174 0.469398 -0.249888
vt 0.899994 0.469316 -0.249888
vt 0.900118 0.352777 -0.249888
vt 0.988691 0.353040 -0.249888
vt 0.513895 0.025146 -0.249888
vt 0.658582 0.027845 -0.249888
vt 0.656365 0.111700 -0.249888
vt 0.511248 0.108936 -0.249888
vt 0.511609 0.116537 -0.249888
vt 0.650249 0.118180 -0.249888
vt 0.651059 0.215831 -0.249888
vt 0.512180 0.215656 -0.249888
vt 0.648780 0.574263 -0.249888
vt 0.510026 0.571907 -0.249888
vt 0.513237 0.471413 -0.249888
vt 0.651980 0.474005 -0.249888
vt 0.648305 0.467666 -0.249888
vt 0.514064 0.466409 -0.249888
vt 0.514840 0.350237 -0.249888
vt 0.648951 0.350990 -0.249888
vt 0.668524 0.031629 -0.249888
vt 0.746407 0.031290 -0.249888
vt 0.745501 0.111285 -0.249888
vt 0.667540 0.111484 -0.249888
vt 0.664674 0.118780 -0.249888
vt 0.747822 0.118751 -0.249888
vt 0.746714 0.216065 -0.249888
vt 0.665057 0.216034 -0.249888
vt 0.746280 0.574608 -0.249888
vt 0.663320 0.574613 -0.249888
vt 0.665117 0.474900 -0.249888
vt 0.745668 0.474896 -0.249888
vt 0.747553 0.468039 -0.249888
vt 0.663653 0.467949 -0.249888
vt 0.663998 0.351109 -0.249888
vt 0.747618 0.351225 -0.249888
vt 0.756990 0.027212 -0.249888
vt 0.889079 0.031225 -0.249888
vt 0.888574 0.114034 -0.249888
vt 0.756170 0.111554 -0.249888
vt 0.762191 0.118383 -0.249888
vt 0.888406 0.119745 -0.249888
vt 0.887098 0.217462 -0.249888
vt 0.760439 0.216166 -0.249888
vt 0.886119 0.474585 -0.249888
vt 0.887416 0.574915 -0.249888
vt 0.760650 0.574531 -0.249888
vt 0.759187 0.474304 -0.249888
vt 0.885660 0.469084 -0.249888
vt 0.763019 0.468164 -0.249888
vt 0.762967 0.351506 -0.249888
vt 0.885493 0.352460 -0.249888
vt 0.097190 0.755463 -0.249869
vt 0.017098 0.758535 -0.249869
vt 0.011115 0.743169 -0.249869
vt 0.095865 0.741768 -0.249869
vt 0.475068 0.760129 -0.249869
vt 0.352694 0.764146 -0.249869
vt 0.339918 0.748577 -0.249869
vt 0.488898 0.751981 -0.249869
vt 0.331940 0.765083 -0.249869
vt 0.251385 0.765388 -0.249869
vt 0.252571 0.745669 -0.249869
vt 0.331112 0.745343 -0.249869
vt 0.229898 0.764493 -0.249869
vt 0.115578 0.756274 -0.249869
vt 0.106413 0.744372 -0.249869
vt 0.243221 0.749158 -0.249869
vt 0.900688 0.021951 -0.249888
vt 0.980796 0.019824 -0.249888
vt 0.525399 0.017884 -0.249888
vt 0.646608 0.013721 0.249888
vt 0.667602 0.013848 -0.249888
vt 0.747650 0.013495 -0.249888
vt 0.769404 0.013197 -0.249888
vt 0.881489 0.020940 0.249859
vt 0.979078 0.762398 -0.249888
vt 0.899163 0.756933 -0.249888
vt 0.880731 0.757845 -0.249888
vt 0.766232 0.759420 -0.249888
vt 0.745025 0.759981 -0.249888
vt 0.664706 0.760106 -0.249888
vt 0.643963 0.759850 -0.249888
vt 0.521390 0.756065 -0.249888
vt 0.989542 0.580929 -0.249888
vt 0.901565 0.580859 -0.249888
vt 0.651750 0.580126 -0.249888
vt 0.508675 0.578660 -0.249888
vt 0.744550 0.580754 -0.249888
vt 0.664545 0.580810 -0.249888
vt 0.888021 0.580734 -0.249888
vt 0.757311 0.580229 -0.249888
vt 0.024248 0.008971 -0.249869
vt 0.104326 0.017633 -0.249869
vt 0.123980 0.017501 -0.249869
vt 0.234835 0.022080 0.249869
vt 0.254214 0.023233 -0.249869
vt 0.331665 0.023062 -0.249869
vt 0.350690 0.021422 0.249869
vt 0.470776 0.023404 -0.249869
vt 0.331257 0.679873 -0.249869
vt 0.340911 0.678551 -0.249869
vt 0.244940 0.678721 -0.249869
vt 0.254037 0.679995 -0.249869
vt 0.662813 0.657952 -0.249888
vt 0.649277 0.658163 -0.249888
vt 0.758919 0.658194 -0.249888
vt 0.745694 0.657930 -0.249888
vt 0.057697 0.901451 -0.751535
vt 0.143183 0.901354 0.751535
vt 0.152005 0.906423 -0.751535
vt 0.143451 0.967454 0.751535
vt 0.152231 0.962364 -0.751535
vt 0.049164 0.967561 -0.751535
vt 0.048916 0.906540 -0.751535
vt 0.841446 0.967335 0.751535
vt 0.831947 0.961830 -0.751535
vt 0.832193 0.901319 -0.751535
vt 0.943731 0.901445 -0.751535
vt 0.841736 0.895835 0.751535
vt 0.934232 0.895940 -0.751535
vt 0.943464 0.967451 -0.751535
vt 0.989575 0.659538 -0.249888
vt 0.902808 0.659395 -0.249888
vt 0.505902 0.658749 -0.249888
vt 0.890066 0.659252 -0.249888
vt 0.009663 0.674386 -0.249869
vt 0.096285 0.674495 -0.249869
vt 0.489725 0.681284 -0.249869
vt 0.108682 0.675157 -0.249869
# 284 texture coords

g Archway_Overlay_105x205_Sides_B
s 1
f 1/1/1 2/2/2 3/3/3 4/4/4 
f 2/5/2 5/6/5 6/7/6 3/8/3 
f 7/9/7 8/10/8 9/11/9 10/12/10 
f 11/13/11 12/14/12 13/15/13 14/16/14 
f 15/17/15 16/18/16 17/19/17 18/20/18 
f 16/21/16 19/22/19 20/23/20 17/24/17 
f 21/25/21 22/26/22 23/27/23 24/28/24 
f 25/29/25 26/30/26 27/31/27 28/32/28 
s 2
f 29/33/29 30/34/30 31/35/31 32/36/31 
f 31/35/31 33/37/32 34/38/33 32/36/31 
f 34/38/33 35/39/34 32/36/31 
f 36/40/35 37/41/36 38/42/35 39/43/37 
f 38/42/35 40/44/38 41/45/37 39/43/37 
f 42/46/39 39/43/37 41/45/37 
s 1
f 43/47/40 44/48/41 45/49/42 46/50/43 
f 45/51/42 44/52/41 47/53/44 48/54/45 
f 49/55/46 50/56/47 51/57/48 52/58/49 
f 53/59/50 54/60/51 55/61/52 56/62/53 
f 57/63/54 58/64/55 59/65/56 60/66/57 
f 58/67/55 61/68/58 62/69/59 59/70/56 
f 63/71/60 64/72/61 65/73/62 66/74/63 
f 67/75/64 68/76/65 69/77/66 70/78/67 
f 71/79/68 72/80/69 73/81/70 74/82/71 
f 75/83/72 76/84/73 77/85/74 78/86/75 
f 79/87/76 80/88/77 81/89/78 82/90/79 
f 83/91/80 84/92/81 85/93/82 86/94/83 
f 72/95/69 87/96/84 88/97/85 73/98/70 
f 76/99/73 89/100/86 90/101/87 77/102/74 
f 91/103/88 92/104/89 80/105/77 79/106/76 
f 93/107/90 83/108/80 86/109/83 94/110/91 
f 95/111/92 96/112/93 97/113/94 98/114/95 
f 99/115/96 100/116/97 101/117/98 102/118/99 
f 103/119/100 104/120/101 105/121/102 106/122/103 
f 107/123/104 108/124/105 109/125/106 110/126/107 
f 111/127/108 112/128/109 113/129/110 114/130/111 
f 115/131/112 116/132/113 117/133/114 118/134/115 
f 119/135/116 120/136/117 121/137/118 122/138/119 
f 123/139/120 124/140/121 125/141/122 126/142/123 
f 127/143/124 128/144/125 129/145/126 130/146/127 
f 131/147/128 132/148/129 133/149/130 134/150/131 
f 135/151/132 136/152/133 137/153/134 138/154/135 
f 139/155/136 140/156/137 141/157/138 142/158/139 
f 128/159/125 143/160/140 144/161/141 129/162/126 
f 132/163/129 145/164/142 146/165/143 133/166/130 
f 147/167/144 136/168/133 135/169/132 148/170/145 
f 149/171/146 139/172/136 142/173/139 150/174/147 
f 151/175/148 152/176/149 153/177/150 154/178/151 
f 155/179/152 156/180/153 157/181/154 158/182/155 
f 159/183/156 160/184/157 161/185/158 162/186/159 
f 163/187/160 164/188/161 165/189/162 166/190/163 
f 167/191/164 168/192/165 169/193/166 170/194/167 
f 171/195/168 172/196/169 173/197/170 174/198/171 
f 175/199/172 176/200/173 177/201/174 178/202/175 
f 179/203/176 180/204/177 181/205/178 182/206/179 
f 183/207/180 184/208/181 185/209/182 186/210/183 
f 184/211/181 187/212/184 188/213/185 185/214/182 
f 189/215/186 190/216/187 191/217/188 192/218/189 
f 193/219/190 194/220/191 195/221/192 196/222/193 
f 37/223/194 36/224/195 128/144/125 127/143/124 
f 36/225/195 39/226/196 143/160/140 128/159/125 
f 42/227/197 41/228/198 152/176/149 151/175/148 
f 40/229/199 38/230/200 168/192/165 167/191/164 
f 78/86/75 77/85/74 2/2/2 1/1/1 
f 77/102/74 90/101/87 5/6/5 2/5/2 
f 102/118/99 101/117/98 8/10/8 7/9/7 
f 118/134/115 117/133/114 12/14/12 11/13/11 
f 86/94/83 85/93/82 4/4/4 3/3/3 
f 126/142/123 125/141/122 14/16/14 13/15/13 
f 110/126/107 109/125/106 10/12/10 9/11/9 
f 94/110/91 86/109/83 3/8/3 6/7/6 
f 197/231/201 198/232/202 18/20/18 17/19/17 
f 199/233/203 200/234/204 25/29/25 28/32/28 
f 201/235/205 202/236/206 24/28/24 23/27/23 
f 203/237/207 197/238/201 17/24/17 20/23/20 
f 137/153/134 136/152/133 204/239/208 205/240/209 
f 136/168/133 147/167/144 206/241/210 204/242/208 
f 160/184/157 159/183/156 207/243/211 208/244/212 
f 177/201/174 176/200/173 209/245/213 210/246/214 
f 46/50/43 45/49/42 72/80/69 71/79/68 
f 45/51/42 48/54/45 87/96/84 72/95/69 
f 52/58/49 51/57/48 96/112/93 95/111/92 
f 56/62/53 55/61/52 112/128/109 111/127/108 
f 76/84/73 75/83/72 74/82/71 73/81/70 
f 116/132/113 115/131/112 114/130/111 113/129/110 
f 100/116/97 99/115/96 98/114/95 97/113/94 
f 89/100/86 76/99/73 73/98/70 88/97/85 
f 29/247/215 32/248/216 81/89/78 80/88/77 
f 35/249/217 34/250/218 121/137/118 120/136/117 
f 33/251/219 31/252/220 104/120/101 103/119/100 
f 30/253/221 29/254/215 80/105/77 92/104/89 
f 84/92/81 83/91/80 79/87/76 82/90/79 
f 83/108/80 93/107/90 91/103/88 79/106/76 
f 108/124/105 107/123/104 106/122/103 105/121/102 
f 124/140/121 123/139/120 119/135/116 122/138/119 
f 130/146/127 129/145/126 132/148/129 131/147/128 
f 129/162/126 144/161/141 145/164/142 132/163/129 
f 154/178/151 153/177/150 156/180/153 155/179/152 
f 170/194/167 169/193/166 172/196/169 171/195/168 
f 58/64/55 57/63/54 134/150/131 133/149/130 
f 68/76/65 67/75/64 174/198/171 173/197/170 
f 64/72/61 63/71/60 158/182/155 157/181/154 
f 61/68/58 58/67/55 133/166/130 146/165/143 
f 135/151/132 138/154/135 140/156/137 139/155/136 
f 175/199/172 178/202/175 180/204/177 179/203/176 
f 162/186/159 161/185/158 164/188/161 163/187/160 
f 148/170/145 135/169/132 139/172/136 149/171/146 
f 60/66/57 59/65/56 142/158/139 141/157/138 
f 59/70/56 62/69/59 150/174/147 142/173/139 
f 66/74/63 65/73/62 166/190/163 165/189/162 
f 70/78/67 69/77/66 182/206/179 181/205/178 
f 81/89/78 120/136/117 119/135/116 82/90/79 
f 192/218/189 211/255/222 212/256/223 188/213/185 
f 196/222/193 213/257/224 214/258/225 191/217/188 
f 28/32/28 27/31/27 15/17/15 18/20/18 
f 143/160/140 151/175/148 154/178/151 144/161/141 
f 152/176/149 167/191/164 170/194/167 153/177/150 
f 46/50/43 55/61/52 54/60/51 43/47/40 
f 87/96/84 95/111/92 98/114/95 88/97/85 
f 96/112/93 111/127/108 114/130/111 97/113/94 
f 137/153/134 176/200/173 175/199/172 138/154/135 
f 208/244/212 215/259/226 216/260/227 206/241/210 
f 210/246/214 217/261/228 218/262/229 207/243/211 
f 84/92/81 123/139/120 126/142/123 85/93/82 
f 4/4/4 13/15/13 12/14/12 1/1/1 
f 78/86/75 117/133/114 116/132/113 75/83/72 
f 74/82/71 113/129/110 112/128/109 71/79/68 
f 145/164/142 155/179/152 158/182/155 146/165/143 
f 61/68/58 63/71/60 66/74/63 62/69/59 
f 150/174/147 165/189/162 164/188/161 149/171/146 
f 148/170/145 161/185/158 160/184/157 147/167/144 
f 156/180/153 171/195/168 174/198/171 157/181/154 
f 64/72/61 67/75/64 70/78/67 65/73/62 
f 166/190/163 181/205/178 180/204/177 163/187/160 
f 162/186/159 178/202/175 177/201/174 159/183/156 
f 89/100/86 99/115/96 102/118/99 90/101/87 
f 5/6/5 7/9/7 10/12/10 6/7/6 
f 94/110/91 109/125/106 108/124/105 93/107/90 
f 91/103/88 105/121/102 104/120/101 92/104/89 
f 100/116/97 115/131/112 118/134/115 101/117/98 
f 8/10/8 11/13/11 14/16/14 9/11/9 
f 110/126/107 125/141/122 124/140/121 107/123/104 
f 106/122/103 122/138/119 121/137/118 103/119/100 
f 140/156/137 179/203/176 182/206/179 141/157/138 
f 60/66/57 69/77/66 68/76/65 57/63/54 
f 134/150/131 173/197/170 172/196/169 131/147/128 
f 130/146/127 169/193/166 168/192/165 127/143/124 
f 194/220/191 183/207/180 186/210/183 195/221/192 
f 187/212/184 189/215/186 192/218/189 188/213/185 
f 190/216/187 193/219/190 196/222/193 191/217/188 
f 95/111/92 87/96/84 48/54/45 52/58/49 
f 173/197/170 134/150/131 57/63/54 68/76/65 
f 181/205/178 166/190/163 65/73/62 70/78/67 
f 165/189/162 150/174/147 62/69/59 66/74/63 
f 113/129/110 74/82/71 75/83/72 116/132/113 
f 97/113/94 114/130/111 115/131/112 100/116/97 
f 7/9/7 5/6/5 90/101/87 102/118/99 
f 105/121/102 91/103/88 93/107/90 108/124/105 
f 13/15/13 4/4/4 85/93/82 126/142/123 
f 9/11/9 14/16/14 125/141/122 110/126/107 
f 38/230/200 37/223/194 127/143/124 168/192/165 
f 39/226/196 42/227/197 151/175/148 143/160/140 
f 41/228/198 40/229/199 167/191/164 152/176/149 
f 171/195/168 156/180/153 153/177/150 170/194/167 
f 155/179/152 145/164/142 144/161/141 154/178/151 
f 208/244/212 206/241/210 147/167/144 160/184/157 
f 179/203/176 140/156/137 138/154/135 175/199/172 
f 117/133/114 78/86/75 1/1/1 12/14/12 
f 101/117/98 118/134/115 11/13/11 8/10/8 
f 109/125/106 94/110/91 6/7/6 10/12/10 
f 198/232/202 199/233/203 28/32/28 18/20/18 
f 200/234/204 201/235/205 23/27/23 25/29/25 
f 202/236/206 203/237/207 20/23/20 24/28/24 
f 176/200/173 137/153/134 205/240/209 209/245/213 
f 159/183/156 177/201/174 210/246/214 207/243/211 
f 55/61/52 46/50/43 71/79/68 112/128/109 
f 51/57/48 56/62/53 111/127/108 96/112/93 
f 99/115/96 89/100/86 88/97/85 98/114/95 
f 32/248/216 35/249/217 120/136/117 81/89/78 
f 34/250/218 33/251/219 103/119/100 121/137/118 
f 31/252/220 30/253/221 92/104/89 104/120/101 
f 123/139/120 84/92/81 82/90/79 119/135/116 
f 107/123/104 124/140/121 122/138/119 106/122/103 
f 169/193/166 130/146/127 131/147/128 172/196/169 
f 67/75/64 64/72/61 157/181/154 174/198/171 
f 63/71/60 61/68/58 146/165/143 158/182/155 
f 178/202/175 162/186/159 163/187/160 180/204/177 
f 161/185/158 148/170/145 149/171/146 164/188/161 
f 69/77/66 60/66/57 141/157/138 182/206/179 
s 2
f 194/263/230 193/264/230 190/265/230 187/266/230 
f 190/265/230 189/267/230 187/266/230 
f 194/263/230 187/266/230 184/268/230 183/269/230 
f 203/270/230 202/271/231 201/272/232 198/273/233 
f 201/272/232 200/274/234 199/275/235 198/273/233 
f 197/276/236 203/270/230 198/273/233 
s 1
f 205/240/209 204/239/208 219/277/237 220/278/238 
f 204/242/208 206/241/210 216/260/227 219/279/237 
f 208/244/212 207/243/211 218/262/229 215/259/226 
f 217/261/228 210/246/214 209/245/213 221/280/239 
f 186/210/183 185/209/182 222/281/240 223/282/241 
f 222/283/240 185/214/182 188/213/185 212/256/223 
f 192/218/189 191/217/188 214/258/225 211/255/222 
f 196/222/193 195/221/192 224/284/242 213/257/224 
f 52/58/49 48/54/45 47/53/44 49/55/46 
f 56/62/53 51/57/48 50/56/47 53/59/50 
f 221/280/239 209/245/213 205/240/209 220/278/238 
f 195/221/192 186/210/183 223/282/241 224/284/242 
f 24/28/24 20/23/20 19/22/19 21/25/21 
f 25/29/25 23/27/23 22/26/22 26/30/26 
f 15/17/15 220/278/238 219/277/237 16/18/16 
f 16/21/16 219/279/237 216/260/227 19/22/19 
f 21/25/21 215/259/226 218/262/229 22/26/22 
f 217/261/228 221/280/239 27/31/27 26/30/26 
f 43/47/40 223/282/241 222/281/240 44/48/41 
f 44/52/41 222/283/240 212/256/223 47/53/44 
f 49/55/46 211/255/222 214/258/225 50/56/47 
f 213/257/224 224/284/242 54/60/51 53/59/50 
f 211/255/222 49/55/46 47/53/44 212/256/223 
f 213/257/224 53/59/50 50/56/47 214/258/225 
f 27/31/27 221/280/239 220/278/238 15/17/15 
f 54/60/51 224/284/242 223/282/241 43/47/40 
f 215/259/226 21/25/21 19/22/19 216/260/227 
f 217/261/228 26/30/26 22/26/22 218/262/229 
# 218 polygons - 4 triangles

