# 3ds Max Wavefront OBJ Exporter v0.97b - (c)2007 guruware
# File Created: 24.05.2015 12:00:34

#
# object Archway_Overlay_105x205_Arch_A
#

v  -89.222054 280.317078 53.807209
v  -89.222054 280.317078 45.100040
v  -97.785400 264.240173 45.100040
v  -97.785400 264.240173 53.807205
v  -66.410347 265.475525 45.100040
v  -73.047989 256.279968 45.100044
v  -63.720608 265.077271 46.646027
v  -63.720608 265.077271 53.729797
v  -70.177071 256.726776 53.729801
v  -70.177071 256.726776 46.646030
v  -65.143822 266.003235 55.187912
v  -87.771294 279.373199 55.293541
v  -96.138657 263.710266 55.293541
v  -71.792557 257.246613 55.187916
v  -81.097443 291.101563 53.807220
v  -81.097435 291.101563 45.100052
v  -60.134571 273.512146 45.100029
v  -57.685501 272.795105 46.646019
v  -57.685501 272.795105 53.729790
v  -58.987183 273.887329 55.187904
v  -79.770576 289.988220 55.293552
v  -60.410435 309.842957 53.807213
v  -60.410435 309.842957 45.100044
v  -71.446533 300.546143 45.100052
v  -71.446533 300.546143 53.807220
v  -44.286991 288.048920 45.100048
v  -52.994278 280.714264 45.100040
v  -42.428318 286.780060 46.646030
v  -42.428318 286.780060 53.729801
v  -50.824051 279.707703 53.729797
v  -50.824051 279.707703 46.646027
v  -43.440434 288.148132 55.187920
v  -59.378738 308.448395 55.293545
v  -70.265739 299.277069 55.293552
v  -51.982437 280.952698 55.187912
v  -24.344862 328.309387 53.807213
v  -24.344862 328.309387 45.100044
v  -48.170948 317.491486 45.100033
v  -48.170948 317.491486 53.807201
v  -16.743721 302.178345 45.100052
v  -34.633678 294.089478 45.100052
v  -15.943842 300.372375 46.646038
v  -15.943842 300.372375 53.729809
v  -33.117683 292.600006 53.729809
v  -33.117683 292.600006 46.646038
v  -16.420008 302.009338 55.187923
v  -23.859484 326.640747 55.293541
v  -47.301769 315.988922 55.293537
v  -33.970364 294.074036 55.187923
v  0.309284 331.868622 53.807217
v  0.309284 331.868622 45.100048
v  0.309288 304.640106 45.100048
v  0.309289 302.718689 46.646034
v  0.309289 302.718689 53.729805
v  0.309289 304.424377 55.187920
v  0.309285 330.129913 55.293549
v  24.963434 328.309387 53.807213
v  24.963434 328.309387 45.100044
v  17.362307 302.178345 45.100052
v  16.562426 300.372375 46.646038
v  16.562426 300.372375 53.729809
v  17.038593 302.009338 55.187923
v  24.478052 326.640747 55.293541
v  48.789684 317.491394 53.807201
v  48.789684 317.491394 45.100033
v  35.252117 294.089600 45.100052
v  33.736103 292.600098 46.646038
v  33.736103 292.600098 53.729809
v  34.588802 294.074158 55.187923
v  47.920479 315.988831 55.293537
v  61.028915 309.843018 53.807213
v  61.028919 309.843018 45.100044
v  44.905643 288.048828 45.100048
v  43.046978 286.779968 46.646030
v  43.046978 286.779968 53.729801
v  44.059082 288.148041 55.187920
v  59.997234 308.448425 55.293545
v  81.716141 291.101563 53.807220
v  81.716141 291.101563 45.100052
v  72.064796 300.546448 45.100052
v  72.064796 300.546448 53.807220
v  60.753410 273.512024 45.100029
v  53.613136 280.714020 45.100040
v  58.304344 272.794983 46.646019
v  58.304344 272.794983 53.729790
v  51.442932 279.707428 53.729797
v  51.442932 279.707428 46.646027
v  59.606018 273.887207 55.187904
v  80.389290 289.988220 55.293552
v  70.884026 299.277313 55.293552
v  52.601280 280.952454 55.187912
v  98.403976 264.240082 53.807205
v  98.403976 264.240082 45.100040
v  89.841057 280.316803 45.100040
v  89.841057 280.316803 53.807209
v  73.666489 256.280060 45.100044
v  67.029167 265.475494 45.100040
v  70.795563 256.726898 46.646030
v  70.795563 256.726898 53.729801
v  64.339401 265.077271 53.729797
v  64.339401 265.077271 46.646027
v  72.411057 257.246735 55.187916
v  96.757217 263.710175 55.293541
v  88.390282 279.372925 55.293541
v  65.762642 266.003235 55.187912
v  -100.877289 248.110809 46.586376
v  -78.987488 247.520538 46.586376
v  -78.272209 247.501251 47.202038
v  -100.877289 248.110809 53.191559
v  -78.272209 247.501251 53.191559
v  -78.987488 247.520538 53.807217
v  -100.162010 248.091522 53.807217
v  101.495811 248.110672 46.586376
v  101.495811 248.110641 53.191559
v  100.780525 248.091354 53.807217
v  79.605896 247.520584 46.586376
v  79.605896 247.520615 53.807217
v  78.890610 247.501297 53.191559
v  78.890610 247.501328 47.202038
v  -102.092308 250.597260 45.100048
v  -102.092308 250.597290 53.807217
v  -98.284790 262.027466 53.807209
v  -98.284790 262.027466 45.100040
v  -77.340836 249.744873 45.100048
v  -73.984055 254.206284 45.100044
v  -74.110115 250.497986 53.729805
v  -74.110115 250.497986 46.646034
v  -71.095375 254.692337 46.646030
v  -71.095375 254.692337 53.729801
v  -96.638077 261.497467 55.293541
v  -100.361847 250.549591 55.293549
v  -75.866829 250.585999 55.187920
v  -72.710831 255.212296 55.187916
v  102.710823 250.597153 53.807217
v  102.710823 250.597153 45.100048
v  98.903336 262.027374 45.100040
v  98.903336 262.027344 53.807209
v  76.485237 250.586105 55.187920
v  100.980354 250.549423 55.293549
v  97.256607 261.497345 55.293541
v  73.329300 255.212387 55.187916
v  74.728523 250.498062 46.646034
v  74.728523 250.498062 53.729805
v  71.713844 254.692474 53.729801
v  71.713844 254.692474 46.646030
v  77.959251 249.744949 45.100048
v  74.602501 254.206360 45.100044
# 147 vertices

vn -0.769100 0.490479 0.409775
vn -0.610370 0.389110 -0.689958
vn -0.688796 0.255888 -0.678293
vn -0.857601 0.317820 0.404365
vn 0.225374 -0.173758 -0.958653
vn 0.240231 -0.128029 -0.962236
vn 0.693999 -0.539792 -0.476435
vn 0.718605 -0.557143 0.416171
vn 0.774186 -0.471352 0.422449
vn 0.748726 -0.460382 -0.476925
vn 0.276311 -0.212691 0.937238
vn -0.304147 0.193802 0.932703
vn -0.347848 0.130716 0.928394
vn 0.286529 -0.167423 0.943329
vn -0.685200 0.601857 0.410205
vn -0.543317 0.477417 -0.690565
vn 0.211900 -0.181781 -0.960236
vn 0.656047 -0.584612 -0.477316
vn 0.679345 -0.599256 0.423537
vn 0.253452 -0.223025 0.941288
vn -0.270139 0.237985 0.932946
vn -0.536595 0.736990 0.410988
vn -0.425157 0.583973 -0.691533
vn -0.480907 0.529513 -0.698816
vn -0.612034 0.673781 0.414046
vn 0.177298 -0.237372 -0.955102
vn 0.199678 -0.212802 -0.956475
vn 0.518888 -0.720116 -0.460638
vn 0.532671 -0.731733 0.425240
vn 0.614319 -0.666550 0.422282
vn 0.597049 -0.652524 -0.466631
vn 0.197266 -0.270773 0.942214
vn -0.210967 0.290071 0.933462
vn -0.236841 0.260916 0.935857
vn 0.230653 -0.250111 0.940342
vn -0.256885 0.877624 0.404706
vn -0.206852 0.706588 -0.676717
vn -0.341013 0.635704 -0.692524
vn -0.431199 0.802997 0.411415
vn 0.086847 -0.288263 -0.953605
vn 0.147530 -0.269044 -0.951762
vn 0.246558 -0.857388 -0.451769
vn 0.252654 -0.865124 0.433274
vn 0.427219 -0.798132 0.424817
vn 0.418193 -0.788680 -0.450664
vn 0.089847 -0.307875 0.947175
vn -0.104438 0.356571 0.928412
vn -0.168780 0.315358 0.933843
vn 0.158880 -0.295711 0.941973
vn 0.000000 0.914478 0.404636
vn -0.000000 0.736612 -0.676316
vn 0.000000 -0.304832 -0.952406
vn 0.000000 -0.894029 -0.448009
vn -0.000000 -0.901084 0.433645
vn -0.000000 -0.320058 0.947398
vn 0.000000 0.371789 0.928317
vn 0.256924 0.877600 0.404732
vn 0.206852 0.706588 -0.676717
vn -0.086812 -0.288314 -0.953593
vn -0.246498 -0.857391 -0.451796
vn -0.252721 -0.865122 0.433239
vn -0.089882 -0.307828 0.947187
vn 0.104499 0.356581 0.928402
vn 0.431109 0.803050 0.411406
vn 0.341014 0.635704 -0.692525
vn -0.147606 -0.268954 -0.951775
vn -0.418302 -0.788609 -0.450687
vn -0.427092 -0.798193 0.424830
vn -0.158780 -0.295774 0.941970
vn 0.168674 0.315406 0.933846
vn 0.536650 0.736968 0.410957
vn 0.425155 0.583973 -0.691533
vn -0.177244 -0.237380 -0.955110
vn -0.518836 -0.720195 -0.460575
vn -0.532726 -0.731667 0.425284
vn -0.197348 -0.270771 0.942198
vn 0.210998 0.290000 0.933477
vn 0.685270 0.601835 0.410122
vn 0.543314 0.477420 -0.690564
vn 0.480904 0.529515 -0.698817
vn 0.611968 0.673877 0.413986
vn -0.211836 -0.181673 -0.960271
vn -0.199685 -0.212685 -0.956499
vn -0.656062 -0.584687 -0.477204
vn -0.679293 -0.599230 0.423656
vn -0.614229 -0.666600 0.422336
vn -0.597104 -0.652493 -0.466605
vn -0.253527 -0.223125 0.941244
vn 0.270129 0.237863 0.932980
vn 0.236710 0.260948 0.935882
vn -0.230635 -0.250213 0.940320
vn 0.857710 0.317656 0.404261
vn 0.688800 0.255878 -0.678293
vn 0.610374 0.389108 -0.689956
vn 0.769070 0.490636 0.409644
vn -0.238262 -0.129402 -0.962542
vn -0.224237 -0.166683 -0.960174
vn -0.748203 -0.468940 -0.469348
vn -0.774632 -0.469568 0.423617
vn -0.717572 -0.557867 0.416983
vn -0.696301 -0.537911 -0.475201
vn -0.287610 -0.166708 0.943127
vn 0.347779 0.130485 0.928452
vn 0.303913 0.193815 0.932777
vn -0.276220 -0.214309 0.936896
vn -0.443581 -0.806864 -0.390136
vn 0.105210 -0.869283 -0.482988
vn 0.332208 -0.920853 -0.204127
vn -0.556724 -0.794173 0.243613
vn 0.334312 -0.918871 0.209552
vn 0.099692 -0.835581 0.540247
vn -0.232250 -0.817952 0.526323
vn 0.442551 -0.806713 -0.391616
vn 0.556736 -0.794121 0.243757
vn 0.227421 -0.816887 0.530071
vn -0.107782 -0.867973 -0.484774
vn -0.091493 -0.832046 0.547109
vn -0.332617 -0.920523 0.204949
vn -0.334013 -0.918759 -0.210519
vn -0.728379 -0.167798 -0.664311
vn -0.911353 -0.089450 0.401788
vn -0.873317 0.242983 0.422228
vn -0.670019 0.186704 -0.718482
vn 0.223964 -0.410807 -0.883786
vn 0.270400 -0.173048 -0.947068
vn 0.666754 -0.653456 0.358377
vn 0.654782 -0.630126 -0.417375
vn 0.774186 -0.434511 -0.460256
vn 0.796238 -0.452593 0.401454
vn -0.323339 0.090497 0.941946
vn -0.367988 -0.185673 0.911104
vn 0.271399 -0.389771 0.880012
vn 0.322315 -0.184596 0.928460
vn 0.911544 -0.090267 0.401173
vn 0.727912 -0.168456 -0.664655
vn 0.670019 0.186698 -0.718483
vn 0.873301 0.244023 0.421661
vn -0.272027 -0.387541 0.880802
vn 0.363548 -0.190267 0.911938
vn 0.322492 0.091206 0.942168
vn -0.322914 -0.189627 0.927237
vn -0.654573 -0.626353 -0.423339
vn -0.668817 -0.648675 0.363186
vn -0.794205 -0.454650 0.403152
vn -0.773305 -0.435509 -0.460795
vn -0.225274 -0.412928 -0.882464
vn -0.272703 -0.179007 -0.945299
# 147 vertex normals

vt 0.116569 0.663731 -1.831177
vt 0.091929 0.692105 -1.831177
vt 0.041488 0.626139 -1.831177
vt 0.068784 0.601146 -1.831177
vt 0.857150 0.346143 -1.507029
vt 0.765253 0.276901 -1.507029
vt 0.792233 0.234404 -1.507029
vt 0.892021 0.271799 -1.507029
vt 0.223946 0.540544 -1.831177
vt 0.206725 0.566583 -1.831177
vt 0.173501 0.535304 -1.831177
vt 0.191202 0.509062 -1.831177
vt 0.200882 0.574237 -1.831177
vt 0.122857 0.656515 -1.831177
vt 0.076171 0.595446 -1.831177
vt 0.166383 0.541715 -1.831177
vt 0.156874 0.703850 -1.831177
vt 0.135300 0.735487 -1.831177
vt 0.824155 0.395963 -1.507029
vt 0.739753 0.314045 -1.507029
vt 0.254790 0.568568 -1.831177
vt 0.238309 0.595571 -1.831177
vt 0.232794 0.604148 -1.831177
vt 0.162678 0.695841 -1.831177
vt 0.250637 0.771206 -1.831177
vt 0.234642 0.807075 -1.831177
vt 0.182267 0.772466 -1.831177
vt 0.201160 0.738268 -1.831177
vt 0.740350 0.482458 -1.507029
vt 0.675474 0.381212 -1.507029
vt 0.710777 0.347322 -1.507029
vt 0.785037 0.439553 -1.507029
vt 0.324048 0.619648 -1.831177
vt 0.311456 0.648927 -1.831177
vt 0.271737 0.622154 -1.831177
vt 0.286562 0.594207 -1.831177
vt 0.307352 0.658210 -1.831177
vt 0.254998 0.761824 -1.831177
vt 0.206450 0.729149 -1.831177
vt 0.266995 0.631010 -1.831177
vt 0.400937 0.836092 -1.831177
vt 0.393723 0.875101 -1.831177
vt 0.289929 0.835878 -1.831177
vt 0.302551 0.798162 -1.831177
vt 0.594568 0.567675 -1.507029
vt 0.563996 0.446497 -1.507029
vt 0.636374 0.409123 -1.507029
vt 0.690855 0.517741 -1.507029
vt 0.434247 0.667633 -1.831177
vt 0.428907 0.699289 -1.831177
vt 0.353792 0.670998 -1.831177
vt 0.363365 0.640462 -1.831177
vt 0.427043 0.709712 -1.831177
vt 0.402807 0.825984 -1.831177
vt 0.306206 0.788126 -1.831177
vt 0.350493 0.680444 -1.831177
vt 0.498457 0.848551 -1.831177
vt 0.498464 0.888449 -1.831177
vt 0.495010 0.584080 -1.507029
vt 0.495040 0.457857 -1.507029
vt 0.498435 0.676048 -1.831177
vt 0.498441 0.708069 -1.831177
vt 0.498440 0.718601 -1.831177
vt 0.498457 0.838083 -1.831177
vt 0.595971 0.836037 -1.831177
vt 0.603199 0.875043 -1.831177
vt 0.395459 0.567616 -1.507029
vt 0.426094 0.446458 -1.507029
vt 0.562622 0.667581 -1.831177
vt 0.567972 0.699238 -1.831177
vt 0.569835 0.709664 -1.831177
vt 0.594101 0.825929 -1.831177
vt 0.694345 0.798061 -1.831177
vt 0.706977 0.835773 -1.831177
vt 0.299198 0.517614 -1.507029
vt 0.353744 0.409039 -1.507029
vt 0.633502 0.640375 -1.831177
vt 0.643081 0.670910 -1.831177
vt 0.646381 0.680358 -1.831177
vt 0.690689 0.788027 -1.831177
vt 0.746253 0.771091 -1.831177
vt 0.762253 0.806956 -1.831177
vt 0.249724 0.482290 -1.507029
vt 0.314668 0.381102 -1.507029
vt 0.672825 0.619546 -1.831177
vt 0.685421 0.648823 -1.831177
vt 0.689526 0.658106 -1.831177
vt 0.741892 0.761710 -1.831177
vt 0.840019 0.703729 -1.831177
vt 0.861591 0.735369 -1.831177
vt 0.814620 0.772344 -1.831177
vt 0.795728 0.738146 -1.831177
vt 0.165984 0.395712 -1.507029
vt 0.250453 0.313885 -1.507029
vt 0.279396 0.347185 -1.507029
vt 0.205070 0.439346 -1.507029
vt 0.742096 0.568450 -1.831177
vt 0.758578 0.595452 -1.831177
vt 0.725145 0.622040 -1.831177
vt 0.710317 0.594094 -1.831177
vt 0.764093 0.604030 -1.831177
vt 0.834214 0.695720 -1.831177
vt 0.790438 0.729028 -1.831177
vt 0.729888 0.630895 -1.831177
vt 0.928119 0.601035 -1.831177
vt 0.955413 0.626031 -1.831177
vt 0.904967 0.691991 -1.831177
vt 0.880329 0.663614 -1.831177
vt 0.098230 0.271466 -1.507029
vt 0.198053 0.234193 -1.507029
vt 0.224990 0.276719 -1.507029
vt 0.133032 0.345853 -1.507029
vt 0.805698 0.508950 -1.831177
vt 0.823398 0.535193 -1.831177
vt 0.790167 0.566466 -1.831177
vt 0.772946 0.540423 -1.831177
vt 0.830517 0.541604 -1.831177
vt 0.920731 0.595334 -1.831177
vt 0.874040 0.656398 -1.831177
vt 0.796012 0.574120 -1.831177
vt 0.168028 0.100212 -0.988712
vt 0.037676 0.100212 0.988712
vt 0.033417 0.096547 -0.988712
vt 0.168028 0.060892 -0.988712
vt 0.033417 0.060892 -0.988712
vt 0.037676 0.057227 0.988712
vt 0.163769 0.057227 -0.988712
vt 0.794520 0.119212 -3.038144
vt 0.794520 0.079892 -3.038144
vt 0.798780 0.076227 3.038144
vt 0.924873 0.119212 3.026195
vt 0.924873 0.076227 -3.038144
vt 0.929132 0.079892 -3.038144
vt 0.929132 0.115547 -3.038144
vt 0.010258 0.564435 -1.831177
vt 0.040392 0.545381 -1.831177
vt 0.064418 0.592994 -1.831177
vt 0.034982 0.615025 -1.831177
vt 0.809697 0.204199 -1.507029
vt 0.909665 0.208653 1.507029
vt 0.894080 0.261558 -1.507029
vt 0.796055 0.224811 -1.507029
vt 0.150494 0.513718 -1.831177
vt 0.167281 0.488384 -1.831177
vt 0.183765 0.502939 -1.831177
vt 0.166856 0.528330 -1.831177
vt 0.072018 0.587172 -1.831177
vt 0.047633 0.542212 -1.831177
vt 0.142926 0.517154 -1.831177
vt 0.160270 0.534234 -1.831177
vt 0.956515 0.545273 -1.831177
vt 0.986648 0.564329 -1.831177
vt 0.961921 0.614917 -1.831177
vt 0.932486 0.592884 -1.831177
vt 0.853978 0.517045 -1.831177
vt 0.949273 0.542102 -1.831177
vt 0.924885 0.587060 -1.831177
vt 0.836633 0.534124 -1.831177
vt 0.829624 0.488274 -1.831177
vt 0.846410 0.513609 -1.831177
vt 0.830046 0.528220 -1.831177
vt 0.813137 0.502828 -1.831177
vt 0.096182 0.261223 -1.507029
vt 0.080648 0.208298 1.507028
vt 0.180621 0.203969 -1.507029
vt 0.194241 0.224597 -1.507029
vt 0.226707 0.526299 -1.831177
vt 0.191308 0.493471 -1.831177
vt 0.289199 0.581374 -1.831177
vt 0.257811 0.555082 -1.831177
vt 0.364428 0.628462 -1.831177
vt 0.326065 0.607303 -1.831177
vt 0.435000 0.656613 -1.831177
vt 0.498433 0.665370 -1.831177
vt 0.561865 0.656559 -1.831177
vt 0.632437 0.628375 -1.831177
vt 0.707680 0.581262 -1.831177
vt 0.670806 0.607201 -1.831177
vt 0.770186 0.526178 -1.831177
vt 0.739075 0.554964 -1.831177
vt 0.805594 0.493360 -1.831177
vt 0.183197 0.487858 -1.831177
vt 0.164084 0.472194 -1.831177
vt 0.813706 0.487747 -1.831177
vt 0.832821 0.472084 -1.831177
vt 0.036212 0.534025 -1.831177
vt 0.010762 0.548882 -1.831177
vt 0.904867 0.195175 -1.507029
vt 0.816457 0.191877 -1.507029
vt 0.149785 0.475643 1.831176
vt 0.133962 0.499503 -1.831177
vt 0.128615 0.503487 -1.831177
vt 0.043137 0.530535 -1.831177
vt 0.986145 0.548775 -1.831177
vt 0.960695 0.533916 -1.831177
vt 0.953769 0.530426 -1.831177
vt 0.868289 0.503379 -1.831177
vt 0.862943 0.499394 -1.831177
vt 0.847120 0.475534 1.831177
vt 0.173872 0.191639 -1.507029
vt 0.085459 0.194826 -1.507029
vt 0.150526 0.470811 -1.831177
vt 0.846380 0.470702 -1.831177
# 203 texture coords

g Archway_Overlay_105x205_Arch_A
s 1
f 1/1/1 2/2/2 3/3/3 4/4/4 
f 2/5/2 5/6/5 6/7/6 3/8/3 
f 7/9/7 8/10/8 9/11/9 10/12/10 
f 11/13/11 12/14/12 13/15/13 14/16/14 
f 15/17/15 16/18/16 2/2/2 1/1/1 
f 16/19/16 17/20/17 5/6/5 2/5/2 
f 18/21/18 19/22/19 8/10/8 7/9/7 
f 20/23/20 21/24/21 12/14/12 11/13/11 
f 22/25/22 23/26/23 24/27/24 25/28/25 
f 23/29/23 26/30/26 27/31/27 24/32/24 
f 28/33/28 29/34/29 30/35/30 31/36/31 
f 32/37/32 33/38/33 34/39/34 35/40/35 
f 36/41/36 37/42/37 38/43/38 39/44/39 
f 37/45/37 40/46/40 41/47/41 38/48/38 
f 42/49/42 43/50/43 44/51/44 45/52/45 
f 46/53/46 47/54/47 48/55/48 49/56/49 
f 50/57/50 51/58/51 37/42/37 36/41/36 
f 51/59/51 52/60/52 40/46/40 37/45/37 
f 53/61/53 54/62/54 43/50/43 42/49/42 
f 55/63/55 56/64/56 47/54/47 46/53/46 
f 57/65/57 58/66/58 51/58/51 50/57/50 
f 58/67/58 59/68/59 52/60/52 51/59/51 
f 60/69/60 61/70/61 54/62/54 53/61/53 
f 62/71/62 63/72/63 56/64/56 55/63/55 
f 64/73/64 65/74/65 58/66/58 57/65/57 
f 65/75/65 66/76/66 59/68/59 58/67/58 
f 67/77/67 68/78/68 61/70/61 60/69/60 
f 69/79/69 70/80/70 63/72/63 62/71/62 
f 71/81/71 72/82/72 65/74/65 64/73/64 
f 72/83/72 73/84/73 66/76/66 65/75/65 
f 74/85/74 75/86/75 68/78/68 67/77/67 
f 76/87/76 77/88/77 70/80/70 69/79/69 
f 78/89/78 79/90/79 80/91/80 81/92/81 
f 79/93/79 82/94/82 83/95/83 80/96/80 
f 84/97/84 85/98/85 86/99/86 87/100/87 
f 88/101/88 89/102/89 90/103/90 91/104/91 
f 92/105/92 93/106/93 94/107/94 95/108/95 
f 93/109/93 96/110/96 97/111/97 94/112/94 
f 98/113/98 99/114/99 100/115/100 101/116/101 
f 102/117/102 103/118/103 104/119/104 105/120/105 
f 106/121/106 107/122/107 108/123/108 109/124/109 
f 108/123/108 110/125/110 111/126/111 109/124/109 
f 111/126/111 112/127/112 109/124/109 
f 113/128/113 114/129/114 115/130/115 116/131/116 
f 115/130/115 117/132/117 118/133/118 116/131/116 
f 119/134/119 116/131/116 118/133/118 
f 120/135/120 121/136/121 122/137/122 123/138/123 
f 124/139/124 120/140/120 123/141/123 125/142/125 
f 126/143/126 127/144/127 128/145/128 129/146/129 
f 130/147/130 131/148/131 132/149/132 133/150/133 
f 134/151/134 135/152/135 136/153/136 137/154/137 
f 138/155/138 139/156/139 140/157/140 141/158/141 
f 142/159/142 143/160/143 144/161/144 145/162/145 
f 136/163/136 135/164/135 146/165/146 147/166/147 
f 25/28/25 24/27/24 16/18/16 15/17/15 
f 24/32/24 27/31/27 17/20/17 16/19/16 
f 31/36/31 30/35/30 19/22/19 18/21/18 
f 35/40/35 34/39/34 21/24/21 20/23/20 
f 39/44/39 38/43/38 23/26/23 22/25/22 
f 38/48/38 41/47/41 26/30/26 23/29/23 
f 45/52/45 44/51/44 29/34/29 28/33/28 
f 49/56/49 48/55/48 33/38/33 32/37/32 
f 81/92/81 80/91/80 72/82/72 71/81/71 
f 80/96/80 83/95/83 73/84/73 72/83/72 
f 87/100/87 86/99/86 75/86/75 74/85/74 
f 91/104/91 90/103/90 77/88/77 76/87/76 
f 95/108/95 94/107/94 79/90/79 78/89/78 
f 94/112/94 97/111/97 82/94/82 79/93/79 
f 101/116/101 100/115/100 85/98/85 84/97/84 
f 105/120/105 104/119/104 89/102/89 88/101/88 
f 122/137/122 4/4/4 3/3/3 123/138/123 
f 3/8/3 6/7/6 125/142/125 123/141/123 
f 128/145/128 10/12/10 9/11/9 129/146/129 
f 133/150/133 14/16/14 13/15/13 130/147/130 
f 136/153/136 93/106/93 92/105/92 137/154/137 
f 140/157/140 103/118/103 102/117/102 141/158/141 
f 144/161/144 99/114/99 98/113/98 145/162/145 
f 147/166/147 96/110/96 93/109/93 136/163/136 
f 4/4/4 13/15/13 12/14/12 1/1/1 
f 5/167/5 7/9/7 10/12/10 6/168/6 
f 8/10/8 11/13/11 14/16/14 9/11/9 
f 1/1/1 12/14/12 21/24/21 15/17/15 
f 27/169/27 31/36/31 18/21/18 17/170/17 
f 30/35/30 35/40/35 20/23/20 19/22/19 
f 25/28/25 34/39/34 33/38/33 22/25/22 
f 41/171/41 45/52/45 28/33/28 26/172/26 
f 44/51/44 49/56/49 32/37/32 29/34/29 
f 39/44/39 48/55/48 47/54/47 36/41/36 
f 40/173/40 42/49/42 45/52/45 41/171/41 
f 43/50/43 46/53/46 49/56/49 44/51/44 
f 36/41/36 47/54/47 56/64/56 50/57/50 
f 52/174/52 53/61/53 42/49/42 40/173/40 
f 54/62/54 55/63/55 46/53/46 43/50/43 
f 50/57/50 56/64/56 63/72/63 57/65/57 
f 59/175/59 60/69/60 53/61/53 52/174/52 
f 61/70/61 62/71/62 55/63/55 54/62/54 
f 57/65/57 63/72/63 70/80/70 64/73/64 
f 66/176/66 67/77/67 60/69/60 59/175/59 
f 68/78/68 69/79/69 62/71/62 61/70/61 
f 64/73/64 70/80/70 77/88/77 71/81/71 
f 83/177/83 87/100/87 74/85/74 73/178/73 
f 86/99/86 91/104/91 76/87/76 75/86/75 
f 81/92/81 90/103/90 89/102/89 78/89/78 
f 97/179/97 101/116/101 84/97/84 82/180/82 
f 100/115/100 105/120/105 88/101/88 85/98/85 
f 95/108/95 104/119/104 103/118/103 92/105/92 
f 96/181/96 98/113/98 101/116/101 97/179/97 
f 99/114/99 102/117/102 105/120/105 100/115/100 
f 130/147/130 122/137/122 121/136/121 131/148/131 
f 125/182/125 128/145/128 127/144/127 124/183/124 
f 129/146/129 133/150/133 132/149/132 126/143/126 
f 137/154/137 140/157/140 139/156/139 134/151/134 
f 141/158/141 144/161/144 143/160/143 138/155/138 
f 145/162/145 147/184/147 146/185/146 142/159/142 
f 15/17/15 21/24/21 34/39/34 25/28/25 
f 17/170/17 18/21/18 7/9/7 5/167/5 
f 19/22/19 20/23/20 11/13/11 8/10/8 
f 22/25/22 33/38/33 48/55/48 39/44/39 
f 26/172/26 28/33/28 31/36/31 27/169/27 
f 29/34/29 32/37/32 35/40/35 30/35/30 
f 71/81/71 77/88/77 90/103/90 81/92/81 
f 73/178/73 74/85/74 67/77/67 66/176/66 
f 75/86/75 76/87/76 69/79/69 68/78/68 
f 78/89/78 89/102/89 104/119/104 95/108/95 
f 82/180/82 84/97/84 87/100/87 83/177/83 
f 85/98/85 88/101/88 91/104/91 86/99/86 
f 6/168/6 10/12/10 128/145/128 125/182/125 
f 92/105/92 103/118/103 140/157/140 137/154/137 
f 144/161/144 141/158/141 102/117/102 99/114/99 
f 13/15/13 4/4/4 122/137/122 130/147/130 
f 9/11/9 14/16/14 133/150/133 129/146/129 
f 98/113/98 96/181/96 147/184/147 145/162/145 
f 109/186/109 121/136/121 120/135/120 106/187/106 
f 106/188/106 120/140/120 124/139/124 107/189/107 
f 108/190/108 127/144/127 126/143/126 110/191/110 
f 111/192/111 132/149/132 131/148/131 112/193/112 
f 113/194/113 135/152/135 134/151/134 114/195/114 
f 115/196/115 139/156/139 138/155/138 117/197/117 
f 118/198/118 143/160/143 142/159/142 119/199/119 
f 116/200/116 146/165/146 135/164/135 113/201/113 
f 121/136/121 109/186/109 112/193/112 131/148/131 
f 127/144/127 108/190/108 107/202/107 124/183/124 
f 132/149/132 111/192/111 110/191/110 126/143/126 
f 139/156/139 115/196/115 114/195/114 134/151/134 
f 143/160/143 118/198/118 117/197/117 138/155/138 
f 146/185/146 116/203/116 119/199/119 142/159/142 
# 144 polygons - 2 triangles

