# 3ds Max Wavefront OBJ Exporter v0.97b - (c)2007 guruware
# File Created: 02.06.2015 14:54:26

#
# object Metal_Grate
#

v  15.035269 -10.035629 -2.457456
v  12.046685 -10.035629 -2.718923
v  12.046685 370.000000 -2.718923
v  15.035269 370.000000 -2.457456
v  10.325955 -10.035629 -0.261467
v  10.325956 370.000000 -0.261467
v  11.593811 -10.035629 2.457456
v  11.593811 370.000000 2.457456
v  14.582395 -10.035629 2.718923
v  14.582395 370.000000 2.718923
v  16.303123 -10.035629 0.261467
v  16.303123 370.000000 0.261467
v  28.349812 -10.035629 -2.457455
v  25.361225 -10.035629 -2.718920
v  25.361225 370.000000 -2.718920
v  28.349812 370.000000 -2.457455
v  23.640495 -10.035629 -0.261464
v  23.640495 370.000000 -0.261464
v  24.908352 -10.035629 2.457459
v  24.908352 370.000000 2.457459
v  27.896935 -10.035629 2.718927
v  27.896935 370.000000 2.718927
v  29.617664 -10.035629 0.261470
v  29.617664 370.000000 0.261470
v  41.664349 -10.035629 -2.457449
v  38.675766 -10.035629 -2.718917
v  38.675766 370.000000 -2.718917
v  41.664349 370.000000 -2.457449
v  36.955036 -10.035629 -0.261460
v  36.955036 370.000000 -0.261460
v  38.222893 -10.035629 2.457463
v  38.222893 370.000000 2.457463
v  41.211475 -10.035629 2.718930
v  41.211475 370.000000 2.718930
v  42.932205 -10.035629 0.261475
v  42.932205 370.000000 0.261475
v  54.978886 -10.035629 -2.457457
v  51.990303 -10.035629 -2.718925
v  51.990303 370.000000 -2.718925
v  54.978886 370.000000 -2.457457
v  50.269569 -10.035629 -0.261467
v  50.269569 370.000000 -0.261467
v  51.537430 -10.035629 2.457454
v  51.537430 370.000000 2.457454
v  54.526009 -10.035629 2.718924
v  54.526009 370.000000 2.718924
v  56.246742 -10.035629 0.261467
v  56.246742 370.000000 0.261467
v  68.293427 -10.035629 -2.457453
v  65.304840 -10.035629 -2.718920
v  65.304840 370.000000 -2.718920
v  68.293427 370.000000 -2.457453
v  63.584118 -10.035629 -0.261465
v  63.584118 370.000000 -0.261465
v  64.851967 -10.035629 2.457458
v  64.851967 370.000000 2.457458
v  67.840553 -10.035629 2.718927
v  67.840553 370.000000 2.718927
v  69.561279 -10.035629 0.261471
v  69.561279 370.000000 0.261471
v  -15.435863 -10.035629 -2.121322
v  -15.435863 370.000000 -2.121322
v  -12.538083 370.000000 -2.897777
v  -12.538083 -10.035629 -2.897777
v  -10.416764 370.000000 -0.776457
v  -10.416764 -10.035629 -0.776457
v  -11.193221 370.000000 2.121322
v  -11.193221 -10.035629 2.121322
v  -14.090997 370.000000 2.897778
v  -14.090997 -10.035629 2.897778
v  -16.212318 370.000000 0.776459
v  -16.212318 -10.035629 0.776459
v  -28.750401 -10.035629 -2.121322
v  -28.750401 370.000000 -2.121322
v  -25.852615 370.000000 -2.897777
v  -25.852615 -10.035629 -2.897777
v  -23.731293 370.000000 -0.776456
v  -23.731293 -10.035629 -0.776456
v  -24.507755 370.000000 2.121321
v  -24.507755 -10.035629 2.121321
v  -27.405533 370.000000 2.897778
v  -27.405533 -10.035629 2.897778
v  -29.526855 370.000000 0.776458
v  -29.526855 -10.035629 0.776458
v  -42.064941 -10.035629 -2.121309
v  -42.064941 370.000000 -2.121309
v  -39.167164 370.000000 -2.897765
v  -39.167164 -10.035629 -2.897765
v  -37.045845 370.000000 -0.776447
v  -37.045845 -10.035629 -0.776447
v  -37.822304 370.000000 2.121329
v  -37.822304 -10.035629 2.121329
v  -40.720081 370.000000 2.897788
v  -40.720081 -10.035629 2.897788
v  -42.841404 370.000000 0.776467
v  -42.841404 -10.035629 0.776467
v  -55.379490 -10.035629 -2.121310
v  -55.379490 370.000000 -2.121310
v  -52.481709 370.000000 -2.897763
v  -52.481709 -10.035629 -2.897763
v  -50.360382 370.000000 -0.776444
v  -50.360382 -10.035629 -0.776444
v  -51.136845 370.000000 2.121333
v  -51.136845 -10.035629 2.121333
v  -54.034618 370.000000 2.897788
v  -54.034618 -10.035629 2.897788
v  -56.155933 370.000000 0.776469
v  -56.155933 -10.035629 0.776469
v  -68.694023 -10.035629 -2.121320
v  -68.694023 370.000000 -2.121320
v  -65.796242 370.000000 -2.897775
v  -65.796242 -10.035629 -2.897775
v  -63.674915 370.000000 -0.776456
v  -63.674915 -10.035629 -0.776456
v  -64.451378 370.000000 2.121321
v  -64.451378 -10.035629 2.121321
v  -67.349152 370.000000 2.897776
v  -67.349152 -10.035629 2.897776
v  -69.470474 370.000000 0.776458
v  -69.470474 -10.035629 0.776458
v  2.819077 -10.030853 -1.026058
v  0.520944 -10.030853 -2.954421
v  0.520944 370.000000 -2.954421
v  2.819077 370.000000 -1.026058
v  -2.298135 -10.030853 -1.928361
v  -2.298135 370.000000 -1.928361
v  -2.819081 -10.030853 1.026062
v  -2.819081 370.000000 1.026062
v  -0.520946 -10.030853 2.954425
v  -0.520946 370.000000 2.954425
v  2.298132 -10.030853 1.928366
v  2.298132 370.000000 1.928366
v  -80.000000 0.000000 5.000000
v  -80.000000 0.000000 -5.000000
v  80.000000 0.000000 -5.000000
v  80.000000 0.000000 5.000000
v  -80.000000 5.000000 5.000000
v  80.000000 5.000000 5.000000
v  80.000000 5.000000 -5.000000
v  -80.000000 5.000000 -5.000000
v  -80.000000 126.965141 5.000000
v  -80.000000 126.965141 -5.000000
v  80.000000 126.965141 -5.000000
v  80.000000 126.965141 5.000000
v  -80.000000 131.965149 5.000000
v  80.000000 131.965149 5.000000
v  80.000000 131.965149 -5.000000
v  -80.000000 131.965149 -5.000000
v  -80.000000 244.636719 5.000000
v  -80.000000 244.636719 -5.000000
v  80.000000 244.636719 -5.000000
v  80.000000 244.636719 5.000000
v  -80.000000 249.636734 5.000000
v  80.000000 249.636734 5.000000
v  80.000000 249.636734 -5.000000
v  -80.000000 249.636734 -5.000000
# 156 vertices

vn 0.573576 0.000000 -0.819152
vn -0.422618 0.000000 -0.906308
vn -0.996195 0.000000 -0.087156
vn -0.573576 0.000000 0.819152
vn 0.422618 0.000000 0.906308
vn 0.996195 0.000000 0.087156
vn 0.000000 -1.000000 -0.000000
vn -0.573577 0.000000 0.819152
vn 0.422619 0.000000 0.906308
vn 0.573577 0.000000 -0.819152
vn -0.996195 0.000000 -0.087155
vn 0.422617 0.000000 0.906308
vn -0.422619 0.000000 -0.906308
vn -0.707107 0.000000 -0.707107
vn 0.258820 0.000000 -0.965926
vn 0.965926 0.000000 -0.258819
vn 0.707107 0.000000 0.707107
vn -0.258819 0.000000 0.965926
vn -0.965926 0.000000 0.258820
vn 0.258819 0.000000 -0.965926
vn 0.965926 0.000000 -0.258818
vn 0.707106 0.000000 0.707107
vn -0.707106 0.000000 -0.707107
vn -0.965926 0.000000 0.258818
vn -0.707108 0.000000 -0.707106
vn 0.707106 0.000000 0.707108
vn -0.258820 0.000000 0.965926
vn -0.965925 0.000000 0.258821
vn -0.707107 0.000000 -0.707106
vn -0.965925 0.000000 0.258820
vn 0.939693 0.000000 -0.342020
vn 0.173648 0.000000 -0.984808
vn -0.766044 0.000000 -0.642788
vn -0.939693 0.000000 0.342020
vn -0.173648 0.000000 0.984808
vn 0.766044 0.000000 0.642788
vn 0.000000 1.000000 -0.000000
vn 0.000000 0.000000 1.000000
vn 0.000000 0.000000 -1.000000
# 39 vertex normals

vt 0.414472 0.016256 1.000000
vt 0.425954 0.016256 1.000000
vt 0.425955 0.642763 1.000000
vt 0.414472 0.642763 1.000000
vt 0.437436 0.016256 1.000000
vt 0.437436 0.642763 1.000000
vt 0.368540 0.016256 1.000000
vt 0.380022 0.016256 1.000000
vt 0.380022 0.642763 1.000000
vt 0.368540 0.642763 1.000000
vt 0.391505 0.016256 1.000000
vt 0.391505 0.642763 1.000000
vt 0.402988 0.016256 1.000000
vt 0.402988 0.642763 1.000000
vt 0.881561 0.656436 -0.250000
vt 0.879543 0.666966 -0.250000
vt 0.867182 0.670829 -0.250000
vt 0.858855 0.653630 -0.250000
vt 0.856838 0.664161 -0.250000
vt 0.871216 0.649767 -0.250000
vt 0.326766 0.015239 1.000000
vt 0.338248 0.015239 1.000000
vt 0.338248 0.641747 1.000000
vt 0.326766 0.641747 1.000000
vt 0.349730 0.015239 1.000000
vt 0.349730 0.641747 1.000000
vt 0.280834 0.015239 1.000000
vt 0.292316 0.015239 1.000000
vt 0.292316 0.641747 1.000000
vt 0.280834 0.641747 1.000000
vt 0.303798 0.015239 1.000000
vt 0.303798 0.641747 1.000000
vt 0.315282 0.015239 1.000000
vt 0.315282 0.641747 1.000000
vt 0.844948 0.655106 -0.250000
vt 0.844413 0.665753 -0.250000
vt 0.832669 0.670704 -0.250000
vt 0.821994 0.654363 -0.250000
vt 0.821459 0.665009 -0.250000
vt 0.833738 0.649412 -0.250000
vt 0.236451 0.015239 1.000000
vt 0.247934 0.015239 1.000000
vt 0.247934 0.641747 1.000000
vt 0.236451 0.641747 1.000000
vt 0.259415 0.015239 1.000000
vt 0.259415 0.641747 1.000000
vt 0.190520 0.015239 1.000000
vt 0.202001 0.015239 1.000000
vt 0.202001 0.641747 1.000000
vt 0.190520 0.641747 1.000000
vt 0.213484 0.015239 1.000000
vt 0.213484 0.641747 1.000000
vt 0.224967 0.015239 1.000000
vt 0.224967 0.641747 1.000000
vt 0.814073 0.655347 -0.250000
vt 0.813538 0.665993 -0.250000
vt 0.801794 0.670944 -0.250000
vt 0.791119 0.654604 -0.250000
vt 0.790584 0.665250 -0.250000
vt 0.802864 0.649652 -0.250000
vt 0.149358 0.015239 1.000000
vt 0.160841 0.015239 1.000000
vt 0.160841 0.641747 1.000000
vt 0.149358 0.641747 1.000000
vt 0.172322 0.015239 1.000000
vt 0.172322 0.641747 1.000000
vt 0.103427 0.015239 1.000000
vt 0.114908 0.015239 1.000000
vt 0.114908 0.641747 1.000000
vt 0.103427 0.641747 1.000000
vt 0.126391 0.015239 1.000000
vt 0.126391 0.641747 1.000000
vt 0.137874 0.015239 1.000000
vt 0.137874 0.641747 1.000000
vt 0.782968 0.654941 -0.250000
vt 0.782433 0.665587 -0.250000
vt 0.770689 0.670538 -0.250000
vt 0.760014 0.654197 -0.250000
vt 0.759479 0.664843 -0.250000
vt 0.771758 0.649246 -0.250000
vt 0.060081 0.015239 1.000000
vt 0.071564 0.015239 1.000000
vt 0.071564 0.641747 1.000000
vt 0.060081 0.641747 1.000000
vt 0.083045 0.015239 1.000000
vt 0.083045 0.641747 1.000000
vt 0.014150 0.015239 1.000000
vt 0.025631 0.015239 1.000000
vt 0.025631 0.641747 1.000000
vt 0.014150 0.641747 1.000000
vt 0.037114 0.015239 1.000000
vt 0.037114 0.641747 1.000000
vt 0.048597 0.015239 1.000000
vt 0.048597 0.641747 1.000000
vt 0.747440 0.655347 -0.250000
vt 0.746905 0.665993 -0.250000
vt 0.735161 0.670944 -0.250000
vt 0.724486 0.654604 -0.250000
vt 0.723951 0.665250 -0.250000
vt 0.736230 0.649652 -0.250000
vt 0.576797 0.015239 1.000000
vt 0.576797 0.641747 1.000000
vt 0.565317 0.641747 1.000000
vt 0.565317 0.015239 1.000000
vt 0.553837 0.641747 1.000000
vt 0.553836 0.015239 1.000000
vt 0.622713 0.015239 1.000000
vt 0.622713 0.641747 1.000000
vt 0.611233 0.641747 1.000000
vt 0.611233 0.015239 1.000000
vt 0.599753 0.641747 1.000000
vt 0.599753 0.015239 1.000000
vt 0.588275 0.641747 1.000000
vt 0.588275 0.015239 1.000000
vt 0.700628 0.670266 -0.250000
vt 0.689142 0.664939 -0.250000
vt 0.689142 0.654284 -0.250000
vt 0.712115 0.654284 -0.250000
vt 0.700628 0.648956 -0.250000
vt 0.712115 0.664939 -0.250000
vt 0.669362 0.015239 1.000000
vt 0.669362 0.641747 1.000000
vt 0.657882 0.641747 1.000000
vt 0.657882 0.015239 1.000000
vt 0.646402 0.641747 1.000000
vt 0.646401 0.015239 1.000000
vt 0.715278 0.015239 1.000000
vt 0.715278 0.641747 1.000000
vt 0.703798 0.641747 1.000000
vt 0.703798 0.015239 1.000000
vt 0.692318 0.641747 1.000000
vt 0.692318 0.015239 1.000000
vt 0.680840 0.641747 1.000000
vt 0.680840 0.015239 1.000000
vt 0.665042 0.670134 -0.250000
vt 0.653556 0.664806 -0.250000
vt 0.653556 0.654151 -0.250000
vt 0.676529 0.654151 -0.250000
vt 0.665042 0.648824 -0.250000
vt 0.676529 0.664806 -0.250000
vt 0.759383 0.015239 1.000000
vt 0.759383 0.641747 1.000000
vt 0.747903 0.641747 1.000000
vt 0.747903 0.015239 1.000000
vt 0.736423 0.641747 1.000000
vt 0.736423 0.015239 1.000000
vt 0.805300 0.015239 1.000000
vt 0.805300 0.641747 1.000000
vt 0.793819 0.641747 1.000000
vt 0.793819 0.015239 1.000000
vt 0.782340 0.641747 1.000000
vt 0.782340 0.015239 1.000000
vt 0.770861 0.641747 1.000000
vt 0.770861 0.015239 1.000000
vt 0.633889 0.670818 -0.250000
vt 0.622403 0.665490 -0.250000
vt 0.622403 0.654835 -0.250000
vt 0.645376 0.654835 -0.250000
vt 0.633890 0.649508 -0.250000
vt 0.645376 0.665490 -0.250000
vt 0.847289 0.015239 1.000000
vt 0.847289 0.641747 1.000000
vt 0.835810 0.641747 1.000000
vt 0.835810 0.015239 1.000000
vt 0.824329 0.641747 1.000000
vt 0.824329 0.015239 1.000000
vt 0.893206 0.015239 1.000000
vt 0.893206 0.641747 1.000000
vt 0.881726 0.641747 1.000000
vt 0.881726 0.015239 1.000000
vt 0.870246 0.641747 1.000000
vt 0.870246 0.015239 1.000000
vt 0.858768 0.641747 1.000000
vt 0.858768 0.015239 1.000000
vt 0.975179 0.670953 -0.250000
vt 0.963693 0.665626 -0.250000
vt 0.963693 0.654971 -0.250000
vt 0.986666 0.654971 -0.250000
vt 0.975179 0.649644 -0.250000
vt 0.986666 0.665626 -0.250000
vt 0.938645 0.015239 1.000000
vt 0.938645 0.641747 1.000000
vt 0.927165 0.641747 1.000000
vt 0.927165 0.015239 1.000000
vt 0.915685 0.641747 1.000000
vt 0.915685 0.015239 1.000000
vt 0.984562 0.015239 1.000000
vt 0.984562 0.641747 1.000000
vt 0.973081 0.641747 1.000000
vt 0.973081 0.015239 1.000000
vt 0.961602 0.641747 1.000000
vt 0.961602 0.015239 1.000000
vt 0.950123 0.641747 1.000000
vt 0.950123 0.015239 1.000000
vt 0.940629 0.670953 -0.250000
vt 0.929142 0.665626 -0.250000
vt 0.929142 0.654971 -0.250000
vt 0.952115 0.654971 -0.250000
vt 0.940629 0.649644 -0.250000
vt 0.952115 0.665626 -0.250000
vt 0.508998 0.015243 1.000000
vt 0.520481 0.015243 1.000000
vt 0.520481 0.641743 1.000000
vt 0.508998 0.641743 1.000000
vt 0.531962 0.015243 1.000000
vt 0.531962 0.641743 1.000000
vt 0.463067 0.015243 1.000000
vt 0.474548 0.015243 1.000000
vt 0.474548 0.641743 1.000000
vt 0.463067 0.641743 1.000000
vt 0.486031 0.015243 1.000000
vt 0.486031 0.641743 1.000000
vt 0.497515 0.015243 1.000000
vt 0.497515 0.641743 1.000000
vt 0.921297 0.655347 -0.250000
vt 0.920762 0.665993 -0.250000
vt 0.909017 0.670944 -0.250000
vt 0.898342 0.654604 -0.250000
vt 0.897808 0.665250 -0.250000
vt 0.910087 0.649652 -0.250000
vt 0.993143 0.699252 0.000000
vt 0.993143 0.729551 0.000000
vt 0.006864 0.729551 0.000000
vt 0.006864 0.699252 0.000000
vt 0.006864 0.751981 0.000000
vt 0.993143 0.751981 0.000000
vt 0.993143 0.782279 0.000000
vt 0.006864 0.782279 0.000000
vt 0.006865 0.680667 0.000000
vt 0.993142 0.680667 0.000000
vt 0.993142 0.695816 0.000000
vt 0.006865 0.695816 0.000000
vt 0.006865 0.733111 0.000000
vt 0.993142 0.733111 0.000000
vt 0.993142 0.748260 0.000000
vt 0.006865 0.748260 0.000000
vt 0.993143 0.804720 0.000000
vt 0.993143 0.835019 0.000000
vt 0.006864 0.835019 0.000000
vt 0.006864 0.804720 0.000000
vt 0.006864 0.857449 0.000000
vt 0.993143 0.857449 0.000000
vt 0.993143 0.887747 0.000000
vt 0.006864 0.887747 0.000000
vt 0.006865 0.786135 0.000000
vt 0.993142 0.786135 0.000000
vt 0.993142 0.801284 0.000000
vt 0.006865 0.801284 0.000000
vt 0.006865 0.838579 0.000000
vt 0.993142 0.838579 0.000000
vt 0.993142 0.853728 0.000000
vt 0.006865 0.853728 0.000000
vt 0.993143 0.911835 0.000000
vt 0.993143 0.942133 0.000000
vt 0.006864 0.942133 0.000000
vt 0.006864 0.911835 0.000000
vt 0.006864 0.964563 0.000000
vt 0.993143 0.964563 0.000000
vt 0.993143 0.994861 0.000000
vt 0.006864 0.994861 0.000000
vt 0.006865 0.893249 0.000000
vt 0.993142 0.893249 0.000000
vt 0.993142 0.908398 0.000000
vt 0.006865 0.908398 0.000000
vt 0.006865 0.945693 0.000000
vt 0.993142 0.945693 0.000000
vt 0.993142 0.960842 0.000000
vt 0.006865 0.960842 0.000000
# 268 texture coords

g Metal_Grate
s 8
f 1/1/1 2/2/2 3/3/2 4/4/1 
f 2/2/2 5/5/3 6/6/3 3/3/2 
f 5/7/3 7/8/4 8/9/4 6/10/3 
f 7/8/4 9/11/5 10/12/5 8/9/4 
f 9/11/5 11/13/6 12/14/6 10/12/5 
f 11/13/6 1/1/1 4/4/1 12/14/6 
s 1
f 9/15/7 7/16/7 5/17/7 1/18/7 
f 5/17/7 2/19/7 1/18/7 
f 11/20/7 9/15/7 1/18/7 
s 8
f 13/21/1 14/22/2 15/23/2 16/24/1 
f 14/22/2 17/25/3 18/26/3 15/23/2 
f 17/27/3 19/28/8 20/29/4 18/30/3 
f 19/28/8 21/31/5 22/32/9 20/29/4 
f 21/31/5 23/33/6 24/34/6 22/32/9 
f 23/33/6 13/21/1 16/24/1 24/34/6 
s 1
f 21/35/7 19/36/7 17/37/7 13/38/7 
f 17/37/7 14/39/7 13/38/7 
f 23/40/7 21/35/7 13/38/7 
s 8
f 25/41/10 26/42/2 27/43/2 28/44/10 
f 26/42/2 29/45/3 30/46/3 27/43/2 
f 29/47/3 31/48/4 32/49/4 30/50/3 
f 31/48/4 33/51/5 34/52/5 32/49/4 
f 33/51/5 35/53/6 36/54/6 34/52/5 
f 35/53/6 25/41/10 28/44/10 36/54/6 
s 1
f 33/55/7 31/56/7 29/57/7 25/58/7 
f 29/57/7 26/59/7 25/58/7 
f 35/60/7 33/55/7 25/58/7 
s 8
f 37/61/10 38/62/2 39/63/2 40/64/10 
f 38/62/2 41/65/11 42/66/11 39/63/2 
f 41/67/11 43/68/4 44/69/4 42/70/11 
f 43/68/4 45/71/12 46/72/12 44/69/4 
f 45/71/12 47/73/6 48/74/6 46/72/12 
f 47/73/6 37/61/10 40/64/10 48/74/6 
s 1
f 45/75/7 43/76/7 41/77/7 37/78/7 
f 41/77/7 38/79/7 37/78/7 
f 47/80/7 45/75/7 37/78/7 
s 8
f 49/81/10 50/82/13 51/83/13 52/84/10 
f 50/82/13 53/85/3 54/86/3 51/83/13 
f 53/87/3 55/88/8 56/89/8 54/90/3 
f 55/88/8 57/91/5 58/92/5 56/89/8 
f 57/91/5 59/93/6 60/94/6 58/92/5 
f 59/93/6 49/81/10 52/84/10 60/94/6 
s 1
f 57/95/7 55/96/7 53/97/7 49/98/7 
f 53/97/7 50/99/7 49/98/7 
f 59/100/7 57/95/7 49/98/7 
s 8
f 61/101/14 62/102/14 63/103/15 64/104/15 
f 64/104/15 63/103/15 65/105/16 66/106/16 
f 66/107/16 65/108/16 67/109/17 68/110/17 
f 68/110/17 67/109/17 69/111/18 70/112/18 
f 70/112/18 69/111/18 71/113/19 72/114/19 
f 72/114/19 71/113/19 62/102/14 61/101/14 
s 1
f 61/115/7 64/116/7 66/117/7 70/118/7 
f 66/117/7 68/119/7 70/118/7 
f 72/120/7 61/115/7 70/118/7 
s 8
f 73/121/14 74/122/14 75/123/20 76/124/20 
f 76/124/20 75/123/20 77/125/21 78/126/21 
f 78/127/21 77/128/21 79/129/22 80/130/22 
f 80/130/22 79/129/22 81/131/18 82/132/18 
f 82/132/18 81/131/18 83/133/19 84/134/19 
f 84/134/19 83/133/19 74/122/14 73/121/14 
s 1
f 73/135/7 76/136/7 78/137/7 82/138/7 
f 78/137/7 80/139/7 82/138/7 
f 84/140/7 73/135/7 82/138/7 
s 8
f 85/141/23 86/142/23 87/143/20 88/144/20 
f 88/144/20 87/143/20 89/145/16 90/146/16 
f 90/147/16 89/148/16 91/149/17 92/150/17 
f 92/150/17 91/149/17 93/151/18 94/152/18 
f 94/152/18 93/151/18 95/153/24 96/154/24 
f 96/154/24 95/153/24 86/142/23 85/141/23 
s 1
f 85/155/7 88/156/7 90/157/7 94/158/7 
f 90/157/7 92/159/7 94/158/7 
f 96/160/7 85/155/7 94/158/7 
s 8
f 97/161/25 98/162/25 99/163/20 100/164/20 
f 100/164/20 99/163/20 101/165/16 102/166/16 
f 102/167/16 101/168/16 103/169/26 104/170/26 
f 104/170/26 103/169/26 105/171/27 106/172/27 
f 106/172/27 105/171/27 107/173/28 108/174/28 
f 108/174/28 107/173/28 98/162/25 97/161/25 
s 1
f 97/175/7 100/176/7 102/177/7 106/178/7 
f 102/177/7 104/179/7 106/178/7 
f 108/180/7 97/175/7 106/178/7 
s 8
f 109/181/29 110/182/29 111/183/20 112/184/20 
f 112/184/20 111/183/20 113/185/16 114/186/16 
f 114/187/16 113/188/16 115/189/22 116/190/22 
f 116/190/22 115/189/22 117/191/18 118/192/18 
f 118/192/18 117/191/18 119/193/30 120/194/30 
f 120/194/30 119/193/30 110/182/29 109/181/29 
s 1
f 109/195/7 112/196/7 114/197/7 118/198/7 
f 114/197/7 116/199/7 118/198/7 
f 120/200/7 109/195/7 118/198/7 
s 8
f 121/201/31 122/202/32 123/203/32 124/204/31 
f 122/202/32 125/205/33 126/206/33 123/203/32 
f 125/207/33 127/208/34 128/209/34 126/210/33 
f 127/208/34 129/211/35 130/212/35 128/209/34 
f 129/211/35 131/213/36 132/214/36 130/212/35 
f 131/213/36 121/201/31 124/204/31 132/214/36 
s 1
f 129/215/7 127/216/7 125/217/7 121/218/7 
f 125/217/7 122/219/7 121/218/7 
f 131/220/7 129/215/7 121/218/7 
s 2
f 133/221/7 134/222/7 135/223/7 136/224/7 
s 4
f 137/225/37 138/226/37 139/227/37 140/228/37 
s 8
f 133/229/38 136/230/38 138/231/38 137/232/38 
s 32
f 135/233/39 134/234/39 140/235/39 139/236/39 
s 2
f 141/237/7 142/238/7 143/239/7 144/240/7 
s 4
f 145/241/37 146/242/37 147/243/37 148/244/37 
s 8
f 141/245/38 144/246/38 146/247/38 145/248/38 
s 32
f 143/249/39 142/250/39 148/251/39 147/252/39 
s 2
f 149/253/7 150/254/7 151/255/7 152/256/7 
s 4
f 153/257/37 154/258/37 155/259/37 156/260/37 
s 8
f 149/261/38 152/262/38 154/263/38 153/264/38 
s 32
f 151/265/39 150/266/39 156/267/39 155/268/39 
# 89 polygons - 22 triangles

