# 3ds Max Wavefront OBJ Exporter v0.97b - (c)2007 guruware
# File Created: 31.05.2015 13:46:17

#
# object Door_Pointed_Handle
#

v  -44.379200 146.051498 -13.668371
v  -44.225517 146.390671 -14.364919
v  -46.570263 147.607559 -14.364919
v  -46.570263 147.205414 -13.668371
v  -44.686569 145.373154 -13.668371
v  -46.570263 146.401108 -13.668371
v  -44.840252 145.033997 -14.364919
v  -46.570263 145.998947 -14.364919
v  -44.686569 145.373154 -15.061465
v  -46.570263 146.401108 -15.061465
v  -44.379200 146.051498 -15.061465
v  -46.570263 147.205399 -15.061465
v  -42.752117 143.861572 -13.668371
v  -42.517815 144.092239 -14.364919
v  -43.220722 143.400238 -13.668372
v  -43.455025 143.169571 -14.364919
v  -43.220722 143.400238 -15.061466
v  -42.752117 143.861572 -15.061466
v  -41.098667 134.845230 -13.668373
v  -40.784451 134.629150 -14.364921
v  -41.727100 135.277374 -13.668373
v  -42.041317 135.493454 -14.364921
v  -41.727100 135.277374 -15.061467
v  -41.098667 134.845230 -15.061467
v  -42.791840 132.557587 -13.668373
v  -42.561176 132.228165 -14.364921
v  -43.253170 133.216431 -13.668373
v  -43.483833 133.545853 -14.364921
v  -43.253170 133.216431 -15.061467
v  -42.791840 132.557587 -15.061468
v  -45.690517 131.282135 -13.668374
v  -45.603474 130.889526 -14.364921
v  -45.864597 132.067383 -13.668374
v  -45.951641 132.459991 -14.364921
v  -45.864597 132.067383 -15.061468
v  -45.690517 131.282135 -15.061468
v  -48.856636 131.213058 -13.668374
v  -48.926468 130.817017 -14.364921
v  -48.716969 132.005142 -13.668374
v  -48.647137 132.401184 -14.364921
v  -48.716969 132.005142 -15.061468
v  -48.856636 131.213058 -15.061468
v  -51.808186 132.360855 -13.668374
v  -52.024261 132.021683 -14.364921
v  -51.376034 133.039200 -13.668374
v  -51.159958 133.378372 -14.364921
v  -51.376034 133.039200 -15.061468
v  -51.808186 132.360855 -15.061468
v  -53.599777 134.550781 -13.668373
v  -53.904961 134.320129 -14.364921
v  -52.989403 135.012115 -13.668373
v  -52.684219 135.242783 -14.364921
v  -52.989403 135.012115 -15.061467
v  -53.599777 134.550781 -15.061468
v  -52.349674 143.567123 -13.668372
v  -52.590908 143.783203 -14.364919
v  -51.867203 143.134979 -13.668372
v  -51.625965 142.918900 -14.364920
v  -51.867203 143.134979 -15.061466
v  -52.349674 143.567123 -15.061466
v  -50.792084 145.854767 -13.668371
v  -50.956142 146.184189 -14.364919
v  -50.463963 145.195923 -13.668372
v  -50.299900 144.866501 -14.364919
v  -50.463963 145.195923 -15.061466
v  -50.792084 145.854767 -15.061466
v  -48.666470 147.139359 -13.668371
v  -48.678616 147.541122 -14.364919
v  -48.642170 146.335831 -13.668371
v  -48.630024 145.934052 -14.364919
v  -48.642170 146.335815 -15.061465
v  -48.666470 147.139359 -15.061465
v  -46.574078 147.457977 -13.236889
v  -46.577816 148.107437 -14.364919
v  -48.686172 148.041016 -14.364919
v  -48.670284 147.391937 -13.236889
v  -46.566525 146.153748 -13.233880
v  -48.638432 146.088455 -13.233881
v  -46.562710 145.499069 -14.364919
v  -48.622467 145.434174 -14.364919
v  -46.566525 146.153732 -15.495955
v  -48.638432 146.088455 -15.495956
v  -46.574078 147.457977 -15.492949
v  -48.670284 147.391937 -15.492949
v  -42.359203 149.798508 -9.861482
v  -39.778259 146.756561 -9.695122
v  -39.778259 146.756561 -11.174173
v  -42.359203 149.798508 -11.007811
v  -43.703136 153.554642 -9.695120
v  -43.703136 153.554642 -11.174171
v  -47.628014 152.840454 -9.861482
v  -47.628014 152.840454 -11.007811
v  -51.552887 153.554642 -9.695120
v  -51.552887 153.554642 -11.174171
v  -52.896824 149.798508 -9.861482
v  -52.896824 149.798508 -11.007811
v  -55.477764 146.756561 -9.695122
v  -55.477764 146.756561 -11.174173
v  -52.896828 143.714615 -9.861483
v  -52.896828 143.714615 -11.007813
v  -51.552891 139.958481 -9.695122
v  -51.552891 139.958481 -11.174174
v  -47.628017 140.672668 -9.861484
v  -47.628017 140.672668 -11.007813
v  -43.703140 139.958481 -9.695122
v  -43.703140 139.958481 -11.174174
v  -42.359203 143.714615 -9.861483
v  -42.359203 143.714615 -11.007813
v  -49.950825 142.733337 -13.507813
v  -42.982391 146.756561 -13.507812
v  -45.305206 142.733337 -13.507813
v  -47.628017 142.110931 -13.507813
v  -52.273636 146.756561 -13.507812
v  -49.950825 150.779785 -13.507811
v  -51.651241 144.433746 -13.507812
v  -51.651241 149.079376 -13.507812
v  -45.305202 150.779785 -13.507811
v  -47.628014 151.402191 -13.507811
v  -43.604786 149.079376 -13.507812
v  -43.604790 144.433746 -13.507812
# 120 vertices

vn 0.380391 0.428129 0.819761
vn 0.636091 0.771614 0.000924
vn 0.925131 0.379643 0.001833
vn 0.898296 0.263171 0.351860
vn -0.298942 -0.355825 0.885450
vn 0.785721 -0.219310 0.578399
vn -0.673335 -0.739337 -0.001114
vn 0.686662 -0.726976 -0.000763
vn -0.301066 -0.355810 -0.884736
vn 0.787475 -0.221146 -0.575307
vn 0.381097 0.426851 -0.820100
vn 0.898148 0.264097 -0.351543
vn 0.554860 0.225415 0.800823
vn 0.908708 0.417432 -0.000022
vn -0.440337 -0.202473 0.874705
vn -0.926327 -0.376722 0.000059
vn -0.440331 -0.202409 -0.874722
vn 0.554914 0.225362 -0.800801
vn 0.602410 -0.106062 0.791109
vn 0.964775 -0.263075 -0.000008
vn -0.393409 0.107248 0.913086
vn -0.984919 0.173014 0.000054
vn -0.393411 0.107184 -0.913093
vn 0.602451 -0.105966 -0.791091
vn 0.350450 -0.433383 0.830279
vn 0.620585 -0.784139 0.000010
vn -0.268937 0.339900 0.901189
vn -0.628623 0.777710 -0.000021
vn -0.268931 0.339924 -0.901181
vn 0.350425 -0.433390 -0.830286
vn 0.117736 -0.531080 0.839102
vn 0.216440 -0.976296 0.000000
vn -0.097459 0.439613 0.892884
vn -0.216438 0.976296 0.000000
vn -0.097460 0.439613 -0.892884
vn 0.117737 -0.531079 -0.839102
vn -0.094459 -0.535705 0.839105
vn -0.173649 -0.984808 0.000001
vn 0.078191 0.443441 0.892886
vn 0.173650 0.984807 -0.000000
vn 0.078192 0.443442 -0.892886
vn -0.094460 -0.535705 -0.839105
vn -0.329651 -0.448743 0.830638
vn -0.583943 -0.811795 0.000010
vn 0.253493 0.352285 0.900909
vn 0.592159 0.805821 -0.000020
vn 0.253486 0.352307 -0.900902
vn -0.329628 -0.448749 -0.830645
vn -0.596814 -0.133392 0.791214
vn -0.951609 -0.307312 -0.000008
vn 0.386999 0.125076 0.913558
vn 0.975871 0.218348 0.000055
vn 0.387003 0.125012 -0.913565
vn -0.596860 -0.133299 -0.791195
vn -0.565853 0.202767 0.799184
vn -0.925702 0.378253 -0.000023
vn 0.450114 -0.183786 0.873854
vn 0.941550 -0.336874 0.000059
vn 0.450104 -0.183722 -0.873872
vn -0.565905 0.202711 -0.799162
vn -0.402572 0.408004 0.819431
vn -0.673818 0.738897 -0.000979
vn 0.322253 -0.343918 0.881971
vn 0.709631 -0.704573 0.001156
vn 0.319991 -0.344061 -0.882739
vn -0.401906 0.409369 -0.819078
vn -0.909478 0.233985 0.343659
vn -0.939899 0.341446 -0.001839
vn -0.777750 -0.240408 0.580784
vn -0.651947 -0.758264 0.001008
vn -0.776017 -0.238427 -0.583909
vn -0.909642 0.232993 -0.343898
vn 0.601930 0.407329 0.686850
vn 0.593325 0.804963 0.000339
vn -0.629522 0.776982 -0.000331
vn -0.619233 0.380914 0.686626
vn 0.618494 -0.384410 0.685342
vn -0.599526 -0.411993 0.686171
vn 0.626461 -0.779453 0.000333
vn -0.590151 -0.807293 -0.000338
vn 0.617733 -0.385013 -0.685690
vn -0.600311 -0.411425 -0.685825
vn 0.601157 0.407902 -0.687188
vn -0.619982 0.380308 -0.686286
vn 0.866025 0.500000 -0.000000
vn 1.000000 -0.000000 -0.000000
vn 0.927440 -0.019380 -0.373470
vn 0.802481 0.514325 -0.302479
vn 0.500000 0.866025 -0.000000
vn 0.480504 0.793496 -0.373470
vn 0.000000 1.000000 -0.000000
vn -0.044178 0.952132 -0.302479
vn -0.499999 0.866026 -0.000000
vn -0.446936 0.812877 -0.373470
vn -0.866025 0.500000 -0.000000
vn -0.846659 0.437808 -0.302480
vn -1.000000 0.000000 -0.000000
vn -0.927440 0.019380 -0.373470
vn -0.866025 -0.500000 -0.000000
vn -0.802481 -0.514324 -0.302480
vn -0.500000 -0.866026 -0.000000
vn -0.480503 -0.793497 -0.373470
vn 0.000000 -1.000000 -0.000000
vn 0.044178 -0.952132 -0.302479
vn 0.500000 -0.866026 -0.000000
vn 0.446936 -0.812876 -0.373470
vn 0.866025 -0.500001 -0.000000
vn 0.846658 -0.437808 -0.302480
vn -0.261358 -0.309228 -0.914369
vn 0.398479 -0.071728 -0.914369
vn 0.137121 -0.380956 -0.914369
vn 0.076341 -0.508543 -0.857646
vn -0.398479 0.071728 -0.914368
vn -0.137121 0.380957 -0.914368
vn -0.402240 -0.320384 -0.857646
vn -0.478580 0.188159 -0.857647
vn 0.261358 0.309228 -0.914369
vn -0.076341 0.508543 -0.857646
vn 0.402239 0.320384 -0.857647
vn 0.478580 -0.188159 -0.857647
# 120 vertex normals

vt 0.369265 0.976072 0.000000
vt 0.369973 0.971377 0.000000
vt 0.381815 0.971376 0.000000
vt 0.380796 0.977159 0.000000
vt 0.367747 0.980277 0.000000
vt 0.378658 0.982466 0.000000
vt 0.366681 0.984964 0.000000
vt 0.376866 0.987406 0.000000
vt 0.367747 0.962478 0.000000
vt 0.366679 0.957792 0.000000
vt 0.376867 0.955346 0.000000
vt 0.378658 0.960286 0.000000
vt 0.369266 0.966681 0.000000
vt 0.380796 0.965593 0.000000
vt 0.356618 0.975956 0.000000
vt 0.357372 0.971378 0.000000
vt 0.355088 0.979610 0.000000
vt 0.354265 0.984238 0.000000
vt 0.355087 0.963155 0.000000
vt 0.354260 0.958530 0.000000
vt 0.356618 0.966804 0.000000
vt 0.312902 0.976061 0.000000
vt 0.312364 0.971443 0.000000
vt 0.313997 0.980025 0.000000
vt 0.314612 0.984721 0.000000
vt 0.313996 0.962851 0.000000
vt 0.314607 0.958152 0.000000
vt 0.312901 0.966822 0.000000
vt 0.300071 0.976156 0.000000
vt 0.299864 0.971442 0.000000
vt 0.300514 0.980746 0.000000
vt 0.300822 0.985530 0.000000
vt 0.300513 0.962137 0.000000
vt 0.300820 0.957353 0.000000
vt 0.300071 0.966728 0.000000
vt 0.285608 0.976373 0.000000
vt 0.285554 0.971443 0.000000
vt 0.285724 0.981169 0.000000
vt 0.285812 0.986015 0.000000
vt 0.285724 0.961717 0.000000
vt 0.285811 0.956871 0.000000
vt 0.285608 0.966514 0.000000
vt 0.271092 0.976371 0.000000
vt 0.271143 0.971442 0.000000
vt 0.270981 0.981167 0.000000
vt 0.270896 0.986013 0.000000
vt 0.270982 0.961716 0.000000
vt 0.270897 0.956870 0.000000
vt 0.271092 0.966513 0.000000
vt 0.256625 0.976152 0.000000
vt 0.256825 0.971438 0.000000
vt 0.256195 0.980745 0.000000
vt 0.255891 0.985528 0.000000
vt 0.256196 0.962131 0.000000
vt 0.255893 0.957348 0.000000
vt 0.256626 0.966724 0.000000
vt 0.243870 0.976044 0.000000
vt 0.244394 0.971434 0.000000
vt 0.242799 0.980008 0.000000
vt 0.242189 0.984701 0.000000
vt 0.242799 0.962864 0.000000
vt 0.242188 0.958172 0.000000
vt 0.243870 0.966826 0.000000
vt 0.200440 0.975905 0.000000
vt 0.199654 0.971449 0.000000
vt 0.202029 0.979437 0.000000
vt 0.202853 0.984033 0.000000
vt 0.202029 0.963460 0.000000
vt 0.202853 0.958863 0.000000
vt 0.200440 0.966993 0.000000
vt 0.187508 0.975855 0.000000
vt 0.186635 0.971449 0.000000
vt 0.189309 0.979824 0.000000
vt 0.190428 0.984463 0.000000
vt 0.189309 0.963074 0.000000
vt 0.190428 0.958435 0.000000
vt 0.187508 0.967043 0.000000
vt 0.175697 0.977244 0.000000
vt 0.174183 0.971449 0.000000
vt 0.178723 0.981641 0.000000
vt 0.180564 0.986216 0.000000
vt 0.178723 0.961257 0.000000
vt 0.180564 0.956683 0.000000
vt 0.175697 0.965654 0.000000
vt 0.382547 0.977561 0.000000
vt 0.383287 0.971376 0.000000
vt 0.393008 0.971377 0.000000
vt 0.392399 0.978691 0.000000
vt 0.380989 0.983734 0.000000
vt 0.390940 0.985748 0.000000
vt 0.379108 0.990600 0.000000
vt 0.389922 0.993206 0.000000
vt 0.380991 0.959017 0.000000
vt 0.379110 0.952151 0.000000
vt 0.389926 0.949548 0.000000
vt 0.390943 0.957006 0.000000
vt 0.382547 0.965191 0.000000
vt 0.392401 0.964063 0.000000
vt 0.394887 0.971378 0.000000
vt 0.394328 0.978947 0.000000
vt 0.393040 0.985909 0.000000
vt 0.392480 0.991683 0.000000
vt 0.392484 0.951071 0.000000
vt 0.393043 0.956846 0.000000
vt 0.394329 0.963809 0.000000
vt 0.025545 0.954704 0.000000
vt 0.008170 0.918114 0.000000
vt 0.018158 0.918114 0.000000
vt 0.034368 0.949610 0.000000
vt 0.048544 0.988047 0.000000
vt 0.053538 0.979398 0.000000
vt 0.088919 0.991296 0.000000
vt 0.088919 0.981108 0.000000
vt 0.129295 0.988050 0.000000
vt 0.124301 0.979401 0.000000
vt 0.152295 0.954708 0.000000
vt 0.143472 0.949614 0.000000
vt 0.169673 0.918119 0.000000
vt 0.159685 0.918118 0.000000
vt 0.152298 0.881528 0.000000
vt 0.143474 0.886622 0.000000
vt 0.129299 0.848185 0.000000
vt 0.124305 0.856834 0.000000
vt 0.088924 0.844936 0.000000
vt 0.088923 0.855125 0.000000
vt 0.048548 0.848182 0.000000
vt 0.053541 0.856832 0.000000
vt 0.025547 0.881524 0.000000
vt 0.034370 0.886619 0.000000
vt 0.108393 0.884392 0.000000
vt 0.049980 0.918115 0.000000
vt 0.069451 0.884391 0.000000
vt 0.088922 0.879181 0.000000
vt 0.127863 0.918117 0.000000
vt 0.108392 0.951841 0.000000
vt 0.122640 0.898649 0.000000
vt 0.122639 0.937584 0.000000
vt 0.069450 0.951840 0.000000
vt 0.088921 0.957051 0.000000
vt 0.055203 0.937583 0.000000
vt 0.055203 0.898648 0.000000
# 141 texture coords

g Door_Pointed_Handle
s 1
f 1/1/1 2/2/2 3/3/3 4/4/4 
f 5/5/5 1/1/1 4/4/4 6/6/6 
f 7/7/7 5/5/5 6/6/6 8/8/8 
f 9/9/9 7/10/7 8/11/8 10/12/10 
f 11/13/11 9/9/9 10/12/10 12/14/12 
f 2/2/2 11/13/11 12/14/12 3/3/3 
f 13/15/13 14/16/14 2/2/2 1/1/1 
f 15/17/15 13/15/13 1/1/1 5/5/5 
f 16/18/16 15/17/15 5/5/5 7/7/7 
f 17/19/17 16/20/16 7/10/7 9/9/9 
f 18/21/18 17/19/17 9/9/9 11/13/11 
f 14/16/14 18/21/18 11/13/11 2/2/2 
f 19/22/19 20/23/20 14/16/14 13/15/13 
f 21/24/21 19/22/19 13/15/13 15/17/15 
f 22/25/22 21/24/21 15/17/15 16/18/16 
f 23/26/23 22/27/22 16/20/16 17/19/17 
f 24/28/24 23/26/23 17/19/17 18/21/18 
f 20/23/20 24/28/24 18/21/18 14/16/14 
f 25/29/25 26/30/26 20/23/20 19/22/19 
f 27/31/27 25/29/25 19/22/19 21/24/21 
f 28/32/28 27/31/27 21/24/21 22/25/22 
f 29/33/29 28/34/28 22/27/22 23/26/23 
f 30/35/30 29/33/29 23/26/23 24/28/24 
f 26/30/26 30/35/30 24/28/24 20/23/20 
f 31/36/31 32/37/32 26/30/26 25/29/25 
f 33/38/33 31/36/31 25/29/25 27/31/27 
f 34/39/34 33/38/33 27/31/27 28/32/28 
f 35/40/35 34/41/34 28/34/28 29/33/29 
f 36/42/36 35/40/35 29/33/29 30/35/30 
f 32/37/32 36/42/36 30/35/30 26/30/26 
f 37/43/37 38/44/38 32/37/32 31/36/31 
f 39/45/39 37/43/37 31/36/31 33/38/33 
f 40/46/40 39/45/39 33/38/33 34/39/34 
f 41/47/41 40/48/40 34/41/34 35/40/35 
f 42/49/42 41/47/41 35/40/35 36/42/36 
f 38/44/38 42/49/42 36/42/36 32/37/32 
f 43/50/43 44/51/44 38/44/38 37/43/37 
f 45/52/45 43/50/43 37/43/37 39/45/39 
f 46/53/46 45/52/45 39/45/39 40/46/40 
f 47/54/47 46/55/46 40/48/40 41/47/41 
f 48/56/48 47/54/47 41/47/41 42/49/42 
f 44/51/44 48/56/48 42/49/42 38/44/38 
f 49/57/49 50/58/50 44/51/44 43/50/43 
f 51/59/51 49/57/49 43/50/43 45/52/45 
f 52/60/52 51/59/51 45/52/45 46/53/46 
f 53/61/53 52/62/52 46/55/46 47/54/47 
f 54/63/54 53/61/53 47/54/47 48/56/48 
f 50/58/50 54/63/54 48/56/48 44/51/44 
f 55/64/55 56/65/56 50/58/50 49/57/49 
f 57/66/57 55/64/55 49/57/49 51/59/51 
f 58/67/58 57/66/57 51/59/51 52/60/52 
f 59/68/59 58/69/58 52/62/52 53/61/53 
f 60/70/60 59/68/59 53/61/53 54/63/54 
f 56/65/56 60/70/60 54/63/54 50/58/50 
f 61/71/61 62/72/62 56/65/56 55/64/55 
f 63/73/63 61/71/61 55/64/55 57/66/57 
f 64/74/64 63/73/63 57/66/57 58/67/58 
f 65/75/65 64/76/64 58/69/58 59/68/59 
f 66/77/66 65/75/65 59/68/59 60/70/60 
f 62/72/62 66/77/66 60/70/60 56/65/56 
f 67/78/67 68/79/68 62/72/62 61/71/61 
f 69/80/69 67/78/67 61/71/61 63/73/63 
f 70/81/70 69/80/69 63/73/63 64/74/64 
f 71/82/71 70/83/70 64/76/64 65/75/65 
f 72/84/72 71/82/71 65/75/65 66/77/66 
f 68/79/68 72/84/72 66/77/66 62/72/62 
f 73/85/73 74/86/74 75/87/75 76/88/76 
f 77/89/77 73/85/73 76/88/76 78/90/78 
f 79/91/79 77/89/77 78/90/78 80/92/80 
f 81/93/81 79/94/79 80/95/80 82/96/82 
f 83/97/83 81/93/81 82/96/82 84/98/84 
f 74/86/74 83/97/83 84/98/84 75/87/75 
f 74/86/74 73/85/73 4/4/4 3/3/3 
f 83/97/83 74/86/74 3/3/3 12/14/12 
f 81/93/81 83/97/83 12/14/12 10/12/10 
f 79/94/79 81/93/81 10/12/10 8/11/8 
f 77/89/77 79/91/79 8/8/8 6/6/6 
f 73/85/73 77/89/77 6/6/6 4/4/4 
f 76/88/76 75/87/75 68/99/68 67/100/67 
f 78/90/78 76/88/76 67/100/67 69/101/69 
f 80/92/80 78/90/78 69/101/69 70/102/70 
f 82/96/82 80/95/80 70/103/70 71/104/71 
f 84/98/84 82/96/82 71/104/71 72/105/72 
f 75/87/75 84/98/84 72/105/72 68/99/68 
f 85/106/85 86/107/86 87/108/87 88/109/88 
f 89/110/89 85/106/85 88/109/88 90/111/90 
f 91/112/91 89/110/89 90/111/90 92/113/92 
f 93/114/93 91/112/91 92/113/92 94/115/94 
f 95/116/95 93/114/93 94/115/94 96/117/96 
f 97/118/97 95/116/95 96/117/96 98/119/98 
f 99/120/99 97/118/97 98/119/98 100/121/100 
f 101/122/101 99/120/99 100/121/100 102/123/102 
f 103/124/103 101/122/101 102/123/102 104/125/104 
f 105/126/105 103/124/103 104/125/104 106/127/106 
f 107/128/107 105/126/105 106/127/106 108/129/108 
f 86/107/86 107/128/107 108/129/108 87/108/87 
f 109/130/109 110/131/110 111/132/111 112/133/112 
f 113/134/113 114/135/114 109/130/109 115/136/115 
f 113/134/113 116/137/116 114/135/114 
f 117/138/117 110/131/110 114/135/114 118/139/118 
f 117/138/117 119/140/119 110/131/110 
f 109/130/109 114/135/114 110/131/110 
f 120/141/120 111/132/111 110/131/110 
f 119/140/119 88/109/88 87/108/87 110/131/110 
f 117/138/117 90/111/90 88/109/88 119/140/119 
f 118/139/118 92/113/92 90/111/90 117/138/117 
f 114/135/114 94/115/94 92/113/92 118/139/118 
f 116/137/116 96/117/96 94/115/94 114/135/114 
f 113/134/113 98/119/98 96/117/96 116/137/116 
f 115/136/115 100/121/100 98/119/98 113/134/113 
f 109/130/109 102/123/102 100/121/100 115/136/115 
f 112/133/112 104/125/104 102/123/102 109/130/109 
f 111/132/111 106/127/106 104/125/104 112/133/112 
f 120/141/120 108/129/108 106/127/106 111/132/111 
f 110/131/110 87/108/87 108/129/108 120/141/120 
# 111 polygons - 4 triangles

