# 3ds Max Wavefront OBJ Exporter v0.97b - (c)2007 guruware
# File Created: 31.05.2015 13:46:17

#
# object Door_Square_Handle
#

v  -51.859268 143.358795 -11.452064
v  -51.656822 143.747177 -12.249697
v  -55.025227 145.135620 -12.249697
v  -55.014088 144.677628 -11.452064
v  -52.264156 142.582001 -11.452064
v  -54.991806 143.761642 -11.452064
v  -52.466599 142.193604 -12.249698
v  -54.980663 143.303665 -12.249698
v  -52.264156 142.582001 -13.047331
v  -54.991806 143.761642 -13.047331
v  -51.859268 143.358795 -13.047331
v  -55.014088 144.677628 -13.047331
v  -49.715950 140.851044 -11.452064
v  -49.407307 141.115173 -12.249698
v  -50.333233 140.322754 -11.452065
v  -50.641872 140.058624 -12.249698
v  -50.333233 140.322754 -13.047331
v  -49.715950 140.851044 -13.047331
v  -48.520962 137.531693 -11.452065
v  -48.153114 137.631363 -12.249698
v  -49.256664 137.332352 -11.452065
v  -49.624516 137.232666 -12.249699
v  -49.256664 137.332352 -13.047332
v  -48.520962 137.531693 -13.047332
v  -48.456238 133.906097 -11.452065
v  -48.085178 133.826126 -12.249699
v  -49.198353 134.066025 -11.452065
v  -49.569408 134.145996 -12.249699
v  -49.198353 134.066025 -13.047332
v  -48.456238 133.906097 -13.047332
v  -49.531624 129.991013 -11.452065
v  -49.213848 129.355148 -12.249700
v  -50.167171 130.900803 -11.452065
v  -50.484947 131.239395 -12.249700
v  -50.167171 130.900803 -13.047333
v  -49.531624 129.991013 -13.047333
v  -62.174267 129.653839 -11.452066
v  -62.482906 129.001266 -12.249700
v  -61.556984 130.597046 -11.452066
v  -61.248344 130.952347 -12.249700
v  -61.556984 130.597046 -13.047333
v  -62.174267 129.653839 -13.047333
v  -63.369255 133.508377 -11.452065
v  -63.737103 133.408707 -12.249700
v  -62.633549 133.707718 -11.452065
v  -62.265701 133.807404 -12.249700
v  -62.633549 133.707718 -13.047333
v  -63.369255 133.508377 -13.047333
v  -63.433979 137.133972 -11.452065
v  -63.805035 137.213943 -12.249699
v  -62.691864 136.974045 -11.452065
v  -62.320805 136.894073 -12.249699
v  -62.691864 136.974045 -13.047332
v  -63.433979 137.133972 -13.047332
v  -62.358593 140.513870 -11.452065
v  -62.676365 140.761307 -12.249698
v  -61.723042 140.018997 -11.452065
v  -61.405270 139.771576 -12.249699
v  -61.723045 140.018997 -13.047332
v  -62.358593 140.513870 -13.047332
v  -60.306812 143.133499 -11.452065
v  -60.522926 143.510727 -12.249698
v  -59.874584 142.379044 -11.452064
v  -59.658474 142.001801 -12.249698
v  -59.874584 142.379028 -13.047331
v  -60.306812 143.133499 -13.047331
v  -57.198364 144.601379 -11.452064
v  -57.200108 145.058304 -12.249697
v  -57.194878 143.687515 -11.452065
v  -57.193138 143.230591 -12.249698
v  -57.194878 143.687515 -13.047331
v  -57.198364 144.601379 -13.047331
v  -55.019817 144.948807 -10.982141
v  -55.036900 145.678009 -12.249698
v  -57.211781 145.600708 -12.249698
v  -57.204052 144.870514 -10.980970
v  -54.986256 143.489273 -10.982832
v  -57.189281 143.412735 -10.984239
v  -54.969818 142.761230 -12.249698
v  -57.182293 142.688171 -12.249697
v  -54.986256 143.489273 -13.516562
v  -57.189281 143.412735 -13.515156
v  -55.019817 144.948807 -13.517252
v  -57.204052 144.870514 -13.518425
v  -50.067993 150.126984 -9.639755
v  -50.067993 138.205353 -9.639757
v  -50.067993 138.205353 -11.268203
v  -50.067993 150.126984 -11.268202
v  -61.989616 150.126984 -9.639757
v  -61.989616 150.126984 -11.268203
v  -61.989616 138.205353 -9.639758
v  -61.989616 138.205353 -11.268204
# 92 vertices

vn 0.336515 0.452563 0.825799
vn 0.580032 0.814593 0.000699
vn 0.910086 0.414419 0.000283
vn 0.886390 0.286088 0.363960
vn -0.265130 -0.366592 0.891805
vn 0.795118 -0.216073 0.566656
vn -0.605252 -0.796033 -0.001035
vn 0.719579 -0.694406 -0.002548
vn -0.266813 -0.366665 -0.891273
vn 0.795536 -0.216903 -0.565752
vn 0.337232 0.451463 -0.826109
vn 0.885677 0.286096 -0.365684
vn 0.492932 0.279772 0.823860
vn 0.860211 0.509939 -0.000000
vn -0.411742 -0.244084 0.878004
vn -0.869686 -0.493605 0.000000
vn -0.411741 -0.244084 -0.878005
vn 0.492933 0.279773 -0.823859
vn 0.562441 0.101033 0.820642
vn 0.982902 0.184130 0.000001
vn -0.483299 -0.090539 0.870761
vn -0.984247 -0.176801 -0.000000
vn -0.483300 -0.090538 -0.870761
vn 0.562441 0.101033 -0.820641
vn 0.563456 -0.068803 0.823276
vn 0.992508 -0.122144 0.002985
vn -0.487679 0.071579 0.870084
vn -0.990400 0.138227 -0.001174
vn -0.488969 0.070164 -0.869475
vn 0.561938 -0.063319 -0.824753
vn 0.371946 -0.391525 0.841644
vn 0.591131 -0.806573 0.001939
vn -0.199678 0.254421 0.946255
vn -0.581659 0.813431 -0.001694
vn -0.199698 0.255874 -0.945859
vn 0.364003 -0.394810 -0.843580
vn -0.341813 -0.408898 0.846148
vn -0.559283 -0.828974 -0.002197
vn 0.185714 0.260770 0.947370
vn 0.542320 0.840170 0.001909
vn 0.185749 0.259153 -0.947806
vn -0.350819 -0.405566 -0.844063
vn -0.558679 -0.081319 0.825388
vn -0.987781 -0.155810 -0.003399
vn 0.485568 0.087921 0.869766
vn 0.984879 0.173239 0.001303
vn 0.484051 0.089458 -0.870455
vn -0.560158 -0.087483 -0.823754
vn -0.565953 0.080857 0.820463
vn -0.989084 0.147356 0.000000
vn 0.487051 -0.072561 0.870354
vn 0.989948 -0.141433 0.000000
vn 0.487051 -0.072562 -0.870354
vn -0.565953 0.080858 -0.820463
vn -0.504241 0.260368 0.823377
vn -0.880200 0.474603 0.000000
vn 0.423049 -0.228108 0.876924
vn 0.888536 -0.458806 -0.000001
vn 0.423048 -0.228106 -0.876925
vn -0.504241 0.260369 -0.823377
vn -0.357623 0.437081 0.825267
vn -0.615086 0.788460 -0.000748
vn 0.284034 -0.355938 0.890299
vn 0.640253 -0.768163 0.001110
vn 0.282224 -0.355946 -0.890871
vn -0.356909 0.438285 -0.824938
vn -0.897594 0.256064 0.358826
vn -0.927415 0.374032 0.001009
vn -0.784501 -0.240149 0.571740
vn -0.686283 -0.727323 0.004023
vn -0.784921 -0.240151 -0.571162
vn -0.898873 0.256247 -0.355479
vn 0.598424 0.413911 0.685978
vn 0.587383 0.809309 -0.000052
vn -0.630679 0.776043 0.000394
vn -0.620237 0.382737 0.684704
vn 0.620482 -0.380123 0.685936
vn -0.600417 -0.410173 0.686482
vn 0.631310 -0.775531 -0.000364
vn -0.591004 -0.806669 0.000091
vn 0.620401 -0.380107 -0.686019
vn -0.599302 -0.410929 -0.687004
vn 0.598456 0.413586 -0.686146
vn -0.619237 0.383216 -0.685340
vn 0.707107 0.707107 -0.000000
vn 0.707107 -0.707107 -0.000000
vn 0.577350 -0.577350 -0.577350
vn 0.577350 0.577350 -0.577350
vn -0.707107 0.707107 -0.000000
vn -0.577350 0.577350 -0.577350
vn -0.707107 -0.707107 -0.000000
vn -0.577350 -0.577350 -0.577350
# 92 vertex normals

vt 0.122711 0.663324 0.000000
vt 0.116700 0.662791 0.000000
vt 0.116700 0.644826 0.000000
vt 0.124193 0.645973 0.000000
vt 0.128467 0.664509 0.000000
vt 0.131181 0.648376 0.000000
vt 0.134651 0.665374 0.000000
vt 0.137665 0.650363 0.000000
vt 0.104933 0.664510 0.000000
vt 0.098749 0.665374 0.000000
vt 0.095736 0.650362 0.000000
vt 0.102219 0.648376 0.000000
vt 0.110689 0.663324 0.000000
vt 0.109206 0.645973 0.000000
vt 0.122872 0.679929 0.000000
vt 0.116701 0.679478 0.000000
vt 0.128308 0.680860 0.000000
vt 0.134418 0.681362 0.000000
vt 0.105093 0.680860 0.000000
vt 0.098983 0.681362 0.000000
vt 0.110529 0.679929 0.000000
vt 0.123055 0.697609 0.000000
vt 0.116701 0.697241 0.000000
vt 0.128399 0.698340 0.000000
vt 0.134498 0.698711 0.000000
vt 0.105003 0.698340 0.000000
vt 0.098903 0.698711 0.000000
vt 0.110346 0.697609 0.000000
vt 0.123345 0.715533 0.000000
vt 0.116700 0.714998 0.000000
vt 0.128660 0.716545 0.000000
vt 0.134673 0.717069 0.000000
vt 0.104741 0.716545 0.000000
vt 0.098729 0.717069 0.000000
vt 0.110056 0.715533 0.000000
vt 0.122280 0.735041 0.000000
vt 0.116702 0.735089 0.000000
vt 0.127996 0.735859 0.000000
vt 0.133966 0.736585 0.000000
vt 0.105407 0.735860 0.000000
vt 0.099436 0.736585 0.000000
vt 0.111124 0.735041 0.000000
vt 0.122228 0.799129 0.000000
vt 0.116699 0.799124 0.000000
vt 0.127973 0.798272 0.000000
vt 0.133944 0.797544 0.000000
vt 0.105428 0.798272 0.000000
vt 0.099457 0.797544 0.000000
vt 0.111170 0.799129 0.000000
vt 0.123339 0.818492 0.000000
vt 0.116701 0.819011 0.000000
vt 0.128645 0.817514 0.000000
vt 0.134645 0.817004 0.000000
vt 0.104756 0.817514 0.000000
vt 0.098756 0.817004 0.000000
vt 0.110063 0.818492 0.000000
vt 0.123023 0.836418 0.000000
vt 0.116701 0.836775 0.000000
vt 0.128334 0.835717 0.000000
vt 0.134423 0.835360 0.000000
vt 0.105067 0.835716 0.000000
vt 0.098979 0.835359 0.000000
vt 0.110379 0.836418 0.000000
vt 0.122791 0.854222 0.000000
vt 0.116701 0.854709 0.000000
vt 0.128177 0.853253 0.000000
vt 0.134282 0.852753 0.000000
vt 0.105225 0.853252 0.000000
vt 0.099120 0.852752 0.000000
vt 0.110611 0.854222 0.000000
vt 0.122495 0.871058 0.000000
vt 0.116701 0.871753 0.000000
vt 0.128059 0.869625 0.000000
vt 0.134205 0.868745 0.000000
vt 0.105342 0.869624 0.000000
vt 0.099196 0.868744 0.000000
vt 0.110906 0.871058 0.000000
vt 0.124108 0.888763 0.000000
vt 0.116695 0.890397 0.000000
vt 0.130113 0.885476 0.000000
vt 0.136192 0.883539 0.000000
vt 0.103282 0.885474 0.000000
vt 0.097204 0.883537 0.000000
vt 0.109285 0.888762 0.000000
vt 0.124678 0.643869 0.000000
vt 0.116700 0.643003 0.000000
vt 0.116700 0.632143 0.000000
vt 0.125996 0.632774 0.000000
vt 0.132624 0.645674 0.000000
vt 0.134950 0.634288 0.000000
vt 0.141406 0.647795 0.000000
vt 0.144363 0.635346 0.000000
vt 0.100776 0.645674 0.000000
vt 0.091994 0.647795 0.000000
vt 0.089037 0.635345 0.000000
vt 0.098450 0.634288 0.000000
vt 0.108722 0.643869 0.000000
vt 0.107405 0.632773 0.000000
vt 0.116700 0.629904 0.000000
vt 0.126224 0.630488 0.000000
vt 0.135046 0.631838 0.000000
vt 0.142448 0.632393 0.000000
vt 0.090952 0.632393 0.000000
vt 0.098354 0.631837 0.000000
vt 0.107176 0.630488 0.000000
vt 0.007662 0.992490 0.000000
vt 0.007662 0.899241 0.000000
vt 0.013881 0.904304 0.000000
vt 0.013881 0.987427 0.000000
vt 0.122187 0.992491 0.000000
vt 0.115968 0.987427 0.000000
vt 0.122187 0.899241 0.000000
vt 0.115968 0.904305 0.000000
# 113 texture coords

g Door_Square_Handle
s 1
f 1/1/1 2/2/2 3/3/3 4/4/4 
f 5/5/5 1/1/1 4/4/4 6/6/6 
f 7/7/7 5/5/5 6/6/6 8/8/8 
f 9/9/9 7/10/7 8/11/8 10/12/10 
f 11/13/11 9/9/9 10/12/10 12/14/12 
f 2/2/2 11/13/11 12/14/12 3/3/3 
f 13/15/13 14/16/14 2/2/2 1/1/1 
f 15/17/15 13/15/13 1/1/1 5/5/5 
f 16/18/16 15/17/15 5/5/5 7/7/7 
f 17/19/17 16/20/16 7/10/7 9/9/9 
f 18/21/18 17/19/17 9/9/9 11/13/11 
f 14/16/14 18/21/18 11/13/11 2/2/2 
f 19/22/19 20/23/20 14/16/14 13/15/13 
f 21/24/21 19/22/19 13/15/13 15/17/15 
f 22/25/22 21/24/21 15/17/15 16/18/16 
f 23/26/23 22/27/22 16/20/16 17/19/17 
f 24/28/24 23/26/23 17/19/17 18/21/18 
f 20/23/20 24/28/24 18/21/18 14/16/14 
f 25/29/25 26/30/26 20/23/20 19/22/19 
f 27/31/27 25/29/25 19/22/19 21/24/21 
f 28/32/28 27/31/27 21/24/21 22/25/22 
f 29/33/29 28/34/28 22/27/22 23/26/23 
f 30/35/30 29/33/29 23/26/23 24/28/24 
f 26/30/26 30/35/30 24/28/24 20/23/20 
f 31/36/31 32/37/32 26/30/26 25/29/25 
f 33/38/33 31/36/31 25/29/25 27/31/27 
f 34/39/34 33/38/33 27/31/27 28/32/28 
f 35/40/35 34/41/34 28/34/28 29/33/29 
f 36/42/36 35/40/35 29/33/29 30/35/30 
f 32/37/32 36/42/36 30/35/30 26/30/26 
f 37/43/37 38/44/38 32/37/32 31/36/31 
f 39/45/39 37/43/37 31/36/31 33/38/33 
f 40/46/40 39/45/39 33/38/33 34/39/34 
f 41/47/41 40/48/40 34/41/34 35/40/35 
f 42/49/42 41/47/41 35/40/35 36/42/36 
f 38/44/38 42/49/42 36/42/36 32/37/32 
f 43/50/43 44/51/44 38/44/38 37/43/37 
f 45/52/45 43/50/43 37/43/37 39/45/39 
f 46/53/46 45/52/45 39/45/39 40/46/40 
f 47/54/47 46/55/46 40/48/40 41/47/41 
f 48/56/48 47/54/47 41/47/41 42/49/42 
f 44/51/44 48/56/48 42/49/42 38/44/38 
f 49/57/49 50/58/50 44/51/44 43/50/43 
f 51/59/51 49/57/49 43/50/43 45/52/45 
f 52/60/52 51/59/51 45/52/45 46/53/46 
f 53/61/53 52/62/52 46/55/46 47/54/47 
f 54/63/54 53/61/53 47/54/47 48/56/48 
f 50/58/50 54/63/54 48/56/48 44/51/44 
f 55/64/55 56/65/56 50/58/50 49/57/49 
f 57/66/57 55/64/55 49/57/49 51/59/51 
f 58/67/58 57/66/57 51/59/51 52/60/52 
f 59/68/59 58/69/58 52/62/52 53/61/53 
f 60/70/60 59/68/59 53/61/53 54/63/54 
f 56/65/56 60/70/60 54/63/54 50/58/50 
f 61/71/61 62/72/62 56/65/56 55/64/55 
f 63/73/63 61/71/61 55/64/55 57/66/57 
f 64/74/64 63/73/63 57/66/57 58/67/58 
f 65/75/65 64/76/64 58/69/58 59/68/59 
f 66/77/66 65/75/65 59/68/59 60/70/60 
f 62/72/62 66/77/66 60/70/60 56/65/56 
f 67/78/67 68/79/68 62/72/62 61/71/61 
f 69/80/69 67/78/67 61/71/61 63/73/63 
f 70/81/70 69/80/69 63/73/63 64/74/64 
f 71/82/71 70/83/70 64/76/64 65/75/65 
f 72/84/72 71/82/71 65/75/65 66/77/66 
f 68/79/68 72/84/72 66/77/66 62/72/62 
f 73/85/73 74/86/74 75/87/75 76/88/76 
f 77/89/77 73/85/73 76/88/76 78/90/78 
f 79/91/79 77/89/77 78/90/78 80/92/80 
f 81/93/81 79/94/79 80/95/80 82/96/82 
f 83/97/83 81/93/81 82/96/82 84/98/84 
f 74/86/74 83/97/83 84/98/84 75/87/75 
f 74/86/74 73/85/73 4/4/4 3/3/3 
f 83/97/83 74/86/74 3/3/3 12/14/12 
f 81/93/81 83/97/83 12/14/12 10/12/10 
f 79/94/79 81/93/81 10/12/10 8/11/8 
f 77/89/77 79/91/79 8/8/8 6/6/6 
f 73/85/73 77/89/77 6/6/6 4/4/4 
f 76/88/76 75/87/75 68/99/68 67/100/67 
f 78/90/78 76/88/76 67/100/67 69/101/69 
f 80/92/80 78/90/78 69/101/69 70/102/70 
f 82/96/82 80/95/80 70/103/70 71/104/71 
f 84/98/84 82/96/82 71/104/71 72/105/72 
f 75/87/75 84/98/84 72/105/72 68/99/68 
f 85/106/85 86/107/86 87/108/87 88/109/88 
f 89/110/89 85/106/85 88/109/88 90/111/90 
f 91/112/91 89/110/89 90/111/90 92/113/92 
f 86/107/86 91/112/91 92/113/92 87/108/87 
f 87/108/87 92/113/92 90/111/90 88/109/88 
# 89 polygons

