# 3ds Max Wavefront OBJ Exporter v0.97b - (c)2007 guruware
# File Created: 31.05.2015 13:46:17

#
# object Door_Arch_Handle
#

v  -50.505680 146.051498 -13.707482
v  -50.289604 146.390671 -14.404029
v  -53.527065 147.607559 -14.404028
v  -53.527065 147.205414 -13.707482
v  -50.937832 145.373154 -13.707482
v  -53.527065 146.401108 -13.707482
v  -51.153908 145.033997 -14.404030
v  -53.527065 145.998947 -14.404030
v  -50.937832 145.373154 -15.100576
v  -53.527065 146.401108 -15.100576
v  -50.505680 146.051498 -15.100576
v  -53.527065 147.205414 -15.100576
v  -48.218044 143.861572 -13.707482
v  -47.888622 144.092239 -14.404029
v  -48.876892 143.400238 -13.707482
v  -49.206314 143.169571 -14.404030
v  -48.876892 143.400238 -15.100576
v  -48.218044 143.861572 -15.100576
v  -46.942596 140.962891 -13.707482
v  -46.549980 141.049942 -14.404030
v  -47.727837 140.788803 -13.707482
v  -48.120457 140.701767 -14.404030
v  -47.727837 140.788803 -15.100578
v  -46.942596 140.962891 -15.100578
v  -46.873512 137.796768 -13.707482
v  -46.477470 137.726944 -14.404030
v  -47.665596 137.936447 -13.707482
v  -48.061638 138.006271 -14.404030
v  -47.665596 137.936447 -15.100578
v  -46.873512 137.796768 -15.100578
v  -48.021309 134.845230 -13.707484
v  -47.682137 134.629150 -14.404031
v  -48.699650 135.277374 -13.707484
v  -49.038822 135.493454 -14.404031
v  -48.699650 135.277374 -15.100578
v  -48.021309 134.845230 -15.100578
v  -50.211243 132.557587 -13.707484
v  -49.980579 132.228165 -14.404031
v  -50.672573 133.216431 -13.707484
v  -50.903236 133.545853 -14.404031
v  -50.672573 133.216431 -15.100578
v  -50.211243 132.557587 -15.100578
v  -53.109917 131.282135 -13.707484
v  -53.022877 130.889526 -14.404032
v  -53.284000 132.067383 -13.707484
v  -53.371044 132.459991 -14.404032
v  -53.284000 132.067383 -15.100578
v  -53.109917 131.282135 -15.100578
v  -56.276039 131.213058 -13.707484
v  -56.345871 130.817017 -14.404032
v  -56.136372 132.005142 -13.707484
v  -56.066540 132.401184 -14.404032
v  -56.136372 132.005142 -15.100578
v  -56.276039 131.213058 -15.100578
v  -59.227589 132.360855 -13.707484
v  -59.443665 132.021683 -14.404032
v  -58.795437 133.039200 -13.707484
v  -58.579361 133.378372 -14.404032
v  -58.795437 133.039200 -15.100578
v  -59.227589 132.360855 -15.100578
v  -61.515224 134.550781 -13.707484
v  -61.844646 134.320129 -14.404032
v  -60.856377 135.012115 -13.707484
v  -60.526955 135.242783 -14.404032
v  -60.856377 135.012115 -15.100578
v  -61.515224 134.550781 -15.100578
v  -62.790672 137.449463 -13.707483
v  -63.183289 137.362427 -14.404030
v  -62.005432 137.623550 -13.707483
v  -61.612812 137.710587 -14.404030
v  -62.005432 137.623550 -15.100578
v  -62.790672 137.449463 -15.100578
v  -62.859756 140.615585 -13.707483
v  -63.255798 140.685410 -14.404030
v  -62.067673 140.475906 -13.707483
v  -61.671631 140.406082 -14.404030
v  -62.067673 140.475906 -15.100578
v  -62.859756 140.615585 -15.100578
v  -61.711960 143.567123 -13.707482
v  -62.051132 143.783203 -14.404030
v  -61.033619 143.134979 -13.707482
v  -60.694447 142.918900 -14.404030
v  -61.033619 143.134979 -15.100576
v  -61.711960 143.567123 -15.100576
v  -59.522026 145.854767 -13.707482
v  -59.752693 146.184189 -14.404030
v  -59.060699 145.195923 -13.707482
v  -58.830032 144.866501 -14.404030
v  -59.060699 145.195923 -15.100576
v  -59.522026 145.854767 -15.100576
v  -56.553852 147.139359 -13.707482
v  -56.571396 147.541138 -14.404028
v  -56.518768 146.335831 -13.707482
v  -56.501228 145.934052 -14.404030
v  -56.518768 146.335831 -15.100576
v  -56.553852 147.139359 -15.100576
v  -53.532578 147.457977 -13.275998
v  -53.537975 148.107437 -14.404029
v  -56.582302 148.041016 -14.404028
v  -56.559364 147.391937 -13.275998
v  -53.521667 146.153748 -13.272991
v  -56.513371 146.088455 -13.272991
v  -53.516159 145.499069 -14.404029
v  -56.490322 145.434174 -14.404030
v  -53.521667 146.153732 -15.535067
v  -56.513371 146.088455 -15.535067
v  -53.532578 147.457977 -15.532059
v  -56.559364 147.391937 -15.532057
v  -49.778606 149.798508 -9.900591
v  -48.963516 146.756561 -9.900593
v  -48.963516 146.756561 -11.046922
v  -49.778606 149.798508 -11.046921
v  -52.005466 152.025375 -9.900591
v  -52.005466 152.025375 -11.046921
v  -55.047413 152.840454 -9.900591
v  -55.047413 152.840454 -11.046921
v  -58.089367 152.025375 -9.900591
v  -58.089367 152.025375 -11.046921
v  -60.316227 149.798508 -9.900591
v  -60.316227 149.798508 -11.046921
v  -61.131317 146.756561 -9.900593
v  -61.131317 146.756561 -11.046922
v  -60.316227 143.714615 -9.900593
v  -60.316227 143.714615 -11.046922
v  -58.089367 141.487747 -9.900593
v  -58.089367 141.487747 -11.046922
v  -55.047421 140.672668 -9.900593
v  -55.047421 140.672668 -11.046922
v  -52.005470 141.487747 -9.900593
v  -52.005470 141.487747 -11.046922
v  -49.778606 143.714615 -9.900593
v  -49.778606 143.714615 -11.046922
v  -56.795273 149.783936 -13.546921
v  -56.795273 143.729187 -13.546922
v  -58.543125 146.756561 -13.546922
v  -58.074791 148.504410 -13.546921
v  -53.299564 149.783936 -13.546921
v  -51.551708 146.756561 -13.546922
v  -55.047417 150.252274 -13.546921
v  -52.020046 148.504410 -13.546921
v  -53.299564 143.729187 -13.546922
v  -52.020046 145.008698 -13.546922
v  -55.047417 143.260849 -13.546922
v  -58.074791 145.008713 -13.546922
# 144 vertices

vn 0.290294 0.461456 0.838324
vn 0.533660 0.845699 0.000663
vn 0.904759 0.425917 0.002442
vn 0.880952 0.273927 0.385859
vn -0.243710 -0.379755 0.892408
vn 0.799025 -0.233878 0.553950
vn -0.542615 -0.839981 -0.001238
vn 0.735789 -0.677210 0.000565
vn -0.245437 -0.379857 -0.891891
vn 0.801152 -0.235810 -0.550044
vn 0.291124 0.460260 -0.838694
vn 0.881230 0.274976 -0.384476
vn 0.445593 0.312008 0.839105
vn 0.819151 0.573577 0.000000
vn -0.368849 -0.258271 0.892886
vn -0.819153 -0.573575 -0.000001
vn -0.368850 -0.258271 -0.892886
vn 0.445593 0.312008 -0.839105
vn 0.531075 0.117735 0.839105
vn 0.976296 0.216441 0.000000
vn -0.439609 -0.097459 0.892886
vn -0.976296 -0.216441 0.000000
vn -0.439610 -0.097458 -0.892886
vn 0.531076 0.117736 -0.839105
vn 0.535706 -0.094461 0.839105
vn 0.984808 -0.173647 0.000001
vn -0.443442 0.078190 0.892886
vn -0.984808 0.173649 0.000000
vn -0.443443 0.078190 -0.892886
vn 0.535706 -0.094460 -0.839105
vn 0.458778 -0.292273 0.839106
vn 0.843391 -0.537300 0.000000
vn -0.379764 0.241935 0.892887
vn -0.843392 0.537299 0.000000
vn -0.379763 0.241936 -0.892887
vn 0.458778 -0.292274 -0.839106
vn 0.312009 -0.445594 0.839105
vn 0.573577 -0.819152 -0.000000
vn -0.258272 0.368850 0.892886
vn -0.573577 0.819152 0.000001
vn -0.258271 0.368850 -0.892886
vn 0.312009 -0.445594 -0.839104
vn 0.117736 -0.531080 0.839102
vn 0.216439 -0.976296 -0.000000
vn -0.097459 0.439613 0.892884
vn -0.216437 0.976296 -0.000001
vn -0.097460 0.439613 -0.892884
vn 0.117738 -0.531080 -0.839102
vn -0.094460 -0.535705 0.839105
vn -0.173649 -0.984808 0.000000
vn 0.078191 0.443442 0.892886
vn 0.173650 0.984807 -0.000001
vn 0.078191 0.443442 -0.892886
vn -0.094460 -0.535705 -0.839105
vn -0.292274 -0.458779 0.839106
vn -0.537300 -0.843391 -0.000001
vn 0.241937 0.379764 0.892886
vn 0.537300 0.843391 -0.000000
vn 0.241937 0.379764 -0.892886
vn -0.292275 -0.458778 -0.839106
vn -0.445596 -0.312011 0.839103
vn 0.368849 0.258271 0.892886
vn 0.819152 0.573576 -0.000000
vn 0.368849 0.258271 -0.892886
vn -0.445596 -0.312011 -0.839103
vn -0.531076 -0.117737 0.839104
vn -0.976296 -0.216439 0.000001
vn 0.439609 0.097458 0.892886
vn 0.976296 0.216441 0.000001
vn 0.439610 0.097459 -0.892886
vn -0.531077 -0.117737 -0.839104
vn -0.535706 0.094460 0.839105
vn -0.984808 0.173647 0.000001
vn 0.443442 -0.078190 0.892886
vn 0.984808 -0.173649 0.000000
vn 0.443443 -0.078190 -0.892886
vn -0.535706 0.094461 -0.839105
vn -0.458778 0.292273 0.839106
vn -0.843391 0.537300 -0.000000
vn 0.379764 -0.241936 0.892887
vn 0.843392 -0.537299 -0.000000
vn 0.379764 -0.241936 -0.892887
vn -0.458777 0.292274 -0.839106
vn -0.310923 0.447124 0.838694
vn -0.570042 0.821615 -0.000662
vn 0.261769 -0.368785 0.891894
vn 0.578738 -0.815512 0.001238
vn 0.260039 -0.368758 -0.892411
vn -0.310147 0.448354 -0.838324
vn -0.892384 0.236271 0.384482
vn -0.922479 0.386039 -0.002442
vn -0.790104 -0.270530 0.550044
vn -0.705552 -0.708658 -0.000565
vn -0.788063 -0.268508 -0.553950
vn -0.892061 0.235236 -0.385864
vn 0.602872 0.405587 0.687055
vn 0.594782 0.803887 0.000485
vn -0.629281 0.777178 -0.000485
vn -0.618912 0.379780 0.687543
vn 0.617978 -0.385893 0.684974
vn -0.599420 -0.413299 0.685478
vn 0.625004 -0.780622 0.000486
vn -0.590361 -0.807139 -0.000483
vn 0.616878 -0.386760 -0.685477
vn -0.600555 -0.412485 -0.684974
vn 0.601756 0.406416 -0.687543
vn -0.619991 0.378905 -0.687054
vn 0.866026 0.500000 -0.000000
vn 1.000000 0.000000 -0.000000
vn 0.929331 0.000000 -0.369247
vn 0.804825 0.464665 -0.369247
vn 0.500000 0.866026 -0.000000
vn 0.464666 0.804825 -0.369247
vn 0.000000 1.000000 -0.000000
vn 0.000000 0.929331 -0.369247
vn -0.499999 0.866026 -0.000000
vn -0.464665 0.804825 -0.369247
vn -0.866026 0.500000 -0.000000
vn -0.804825 0.464665 -0.369247
vn -1.000000 0.000000 -0.000000
vn -0.929331 0.000000 -0.369247
vn -0.866026 -0.500000 -0.000000
vn -0.804825 -0.464665 -0.369247
vn -0.500000 -0.866026 -0.000000
vn -0.464666 -0.804825 -0.369247
vn -0.000000 -1.000000 -0.000000
vn 0.000000 -0.929331 -0.369247
vn 0.499999 -0.866026 -0.000000
vn 0.464665 -0.804825 -0.369247
vn 0.866025 -0.500000 -0.000000
vn 0.804825 -0.464666 -0.369247
vn -0.212866 0.368693 -0.904850
vn -0.212866 -0.368692 -0.904850
vn -0.425730 0.000000 -0.904850
vn -0.368693 0.212865 -0.904850
vn 0.212866 0.368692 -0.904850
vn 0.425730 0.000001 -0.904850
vn -0.000000 0.425731 -0.904850
vn 0.368693 0.212865 -0.904850
vn 0.212864 -0.368693 -0.904850
vn 0.368693 -0.212866 -0.904850
vn 0.000001 -0.425731 -0.904850
vn -0.368693 -0.212864 -0.904850
# 143 vertex normals

vt 0.300494 0.979390 0.000000
vt 0.300521 0.975084 0.000000
vt 0.313283 0.974210 0.000000
vt 0.312807 0.979584 0.000000
vt 0.300254 0.983712 0.000000
vt 0.311628 0.984725 0.000000
vt 0.300040 0.988086 0.000000
vt 0.310649 0.989380 0.000000
vt 0.299796 0.966448 0.000000
vt 0.299336 0.962098 0.000000
vt 0.309685 0.959446 0.000000
vt 0.310978 0.963950 0.000000
vt 0.300268 0.970770 0.000000
vt 0.312475 0.968920 0.000000
vt 0.288560 0.979869 0.000000
vt 0.288529 0.975622 0.000000
vt 0.288515 0.984087 0.000000
vt 0.288520 0.988403 0.000000
vt 0.288149 0.967140 0.000000
vt 0.287970 0.962820 0.000000
vt 0.288377 0.971369 0.000000
vt 0.276713 0.980306 0.000000
vt 0.276663 0.976025 0.000000
vt 0.276738 0.984536 0.000000
vt 0.276787 0.988851 0.000000
vt 0.276452 0.967486 0.000000
vt 0.276365 0.963161 0.000000
vt 0.276568 0.971735 0.000000
vt 0.264899 0.980617 0.000000
vt 0.264852 0.976311 0.000000
vt 0.264937 0.984861 0.000000
vt 0.264982 0.989180 0.000000
vt 0.264726 0.967731 0.000000
vt 0.264674 0.963402 0.000000
vt 0.264791 0.971995 0.000000
vt 0.253097 0.980812 0.000000
vt 0.253062 0.976494 0.000000
vt 0.253128 0.985065 0.000000
vt 0.253158 0.989387 0.000000
vt 0.252984 0.967898 0.000000
vt 0.252953 0.963567 0.000000
vt 0.253023 0.972168 0.000000
vt 0.241300 0.980913 0.000000
vt 0.241278 0.976590 0.000000
vt 0.241320 0.985169 0.000000
vt 0.241335 0.989493 0.000000
vt 0.241234 0.967989 0.000000
vt 0.241218 0.963657 0.000000
vt 0.241255 0.972260 0.000000
vt 0.229507 0.980938 0.000000
vt 0.229496 0.976613 0.000000
vt 0.229515 0.985198 0.000000
vt 0.229519 0.989523 0.000000
vt 0.229477 0.968013 0.000000
vt 0.229473 0.963682 0.000000
vt 0.229485 0.972283 0.000000
vt 0.217716 0.980913 0.000000
vt 0.217715 0.976587 0.000000
vt 0.217715 0.985174 0.000000
vt 0.217710 0.989500 0.000000
vt 0.217715 0.967989 0.000000
vt 0.217720 0.963659 0.000000
vt 0.217714 0.972258 0.000000
vt 0.205927 0.980849 0.000000
vt 0.205933 0.976524 0.000000
vt 0.205920 0.985110 0.000000
vt 0.205908 0.989436 0.000000
vt 0.205949 0.967929 0.000000
vt 0.205961 0.963600 0.000000
vt 0.205940 0.972196 0.000000
vt 0.194139 0.980755 0.000000
vt 0.194149 0.976434 0.000000
vt 0.194130 0.985013 0.000000
vt 0.194114 0.989339 0.000000
vt 0.194181 0.967849 0.000000
vt 0.194197 0.963521 0.000000
vt 0.194163 0.972112 0.000000
vt 0.182349 0.980633 0.000000
vt 0.182356 0.976326 0.000000
vt 0.182349 0.984883 0.000000
vt 0.182332 0.989207 0.000000
vt 0.182414 0.967766 0.000000
vt 0.182436 0.963442 0.000000
vt 0.182381 0.972019 0.000000
vt 0.170547 0.980478 0.000000
vt 0.170536 0.976209 0.000000
vt 0.170584 0.984707 0.000000
vt 0.170580 0.989024 0.000000
vt 0.170658 0.967711 0.000000
vt 0.170697 0.963394 0.000000
vt 0.170583 0.971939 0.000000
vt 0.158701 0.980278 0.000000
vt 0.158634 0.976087 0.000000
vt 0.158861 0.984466 0.000000
vt 0.158926 0.988775 0.000000
vt 0.158940 0.967712 0.000000
vt 0.159048 0.963405 0.000000
vt 0.158740 0.971897 0.000000
vt 0.146733 0.980077 0.000000
vt 0.146510 0.975963 0.000000
vt 0.147233 0.984282 0.000000
vt 0.147553 0.988616 0.000000
vt 0.147314 0.967660 0.000000
vt 0.147678 0.963333 0.000000
vt 0.146772 0.971855 0.000000
vt 0.134269 0.980991 0.000000
vt 0.133344 0.975834 0.000000
vt 0.136165 0.985375 0.000000
vt 0.137252 0.989663 0.000000
vt 0.136259 0.966349 0.000000
vt 0.137390 0.962082 0.000000
vt 0.134319 0.970696 0.000000
vt 0.314263 0.979796 0.000000
vt 0.314512 0.974149 0.000000
vt 0.326053 0.973141 0.000000
vt 0.325914 0.979558 0.000000
vt 0.313580 0.985534 0.000000
vt 0.325284 0.985925 0.000000
vt 0.312713 0.991890 0.000000
vt 0.325135 0.992652 0.000000
vt 0.312808 0.962878 0.000000
vt 0.311460 0.956672 0.000000
vt 0.323690 0.953936 0.000000
vt 0.324366 0.960592 0.000000
vt 0.313880 0.968533 0.000000
vt 0.325447 0.966803 0.000000
vt 0.327612 0.973043 0.000000
vt 0.327513 0.979625 0.000000
vt 0.326985 0.985820 0.000000
vt 0.327032 0.990956 0.000000
vt 0.325708 0.955333 0.000000
vt 0.326060 0.960443 0.000000
vt 0.327036 0.966519 0.000000
vt 0.016204 0.960550 0.000000
vt 0.008371 0.929793 0.000000
vt 0.018525 0.929794 0.000000
vt 0.025166 0.955606 0.000000
vt 0.038139 0.984171 0.000000
vt 0.043700 0.975216 0.000000
vt 0.070148 0.994770 0.000000
vt 0.070133 0.983205 0.000000
vt 0.102115 0.984076 0.000000
vt 0.096543 0.975145 0.000000
vt 0.123929 0.960456 0.000000
vt 0.114981 0.955538 0.000000
vt 0.131699 0.929802 0.000000
vt 0.121571 0.929804 0.000000
vt 0.123918 0.899148 0.000000
vt 0.114974 0.904069 0.000000
vt 0.102092 0.875549 0.000000
vt 0.096521 0.884480 0.000000
vt 0.070148 0.864853 0.000000
vt 0.070132 0.876415 0.000000
vt 0.038144 0.875441 0.000000
vt 0.043702 0.884394 0.000000
vt 0.016215 0.899054 0.000000
vt 0.025174 0.904000 0.000000
vt 0.082362 0.950402 0.000000
vt 0.081643 0.908777 0.000000
vt 0.093758 0.929423 0.000000
vt 0.090785 0.941441 0.000000
vt 0.058592 0.950908 0.000000
vt 0.046340 0.930193 0.000000
vt 0.070604 0.954052 0.000000
vt 0.049756 0.942150 0.000000
vt 0.057865 0.909130 0.000000
vt 0.049383 0.918140 0.000000
vt 0.069618 0.905557 0.000000
vt 0.090415 0.917493 0.000000
# 169 texture coords

g Door_Arch_Handle
s 1
f 1/1/1 2/2/2 3/3/3 4/4/4 
f 5/5/5 1/1/1 4/4/4 6/6/6 
f 7/7/7 5/5/5 6/6/6 8/8/8 
f 9/9/9 7/10/7 8/11/8 10/12/10 
f 11/13/11 9/9/9 10/12/10 12/14/12 
f 2/2/2 11/13/11 12/14/12 3/3/3 
f 13/15/13 14/16/14 2/2/2 1/1/1 
f 15/17/15 13/15/13 1/1/1 5/5/5 
f 16/18/16 15/17/15 5/5/5 7/7/7 
f 17/19/17 16/20/16 7/10/7 9/9/9 
f 18/21/18 17/19/17 9/9/9 11/13/11 
f 14/16/14 18/21/18 11/13/11 2/2/2 
f 19/22/19 20/23/20 14/16/14 13/15/13 
f 21/24/21 19/22/19 13/15/13 15/17/15 
f 22/25/22 21/24/21 15/17/15 16/18/16 
f 23/26/23 22/27/22 16/20/16 17/19/17 
f 24/28/24 23/26/23 17/19/17 18/21/18 
f 20/23/20 24/28/24 18/21/18 14/16/14 
f 25/29/25 26/30/26 20/23/20 19/22/19 
f 27/31/27 25/29/25 19/22/19 21/24/21 
f 28/32/28 27/31/27 21/24/21 22/25/22 
f 29/33/29 28/34/28 22/27/22 23/26/23 
f 30/35/30 29/33/29 23/26/23 24/28/24 
f 26/30/26 30/35/30 24/28/24 20/23/20 
f 31/36/31 32/37/32 26/30/26 25/29/25 
f 33/38/33 31/36/31 25/29/25 27/31/27 
f 34/39/34 33/38/33 27/31/27 28/32/28 
f 35/40/35 34/41/34 28/34/28 29/33/29 
f 36/42/36 35/40/35 29/33/29 30/35/30 
f 32/37/32 36/42/36 30/35/30 26/30/26 
f 37/43/37 38/44/38 32/37/32 31/36/31 
f 39/45/39 37/43/37 31/36/31 33/38/33 
f 40/46/40 39/45/39 33/38/33 34/39/34 
f 41/47/41 40/48/40 34/41/34 35/40/35 
f 42/49/42 41/47/41 35/40/35 36/42/36 
f 38/44/38 42/49/42 36/42/36 32/37/32 
f 43/50/43 44/51/44 38/44/38 37/43/37 
f 45/52/45 43/50/43 37/43/37 39/45/39 
f 46/53/46 45/52/45 39/45/39 40/46/40 
f 47/54/47 46/55/46 40/48/40 41/47/41 
f 48/56/48 47/54/47 41/47/41 42/49/42 
f 44/51/44 48/56/48 42/49/42 38/44/38 
f 49/57/49 50/58/50 44/51/44 43/50/43 
f 51/59/51 49/57/49 43/50/43 45/52/45 
f 52/60/52 51/59/51 45/52/45 46/53/46 
f 53/61/53 52/62/52 46/55/46 47/54/47 
f 54/63/54 53/61/53 47/54/47 48/56/48 
f 50/58/50 54/63/54 48/56/48 44/51/44 
f 55/64/55 56/65/56 50/58/50 49/57/49 
f 57/66/57 55/64/55 49/57/49 51/59/51 
f 58/67/58 57/66/57 51/59/51 52/60/52 
f 59/68/59 58/69/58 52/62/52 53/61/53 
f 60/70/60 59/68/59 53/61/53 54/63/54 
f 56/65/56 60/70/60 54/63/54 50/58/50 
f 61/71/61 62/72/16 56/65/56 55/64/55 
f 63/73/62 61/71/61 55/64/55 57/66/57 
f 64/74/63 63/73/62 57/66/57 58/67/58 
f 65/75/64 64/76/63 58/69/58 59/68/59 
f 66/77/65 65/75/64 59/68/59 60/70/60 
f 62/72/16 66/77/65 60/70/60 56/65/56 
f 67/78/66 68/79/67 62/72/16 61/71/61 
f 69/80/68 67/78/66 61/71/61 63/73/62 
f 70/81/69 69/80/68 63/73/62 64/74/63 
f 71/82/70 70/83/69 64/76/63 65/75/64 
f 72/84/71 71/82/70 65/75/64 66/77/65 
f 68/79/67 72/84/71 66/77/65 62/72/16 
f 73/85/72 74/86/73 68/79/67 67/78/66 
f 75/87/74 73/85/72 67/78/66 69/80/68 
f 76/88/75 75/87/74 69/80/68 70/81/69 
f 77/89/76 76/90/75 70/83/69 71/82/70 
f 78/91/77 77/89/76 71/82/70 72/84/71 
f 74/86/73 78/91/77 72/84/71 68/79/67 
f 79/92/78 80/93/79 74/86/73 73/85/72 
f 81/94/80 79/92/78 73/85/72 75/87/74 
f 82/95/81 81/94/80 75/87/74 76/88/75 
f 83/96/82 82/97/81 76/90/75 77/89/76 
f 84/98/83 83/96/82 77/89/76 78/91/77 
f 80/93/79 84/98/83 78/91/77 74/86/73 
f 85/99/84 86/100/85 80/93/79 79/92/78 
f 87/101/86 85/99/84 79/92/78 81/94/80 
f 88/102/87 87/101/86 81/94/80 82/95/81 
f 89/103/88 88/104/87 82/97/81 83/96/82 
f 90/105/89 89/103/88 83/96/82 84/98/83 
f 86/100/85 90/105/89 84/98/83 80/93/79 
f 91/106/90 92/107/91 86/100/85 85/99/84 
f 93/108/92 91/106/90 85/99/84 87/101/86 
f 94/109/93 93/108/92 87/101/86 88/102/87 
f 95/110/94 94/111/93 88/104/87 89/103/88 
f 96/112/95 95/110/94 89/103/88 90/105/89 
f 92/107/91 96/112/95 90/105/89 86/100/85 
f 97/113/96 98/114/97 99/115/98 100/116/99 
f 101/117/100 97/113/96 100/116/99 102/118/101 
f 103/119/102 101/117/100 102/118/101 104/120/103 
f 105/121/104 103/122/102 104/123/103 106/124/105 
f 107/125/106 105/121/104 106/124/105 108/126/107 
f 98/114/97 107/125/106 108/126/107 99/115/98 
f 98/114/97 97/113/96 4/4/4 3/3/3 
f 107/125/106 98/114/97 3/3/3 12/14/12 
f 105/121/104 107/125/106 12/14/12 10/12/10 
f 103/122/102 105/121/104 10/12/10 8/11/8 
f 101/117/100 103/119/102 8/8/8 6/6/6 
f 97/113/96 101/117/100 6/6/6 4/4/4 
f 100/116/99 99/115/98 92/127/91 91/128/90 
f 102/118/101 100/116/99 91/128/90 93/129/92 
f 104/120/103 102/118/101 93/129/92 94/130/93 
f 106/124/105 104/123/103 94/131/93 95/132/94 
f 108/126/107 106/124/105 95/132/94 96/133/95 
f 99/115/98 108/126/107 96/133/95 92/127/91 
f 109/134/108 110/135/109 111/136/110 112/137/111 
f 113/138/112 109/134/108 112/137/111 114/139/113 
f 115/140/114 113/138/112 114/139/113 116/141/115 
f 117/142/116 115/140/114 116/141/115 118/143/117 
f 119/144/118 117/142/116 118/143/117 120/145/119 
f 121/146/120 119/144/118 120/145/119 122/147/121 
f 123/148/122 121/146/120 122/147/121 124/149/123 
f 125/150/124 123/148/122 124/149/123 126/151/125 
f 127/152/126 125/150/124 126/151/125 128/153/127 
f 129/154/128 127/152/126 128/153/127 130/155/129 
f 131/156/130 129/154/128 130/155/129 132/157/131 
f 110/135/109 131/156/130 132/157/131 111/136/110 
f 133/158/132 134/159/133 135/160/134 136/161/135 
f 137/162/136 138/163/137 133/158/132 139/164/138 
f 137/162/136 140/165/139 138/163/137 
f 141/166/140 134/159/133 138/163/137 142/167/141 
f 141/166/140 143/168/142 134/159/133 
f 133/158/132 138/163/137 134/159/133 
f 135/160/134 134/159/133 144/169/143 
f 140/165/139 112/137/111 111/136/110 138/163/137 
f 137/162/136 114/139/113 112/137/111 140/165/139 
f 139/164/138 116/141/115 114/139/113 137/162/136 
f 133/158/132 118/143/117 116/141/115 139/164/138 
f 136/161/135 120/145/119 118/143/117 133/158/132 
f 135/160/134 122/147/121 120/145/119 136/161/135 
f 144/169/143 124/149/123 122/147/121 135/160/134 
f 134/159/133 126/151/125 124/149/123 144/169/143 
f 143/168/142 128/153/127 126/151/125 134/159/133 
f 141/166/140 130/155/129 128/153/127 143/168/142 
f 142/167/141 132/157/131 130/155/129 141/166/140 
f 138/163/137 111/136/110 132/157/131 142/167/141 
# 135 polygons - 4 triangles

