mtllib ./MetalSpike2.mtl
g MetalSpike2
v -0.01666667 -0.008333744 -1.65419
v 0.008333331 -0.008333744 -1.65419
v 4.00506E-05 -0.000751663 -1.671612
v -0.01666667 -0.03333374 -1.612674
v 0.008333331 -0.008333744 -1.65419
v 0.008333331 0.01666626 -1.65419
v 4.00506E-05 -0.000751663 -1.671612
v 0.03333333 0.01666626 -1.612674
v 4.00506E-05 -0.000751663 -1.671612
v -0.01666667 0.01666626 -1.612674
v -0.01666667 -0.008333744 -1.65419
v 0.008333331 0.01666626 -1.65419
v -0.01666667 -0.03333374 -1.612674
v -0.01666667 -0.008333744 -1.65419
v -0.01666667 -0.03333374 -2.980232E-08
v -0.01666667 0.01666626 -2.980232E-08
v -0.01666667 0.01666626 -1.612674
v 0.03333333 0.01666626 -2.980232E-08
v 0.008333331 0.01666626 -2.980232E-08
v 0.008333331 -0.008333744 -2.980232E-08
v -0.01666667 0.01666626 -2.980232E-08
v -0.01666667 -0.03333374 -2.980232E-08
v -0.01666667 0.01666626 -1.612674
v 0.008333331 0.01666626 -1.65419
v 0.03333333 0.01666626 -1.612674
v 0.03333333 0.01666626 -2.980232E-08
v 0.008333331 0.01666626 -2.980232E-08
v -0.01666667 0.01666626 -2.980232E-08
v 0.03333333 0.01666626 -1.612674
v 0.008333331 -0.008333744 -1.65419
v -0.01666667 -0.03333374 -1.612674
v 0.03333333 0.01666626 -2.980232E-08
v 0.008333331 -0.008333744 -2.980232E-08
v -0.01666667 -0.03333374 -2.980232E-08

vn -2.306998E-06 -0.8751717 -0.4838125
vn -2.306998E-06 -0.8751717 -0.4838125
vn -1.902825E-06 -0.9169285 -0.3990514
vn -2.459841E-06 -0.8566692 -0.5158661
vn 0.8706864 0 -0.4918388
vn 0.8706864 0 -0.4918388
vn 0.9029176 0 -0.4298138
vn 0.8566698 0 -0.515865
vn -0.6543884 0.6543866 -0.3788851
vn -0.6543884 0.6543866 -0.3788851
vn -0.6797283 0.6283361 -0.3783693
vn -0.6292346 0.6785952 -0.3789093
vn -1 0 0
vn -1 0 0
vn -1 0 0
vn -1 0 0
vn -1 0 0
vn 0 0 -1
vn 0 0 -1
vn 0 0 -1
vn 0 0 -1
vn 0 0 -1
vn 0 1 0
vn 0 1 0
vn 0 1 0
vn 0 1 0
vn 0 1 0
vn 0 1 0
vn 0.7071068 -0.7071068 0
vn 0.7071068 -0.7071068 0
vn 0.7071068 -0.7071068 0
vn 0.7071067 -0.7071067 0
vn 0.7071067 -0.7071067 0
vn 0.7071067 -0.7071067 0

vt 0.1329304 0.03932989
vt 0.1367013 0.02573633
vt 0.1251414 0.02738598
vt 0.1592244 0.04662395
vt 0.1367013 0.02573633
vt 0.1297393 0.01347968
vt 0.1251414 0.02738598
vt 0.1534703 0
vt 0.1251414 0.02738598
vt 0.1188376 0.06273291
vt 0.1329304 0.03932989
vt 0.1132812 0.03598553
vt 0.1470232 0.06273291
vt 0.1329304 0.03932995
vt 0.1470232 0.9718145
vt 0.1188376 0.9718145
vt 0.1188376 0.06273291
vt 0.1188376 1
vt 0.1188376 0.9859073
vt 0.1329304 0.9859073
vt 0.1188376 0.9718145
vt 0.1470232 0.9718145
vt 0.2150691 0.06273282
vt 0.2009763 0.03932989
vt 0.1868835 0.06273282
vt 0.1868835 0.9718145
vt 0.2009763 0.9718145
vt 0.2150691 0.9718145
vt 0.1868835 0.06273291
vt 0.1669534 0.03932989
vt 0.1470232 0.06273291
vt 0.1868835 0.9718145
vt 0.1669534 0.9718145
vt 0.1470232 0.9718145

g Default_Prototype
usemtl Default_Prototype
usemap Default_Prototype
f 2/2/2 1/1/1 3/3/3
f 4/4/4 1/1/1 2/2/2
f 6/6/6 5/5/5 7/7/7
f 8/8/8 5/5/5 6/6/6
f 10/10/10 9/9/9 11/11/11
f 10/10/10 12/12/12 9/9/9
f 14/14/14 13/13/13 15/15/15
f 14/14/14 15/15/15 16/16/16
f 14/14/14 16/16/16 17/17/17
f 19/19/19 18/18/18 20/20/20
f 22/22/22 21/21/21 20/20/20
f 21/21/21 19/19/19 20/20/20
f 24/24/24 23/23/23 25/25/25
f 26/26/26 25/25/25 27/27/27
f 23/23/23 28/28/28 27/27/27
f 25/25/25 23/23/23 27/27/27
f 30/30/30 29/29/29 31/31/31
f 29/29/29 32/32/32 33/33/33
f 31/31/31 29/29/29 33/33/33
f 34/34/34 31/31/31 33/33/33
