mtllib ./MetalSpike3.mtl
g MetalSpike3
v -0.05 0 0
v -0.05 0.05 0
v 0 0.05 0
v -0.05 0.025 -2.051487
v -0.025 0.025 -2.051487
v -0.03329328 0.03258208 -2.073093
v -0.05 0 -2
v -0.025 0.025 -2.051487
v -0.025 0.05 -2.051487
v -0.03329328 0.03258208 -2.073093
v 0 0.05 -2
v -0.03329328 0.03258208 -2.073093
v -0.05 0.05 -2
v -0.05 0.025 -2.051487
v -0.025 0.05 -2.051487
v -0.05 0 -2
v -0.05 0.025 -2.051487
v -0.05 0 0
v -0.05 0.05 0
v -0.05 0.05 -2
v 0 0.05 -2
v -0.025 0.025 -2.051487
v 0 0.05 0
v -0.05 0 0
v -0.05 0 -2
v -0.05 0.05 0
v -0.025 0.05 -2.051487
v 0 0.05 0
v -0.05 0.05 -2
v 0 0.05 -2

vn 0 0 1
vn 0 0 1
vn 0 0 1
vn 0 -0.9133642 -0.4071434
vn 0 -0.9133642 -0.4071434
vn 0 -0.9435858 -0.3311282
vn 0 -0.8995628 -0.4367915
vn 0.9100416 0 -0.414517
vn 0.9100416 0 -0.414517
vn 0.9335873 0 -0.3583501
vn 0.8995628 0 -0.4367915
vn -0.6714639 0.671464 -0.313484
vn -0.6714639 0.671464 -0.313484
vn -0.6974139 0.6446884 -0.3130347
vn -0.6456571 0.6963057 -0.3135051
vn -1 0 0
vn -1 0 0
vn -0.9999999 0 0
vn -0.9999999 0 0
vn -1 0 0
vn 0.7071068 -0.7071068 0
vn 0.7071068 -0.7071068 0
vn 0.7071068 -0.7071068 0
vn 0.7071068 -0.7071068 0
vn 0.7071068 -0.7071068 0
vn 0 0.9999999 0
vn 0 1 0
vn 0 0.9999999 0
vn 0 1 0
vn 0 1 0

vt 0.3171479 1
vt 0.3171479 0.9769005
vt 0.2940484 0.9769005
vt 0.304464 0.007313043
vt 0.3012645 0.01842296
vt 0.3124851 0.01766318
vt 0.2790704 0
vt 0.3012645 0.01842296
vt 0.3055982 0.02913374
vt 0.3124851 0.01766318
vt 0.2810991 0.03904635
vt 0.3124851 0.01766318
vt 0.3171479 0.05292019
vt 0.3217778 0.02688631
vt 0.3055982 0.02913374
vt 0.2613808 0.05292019
vt 0.249831 0.02913371
vt 0.2613808 0.9769005
vt 0.2382813 0.9769005
vt 0.2382813 0.05292019
vt 0.2940484 0.05292019
vt 0.2777146 0.02913371
vt 0.2940484 0.9769005
vt 0.2613808 0.9769005
vt 0.2613808 0.05292019
vt 0.3171479 0.9769005
vt 0.3055982 0.02913371
vt 0.2940484 0.9769005
vt 0.3171479 0.05292019
vt 0.2940484 0.05292019

g Default_Prototype
usemtl Default_Prototype
usemap Default_Prototype
f 2/2/2 1/1/1 3/3/3
f 5/5/5 4/4/4 6/6/6
f 7/7/7 4/4/4 5/5/5
f 9/9/9 8/8/8 10/10/10
f 11/11/11 8/8/8 9/9/9
f 13/13/13 12/12/12 14/14/14
f 13/13/13 15/15/15 12/12/12
f 17/17/17 16/16/16 18/18/18
f 17/17/17 18/18/18 19/19/19
f 17/17/17 19/19/19 20/20/20
f 22/22/22 21/21/21 23/23/23
f 22/22/22 23/23/23 24/24/24
f 22/22/22 24/24/24 25/25/25
f 27/27/27 26/26/26 28/28/28
f 27/27/27 29/29/29 26/26/26
f 27/27/27 28/28/28 30/30/30
