mtllib ./MetalSpike1.mtl
g MetalSpike1
v -0.01666664 -0.03333282 -1.490116E-08
v -0.01666664 0.01666719 -1.490116E-08
v 0.03333336 0.01666719 -1.490116E-08
v -0.01666664 -0.008332796 -1.8681
v 0.008333361 -0.008332806 -1.923273
v 4.00804E-05 -0.0007507242 -1.889706
v -0.01666664 -0.03333281 -1.871786
v 0.008333361 -0.008332806 -1.923273
v 0.008333361 0.01666719 -1.8681
v 4.00804E-05 -0.0007507242 -1.889706
v 0.008333361 -0.008332806 -1.923273
v 0.03333336 0.01666719 -1.871786
v 0.008333361 0.01666719 -1.8681
v 4.00804E-05 -0.0007507242 -1.889706
v -0.01666664 0.01666719 -1.816613
v -0.01666664 -0.008332796 -1.8681
v 0.008333361 0.01666719 -1.8681
v -0.01666664 -0.03333281 -1.871786
v -0.01666664 -0.008332796 -1.8681
v -0.01666664 -0.03333282 -1.490116E-08
v -0.01666664 0.01666719 -1.490116E-08
v -0.01666664 0.01666719 -1.816613
v 0.03333336 0.01666719 -1.871786
v 0.008333361 -0.008332806 -1.923273
v 0.03333336 0.01666719 -1.490116E-08
v -0.01666664 -0.03333282 -1.490116E-08
v -0.01666664 -0.03333281 -1.871786
v -0.01666664 0.01666719 -1.490116E-08
v 0.008333361 0.01666719 -1.8681
v 0.03333336 0.01666719 -1.490116E-08
v -0.01666664 0.01666719 -1.816613
v 0.03333336 0.01666719 -1.871786

vn 0 0 1
vn 0 0 1
vn 0 0 1
vn -0.8856936 0.2334185 -0.4013262
vn -0.8856936 0.2334185 -0.4013262
vn -0.7005722 0.6390837 -0.317444
vn -0.909173 0.06073933 -0.4119653
vn -0.2465278 0.8827417 -0.3999887
vn -0.2465278 0.8827417 -0.3999887
vn -0.6421871 0.6982138 -0.3163752
vn -0.2465278 0.8827417 -0.3999887
vn -0.06073934 0.909173 -0.4119652
vn -0.2465278 0.8827417 -0.3999887
vn -0.6714638 0.6714641 -0.313484
vn -0.6714638 0.6714641 -0.313484
vn -0.6974137 0.6446887 -0.3130347
vn -0.6456571 0.6963057 -0.3135051
vn -0.9999999 0 0
vn -1 0 0
vn -1 0 0
vn -1 0 0
vn -1 0 0
vn 0.7071068 -0.7071068 -1.407308E-09
vn 0.7071068 -0.7071067 -3.470537E-09
vn 0.7071069 -0.7071067 -2.76393E-09
vn 0.7071068 -0.7071067 -4.145895E-09
vn 0.7071068 -0.7071068 -5.62923E-09
vn 1.38167E-09 1 2.012651E-09
vn 1.10732E-09 1 2.006999E-09
vn 9.794061E-11 0.9999999 1.99285E-09
vn 4.223331E-09 0.9999999 2.050679E-09
vn 2.934361E-10 1 1.990234E-09

vt 0.07886663 1
vt 0.07886663 0.9769005
vt 0.05576713 0.9769005
vt 0.06618272 0.00731303
vt 0.06298319 0.01842297
vt 0.07420382 0.01766319
vt 0.04078913 0
vt 0.06298319 0.01842296
vt 0.0673169 0.02913374
vt 0.07420379 0.01766319
vt 0.06298319 0.01842296
vt 0.04281778 0.03904635
vt 0.0673169 0.02913374
vt 0.07420383 0.01766317
vt 0.07886666 0.0529202
vt 0.08349651 0.02688632
vt 0.06731693 0.02913374
vt 0.02309949 0.05292019
vt 0.01154974 0.02913371
vt 0.0230995 0.9769005
vt 1.032629E-08 0.9769005
vt 0 0.05292019
vt 0.05576713 0.05292019
vt 0.03943331 0.02913371
vt 0.05576713 0.9769005
vt 0.02309949 0.9769005
vt 0.02309949 0.05292019
vt 0.07886665 0.9769005
vt 0.06731689 0.02913371
vt 0.05576713 0.9769005
vt 0.07886665 0.05292019
vt 0.05576713 0.05292019

g Default_Prototype
usemtl Default_Prototype
usemap Default_Prototype
f 2/2/2 1/1/1 3/3/3
f 5/5/5 4/4/4 6/6/6
f 7/7/7 4/4/4 5/5/5
f 9/9/9 8/8/8 10/10/10
f 12/12/12 11/11/11 13/13/13
f 15/15/15 14/14/14 16/16/16
f 15/15/15 17/17/17 14/14/14
f 19/19/19 18/18/18 20/20/20
f 19/19/19 20/20/20 21/21/21
f 19/19/19 21/21/21 22/22/22
f 24/24/24 23/23/23 25/25/25
f 24/24/24 25/25/25 26/26/26
f 24/24/24 26/26/26 27/27/27
f 29/29/29 28/28/28 30/30/30
f 29/29/29 31/31/31 28/28/28
f 29/29/29 30/30/30 32/32/32
