mtllib ./MetalSpikeGroup2.mtl
g MetalSpikeGroup2
v 0.6446321 0.6956368 0.05000019
v -0.6446321 0.8623632 0.05000019
v 0.6510446 0.7452239 0.05000019
v -0.6382195 0.9119502 0.05000019
v -0.6446321 0.8623632 0.05000019
v -0.6446321 0.8623632 -0.05000019
v -0.6382195 0.9119502 0.05000019
v -0.6382195 0.9119502 -0.05000019
v -0.6446321 0.8623632 -0.05000019
v 0.6446321 0.6956368 -0.05000019
v -0.6382195 0.9119502 -0.05000019
v 0.6510446 0.7452239 -0.05000019
v 0.6446321 0.6956368 -0.05000019
v 0.6446321 0.6956368 0.05000019
v 0.6510446 0.7452239 -0.05000019
v 0.6510446 0.7452239 0.05000019
v 0.6510446 0.7452239 0.05000019
v -0.6382195 0.9119502 0.05000019
v 0.6510446 0.7452239 -0.05000019
v -0.6382195 0.9119502 -0.05000019
v 0.6446321 0.6956368 -0.05000019
v -0.6446321 0.8623632 -0.05000019
v 0.6446321 0.6956368 0.05000019
v -0.6446321 0.8623632 0.05000019
v 0.5300993 0.01818365 -0.02600002
v 0.5300993 0.01818365 0.02400017
v 0.5798016 0.02363265 0.02400017
v 0.3483552 1.67593 -0.0009994507
v 0.3755481 1.657294 -0.0009994507
v 0.3567876 1.752316 0.00658226
v 0.3552021 1.613478 -0.02600002
v 0.3755481 1.657294 -0.0009994507
v 0.3769187 1.644793 0.02400017
v 0.3567876 1.752316 0.00658226
v 0.4068319 1.601344 0.02400017
v 0.3567876 1.752316 0.00658226
v 0.3465285 1.692591 0.02400017
v 0.3483552 1.67593 -0.0009994507
v 0.3769187 1.644793 0.02400017
v 0.3465285 1.692591 0.02400017
v 0.3567876 1.752316 0.00658226
v 0.3552021 1.613478 -0.02600002
v 0.3483552 1.67593 -0.0009994507
v 0.5300993 0.01818365 -0.02600002
v 0.5300993 0.01818365 0.02400017
v 0.3465285 1.692591 0.02400017
v 0.4068319 1.601344 0.02400017
v 0.3755481 1.657294 -0.0009994507
v 0.5798016 0.02363265 0.02400017
v 0.5300993 0.01818365 -0.02600002
v 0.3552021 1.613478 -0.02600002
v 0.5300993 0.01818365 0.02400017
v 0.3769187 1.644793 0.02400017
v 0.5798016 0.02363265 0.02400017
v 0.3465285 1.692591 0.02400017
v 0.4068319 1.601344 0.02400017
v 0.65 0 0.05000019
v -0.65 0 0.05000019
v 0.65 0.05000001 0.05000019
v -0.65 0.05000001 0.05000019
v -0.65 0 0.05000019
v -0.65 0 -0.05000019
v -0.65 0.05000001 0.05000019
v -0.65 0.05000001 -0.05000019
v -0.65 0 -0.05000019
v 0.65 0 -0.05000019
v -0.65 0.05000001 -0.05000019
v 0.65 0.05000001 -0.05000019
v 0.65 0 -0.05000019
v 0.65 0 0.05000019
v 0.65 0.05000001 -0.05000019
v 0.65 0.05000001 0.05000019
v 0.65 0.05000001 0.05000019
v -0.65 0.05000001 0.05000019
v 0.65 0.05000001 -0.05000019
v -0.65 0.05000001 -0.05000019
v -0.5566197 0.02124965 -0.02600002
v -0.5566197 0.02124965 0.02400017
v -0.5067605 0.01750064 0.02400017
v -0.4165494 1.884091 -0.0009994507
v -0.3874829 1.937234 -0.0009994507
v -0.3982697 1.904383 0.00658226
v -0.4165494 1.884091 -0.0009994507
v -0.416273 1.887767 -0.02600002
v -0.3874829 1.937234 -0.0009994507
v -0.3874829 1.937234 -0.0009994507
v -0.3916198 1.882216 0.02400017
v -0.3982697 1.904383 0.00658226
v -0.3664138 1.884017 0.02400017
v -0.3982697 1.904383 0.00658226
v -0.4204099 1.832749 0.02400017
v -0.4165494 1.884091 -0.0009994507
v -0.3916198 1.882216 0.02400017
v -0.416273 1.887767 -0.02600002
v -0.4165494 1.884091 -0.0009994507
v -0.5566197 0.02124965 -0.02600002
v -0.5566197 0.02124965 0.02400017
v -0.4204099 1.832749 0.02400017
v -0.3664138 1.884017 0.02400017
v -0.3874829 1.937234 -0.0009994507
v -0.5067605 0.01750064 0.02400017
v -0.5566197 0.02124965 -0.02600002
v -0.416273 1.887767 -0.02600002
v -0.5566197 0.02124965 0.02400017
v -0.3916198 1.882216 0.02400017
v -0.5067605 0.01750064 0.02400017
v -0.4204099 1.832749 0.02400017
v -0.3664138 1.884017 0.02400017
v 0.2430288 0.0190199 -0.02600002
v 0.2430288 0.01901984 0.02400017
v 0.2929423 0.02196032 0.02400017
v 0.146424 1.658868 -0.0009994507
v 0.1719893 1.650008 -0.0009994507
v 0.1621777 1.675537 0.00658226
v 0.1524556 1.556483 -0.02599907
v 0.1719893 1.650008 -0.0009994507
v 0.1714861 1.658549 0.02400017
v 0.1621777 1.675537 0.00658226
v 0.1997328 1.604173 0.02400017
v 0.1621777 1.675537 0.00658226
v 0.1492108 1.611563 0.02400017
v 0.146424 1.658868 -0.0009994507
v 0.1714861 1.658549 0.02400017
v 0.1524556 1.556483 -0.02599907
v 0.146424 1.658868 -0.0009994507
v 0.2430288 0.0190199 -0.02600002
v 0.2430288 0.01901984 0.02400017
v 0.1492108 1.611563 0.02400017
v 0.1997328 1.604173 0.02400017
v 0.1719893 1.650008 -0.0009994507
v 0.2929423 0.02196032 0.02400017
v 0.2430288 0.0190199 -0.02600002
v 0.1524556 1.556483 -0.02599907
v 0.2430288 0.01901984 0.02400017
v 0.1714861 1.658549 0.02400017
v 0.2929423 0.02196032 0.02400017
v 0.1492108 1.611563 0.02400017
v 0.1997328 1.604173 0.02400017
v 0.01011378 0.01662868 -0.02600002
v 0.01011378 0.01662868 0.02400017
v 0.06 0.01999998 0.02400017
v -0.1282099 2.063447 -0.0009994507
v -0.1032668 2.065133 -0.0009994507
v -0.112998 2.08613 0.00658226
v -0.1247383 2.012077 -0.02600002
v -0.1032668 2.065133 -0.0009994507
v -0.1032668 2.065133 0.02400017
v -0.112998 2.08613 0.00658226
v -0.07485211 2.015449 0.02400017
v -0.112998 2.08613 0.00658226
v -0.1247383 2.012077 0.02400017
v -0.1282099 2.063447 -0.0009994507
v -0.1032668 2.065133 0.02400017
v -0.1247383 2.012077 -0.02600002
v -0.1282099 2.063447 -0.0009994507
v 0.01011378 0.01662868 -0.02600002
v 0.01011378 0.01662868 0.02400017
v -0.1247383 2.012077 0.02400017
v -0.07485211 2.015449 0.02400017
v -0.1032668 2.065133 -0.0009994507
v 0.06 0.01999998 0.02400017
v 0.01011378 0.01662868 -0.02600002
v -0.1247383 2.012077 -0.02600002
v 0.01011378 0.01662868 0.02400017
v -0.1032668 2.065133 0.02400017
v 0.06 0.01999998 0.02400017
v -0.1247383 2.012077 0.02400017
v -0.07485211 2.015449 0.02400017
v -0.269 1.67419 -0.0009994507
v -0.244 1.67419 -0.0009994507
v -0.2522933 1.691612 0.00658226
v -0.269 1.632674 -0.02600002
v -0.244 1.67419 -0.0009994507
v -0.244 1.67419 0.02400017
v -0.2522933 1.691612 0.00658226
v -0.219 1.632674 0.02400017
v -0.2522933 1.691612 0.00658226
v -0.269 1.632674 0.02400017
v -0.269 1.67419 -0.0009994507
v -0.244 1.67419 0.02400017
v -0.269 1.632674 -0.02600002
v -0.269 1.67419 -0.0009994507
v -0.269 0.02000004 -0.02600002
v -0.269 0.01999998 0.02400017
v -0.269 1.632674 0.02400017
v -0.219 0.01999998 0.02400017
v -0.244 0.01999998 0.02400017
v -0.244 0.02000004 -0.001000404
v -0.269 0.01999998 0.02400017
v -0.269 0.02000004 -0.02600002
v -0.269 1.632674 0.02400017
v -0.244 1.67419 0.02400017
v -0.219 1.632674 0.02400017
v -0.219 0.01999998 0.02400017
v -0.244 0.01999998 0.02400017
v -0.269 0.01999998 0.02400017
v -0.219 1.632674 0.02400017
v -0.244 1.67419 -0.0009994507
v -0.269 1.632674 -0.02600002
v -0.219 0.01999998 0.02400017
v -0.244 0.02000004 -0.001000404
v -0.269 0.02000004 -0.02600002

vn 0 0 1
vn 0 0 1
vn 0 0 1
vn 0 0 1
vn -0.9917417 0.1282514 0
vn -0.9917417 0.1282514 0
vn -0.9917417 0.1282514 0
vn -0.9917417 0.1282514 0
vn 0 0 -1
vn 0 0 -1
vn 0 0 -1
vn 0 0 -1
vn 0.9917418 -0.1282502 0
vn 0.9917418 -0.1282502 0
vn 0.9917418 -0.1282502 0
vn 0.9917418 -0.1282502 0
vn 0.128251 0.9917417 0
vn 0.128251 0.9917417 0
vn 0.128251 0.9917417 0
vn 0.128251 0.9917417 0
vn -0.128251 -0.9917417 0
vn -0.128251 -0.9917417 0
vn -0.128251 -0.9917417 0
vn -0.128251 -0.9917417 0
vn 0.1089797 -0.9940439 0
vn 0.1089797 -0.9940439 0
vn 0.1089797 -0.9940439 0
vn 0.1535816 0.2240973 -0.9623893
vn 0.1535816 0.2240973 -0.9623893
vn 0.06284648 0.09170191 -0.9938014
vn 0.2626718 0.3832753 -0.8854962
vn 0.9395053 0.324188 0.1105985
vn 0.9395053 0.324188 0.1105985
vn 0.9808433 0.1903467 0.04140715
vn 0.8012145 0.5516135 0.2319003
vn -0.4026829 0.3193427 0.8578267
vn -0.4026829 0.3193427 0.8578267
vn -0.9803318 0.1234987 -0.1539404
vn 0.3320049 0.2110882 0.9193555
vn -0.4026829 0.3193427 0.8578267
vn -0.4026829 0.3193427 0.8578267
vn -0.994044 -0.1089802 -4.178184E-07
vn -0.9940439 -0.1089802 -4.611151E-07
vn -0.994044 -0.1089802 -1.357322E-07
vn -0.9940439 -0.1089802 -4.749577E-07
vn -0.9940439 -0.1089803 -1.415439E-06
vn 0.7028894 0.07706007 -0.7071127
vn 0.7028964 0.07706092 -0.7071056
vn 0.7028938 0.07706068 -0.7071082
vn 0.7028987 0.07706121 -0.7071033
vn 0.7029042 0.07706165 -0.7070976
vn 0 0 1
vn 0 0 0.9999999
vn 0 0 0.9999999
vn 0 0 1
vn 0 0 0.9999999
vn 0 0 1
vn 0 0 1
vn 0 0 1
vn 0 0 1
vn -1 0 0
vn -1 0 0
vn -1 0 0
vn -1 0 0
vn 0 0 -1
vn 0 0 -1
vn 0 0 -1
vn 0 0 -1
vn 1 0 0
vn 1 0 0
vn 1 0 0
vn 1 0 0
vn 0 1 0
vn 0 1 0
vn 0 1 0
vn 0 1 0
vn -0.0749803 -0.997185 0
vn -0.0749803 -0.997185 0
vn -0.0749803 -0.997185 0
vn -0.8531093 0.4666049 0.2334192
vn -0.8531093 0.4666049 0.2334192
vn -0.6747851 0.3690712 0.6391021
vn -0.8531093 0.4666049 0.2334192
vn -0.8757249 0.4789744 0.06074074
vn -0.8531093 0.4666049 0.2334192
vn -0.2158464 0.4173418 0.8827436
vn -0.2158464 0.4173418 0.8827436
vn -0.6166673 0.3636291 0.6982087
vn -0.02967779 0.4153539 0.9091756
vn -0.6460642 0.3629478 0.6714686
vn -0.6460642 0.3629478 0.6714686
vn -0.6719707 0.3644453 0.6446974
vn -0.6203328 0.361034 0.6963056
vn -0.997185 0.07498009 1.01002E-06
vn -0.9971851 0.07498009 -6.648157E-08
vn -0.9971851 0.07498009 3.371202E-07
vn -0.9971851 0.0749801 -4.293665E-07
vn -0.9971851 0.07498008 -1.312455E-06
vn 0.7051109 -0.05301854 -0.7071121
vn 0.7051177 -0.05301895 -0.7071053
vn 0.7051156 -0.05301876 -0.7071075
vn 0.7051198 -0.05301908 -0.7071031
vn 0.7051241 -0.05301952 -0.7070989
vn 0 0 1
vn 0 0 1
vn 0 0 1
vn 0 0 1
vn 0 0 1
vn 0.05880952 -0.9982693 -1.190025E-06
vn 0.05880952 -0.9982693 -1.190025E-06
vn 0.05880952 -0.9982693 -1.190025E-06
vn 0.08877579 0.2561676 -0.9625471
vn 0.08877579 0.2561676 -0.9625471
vn 0.1116225 0.3220931 -0.9401045
vn 0.08352476 0.2410154 -0.9669205
vn 0.8901331 0.4364102 -0.1311831
vn 0.8901331 0.4364102 -0.1311831
vn 0.9156932 0.3855758 -0.1133011
vn 0.8788835 0.4565516 -0.1382908
vn -0.6674014 0.3185438 0.6731309
vn -0.6674014 0.3185438 0.6731309
vn -0.6632081 0.3187875 0.677148
vn -0.6714023 0.3182998 0.6692564
vn -0.9982693 -0.05880886 -1.257808E-06
vn -0.9982693 -0.05880887 1.265824E-07
vn -0.9982693 -0.05880887 -4.491714E-07
vn -0.9982692 -0.05880887 5.634279E-07
vn -0.9982693 -0.05880885 1.868156E-06
vn 0.7058778 0.04158384 -0.7071121
vn 0.7058808 0.04158423 -0.707109
vn 0.7058821 0.04158423 -0.7071075
vn 0.7058818 0.04158436 -0.7071079
vn 0.7058766 0.04158422 -0.7071131
vn 0 0 0.9999999
vn 0 0 1
vn 0 0 0.9999999
vn 0 0 1
vn 0 0 1
vn 0.06742596 -0.9977244 0
vn 0.06742596 -0.9977244 0
vn 0.06742596 -0.9977244 0
vn -0.02745176 0.40622 -0.9133627
vn -0.02745176 0.40622 -0.9133627
vn -0.02232558 0.3303649 -0.9435892
vn -0.02945106 0.4358048 -0.8995591
vn 0.8800206 0.4749354 0
vn 0.8800206 0.4749354 0
vn 0.9072977 0.4204889 0
vn 0.8680651 0.4964504 0
vn -0.6910674 0.2674976 0.6714692
vn -0.6910674 0.2674976 0.6714692
vn -0.7169213 0.2653003 0.6447012
vn -0.665328 0.2692581 0.6963035
vn -0.9977243 -0.06742606 6.798499E-07
vn -0.9977243 -0.06742605 2.068838E-08
vn -0.9977243 -0.06742605 2.227958E-07
vn -0.9977244 -0.06742605 -1.953303E-07
vn -0.9977242 -0.06742606 -5.960555E-07
vn 0.7054924 0.04767707 -0.707112
vn 0.7054989 0.04767758 -0.7071055
vn 0.7054967 0.04767746 -0.7071076
vn 0.705501 0.04767776 -0.7071034
vn 0.7055053 0.04767795 -0.7070991
vn 0 0 1
vn 0 0 0.9999999
vn 0 0 1
vn 0 0 0.9999999
vn 0 0 1
vn -2.307008E-06 0.4838148 -0.8751704
vn -2.307008E-06 0.4838148 -0.8751704
vn -1.902747E-06 0.399035 -0.9169356
vn -2.459882E-06 0.5158748 -0.856664
vn 0.8706864 0.4918387 0
vn 0.8706864 0.4918387 0
vn 0.9029177 0.4298134 0
vn 0.8566698 0.5158651 0
vn -0.6543834 0.3788851 0.6543916
vn -0.6543834 0.3788851 0.6543916
vn -0.6797187 0.3783696 0.6283462
vn -0.6292346 0.3789093 0.6785954
vn -1 0 0
vn -1 0 0
vn -1 0 0
vn -0.9999999 0 0
vn -1 0 0
vn 0 1 2.384131E-06
vn 0 1 2.384131E-06
vn 0 1 2.384131E-06
vn -7.947082E-07 1 1.589441E-06
vn -1.19207E-06 1 1.192088E-06
vn 0 0 1
vn 0 0 1
vn 0 0 1
vn 0 0 1
vn 0 0 1
vn 0 0 1
vn 0.7071102 2.743333E-07 -0.7071033
vn 0.707108 8.129441E-06 -0.7071055
vn 0.7071059 2.743351E-07 -0.7071078
vn 0.7071148 0 -0.7070987
vn 0.707108 1.046409E-07 -0.7071055
vn 0.7071013 0 -0.7071123

vt 0.7827166 0.03577825
vt 0.7832852 0.9643091
vt 0.8184293 0.03575638
vt 0.818998 0.9642872
vt 0.8190199 0.9999999
vt 0.8904454 0.9999563
vt 0.818998 0.9642872
vt 0.8904235 0.9642435
vt 0.9261362 0.9642216
vt 0.9255674 0.03569075
vt 0.8904235 0.9642435
vt 0.8898547 0.03571266
vt 0.8898329 -5.960464E-08
vt 0.8184074 4.372001E-05
vt 0.8898548 0.03571266
vt 0.8184293 0.03575638
vt 0.8184293 0.03575638
vt 0.818998 0.9642872
vt 0.8898547 0.03571266
vt 0.8904235 0.9642435
vt 0.9255675 0.03569075
vt 0.9261361 0.9642216
vt 0.996993 0.03564706
vt 0.9975616 0.9641779
vt 0.5319917 1
vt 0.5319917 0.9769005
vt 0.5088922 0.9769005
vt 0.5193077 0.007313043
vt 0.5161082 0.01842296
vt 0.5273288 0.01766318
vt 0.4939142 0
vt 0.5161082 0.01842296
vt 0.5204419 0.02913374
vt 0.5273288 0.01766318
vt 0.4959428 0.03904635
vt 0.5273288 0.01766318
vt 0.5319917 0.05292019
vt 0.5366216 0.02688631
vt 0.5204419 0.02913374
vt 0.5319917 0.05292019
vt 0.5273288 0.01766318
vt 0.4762245 0.05292019
vt 0.4646748 0.02913371
vt 0.4762245 0.9769005
vt 0.453125 0.9769005
vt 0.453125 0.05292019
vt 0.5088922 0.05292019
vt 0.4925583 0.02913371
vt 0.5088922 0.9769005
vt 0.4762245 0.9769005
vt 0.4762245 0.05292019
vt 0.5319917 0.9769005
vt 0.5204419 0.02913371
vt 0.5088922 0.9769005
vt 0.5319917 0.05292019
vt 0.5088922 0.05292019
vt 0.546875 0.0357638
vt 0.5473139 0.9643038
vt 0.5825881 0.0357469
vt 0.583027 0.9642869
vt 0.5830439 1
vt 0.6544701 0.9999663
vt 0.5830271 0.9642869
vt 0.6544532 0.9642532
vt 0.6901664 0.9642363
vt 0.6897272 0.03569624
vt 0.6544533 0.9642532
vt 0.6540141 0.03571314
vt 0.6539973 0
vt 0.5825712 3.379583E-05
vt 0.6540142 0.03571311
vt 0.5825881 0.03574687
vt 0.5825879 0.0357469
vt 0.5830271 0.9642869
vt 0.6540141 0.03571311
vt 0.6544533 0.9642532
vt 0.07886663 1
vt 0.07886663 0.9769005
vt 0.05576713 0.9769005
vt 0.06618272 0.00731303
vt 0.06298319 0.01842297
vt 0.07420382 0.01766319
vt 0.06618272 0.00731303
vt 0.04078913 0
vt 0.06298319 0.01842297
vt 0.06298319 0.01842296
vt 0.0673169 0.02913374
vt 0.07420379 0.01766319
vt 0.04281778 0.03904635
vt 0.07420383 0.01766317
vt 0.07886666 0.0529202
vt 0.08349651 0.02688632
vt 0.06731693 0.02913374
vt 0.02309949 0.05292019
vt 0.01154974 0.02913371
vt 0.0230995 0.9769005
vt 1.032629E-08 0.9769005
vt 0 0.05292019
vt 0.05576713 0.05292019
vt 0.03943331 0.02913371
vt 0.05576713 0.9769005
vt 0.02309949 0.9769005
vt 0.02309949 0.05292019
vt 0.07886665 0.9769005
vt 0.06731689 0.02913371
vt 0.05576713 0.9769005
vt 0.07886665 0.05292019
vt 0.05576713 0.05292019
vt 0.4304292 1
vt 0.4304292 0.9769005
vt 0.4073296 0.9769005
vt 0.4177452 0.007313043
vt 0.4145457 0.01842296
vt 0.4257663 0.01766318
vt 0.3923517 0
vt 0.4145457 0.01842296
vt 0.4188794 0.02913374
vt 0.4257663 0.01766318
vt 0.3943803 0.03904635
vt 0.4257663 0.01766318
vt 0.4304292 0.05292019
vt 0.435059 0.02688631
vt 0.4188794 0.02913374
vt 0.374662 0.05292019
vt 0.3631123 0.02913371
vt 0.374662 0.9769005
vt 0.3515625 0.9769005
vt 0.3515625 0.05292019
vt 0.4073296 0.05292019
vt 0.3909958 0.02913371
vt 0.4073296 0.9769005
vt 0.374662 0.9769005
vt 0.374662 0.05292019
vt 0.4304292 0.9769005
vt 0.4188794 0.02913371
vt 0.4073296 0.9769005
vt 0.4304292 0.05292019
vt 0.4073296 0.05292019
vt 0.3171479 1
vt 0.3171479 0.9769005
vt 0.2940484 0.9769005
vt 0.304464 0.007313043
vt 0.3012645 0.01842296
vt 0.3124851 0.01766318
vt 0.2790704 0
vt 0.3012645 0.01842296
vt 0.3055982 0.02913374
vt 0.3124851 0.01766318
vt 0.2810991 0.03904635
vt 0.3124851 0.01766318
vt 0.3171479 0.05292019
vt 0.3217778 0.02688631
vt 0.3055982 0.02913374
vt 0.2613808 0.05292019
vt 0.249831 0.02913371
vt 0.2613808 0.9769005
vt 0.2382813 0.9769005
vt 0.2382813 0.05292019
vt 0.2940484 0.05292019
vt 0.2777146 0.02913371
vt 0.2940484 0.9769005
vt 0.2613808 0.9769005
vt 0.2613808 0.05292019
vt 0.3171479 0.9769005
vt 0.3055982 0.02913371
vt 0.2940484 0.9769005
vt 0.3171479 0.05292019
vt 0.2940484 0.05292019
vt 0.1329304 0.03932989
vt 0.1367013 0.02573633
vt 0.1251414 0.02738598
vt 0.1592244 0.04662395
vt 0.1367013 0.02573633
vt 0.1297393 0.01347968
vt 0.1251414 0.02738598
vt 0.1534703 0
vt 0.1251414 0.02738598
vt 0.1188376 0.06273291
vt 0.1329304 0.03932989
vt 0.1132812 0.03598553
vt 0.1470232 0.06273291
vt 0.1329304 0.03932995
vt 0.1470232 0.9718145
vt 0.1188376 0.9718145
vt 0.1188376 0.06273291
vt 0.1188376 1
vt 0.1188376 0.9859073
vt 0.1329304 0.9859073
vt 0.1188376 0.9718145
vt 0.1470232 0.9718145
vt 0.2150691 0.06273282
vt 0.2009763 0.03932989
vt 0.1868835 0.06273282
vt 0.1868835 0.9718145
vt 0.2009763 0.9718145
vt 0.2150691 0.9718145
vt 0.1868835 0.06273291
vt 0.1669534 0.03932989
vt 0.1470232 0.06273291
vt 0.1868835 0.9718145
vt 0.1669534 0.9718145
vt 0.1470232 0.9718145

g Default_Prototype
usemtl Default_Prototype
usemap Default_Prototype
f 2/2/2 1/1/1 3/3/3
f 4/4/4 2/2/2 3/3/3
f 6/6/6 5/5/5 7/7/7
f 8/8/8 6/6/6 7/7/7
f 10/10/10 9/9/9 11/11/11
f 12/12/12 10/10/10 11/11/11
f 14/14/14 13/13/13 15/15/15
f 16/16/16 14/14/14 15/15/15
f 18/18/18 17/17/17 19/19/19
f 20/20/20 18/18/18 19/19/19
f 22/22/22 21/21/21 23/23/23
f 24/24/24 22/22/22 23/23/23
f 26/26/26 25/25/25 27/27/27
f 29/29/29 28/28/28 30/30/30
f 31/31/31 28/28/28 29/29/29
f 33/33/33 32/32/32 34/34/34
f 35/35/35 32/32/32 33/33/33
f 37/37/37 36/36/36 38/38/38
f 40/40/40 39/39/39 41/41/41
f 43/43/43 42/42/42 44/44/44
f 43/43/43 44/44/44 45/45/45
f 43/43/43 45/45/45 46/46/46
f 48/48/48 47/47/47 49/49/49
f 48/48/48 49/49/49 50/50/50
f 48/48/48 50/50/50 51/51/51
f 53/53/53 52/52/52 54/54/54
f 53/53/53 55/55/55 52/52/52
f 53/53/53 54/54/54 56/56/56
f 58/58/58 57/57/57 59/59/59
f 60/60/60 58/58/58 59/59/59
f 62/62/62 61/61/61 63/63/63
f 64/64/64 62/62/62 63/63/63
f 66/66/66 65/65/65 67/67/67
f 68/68/68 66/66/66 67/67/67
f 70/70/70 69/69/69 71/71/71
f 72/72/72 70/70/70 71/71/71
f 74/74/74 73/73/73 75/75/75
f 76/76/76 74/74/74 75/75/75
f 78/78/78 77/77/77 79/79/79
f 81/81/81 80/80/80 82/82/82
f 84/84/84 83/83/83 85/85/85
f 87/87/87 86/86/86 88/88/88
f 89/89/89 86/86/86 87/87/87
f 91/91/91 90/90/90 92/92/92
f 91/91/91 93/93/93 90/90/90
f 95/95/95 94/94/94 96/96/96
f 95/95/95 96/96/96 97/97/97
f 95/95/95 97/97/97 98/98/98
f 100/100/100 99/99/99 101/101/101
f 100/100/100 101/101/101 102/102/102
f 100/100/100 102/102/102 103/103/103
f 105/105/105 104/104/104 106/106/106
f 105/105/105 107/107/107 104/104/104
f 105/105/105 106/106/106 108/108/108
f 110/110/110 109/109/109 111/111/111
f 113/113/113 112/112/112 114/114/114
f 115/115/115 112/112/112 113/113/113
f 117/117/117 116/116/116 118/118/118
f 119/119/119 116/116/116 117/117/117
f 121/121/121 120/120/120 122/122/122
f 121/121/121 123/123/123 120/120/120
f 125/125/125 124/124/124 126/126/126
f 125/125/125 126/126/126 127/127/127
f 125/125/125 127/127/127 128/128/128
f 130/130/130 129/129/129 131/131/131
f 130/130/130 131/131/131 132/132/132
f 130/130/130 132/132/132 133/133/133
f 135/135/135 134/134/134 136/136/136
f 135/135/135 137/137/137 134/134/134
f 135/135/135 136/136/136 138/138/138
f 140/140/140 139/139/139 141/141/141
f 143/143/143 142/142/142 144/144/144
f 145/145/145 142/142/142 143/143/143
f 147/147/147 146/146/146 148/148/148
f 149/149/149 146/146/146 147/147/147
f 151/151/151 150/150/150 152/152/152
f 151/151/151 153/153/153 150/150/150
f 155/155/155 154/154/154 156/156/156
f 155/155/155 156/156/156 157/157/157
f 155/155/155 157/157/157 158/158/158
f 160/160/160 159/159/159 161/161/161
f 160/160/160 161/161/161 162/162/162
f 160/160/160 162/162/162 163/163/163
f 165/165/165 164/164/164 166/166/166
f 165/165/165 167/167/167 164/164/164
f 165/165/165 166/166/166 168/168/168
f 170/170/170 169/169/169 171/171/171
f 172/172/172 169/169/169 170/170/170
f 174/174/174 173/173/173 175/175/175
f 176/176/176 173/173/173 174/174/174
f 178/178/178 177/177/177 179/179/179
f 178/178/178 180/180/180 177/177/177
f 182/182/182 181/181/181 183/183/183
f 182/182/182 183/183/183 184/184/184
f 182/182/182 184/184/184 185/185/185
f 187/187/187 186/186/186 188/188/188
f 190/190/190 189/189/189 188/188/188
f 189/189/189 187/187/187 188/188/188
f 192/192/192 191/191/191 193/193/193
f 194/194/194 193/193/193 195/195/195
f 191/191/191 196/196/196 195/195/195
f 193/193/193 191/191/191 195/195/195
f 198/198/198 197/197/197 199/199/199
f 197/197/197 200/200/200 201/201/201
f 199/199/199 197/197/197 201/201/201
f 202/202/202 199/199/199 201/201/201
