mtllib ./MetalSpikeBase1.mtl
g MetalSpikesBase1
v 0.65 0 0.05000019
v -0.65 0 0.05000019
v 0.65 0.05 0.05000019
v -0.65 0.05 0.05000019
v -0.65 0 0.05000019
v -0.65 0 -0.04999981
v -0.65 0.05 0.05000019
v -0.65 0.05 -0.04999981
v -0.65 0 -0.04999981
v 0.65 0 -0.04999981
v -0.65 0.05 -0.04999981
v 0.65 0.05 -0.04999981
v 0.65 0 -0.04999981
v 0.65 0 0.05000019
v 0.65 0.05 -0.04999981
v 0.65 0.05 0.05000019
v 0.65 0.05 0.05000019
v -0.65 0.05 0.05000019
v 0.65 0.05 -0.04999981
v -0.65 0.05 -0.04999981

vn 0 0 1
vn 0 0 1
vn 0 0 1
vn 0 0 1
vn -1 0 0
vn -1 0 0
vn -1 0 0
vn -1 0 0
vn 0 0 -1
vn 0 0 -1
vn 0 0 -1
vn 0 0 -1
vn 1 0 0
vn 1 0 0
vn 1 0 0
vn 1 0 0
vn 0 1 0
vn 0 1 0
vn 0 1 0
vn 0 1 0

vt 0.546875 0.0357638
vt 0.5473139 0.9643038
vt 0.5825881 0.0357469
vt 0.583027 0.9642869
vt 0.5830439 1
vt 0.6544701 0.9999663
vt 0.5830271 0.9642869
vt 0.6544532 0.9642532
vt 0.6901664 0.9642363
vt 0.6897272 0.03569624
vt 0.6544533 0.9642532
vt 0.6540141 0.03571314
vt 0.6539973 0
vt 0.5825712 3.379583E-05
vt 0.6540142 0.03571311
vt 0.5825881 0.03574687
vt 0.5825879 0.0357469
vt 0.5830271 0.9642869
vt 0.6540141 0.03571311
vt 0.6544533 0.9642532

g Default_Prototype
usemtl Default_Prototype
usemap Default_Prototype
f 2/2/2 1/1/1 3/3/3
f 4/4/4 2/2/2 3/3/3
f 6/6/6 5/5/5 7/7/7
f 8/8/8 6/6/6 7/7/7
f 10/10/10 9/9/9 11/11/11
f 12/12/12 10/10/10 11/11/11
f 14/14/14 13/13/13 15/15/15
f 16/16/16 14/14/14 15/15/15
f 18/18/18 17/17/17 19/19/19
f 20/20/20 18/18/18 19/19/19
