mtllib ./MetalSpike5.mtl
g MetalSpike5
v -0.0166667 -0.03333282 -1.776357E-15
v -0.0166667 0.01666721 -1.776357E-15
v 0.0333333 0.01666721 -1.776357E-15
v -0.0166667 -0.008332781 -1.667679
v 0.008333301 -0.008332774 -1.64619
v 4.002079E-05 -0.0007507093 -1.742691
v -0.0166667 -0.03333278 -1.604852
v 0.008333301 -0.008332774 -1.64619
v 0.008333301 0.01666721 -1.633615
v 4.002079E-05 -0.0007507093 -1.742691
v 0.0333333 0.01666721 -1.587165
v 4.002079E-05 -0.0007507093 -1.742691
v -0.0166667 0.01666721 -1.68444
v -0.0166667 -0.008332781 -1.667679
v 0.008333301 0.01666721 -1.633615
v -0.0166667 0.01666721 -1.68444
v 4.002079E-05 -0.0007507093 -1.742691
v -0.0166667 -0.03333278 -1.604852
v -0.0166667 -0.008332781 -1.667679
v -0.0166667 -0.03333282 -1.776357E-15
v -0.0166667 0.01666721 -1.776357E-15
v -0.0166667 0.01666721 -1.68444
v 0.0333333 0.01666721 -1.587165
v 0.008333301 -0.008332774 -1.64619
v 0.0333333 0.01666721 -1.776357E-15
v -0.0166667 -0.03333282 -1.776357E-15
v -0.0166667 -0.03333278 -1.604852
v -0.0166667 0.01666721 -1.776357E-15
v 0.008333301 0.01666721 -1.633615
v 0.0333333 0.01666721 -1.776357E-15
v -0.0166667 0.01666721 -1.68444
v 0.0333333 0.01666721 -1.587165

vn 0 0 1
vn 0 0 1
vn 0 0 1
vn 0.1770886 -0.9623895 -0.2060241
vn 0.1770886 -0.9623895 -0.2060241
vn 0.07246973 -0.9938006 -0.08431077
vn 0.3028718 -0.8855005 -0.35236
vn 0.9692394 0.110599 -0.2198698
vn 0.9692394 0.110599 -0.2198698
vn 0.9957452 0.041409 -0.08232069
vn 0.856558 0.2318984 -0.4610117
vn -0.3654892 0.8578231 -0.3613269
vn -0.3654892 0.8578231 -0.3613269
vn -0.9610342 -0.1539366 -0.2296011
vn 0.353033 0.919355 -0.1736493
vn -0.3654892 0.8578231 -0.3613269
vn -0.3654892 0.8578231 -0.3613269
vn -1 0 0
vn -1 0 0
vn -1 0 0
vn -1 0 0
vn -0.9999999 0 0
vn 0.7071065 -0.7071069 -3.319351E-09
vn 0.7071068 -0.7071067 -1.279635E-08
vn 0.7071069 -0.7071068 -1.05269E-08
vn 0.7071069 -0.7071066 -1.586779E-08
vn 0.7071068 -0.7071068 -1.96966E-08
vn -5.221971E-08 0.9999999 3.761651E-09
vn -4.166154E-08 1 3.988025E-09
vn -2.851674E-09 1 4.604435E-09
vn -1.535078E-07 1 2.21159E-09
vn -8.721936E-09 1 4.694271E-09

vt 0.5319917 1
vt 0.5319917 0.9769005
vt 0.5088922 0.9769005
vt 0.5193077 0.007313043
vt 0.5161082 0.01842296
vt 0.5273288 0.01766318
vt 0.4939142 0
vt 0.5161082 0.01842296
vt 0.5204419 0.02913374
vt 0.5273288 0.01766318
vt 0.4959428 0.03904635
vt 0.5273288 0.01766318
vt 0.5319917 0.05292019
vt 0.5366216 0.02688631
vt 0.5204419 0.02913374
vt 0.5319917 0.05292019
vt 0.5273288 0.01766318
vt 0.4762245 0.05292019
vt 0.4646748 0.02913371
vt 0.4762245 0.9769005
vt 0.453125 0.9769005
vt 0.453125 0.05292019
vt 0.5088922 0.05292019
vt 0.4925583 0.02913371
vt 0.5088922 0.9769005
vt 0.4762245 0.9769005
vt 0.4762245 0.05292019
vt 0.5319917 0.9769005
vt 0.5204419 0.02913371
vt 0.5088922 0.9769005
vt 0.5319917 0.05292019
vt 0.5088922 0.05292019

g Default_Prototype
usemtl Default_Prototype
usemap Default_Prototype
f 2/2/2 1/1/1 3/3/3
f 5/5/5 4/4/4 6/6/6
f 7/7/7 4/4/4 5/5/5
f 9/9/9 8/8/8 10/10/10
f 11/11/11 8/8/8 9/9/9
f 13/13/13 12/12/12 14/14/14
f 16/16/16 15/15/15 17/17/17
f 19/19/19 18/18/18 20/20/20
f 19/19/19 20/20/20 21/21/21
f 19/19/19 21/21/21 22/22/22
f 24/24/24 23/23/23 25/25/25
f 24/24/24 25/25/25 26/26/26
f 24/24/24 26/26/26 27/27/27
f 29/29/29 28/28/28 30/30/30
f 29/29/29 31/31/31 28/28/28
f 29/29/29 30/30/30 32/32/32
