mtllib ./MetalSpikeBase2.mtl
g MetalSpikesBase2
v 0.65 0 0.05000019
v -0.65 0 0.05000019
v 0.65 0.05 0.05000019
v -0.65 0.05 0.05000019
v -0.65 0 0.05000019
v -0.65 0 -0.04999981
v -0.65 0.05 0.05000019
v -0.65 0.05 -0.04999981
v -0.65 0 -0.04999981
v 0.65 0 -0.04999981
v -0.65 0.05 -0.04999981
v 0.65 0.05 -0.04999981
v 0.65 0 -0.04999981
v 0.65 0 0.05000019
v 0.65 0.05 -0.04999981
v 0.65 0.05 0.05000019
v 0.65 0.05 0.05000019
v -0.65 0.05 0.05000019
v 0.65 0.05 -0.04999981
v -0.65 0.05 -0.04999981
v 0.65 0 -0.04999981
v -0.65 0 -0.04999981
v 0.65 0 0.05000019
v -0.65 0 0.05000019

vn 0 0 1
vn 0 0 1
vn 0 0 1
vn 0 0 1
vn -1 0 0
vn -1 0 0
vn -1 0 0
vn -1 0 0
vn 0 0 -1
vn 0 0 -1
vn 0 0 -1
vn 0 0 -1
vn 1 0 0
vn 1 0 0
vn 1 0 0
vn 1 0 0
vn 0 1 0
vn 0 1 0
vn 0 1 0
vn 0 1 0
vn 0 -1 0
vn 0 -1 0
vn 0 -1 0
vn 0 -1 0

vt 0.7827166 0.03577825
vt 0.7832852 0.9643091
vt 0.8184293 0.03575638
vt 0.818998 0.9642872
vt 0.8190199 0.9999999
vt 0.8904454 0.9999563
vt 0.818998 0.9642872
vt 0.8904235 0.9642435
vt 0.9261362 0.9642216
vt 0.9255674 0.03569075
vt 0.8904235 0.9642435
vt 0.8898547 0.03571266
vt 0.8898329 -5.960464E-08
vt 0.8184074 4.372001E-05
vt 0.8898548 0.03571266
vt 0.8184293 0.03575638
vt 0.8184293 0.03575638
vt 0.818998 0.9642872
vt 0.8898547 0.03571266
vt 0.8904235 0.9642435
vt 0.9255675 0.03569075
vt 0.9261361 0.9642216
vt 0.996993 0.03564706
vt 0.9975616 0.9641779

g Default_Prototype
usemtl Default_Prototype
usemap Default_Prototype
f 2/2/2 1/1/1 3/3/3
f 4/4/4 2/2/2 3/3/3
f 6/6/6 5/5/5 7/7/7
f 8/8/8 6/6/6 7/7/7
f 10/10/10 9/9/9 11/11/11
f 12/12/12 10/10/10 11/11/11
f 14/14/14 13/13/13 15/15/15
f 16/16/16 14/14/14 15/15/15
f 18/18/18 17/17/17 19/19/19
f 20/20/20 18/18/18 19/19/19
f 22/22/22 21/21/21 23/23/23
f 24/24/24 22/22/22 23/23/23
