mtllib ./MetalSpikeGroup1.mtl
g MetalSpikeGroup1
v 0.65 0.9039999 0.05000019
v -0.65 0.9039999 0.05000019
v 0.65 0.9539999 0.05000019
v -0.65 0.9539999 0.05000019
v -0.65 0.9039999 0.05000019
v -0.65 0.9039999 -0.05000019
v -0.65 0.9539999 0.05000019
v -0.65 0.9539999 -0.05000019
v -0.65 0.9039999 -0.05000019
v 0.65 0.9039999 -0.05000019
v -0.65 0.9539999 -0.05000019
v 0.65 0.9539999 -0.05000019
v 0.65 0.9039999 -0.05000019
v 0.65 0.9039999 0.05000019
v 0.65 0.9539999 -0.05000019
v 0.65 0.9539999 0.05000019
v 0.65 0.9539999 0.05000019
v -0.65 0.9539999 0.05000019
v 0.65 0.9539999 -0.05000019
v -0.65 0.9539999 -0.05000019
v 0.65 0.9039999 -0.05000019
v -0.65 0.9039999 -0.05000019
v 0.65 0.9039999 0.05000019
v -0.65 0.9039999 0.05000019
v 0.5300001 -0.005000055 -0.02600002
v 0.5300001 -0.005000055 0.02400017
v 0.58 -0.005000055 0.02400017
v 0.5300001 1.662679 -0.0009994507
v 0.5550001 1.64119 -0.0009994507
v 0.5467068 1.737691 0.00658226
v 0.5300001 1.599852 -0.02600002
v 0.5550001 1.64119 -0.0009994507
v 0.5550001 1.628614 0.02400017
v 0.5467068 1.737691 0.00658226
v 0.58 1.582165 0.02400017
v 0.5467068 1.737691 0.00658226
v 0.5300001 1.67944 0.02400017
v 0.5300001 1.662679 -0.0009994507
v 0.5550001 1.628614 0.02400017
v 0.5300001 1.67944 0.02400017
v 0.5467068 1.737691 0.00658226
v 0.5300001 1.599852 -0.02600002
v 0.5300001 1.662679 -0.0009994507
v 0.5300001 -0.005000055 -0.02600002
v 0.5300001 -0.005000055 0.02400017
v 0.5300001 1.67944 0.02400017
v 0.58 1.582165 0.02400017
v 0.5550001 1.64119 -0.0009994507
v 0.58 -0.005000055 0.02400017
v 0.5300001 -0.005000055 -0.02600002
v 0.5300001 1.599852 -0.02600002
v 0.5300001 -0.005000055 0.02400017
v 0.5550001 1.628614 0.02400017
v 0.58 -0.005000055 0.02400017
v 0.5300001 1.67944 0.02400017
v 0.58 1.582165 0.02400017
v 0.65 -0.02500004 0.05000019
v -0.65 -0.02500004 0.05000019
v 0.65 0.02499998 0.05000019
v -0.65 0.02499998 0.05000019
v -0.65 -0.02500004 0.05000019
v -0.65 -0.02500004 -0.05000019
v -0.65 0.02499998 0.05000019
v -0.65 0.02499998 -0.05000019
v -0.65 -0.02500004 -0.05000019
v 0.65 -0.02500004 -0.05000019
v -0.65 0.02499998 -0.05000019
v 0.65 0.02499998 -0.05000019
v 0.65 -0.02500004 -0.05000019
v 0.65 -0.02500004 0.05000019
v 0.65 0.02499998 -0.05000019
v 0.65 0.02499998 0.05000019
v 0.65 0.02499998 0.05000019
v -0.65 0.02499998 0.05000019
v 0.65 0.02499998 -0.05000019
v -0.65 0.02499998 -0.05000019
v -0.5566666 -0.005000055 -0.02600002
v -0.5566666 -0.005000055 0.02400017
v -0.5066666 -0.005000055 0.02400017
v -0.5566666 1.8631 -0.0009994507
v -0.5316666 1.918272 -0.0009994507
v -0.5399599 1.884706 0.00658226
v -0.5566666 1.8631 -0.0009994507
v -0.5566666 1.866786 -0.02600002
v -0.5316666 1.918272 -0.0009994507
v -0.5316666 1.918272 -0.0009994507
v -0.5316666 1.8631 0.02400017
v -0.5399599 1.884706 0.00658226
v -0.5066666 1.866786 0.02400017
v -0.5399599 1.884706 0.00658226
v -0.5566666 1.811613 0.02400017
v -0.5566666 1.8631 -0.0009994507
v -0.5316666 1.8631 0.02400017
v -0.5566666 1.866786 -0.02600002
v -0.5566666 1.8631 -0.0009994507
v -0.5566666 -0.005000055 -0.02600002
v -0.5566666 -0.005000055 0.02400017
v -0.5566666 1.811613 0.02400017
v -0.5066666 1.866786 0.02400017
v -0.5316666 1.918272 -0.0009994507
v -0.5066666 -0.005000055 0.02400017
v -0.5566666 -0.005000055 -0.02600002
v -0.5566666 1.866786 -0.02600002
v -0.5566666 -0.005000055 0.02400017
v -0.5316666 1.8631 0.02400017
v -0.5066666 -0.005000055 0.02400017
v -0.5566666 1.811613 0.02400017
v -0.5066666 1.866786 0.02400017
v 0.243 -0.004999995 -0.02600002
v 0.243 -0.005000055 0.02400017
v 0.293 -0.005000055 0.02400017
v 0.243 1.637691 -0.0009994507
v 0.268 1.627343 -0.0009994507
v 0.2597067 1.653405 0.00658226
v 0.243 1.535128 -0.02600002
v 0.268 1.627343 -0.0009994507
v 0.268 1.635899 0.02400017
v 0.2597067 1.653405 0.00658226
v 0.293 1.579955 0.02400017
v 0.2597067 1.653405 0.00658226
v 0.243 1.590304 0.02400017
v 0.243 1.637691 -0.0009994507
v 0.268 1.635899 0.02400017
v 0.243 1.535128 -0.02600002
v 0.243 1.637691 -0.0009994507
v 0.243 -0.004999995 -0.02600002
v 0.243 -0.005000055 0.02400017
v 0.243 1.590304 0.02400017
v 0.293 1.579955 0.02400017
v 0.268 1.627343 -0.0009994507
v 0.293 -0.005000055 0.02400017
v 0.243 -0.004999995 -0.02600002
v 0.243 1.535128 -0.02600002
v 0.243 -0.005000055 0.02400017
v 0.268 1.635899 0.02400017
v 0.293 -0.005000055 0.02400017
v 0.243 1.590304 0.02400017
v 0.293 1.579955 0.02400017
v 0.00999999 -0.005000055 -0.02600002
v 0.00999999 -0.005000055 0.02400017
v 0.06 -0.005000055 0.02400017
v 0.00999999 2.046487 -0.0009994507
v 0.03500003 2.046487 -0.0009994507
v 0.0267067 2.068093 0.00658226
v 0.00999999 1.995 -0.02600002
v 0.03500003 2.046487 -0.0009994507
v 0.03500003 2.046487 0.02400017
v 0.0267067 2.068093 0.00658226
v 0.06 1.995 0.02400017
v 0.0267067 2.068093 0.00658226
v 0.00999999 1.995 0.02400017
v 0.00999999 2.046487 -0.0009994507
v 0.03500003 2.046487 0.02400017
v 0.00999999 1.995 -0.02600002
v 0.00999999 2.046487 -0.0009994507
v 0.00999999 -0.005000055 -0.02600002
v 0.00999999 -0.005000055 0.02400017
v 0.00999999 1.995 0.02400017
v 0.06 1.995 0.02400017
v 0.03500003 2.046487 -0.0009994507
v 0.06 -0.005000055 0.02400017
v 0.00999999 -0.005000055 -0.02600002
v 0.00999999 1.995 -0.02600002
v 0.00999999 -0.005000055 0.02400017
v 0.03500003 2.046487 0.02400017
v 0.06 -0.005000055 0.02400017
v 0.00999999 1.995 0.02400017
v 0.06 1.995 0.02400017
v -0.269 1.64919 -0.0009994507
v -0.244 1.64919 -0.0009994507
v -0.2522933 1.666612 0.00658226
v -0.269 1.607674 -0.02600002
v -0.244 1.64919 -0.0009994507
v -0.244 1.64919 0.02400017
v -0.2522933 1.666612 0.00658226
v -0.219 1.607674 0.02400017
v -0.2522933 1.666612 0.00658226
v -0.269 1.607674 0.02400017
v -0.269 1.64919 -0.0009994507
v -0.244 1.64919 0.02400017
v -0.269 1.607674 -0.02600002
v -0.269 1.64919 -0.0009994507
v -0.269 -0.004999995 -0.02600002
v -0.269 -0.005000055 0.02400017
v -0.269 1.607674 0.02400017
v -0.219 -0.005000055 0.02400017
v -0.244 -0.005000055 0.02400017
v -0.244 -0.004999995 -0.001000404
v -0.269 -0.005000055 0.02400017
v -0.269 -0.004999995 -0.02600002
v -0.269 1.607674 0.02400017
v -0.244 1.64919 0.02400017
v -0.219 1.607674 0.02400017
v -0.219 -0.005000055 0.02400017
v -0.244 -0.005000055 0.02400017
v -0.269 -0.005000055 0.02400017
v -0.219 1.607674 0.02400017
v -0.244 1.64919 -0.0009994507
v -0.269 1.607674 -0.02600002
v -0.219 -0.005000055 0.02400017
v -0.244 -0.004999995 -0.001000404
v -0.269 -0.004999995 -0.02600002

vn 0 0 1
vn 0 0 1
vn 0 0 1
vn 0 0 1
vn -1 0 0
vn -1 0 0
vn -1 0 0
vn -1 0 0
vn 0 0 -1
vn 0 0 -1
vn 0 0 -1
vn 0 0 -1
vn 1 0 0
vn 1 0 0
vn 1 0 0
vn 1 0 0
vn 0 1 0
vn 0 1 0
vn 0 1 0
vn 0 1 0
vn 0 -1 0
vn 0 -1 0
vn 0 -1 0
vn 0 -1 0
vn 0 -0.9999999 0
vn 0 -0.9999999 0
vn 0 -0.9999999 0
vn 0.1770905 0.2060253 -0.962389
vn 0.1770905 0.2060253 -0.962389
vn 0.07246648 0.08430678 -0.9938012
vn 0.3028788 0.3523662 -0.8854956
vn 0.9692394 0.2198697 0.1105995
vn 0.9692394 0.2198697 0.1105995
vn 0.9957452 0.08232064 0.04140919
vn 0.8565578 0.4610112 0.2318994
vn -0.3654819 0.3613257 0.8578268
vn -0.3654819 0.3613257 0.8578268
vn -0.9610342 0.2296004 -0.1539384
vn 0.3530332 0.1736491 0.919355
vn -0.3654819 0.3613257 0.8578268
vn -0.3654819 0.3613257 0.8578268
vn -1 0 0
vn -1 0 0
vn -1 0 0
vn -1 0 0
vn -1 0 0
vn 0.7071018 0 -0.7071118
vn 0.7071085 1.040971E-07 -0.7071051
vn 0.7071064 1.383345E-07 -0.7071073
vn 0.7071106 1.37834E-07 -0.7071028
vn 0.7071152 0 -0.7070983
vn 0 0 1
vn 0 0 1
vn 0 0 1
vn 0 0 1
vn 0 0 1
vn 0 0 1
vn 0 0 1
vn 0 0 1
vn 0 0 1
vn -1 0 0
vn -1 0 0
vn -1 0 0
vn -1 0 0
vn 0 0 -1
vn 0 0 -1
vn 0 0 -1
vn 0 0 -1
vn 1 0 0
vn 1 0 0
vn 1 0 0
vn 1 0 0
vn 0 1 0
vn 0 1 0
vn 0 1 0
vn 0 1 0
vn 0 -1 0
vn 0 -1 0
vn 0 -1 0
vn -0.8856938 0.4013268 0.2334165
vn -0.8856938 0.4013268 0.2334165
vn -0.7005594 0.3174385 0.6391004
vn -0.8856938 0.4013268 0.2334165
vn -0.9091729 0.4119657 0.06073802
vn -0.8856938 0.4013268 0.2334165
vn -0.2465305 0.399984 0.8827431
vn -0.2465305 0.399984 0.8827431
vn -0.6421942 0.3163693 0.6982099
vn -0.06073861 0.4119608 0.909175
vn -0.6714593 0.3134838 0.6714689
vn -0.6714593 0.3134838 0.6714689
vn -0.6974048 0.3130347 0.6446983
vn -0.6456572 0.3135048 0.6963056
vn -1 0 0
vn -1 0 0
vn -1 0 0
vn -1 0 0
vn -1 0 0
vn 0.7071009 0 -0.7071127
vn 0.707108 9.457194E-08 -0.7071055
vn 0.7071057 1.255286E-07 -0.7071078
vn 0.7071104 1.255279E-07 -0.7071031
vn 0.7071152 0 -0.7070984
vn 0 0 1
vn 0 0 1
vn 0 0 1
vn 0 0 1
vn 0 0 1
vn 0 -1 -1.192088E-06
vn 0 -1 -1.192088E-06
vn 0 -1 -1.192088E-06
vn 0.1036896 0.2505106 -0.962545
vn 0.1036896 0.2505106 -0.962545
vn 0.1303711 0.3149722 -0.9401042
vn 0.09755724 0.2356949 -0.9669179
vn 0.914257 0.3833076 -0.1311835
vn 0.914257 0.3833076 -0.1311835
vn 0.936783 0.3310594 -0.113302
vn 0.9042118 0.4040751 -0.138291
vn -0.6475131 0.3572418 0.6731307
vn -0.6475131 0.3572418 0.6731307
vn -0.6433133 0.3572387 0.6771474
vn -0.6515208 0.3572336 0.6692568
vn -1 0 0
vn -0.9999999 0 0
vn -1 0 0
vn -1 0 0
vn -1 0 0
vn 0.7071017 0 -0.7071118
vn 0.707108 9.893965E-08 -0.7071056
vn 0.707106 1.303609E-07 -0.7071076
vn 0.70711 1.315763E-07 -0.7071035
vn 0.7071143 0 -0.7070991
vn 0 0 1
vn 0 0 1
vn 0 0 1
vn 0 0 1
vn 0 0 1
vn 0 -1 0
vn 0 -1 0
vn 0 -1 0
vn 0 0.407145 -0.9133636
vn 0 0.407145 -0.9133636
vn 0 0.3311137 -0.9435908
vn 0 0.4367988 -0.8995593
vn 0.9100417 0.4145168 0
vn 0.9100417 0.4145168 0
vn 0.9335866 0.358352 0
vn 0.8995633 0.4367903 0
vn -0.6714585 0.3134834 0.6714697
vn -0.6714585 0.3134834 0.6714697
vn -0.6974044 0.3130343 0.6446989
vn -0.6456563 0.3135044 0.6963068
vn -1 0 0
vn -1 0 0
vn -1 0 0
vn -1 0 0
vn -1 0 0
vn 0.7071018 0 -0.7071119
vn 0.7071081 7.802092E-08 -0.7071055
vn 0.707106 1.035894E-07 -0.7071075
vn 0.7071102 1.035887E-07 -0.7071034
vn 0.7071144 0 -0.7070993
vn 0 0 0.9999999
vn 0 0 1
vn 0 0 1
vn 0 0 1
vn 0 0 1
vn 0 0.4838143 -0.8751706
vn 0 0.4838143 -0.8751706
vn 0 0.3990335 -0.9169364
vn 0 0.5158748 -0.856664
vn 0.8706864 0.4918387 0
vn 0.8706864 0.4918387 0
vn 0.9029189 0.4298111 0
vn 0.8566691 0.5158662 0
vn -0.6543825 0.3788851 0.6543926
vn -0.6543825 0.3788851 0.6543926
vn -0.6797187 0.3783696 0.6283462
vn -0.6292328 0.3789093 0.678597
vn -1 0 0
vn -1 0 0
vn -1 0 0
vn -1 0 0
vn -1 0 0
vn 0 1 2.384131E-06
vn 0 1 2.384131E-06
vn 0 1 2.384131E-06
vn -7.947082E-07 1 1.589441E-06
vn -1.19207E-06 1 1.192088E-06
vn 0 0 1
vn 0 0 1
vn 0 0 1
vn 0 0 1
vn 0 0 1
vn 0 0 1
vn 0.7071103 2.743333E-07 -0.7071033
vn 0.7071081 8.129465E-06 -0.7071055
vn 0.7071059 2.74335E-07 -0.7071077
vn 0.7071148 0 -0.7070988
vn 0.707108 1.046409E-07 -0.7071055
vn 0.7071013 0 -0.7071123

vt 0.7827166 0.03577825
vt 0.7832852 0.9643091
vt 0.8184293 0.03575638
vt 0.818998 0.9642872
vt 0.8190199 0.9999999
vt 0.8904454 0.9999563
vt 0.818998 0.9642872
vt 0.8904235 0.9642435
vt 0.9261362 0.9642216
vt 0.9255674 0.03569075
vt 0.8904235 0.9642435
vt 0.8898547 0.03571266
vt 0.8898329 -5.960464E-08
vt 0.8184074 4.372001E-05
vt 0.8898548 0.03571266
vt 0.8184293 0.03575638
vt 0.8184293 0.03575638
vt 0.818998 0.9642872
vt 0.8898547 0.03571266
vt 0.8904235 0.9642435
vt 0.9255675 0.03569075
vt 0.9261361 0.9642216
vt 0.996993 0.03564706
vt 0.9975616 0.9641779
vt 0.5319917 1
vt 0.5319917 0.9769005
vt 0.5088922 0.9769005
vt 0.5193077 0.007313043
vt 0.5161082 0.01842296
vt 0.5273288 0.01766318
vt 0.4939142 0
vt 0.5161082 0.01842296
vt 0.5204419 0.02913374
vt 0.5273288 0.01766318
vt 0.4959428 0.03904635
vt 0.5273288 0.01766318
vt 0.5319917 0.05292019
vt 0.5366216 0.02688631
vt 0.5204419 0.02913374
vt 0.5319917 0.05292019
vt 0.5273288 0.01766318
vt 0.4762245 0.05292019
vt 0.4646748 0.02913371
vt 0.4762245 0.9769005
vt 0.453125 0.9769005
vt 0.453125 0.05292019
vt 0.5088922 0.05292019
vt 0.4925583 0.02913371
vt 0.5088922 0.9769005
vt 0.4762245 0.9769005
vt 0.4762245 0.05292019
vt 0.5319917 0.9769005
vt 0.5204419 0.02913371
vt 0.5088922 0.9769005
vt 0.5319917 0.05292019
vt 0.5088922 0.05292019
vt 0.546875 0.0357638
vt 0.5473139 0.9643038
vt 0.5825881 0.0357469
vt 0.583027 0.9642869
vt 0.5830439 1
vt 0.6544701 0.9999663
vt 0.5830271 0.9642869
vt 0.6544532 0.9642532
vt 0.6901664 0.9642363
vt 0.6897272 0.03569624
vt 0.6544533 0.9642532
vt 0.6540141 0.03571314
vt 0.6539973 0
vt 0.5825712 3.379583E-05
vt 0.6540142 0.03571311
vt 0.5825881 0.03574687
vt 0.5825879 0.0357469
vt 0.5830271 0.9642869
vt 0.6540141 0.03571311
vt 0.6544533 0.9642532
vt 0.07886663 1
vt 0.07886663 0.9769005
vt 0.05576713 0.9769005
vt 0.06618272 0.00731303
vt 0.06298319 0.01842297
vt 0.07420382 0.01766319
vt 0.06618272 0.00731303
vt 0.04078913 0
vt 0.06298319 0.01842297
vt 0.06298319 0.01842296
vt 0.0673169 0.02913374
vt 0.07420379 0.01766319
vt 0.04281778 0.03904635
vt 0.07420383 0.01766317
vt 0.07886666 0.0529202
vt 0.08349651 0.02688632
vt 0.06731693 0.02913374
vt 0.02309949 0.05292019
vt 0.01154974 0.02913371
vt 0.0230995 0.9769005
vt 1.032629E-08 0.9769005
vt 0 0.05292019
vt 0.05576713 0.05292019
vt 0.03943331 0.02913371
vt 0.05576713 0.9769005
vt 0.02309949 0.9769005
vt 0.02309949 0.05292019
vt 0.07886665 0.9769005
vt 0.06731689 0.02913371
vt 0.05576713 0.9769005
vt 0.07886665 0.05292019
vt 0.05576713 0.05292019
vt 0.4304292 1
vt 0.4304292 0.9769005
vt 0.4073296 0.9769005
vt 0.4177452 0.007313043
vt 0.4145457 0.01842296
vt 0.4257663 0.01766318
vt 0.3923517 0
vt 0.4145457 0.01842296
vt 0.4188794 0.02913374
vt 0.4257663 0.01766318
vt 0.3943803 0.03904635
vt 0.4257663 0.01766318
vt 0.4304292 0.05292019
vt 0.435059 0.02688631
vt 0.4188794 0.02913374
vt 0.374662 0.05292019
vt 0.3631123 0.02913371
vt 0.374662 0.9769005
vt 0.3515625 0.9769005
vt 0.3515625 0.05292019
vt 0.4073296 0.05292019
vt 0.3909958 0.02913371
vt 0.4073296 0.9769005
vt 0.374662 0.9769005
vt 0.374662 0.05292019
vt 0.4304292 0.9769005
vt 0.4188794 0.02913371
vt 0.4073296 0.9769005
vt 0.4304292 0.05292019
vt 0.4073296 0.05292019
vt 0.3171479 1
vt 0.3171479 0.9769005
vt 0.2940484 0.9769005
vt 0.304464 0.007313043
vt 0.3012645 0.01842296
vt 0.3124851 0.01766318
vt 0.2790704 0
vt 0.3012645 0.01842296
vt 0.3055982 0.02913374
vt 0.3124851 0.01766318
vt 0.2810991 0.03904635
vt 0.3124851 0.01766318
vt 0.3171479 0.05292019
vt 0.3217778 0.02688631
vt 0.3055982 0.02913374
vt 0.2613808 0.05292019
vt 0.249831 0.02913371
vt 0.2613808 0.9769005
vt 0.2382813 0.9769005
vt 0.2382813 0.05292019
vt 0.2940484 0.05292019
vt 0.2777146 0.02913371
vt 0.2940484 0.9769005
vt 0.2613808 0.9769005
vt 0.2613808 0.05292019
vt 0.3171479 0.9769005
vt 0.3055982 0.02913371
vt 0.2940484 0.9769005
vt 0.3171479 0.05292019
vt 0.2940484 0.05292019
vt 0.1329304 0.03932989
vt 0.1367013 0.02573633
vt 0.1251414 0.02738598
vt 0.1592244 0.04662395
vt 0.1367013 0.02573633
vt 0.1297393 0.01347968
vt 0.1251414 0.02738598
vt 0.1534703 0
vt 0.1251414 0.02738598
vt 0.1188376 0.06273291
vt 0.1329304 0.03932989
vt 0.1132812 0.03598553
vt 0.1470232 0.06273291
vt 0.1329304 0.03932995
vt 0.1470232 0.9718145
vt 0.1188376 0.9718145
vt 0.1188376 0.06273291
vt 0.1188376 1
vt 0.1188376 0.9859073
vt 0.1329304 0.9859073
vt 0.1188376 0.9718145
vt 0.1470232 0.9718145
vt 0.2150691 0.06273282
vt 0.2009763 0.03932989
vt 0.1868835 0.06273282
vt 0.1868835 0.9718145
vt 0.2009763 0.9718145
vt 0.2150691 0.9718145
vt 0.1868835 0.06273291
vt 0.1669534 0.03932989
vt 0.1470232 0.06273291
vt 0.1868835 0.9718145
vt 0.1669534 0.9718145
vt 0.1470232 0.9718145

g Default_Prototype
usemtl Default_Prototype
usemap Default_Prototype
f 2/2/2 1/1/1 3/3/3
f 4/4/4 2/2/2 3/3/3
f 6/6/6 5/5/5 7/7/7
f 8/8/8 6/6/6 7/7/7
f 10/10/10 9/9/9 11/11/11
f 12/12/12 10/10/10 11/11/11
f 14/14/14 13/13/13 15/15/15
f 16/16/16 14/14/14 15/15/15
f 18/18/18 17/17/17 19/19/19
f 20/20/20 18/18/18 19/19/19
f 22/22/22 21/21/21 23/23/23
f 24/24/24 22/22/22 23/23/23
f 26/26/26 25/25/25 27/27/27
f 29/29/29 28/28/28 30/30/30
f 31/31/31 28/28/28 29/29/29
f 33/33/33 32/32/32 34/34/34
f 35/35/35 32/32/32 33/33/33
f 37/37/37 36/36/36 38/38/38
f 40/40/40 39/39/39 41/41/41
f 43/43/43 42/42/42 44/44/44
f 43/43/43 44/44/44 45/45/45
f 43/43/43 45/45/45 46/46/46
f 48/48/48 47/47/47 49/49/49
f 48/48/48 49/49/49 50/50/50
f 48/48/48 50/50/50 51/51/51
f 53/53/53 52/52/52 54/54/54
f 53/53/53 55/55/55 52/52/52
f 53/53/53 54/54/54 56/56/56
f 58/58/58 57/57/57 59/59/59
f 60/60/60 58/58/58 59/59/59
f 62/62/62 61/61/61 63/63/63
f 64/64/64 62/62/62 63/63/63
f 66/66/66 65/65/65 67/67/67
f 68/68/68 66/66/66 67/67/67
f 70/70/70 69/69/69 71/71/71
f 72/72/72 70/70/70 71/71/71
f 74/74/74 73/73/73 75/75/75
f 76/76/76 74/74/74 75/75/75
f 78/78/78 77/77/77 79/79/79
f 81/81/81 80/80/80 82/82/82
f 84/84/84 83/83/83 85/85/85
f 87/87/87 86/86/86 88/88/88
f 89/89/89 86/86/86 87/87/87
f 91/91/91 90/90/90 92/92/92
f 91/91/91 93/93/93 90/90/90
f 95/95/95 94/94/94 96/96/96
f 95/95/95 96/96/96 97/97/97
f 95/95/95 97/97/97 98/98/98
f 100/100/100 99/99/99 101/101/101
f 100/100/100 101/101/101 102/102/102
f 100/100/100 102/102/102 103/103/103
f 105/105/105 104/104/104 106/106/106
f 105/105/105 107/107/107 104/104/104
f 105/105/105 106/106/106 108/108/108
f 110/110/110 109/109/109 111/111/111
f 113/113/113 112/112/112 114/114/114
f 115/115/115 112/112/112 113/113/113
f 117/117/117 116/116/116 118/118/118
f 119/119/119 116/116/116 117/117/117
f 121/121/121 120/120/120 122/122/122
f 121/121/121 123/123/123 120/120/120
f 125/125/125 124/124/124 126/126/126
f 125/125/125 126/126/126 127/127/127
f 125/125/125 127/127/127 128/128/128
f 130/130/130 129/129/129 131/131/131
f 130/130/130 131/131/131 132/132/132
f 130/130/130 132/132/132 133/133/133
f 135/135/135 134/134/134 136/136/136
f 135/135/135 137/137/137 134/134/134
f 135/135/135 136/136/136 138/138/138
f 140/140/140 139/139/139 141/141/141
f 143/143/143 142/142/142 144/144/144
f 145/145/145 142/142/142 143/143/143
f 147/147/147 146/146/146 148/148/148
f 149/149/149 146/146/146 147/147/147
f 151/151/151 150/150/150 152/152/152
f 151/151/151 153/153/153 150/150/150
f 155/155/155 154/154/154 156/156/156
f 155/155/155 156/156/156 157/157/157
f 155/155/155 157/157/157 158/158/158
f 160/160/160 159/159/159 161/161/161
f 160/160/160 161/161/161 162/162/162
f 160/160/160 162/162/162 163/163/163
f 165/165/165 164/164/164 166/166/166
f 165/165/165 167/167/167 164/164/164
f 165/165/165 166/166/166 168/168/168
f 170/170/170 169/169/169 171/171/171
f 172/172/172 169/169/169 170/170/170
f 174/174/174 173/173/173 175/175/175
f 176/176/176 173/173/173 174/174/174
f 178/178/178 177/177/177 179/179/179
f 178/178/178 180/180/180 177/177/177
f 182/182/182 181/181/181 183/183/183
f 182/182/182 183/183/183 184/184/184
f 182/182/182 184/184/184 185/185/185
f 187/187/187 186/186/186 188/188/188
f 190/190/190 189/189/189 188/188/188
f 189/189/189 187/187/187 188/188/188
f 192/192/192 191/191/191 193/193/193
f 194/194/194 193/193/193 195/195/195
f 191/191/191 196/196/196 195/195/195
f 193/193/193 191/191/191 195/195/195
f 198/198/198 197/197/197 199/199/199
f 197/197/197 200/200/200 201/201/201
f 199/199/199 197/197/197 201/201/201
f 202/202/202 199/199/199 201/201/201
