mtllib ./MetalSpike4.mtl
g MetalSpike4
v -0.0166667 -0.03333282 -2.980232E-08
v -0.0166667 0.01666719 -2.980232E-08
v 0.0333333 0.01666719 -2.980232E-08
v -0.0166667 -0.008332761 -1.642691
v 0.008333301 -0.008332768 -1.632343
v 4.002079E-05 -0.0007506907 -1.658405
v -0.0166667 -0.03333277 -1.540128
v 0.008333301 -0.008332768 -1.632343
v 0.008333301 0.01666723 -1.640899
v 4.002079E-05 -0.0007506907 -1.658405
v 0.0333333 0.01666723 -1.584956
v 4.002079E-05 -0.0007506907 -1.658405
v -0.0166667 0.01666723 -1.595304
v -0.0166667 -0.008332761 -1.642691
v 0.008333301 0.01666723 -1.640899
v -0.0166667 -0.03333277 -1.540128
v -0.0166667 -0.008332761 -1.642691
v -0.0166667 -0.03333282 -2.980232E-08
v -0.0166667 0.01666719 -2.980232E-08
v -0.0166667 0.01666723 -1.595304
v 0.0333333 0.01666723 -1.584956
v 0.008333301 -0.008332768 -1.632343
v 0.0333333 0.01666719 -2.980232E-08
v -0.0166667 -0.03333282 -2.980232E-08
v -0.0166667 -0.03333277 -1.540128
v -0.0166667 0.01666719 -2.980232E-08
v 0.008333301 0.01666723 -1.640899
v 0.0333333 0.01666719 -2.980232E-08
v -0.0166667 0.01666723 -1.595304
v 0.0333333 0.01666723 -1.584956

vn 0 0 1
vn 0 0 1
vn 0 0 1
vn 0.1036888 -0.9625455 -0.2505089
vn 0.1036888 -0.9625455 -0.2505089
vn 0.1303765 -0.9400989 -0.3149854
vn 0.09755491 -0.9669195 -0.2356897
vn 0.9142574 -0.1311816 -0.3833078
vn 0.9142574 -0.1311816 -0.3833078
vn 0.9367834 -0.1133001 -0.3310588
vn 0.9042119 -0.138289 -0.4040755
vn -0.6475186 0.6731253 -0.3572421
vn -0.6475186 0.6731253 -0.3572421
vn -0.6433231 0.6771379 -0.3572389
vn -0.6515222 0.6692554 -0.3572339
vn -0.9999999 0 0
vn -1 0 0
vn -1 0 0
vn -1 0 0
vn -1 0 0
vn 0.7071066 -0.7071068 -1.661989E-08
vn 0.7071068 -0.7071068 -2.061246E-08
vn 0.7071068 -0.7071068 -1.901094E-08
vn 0.7071068 -0.7071067 -2.192949E-08
vn 0.7071067 -0.7071068 -2.565545E-08
vn 1.393076E-08 1 2.291499E-08
vn -2.386279E-09 1 2.305947E-08
vn -1.712888E-08 1 2.296371E-08
vn 4.258859E-08 1 2.33516E-08
vn -5.259581E-08 1 2.350407E-08

vt 0.4304292 1
vt 0.4304292 0.9769005
vt 0.4073296 0.9769005
vt 0.4177452 0.007313043
vt 0.4145457 0.01842296
vt 0.4257663 0.01766318
vt 0.3923517 0
vt 0.4145457 0.01842296
vt 0.4188794 0.02913374
vt 0.4257663 0.01766318
vt 0.3943803 0.03904635
vt 0.4257663 0.01766318
vt 0.4304292 0.05292019
vt 0.435059 0.02688631
vt 0.4188794 0.02913374
vt 0.374662 0.05292019
vt 0.3631123 0.02913371
vt 0.374662 0.9769005
vt 0.3515625 0.9769005
vt 0.3515625 0.05292019
vt 0.4073296 0.05292019
vt 0.3909958 0.02913371
vt 0.4073296 0.9769005
vt 0.374662 0.9769005
vt 0.374662 0.05292019
vt 0.4304292 0.9769005
vt 0.4188794 0.02913371
vt 0.4073296 0.9769005
vt 0.4304292 0.05292019
vt 0.4073296 0.05292019

g Default_Prototype
usemtl Default_Prototype
usemap Default_Prototype
f 2/2/2 1/1/1 3/3/3
f 5/5/5 4/4/4 6/6/6
f 7/7/7 4/4/4 5/5/5
f 9/9/9 8/8/8 10/10/10
f 11/11/11 8/8/8 9/9/9
f 13/13/13 12/12/12 14/14/14
f 13/13/13 15/15/15 12/12/12
f 17/17/17 16/16/16 18/18/18
f 17/17/17 18/18/18 19/19/19
f 17/17/17 19/19/19 20/20/20
f 22/22/22 21/21/21 23/23/23
f 22/22/22 23/23/23 24/24/24
f 22/22/22 24/24/24 25/25/25
f 27/27/27 26/26/26 28/28/28
f 27/27/27 29/29/29 26/26/26
f 27/27/27 28/28/28 30/30/30
